<svg width="479" height="478" viewBox="0 0 479 478" fill="none" xmlns="http://www.w3.org/2000/svg">
<path d="M396.951 190.771L400.04 200.933H410.662H425.867C436.014 200.933 445.489 204.858 452.674 212.043C459.859 219.228 463.782 228.702 463.782 238.848C463.782 259.741 446.762 276.763 425.867 276.763H410.662H400.042L396.952 286.923C393.858 297.096 389.783 306.932 384.762 316.335L379.758 325.706L387.27 333.218L398.03 343.978C398.03 343.978 398.031 343.978 398.031 343.978C405.207 351.155 409.13 360.629 409.13 370.785C409.13 380.947 405.206 390.422 398.034 397.598C398.033 397.598 398.033 397.598 398.033 397.598C398.032 397.6 398.031 397.601 398.03 397.601C390.647 404.978 380.961 408.677 371.214 408.677H371.213C361.466 408.679 351.788 404.98 344.409 397.601L333.649 386.841L326.137 379.329L316.765 384.332C307.361 389.354 297.527 393.43 287.356 396.522L277.193 399.611V410.233V425.438C277.193 435.584 273.269 445.058 266.084 452.243C260.785 457.542 254.164 461.102 246.903 462.586C246.882 462.59 246.861 462.594 246.842 462.598C244.336 463.099 241.787 463.353 239.278 463.353C218.384 463.353 201.363 446.331 201.363 425.438V410.232V399.611L191.202 396.521C181.028 393.428 171.194 389.353 161.79 384.332L152.419 379.328L144.907 386.84L134.147 397.6C134.147 397.6 134.147 397.6 134.147 397.601C126.97 404.776 117.497 408.7 107.341 408.7C97.1759 408.7 87.699 404.774 80.5248 397.601C65.7535 382.816 65.7601 358.745 80.5255 343.979L91.2864 333.219L98.7982 325.707L93.7945 316.336C88.7725 306.932 84.6974 297.097 81.6049 286.926L78.516 276.763H67.8946H52.6884C42.5417 276.763 33.0675 272.839 25.8822 265.653C18.6972 258.469 14.7734 248.995 14.7734 238.848C14.7734 217.955 31.7944 200.933 52.6884 200.933H67.8936H78.5139L81.6042 190.772C84.6974 180.599 88.7725 170.763 93.7937 161.361L98.7975 151.989L91.2857 144.477L80.5255 133.717C73.3492 126.541 69.4255 117.067 69.4255 106.911C69.4255 96.7462 73.3507 87.27 80.5255 80.0944C95.3112 65.3227 119.381 65.3298 134.147 80.0951L144.907 90.856L152.419 98.3678L161.79 93.364C171.195 88.3421 181.029 84.2663 191.2 81.1745L201.363 78.0856V67.4639V52.2587C201.363 42.1128 205.287 32.6389 212.47 25.4539C212.471 25.4536 212.471 25.4533 212.472 25.4529C219.658 18.2677 229.132 14.3438 239.278 14.3438C241.787 14.3438 244.336 14.5967 246.843 15.0986C264.413 18.6762 277.193 34.3299 277.193 52.2587V67.4639V78.0849L287.354 81.1745C297.527 84.267 307.362 88.3428 316.767 93.364L326.138 98.3671L333.649 90.856L344.409 80.0959V80.0951C351.586 72.9195 361.058 68.9958 371.215 68.9958C381.38 68.9958 390.854 72.9203 398.027 80.0929C398.029 80.0937 398.03 80.0951 398.03 80.0959C412.802 94.8801 412.796 118.951 398.03 133.717L387.269 144.477L379.758 151.989L384.761 161.361C389.783 170.765 393.858 180.599 396.951 190.771ZM239.278 357.669C242.63 357.669 245.98 357.528 249.178 357.25C278.803 354.805 306.275 341.396 326.507 319.534L315.989 309.801L326.507 319.534C346.873 297.524 358.098 268.849 358.098 238.848C358.098 208.848 346.873 180.172 326.507 158.164C306.278 136.303 278.804 122.891 249.243 120.453C245.983 120.17 242.634 120.029 239.278 120.029C173.748 120.029 120.457 173.319 120.457 238.849C120.457 304.38 173.748 357.669 239.278 357.669Z" stroke="#D55951" stroke-width="28.6601"/>
</svg>
