<svg width="466" height="426" viewBox="0 0 466 426" fill="none" xmlns="http://www.w3.org/2000/svg">
<path d="M447.376 200.559L437.385 211.962L441.675 215.722L447.379 215.721L447.376 200.559ZM447.377 200.559H432.218V207.431L437.384 211.961L447.377 200.559ZM449.478 208.699L463.533 214.383L463.537 214.37L463.543 214.357L449.478 208.699ZM392.829 213.838V198.676H377.669V213.838H392.829ZM392.829 410.16V425.323C401.201 425.323 407.988 418.534 407.988 410.16H392.829ZM281.482 410.16H266.323C266.323 418.534 273.11 425.323 281.482 425.323V410.16ZM281.482 285.793H296.642C296.642 277.419 289.855 270.63 281.482 270.63V285.793ZM183.971 285.793V270.63C175.598 270.63 168.811 277.419 168.811 285.793H183.971ZM183.971 410.159V425.322C192.343 425.322 199.131 418.533 199.131 410.159H183.971ZM72.6187 410.159H57.4589C57.4589 418.533 64.2461 425.322 72.6187 425.322V410.159ZM72.6187 213.838H87.7783V198.676H72.6187V213.838ZM15.974 208.693L1.91163 214.357L1.91236 214.359L1.91308 214.361L15.974 208.693ZM18.072 200.56V185.397H12.3689L8.08004 189.157L18.072 200.56ZM18.0722 200.56V215.723H23.7747L28.0636 211.964L18.0722 200.56ZM226.654 17.7396L236.645 29.1432L237.018 28.8161L237.368 28.4654L226.654 17.7396ZM226.654 17.7388L219.345 4.45478L217.46 5.49219L215.939 7.01313L226.654 17.7388ZM226.656 17.738L233.964 31.022L235.41 30.2268L236.649 29.1394L226.656 17.738ZM402.929 85.3973L392.95 96.8111L418.089 118.799V85.3973H402.929ZM353.003 41.7287V26.566H312.638L343.023 53.1427L353.003 41.7287ZM402.929 41.7287H418.089V26.566H402.929V41.7287ZM228.806 29.1441L437.385 211.962L457.367 189.155L248.788 6.33693L228.806 29.1441ZM447.376 200.559C447.379 215.721 447.372 215.721 447.364 215.721C447.362 215.721 447.355 215.721 447.35 215.721C447.34 215.721 447.33 215.721 447.321 215.721C447.301 215.721 447.282 215.721 447.262 215.721C447.222 215.721 447.182 215.72 447.14 215.719C447.058 215.718 446.973 215.716 446.886 215.714C446.711 215.707 446.523 215.698 446.325 215.684C445.931 215.657 445.465 215.61 444.944 215.525C443.976 215.367 442.446 215.024 440.728 214.185C438.959 213.322 436.674 211.77 434.858 209.11C432.964 206.337 432.218 203.288 432.218 200.559H462.537C462.537 197.83 461.79 194.781 459.896 192.008C458.08 189.347 455.795 187.796 454.026 186.932C452.307 186.093 450.777 185.749 449.809 185.592C449.288 185.508 448.822 185.46 448.429 185.432C448.23 185.418 448.042 185.41 447.867 185.404C447.78 185.401 447.694 185.399 447.613 185.397C447.572 185.397 447.531 185.397 447.491 185.396C447.472 185.396 447.452 185.396 447.432 185.396C447.423 185.396 447.413 185.396 447.403 185.396C447.398 185.396 447.391 185.396 447.389 185.396C447.381 185.396 447.374 185.396 447.376 200.559ZM437.384 211.961C436.525 211.208 435.541 209.886 435.087 208.016C434.638 206.165 434.864 204.407 435.413 203.042L463.543 214.357C467.096 205.519 464.738 195.617 457.371 189.158L437.384 211.961ZM435.423 203.016C436.645 199.993 439.352 198.676 441.308 198.676V229.001C451.309 229.001 459.975 223.184 463.533 214.383L435.423 203.016ZM441.308 198.676H407.988V229.001H441.308V198.676ZM407.988 198.676H392.829V229.001H407.988V198.676ZM377.669 213.838V229.018H407.988V213.838H377.669ZM377.669 229.018V410.16H407.988V229.018H377.669ZM392.829 394.997H281.482V425.323H392.829V394.997ZM296.642 410.16V300.973H266.323V410.16H296.642ZM296.642 300.973V285.793H266.323V300.973H296.642ZM281.482 270.63H266.324V300.955H281.482V270.63ZM266.324 270.63H199.13V300.955H266.324V270.63ZM199.13 270.63H183.971V300.955H199.13V270.63ZM168.811 285.793V300.973H199.131V285.793H168.811ZM168.811 300.973V410.159H199.131V300.973H168.811ZM183.971 394.997H72.6187V425.322H183.971V394.997ZM87.7783 410.159V229.018H57.4589V410.159H87.7783ZM87.7783 229.018V213.838H57.4589V229.018H87.7783ZM72.6187 198.676H57.4592V229.001H72.6187V198.676ZM57.4592 198.676H24.1453V229.001H57.4592V198.676ZM24.1453 198.676C26.1014 198.676 28.8141 199.996 30.0348 203.025L1.91308 214.361C5.46492 223.176 14.1361 229.001 24.1453 229.001V198.676ZM30.0363 203.029C30.5865 204.396 30.8135 206.157 30.3641 208.012C29.9098 209.885 28.9232 211.21 28.0641 211.963L8.08004 189.157C0.710137 195.618 -1.64565 205.522 1.91163 214.357L30.0363 203.029ZM18.072 215.723H18.0722V185.397H18.072V215.723ZM28.0636 211.964L236.645 29.1432L216.662 6.33603L8.08089 189.156L28.0636 211.964ZM237.368 28.4654L237.369 28.4646L215.939 7.01313L215.938 7.0139L237.368 28.4654ZM233.963 31.0229L233.964 31.022L219.347 4.45393L219.345 4.45478L233.963 31.0229ZM236.649 29.1394C234.363 31.1438 231.082 31.1402 228.804 29.1427L248.788 6.33683C239.631 -1.69055 225.815 -1.69018 216.662 6.33661L236.649 29.1394ZM412.908 73.9833L362.982 30.3147L343.023 53.1427L392.95 96.8111L412.908 73.9833ZM353.003 56.8914H402.929V26.566H353.003V56.8914ZM387.769 41.7287V85.3973H418.089V41.7287H387.769Z" fill="#D55951"/>
</svg>
