<?xml version="1.0" encoding="utf-8"?>
<!-- Generator: Adobe Illustrator 24.0.1, SVG Export Plug-In . SVG Version: 6.00 Build 0)  -->
<svg version="1.1" id="_x31__px" xmlns="http://www.w3.org/2000/svg" xmlns:xlink="http://www.w3.org/1999/xlink" x="0px" y="0px"
	 viewBox="0 0 512 512" style="enable-background:new 0 0 512 512;" xml:space="preserve">
<style type="text/css">
	.st0{fill:#D55951; }
	.st1{fill:#ED6665;}
	.st2{font-family:'MyriadPro-Regular';}
	.st3{font-size:364.6753px;}
</style>
<g>
	<path class="st0" d="M234.7,512c-23.5,0-42.7-19.1-42.7-42.7s19.1-42.7,42.7-42.7s42.7,19.1,42.7,42.7S258.2,512,234.7,512z
		 M234.7,448c-11.8,0-21.3,9.6-21.3,21.3s9.6,21.3,21.3,21.3s21.3-9.6,21.3-21.3S246.4,448,234.7,448z" />
</g>
<g>
	<path class="st0" d="M384,512c-23.5,0-42.7-19.1-42.7-42.7s19.1-42.7,42.7-42.7c23.5,0,42.7,19.1,42.7,42.7S407.5,512,384,512z
		 M384,448c-11.8,0-21.3,9.6-21.3,21.3s9.6,21.3,21.3,21.3s21.3-9.6,21.3-21.3S395.8,448,384,448z"/>
</g>
<g>
	<path class="st0" d="M202.7,192h-80c-5.9,0-10.7-4.8-10.7-10.7s4.8-10.7,10.7-10.7h80c5.9,0,10.7,4.8,10.7,10.7
		S208.6,192,202.7,192z"/>
</g>
<g>
	<path class="st0" d="M407.5,405.3H213.5c-23.8,0-44.9-15.9-51.2-38.7L94.5,129.9c-3.8-13.7-16.4-23.2-30.7-23.2H10.7
		C4.8,106.7,0,101.9,0,96s4.8-10.7,10.7-10.7h53.1c23.8,0,44.9,15.9,51.2,38.7l67.8,236.7c3.8,13.7,16.4,23.2,30.7,23.2h193.9
		c13.4,0,25.5-8.5,30.1-21.2l19.4-53.1c2-5.5,8.1-8.4,13.7-6.4c5.5,2,8.4,8.1,6.4,13.7l-19.4,53.1
		C449.9,391.2,429.7,405.3,407.5,405.3L407.5,405.3z"/>
</g>
<!--<text transform="matrix(1 0 0 1 246.9157 308.3498)" class="st1 st2 st3">0</text>-->
</svg>
