<svg width="362" height="433" viewBox="0 0 362 433" fill="none" xmlns="http://www.w3.org/2000/svg">
<path d="M252.061 32.2406L252.061 32.2403C231.828 12.0166 207.042 1.75 178.452 1.75C149.856 1.75 125.072 12.0166 104.843 32.2437C84.613 52.4708 74.3417 77.2544 74.3417 105.841C74.3417 134.433 84.613 159.217 104.843 179.444L104.843 179.444C125.079 199.668 149.865 209.938 178.452 209.938C207.045 209.938 231.832 199.671 252.065 179.441L251.181 178.557L252.065 179.441C272.291 159.214 282.562 134.433 282.562 105.841C282.562 77.2577 272.294 52.4741 252.061 32.2406ZM356.2 304.141L356.2 304.141C354.458 294.437 352.214 285.255 349.523 276.853L348.333 277.234L349.523 276.853C346.733 268.145 342.948 259.55 338.264 251.317C333.398 242.753 327.669 235.278 321.226 229.116C314.461 222.645 306.194 217.457 296.663 213.68L296.662 213.679C287.137 209.912 276.602 208.011 265.36 208.011C260.601 208.011 256.111 209.997 247.961 215.303L247.96 215.303C242.953 218.568 237.095 222.345 230.555 226.523C225.082 230.009 217.613 233.309 208.31 236.313L208.31 236.313C199.295 239.23 190.152 240.706 181.134 240.706C172.122 240.706 162.979 239.23 153.957 236.313L153.957 236.313C144.663 233.312 137.191 230.012 131.728 226.526C125.25 222.387 119.389 218.61 114.307 215.3C106.163 209.994 101.673 208.008 96.9133 208.008C85.6681 208.008 75.1361 209.912 65.6145 213.683C56.0894 217.453 47.8193 222.642 41.0481 229.12C34.6045 235.285 28.8758 242.756 24.0132 251.317C19.3359 259.55 15.5471 268.141 12.757 276.856L12.7568 276.857C10.0698 285.258 7.82545 294.437 6.08352 304.14C4.35643 313.749 3.18689 322.874 2.60662 331.266C2.03761 339.45 1.75 347.965 1.75 356.567C1.75 379.141 8.93779 397.533 23.1987 411.114L23.1991 411.115C37.2713 424.504 55.8573 431.25 78.332 431.25H283.961C306.43 431.25 325.015 424.504 339.091 411.115L338.229 410.209L339.091 411.115C353.356 397.543 360.543 379.144 360.543 356.564V356.563C360.54 347.932 360.249 339.417 359.677 331.255C359.096 322.883 357.924 313.762 356.2 304.141ZM320.112 391.174L320.974 392.08L320.112 391.174C311.28 399.579 299.512 403.727 283.958 403.727H78.332C62.775 403.727 51.0064 399.579 42.1777 391.177C33.5404 382.957 29.276 371.698 29.276 356.567C29.276 348.593 29.539 340.722 30.0647 333.169L30.0647 333.168C30.5759 325.78 31.6218 317.652 33.1758 309.003C34.7086 300.472 36.6576 292.476 38.9714 285.248C41.1822 278.346 44.1995 271.506 47.9447 264.912C51.5071 258.649 55.5929 253.299 60.0807 249.003L59.2164 248.1L60.0808 249.003C64.2384 245.023 69.5033 241.742 75.7488 239.271L75.2889 238.109L75.7489 239.271C81.3998 237.035 87.7639 235.785 94.6993 235.566C95.5813 236.048 97.0405 236.897 99.2803 238.358L99.2806 238.358C104.429 241.712 110.362 245.539 116.92 249.727L116.921 249.728C124.426 254.512 134.051 258.807 145.493 262.5C157.24 266.298 169.23 268.229 181.137 268.229C193.044 268.229 205.037 266.298 216.778 262.503C228.229 258.803 237.851 254.512 245.366 249.721L245.367 249.72C252.078 245.432 257.845 241.716 262.994 238.357C265.234 236.9 266.693 236.048 267.575 235.566C274.513 235.785 280.877 237.035 286.531 239.271C292.773 241.742 298.038 245.026 302.197 249.003C306.684 253.296 310.77 258.646 314.332 264.915L314.332 264.916C318.081 271.506 321.101 278.35 323.309 285.245C325.626 292.483 327.578 300.476 329.108 309C330.656 317.648 331.704 325.765 332.216 333.128V333.136L332.219 333.172L332.219 333.179C332.748 340.703 333.014 348.571 333.017 356.568C333.014 371.701 328.75 382.957 320.112 391.174ZM124.309 51.7045C139.417 36.598 157.097 29.2728 178.452 29.2728C199.803 29.2728 217.487 36.598 232.599 51.7046C247.707 66.8144 255.036 84.4956 255.036 105.841C255.036 127.192 247.707 144.87 232.598 159.98C217.487 175.09 199.803 182.415 178.452 182.415C157.104 182.415 139.424 175.087 124.309 159.98C109.197 144.874 101.868 127.192 101.868 105.841C101.868 84.4956 109.197 66.8143 124.309 51.7045Z" fill="#D55951" stroke="#D55951" stroke-width="2.5"/>
</svg>
