<svg width="25" height="24" viewBox="0 0 25 24" fill="none" xmlns="http://www.w3.org/2000/svg">
<path d="M14.5336 14.8413L14.7009 14.3701L14.5336 14.8413ZM19.816 13.7137C20.0259 13.5343 20.0505 13.2186 19.871 13.0088C19.6915 12.7989 19.3759 12.7743 19.166 12.9538L19.816 13.7137ZM19.3617 13.746C19.6181 13.8486 19.9091 13.7238 20.0116 13.4674C20.1141 13.211 19.9894 12.92 19.733 12.8175L19.3617 13.746ZM16.8996 12.346L17.0306 11.8635L16.8996 12.346ZM14.9594 12.6453C14.8089 12.8768 14.8746 13.1865 15.1061 13.3371C15.3376 13.4876 15.6473 13.4219 15.7978 13.1904L14.9594 12.6453ZM9.00086 8.06468C8.96188 7.79131 8.70867 7.60128 8.43529 7.64026C8.16191 7.67923 7.97189 7.93245 8.01087 8.20582L9.00086 8.06468ZM6.07978 13.3029C6.09143 13.027 5.87722 12.7939 5.60132 12.7822C5.32542 12.7706 5.09232 12.9848 5.08067 13.2607L6.07978 13.3029ZM10.7657 9.17464C10.5072 9.0777 10.219 9.20874 10.122 9.46731C10.0251 9.72588 10.1561 10.0141 10.4147 10.111L10.7657 9.17464ZM11.7806 11.7943C11.7917 12.0702 12.0244 12.2849 12.3003 12.2738C12.5762 12.2627 12.7909 12.0301 12.7798 11.7542L11.7806 11.7943ZM14.4125 9.00506C14.4335 8.72972 14.2273 8.48948 13.952 8.46846C13.6766 8.44745 13.4364 8.65363 13.4154 8.92897L14.4125 9.00506ZM9.76049 14.6549C9.48528 14.6776 9.28056 14.9191 9.30323 15.1943C9.32591 15.4695 9.56739 15.6742 9.8426 15.6515L9.76049 14.6549ZM13.1417 12.7546C13.1931 13.0155 13.2795 13.552 13.4276 14.0332C13.5023 14.2758 13.6005 14.5326 13.7342 14.7525C13.8633 14.9651 14.0629 15.2048 14.3664 15.3125L14.7009 14.3701C14.7113 14.3739 14.6659 14.3602 14.5887 14.2332C14.5161 14.1136 14.4467 13.9448 14.3834 13.739C14.2555 13.3235 14.1841 12.8723 14.1228 12.5613L13.1417 12.7546ZM14.3664 15.3125C15.2699 15.6332 17.3725 15.8036 19.816 13.7137L19.166 12.9538C16.9901 14.8148 15.262 14.5693 14.7009 14.3701L14.3664 15.3125ZM19.733 12.8175C19.1708 12.5927 17.828 12.0799 17.0306 11.8635L16.7687 12.8286C17.5036 13.028 18.7972 13.5203 19.3617 13.746L19.733 12.8175ZM17.0306 11.8635C16.4322 11.7011 15.9528 11.7893 15.587 12.0077C15.242 12.2138 15.0489 12.5077 14.9594 12.6453L15.7978 13.1904C15.8773 13.0681 15.9659 12.9462 16.0997 12.8663C16.2128 12.7988 16.4094 12.7311 16.7687 12.8286L17.0306 11.8635ZM8.50586 8.13525C8.01087 8.20582 8.01087 8.20583 8.01087 8.20585C8.01087 8.20587 8.01088 8.2059 8.01089 8.20596C8.0109 8.20606 8.01092 8.20623 8.01095 8.20645C8.01102 8.2069 8.01112 8.20758 8.01125 8.2085C8.01151 8.21034 8.0119 8.21312 8.01243 8.21681C8.01347 8.22419 8.01503 8.23523 8.01708 8.24973C8.02116 8.27872 8.02717 8.32155 8.03483 8.37662C8.05014 8.48676 8.07205 8.64585 8.09834 8.84121C8.15095 9.23204 8.22106 9.76746 8.29113 10.3462C8.43285 11.5168 8.56917 12.8239 8.5692 13.4897L9.5692 13.4897C9.56916 12.752 9.42381 11.3818 9.28388 10.226C9.21313 9.64164 9.14241 9.10163 9.0894 8.70781C9.06289 8.51084 9.04079 8.3503 9.0253 8.2389C9.01755 8.1832 9.01146 8.13977 9.0073 8.11021C9.00521 8.09542 9.00361 8.08411 9.00253 8.07645C9.00198 8.07263 9.00157 8.06972 9.00129 8.06775C9.00115 8.06676 9.00104 8.06601 9.00097 8.0655C9.00094 8.06524 9.00091 8.06505 9.00089 8.06491C9.00088 8.06484 9.00087 8.06479 9.00087 8.06475C9.00086 8.06471 9.00086 8.06468 8.50586 8.13525ZM8.5692 13.4897C8.56921 13.6332 8.464 13.8704 8.17516 14.124C7.89928 14.3662 7.53014 14.5538 7.17863 14.6221C6.82459 14.691 6.56146 14.629 6.39667 14.4855C6.23436 14.3442 6.04946 14.0211 6.07978 13.3029L5.08067 13.2607C5.0434 14.1436 5.26082 14.8225 5.74004 15.2397C6.21676 15.6548 6.83434 15.7078 7.36945 15.6038C7.9071 15.4992 8.43555 15.2261 8.83497 14.8754C9.22143 14.5361 9.56923 14.048 9.5692 13.4897L8.5692 13.4897ZM10.4147 10.111C10.6418 10.1961 10.9887 10.4045 11.279 10.714C11.5666 11.0206 11.7644 11.3883 11.7806 11.7943L12.7798 11.7542C12.7511 11.0372 12.4043 10.4519 12.0083 10.0298C11.6151 9.61063 11.1395 9.31476 10.7657 9.17464L10.4147 10.111ZM13.4154 8.92897L13.1337 12.6199L14.1308 12.696L14.4125 9.00506L13.4154 8.92897ZM13.1537 12.5132C12.9858 13.0683 12.073 14.4644 9.76049 14.6549L9.8426 15.6515C12.5776 15.4262 13.828 13.7379 14.1109 12.8027L13.1537 12.5132Z" fill="#898989"/>
<path d="M11.7698 1.48812L8.74976 4.37055L4.47416 4.37055C4.15846 4.37055 3.86227 4.62049 3.86227 4.97733L3.86227 9.03532L0.852105 11.9083C0.602034 12.147 0.602032 12.544 0.852105 12.7827L3.86227 15.6557L3.86227 19.7137C3.86227 20.0705 4.15845 20.3205 4.47416 20.3205H8.74977L11.7698 23.2029C12.0067 23.429 12.3816 23.429 12.6185 23.2029L15.6385 20.3205L19.9141 20.3205C20.2298 20.3205 20.526 20.0705 20.526 19.7137L20.526 15.6557L23.5362 12.7827C23.7863 12.5441 23.7863 12.147 23.5362 11.9083L20.526 9.03532V4.97733C20.526 4.62049 20.2298 4.37055 19.9141 4.37055H15.6385L12.6185 1.48812C12.3816 1.26202 12.0067 1.26202 11.7698 1.48812Z" stroke="#898989"/>
</svg>
