<svg width="447" height="466" viewBox="0 0 447 466" fill="none" xmlns="http://www.w3.org/2000/svg">
<path d="M131.176 302.213L133.24 314.299H145.501H429.455C430.506 314.299 431.593 315.198 431.593 316.595C431.593 317.993 430.506 318.892 429.455 318.892H131.609H131.506L131.404 318.893C130.459 318.907 129.473 318.207 129.271 317.002L129.271 316.999V316.997L81.4821 32.0317L79.4479 19.9029H67.1496H17.1382C16.0865 19.9029 15 19.0043 15 17.6065C15 16.2087 16.0865 15.3103 17.1382 15.3103H81.0415H81.144L81.2466 15.3088C82.1914 15.2954 83.1775 15.9948 83.379 17.2001L83.3849 17.2346L83.3908 17.269L96.7274 94.6809L98.8059 106.746H111.049H428.899H428.922H428.945C429.195 106.745 429.446 106.792 429.686 106.887L429.688 106.888L429.69 106.889C430.742 107.307 431.422 108.629 430.925 109.917C430.924 109.92 430.923 109.923 430.921 109.927L375.365 251.257L375.359 251.272L375.352 251.289C374.994 252.206 374.172 252.701 373.375 252.699H373.353H373.331H139.944H122.719L125.619 269.678L131.176 302.213ZM217.655 410.836C217.655 433.301 199.652 451.277 177.731 451.277C155.81 451.277 137.806 433.301 137.806 410.836C137.806 388.371 155.81 370.395 177.731 370.395C199.652 370.395 217.655 388.371 217.655 410.836ZM296.731 410.836C296.731 388.372 314.736 370.395 336.656 370.395C358.576 370.395 376.581 388.372 376.581 410.836C376.581 433.301 358.576 451.278 336.656 451.278C314.736 451.278 296.731 433.301 296.731 410.836Z" stroke="#2F3741" stroke-width="29.0646"/>
</svg>
