<svg width="17" height="24" viewBox="0 0 17 24" fill="none" xmlns="http://www.w3.org/2000/svg">
<path d="M8.5 1C4.3645 1 1 4.46964 1 8.73438C1 10.1753 1.38704 11.5815 2.11954 12.8015L8.07308 22.6953C8.18712 22.8848 8.38804 23 8.60413 23C8.60579 23 8.60742 23 8.60908 23C8.82704 22.9982 9.02838 22.8795 9.14033 22.6867L14.9421 12.697C15.6342 11.5028 16 10.1325 16 8.73438C16 4.46964 12.6355 1 8.5 1ZM13.8694 12.0351L8.59467 21.1174L3.18196 12.1223C2.57225 11.1069 2.24167 9.93535 2.24167 8.73438C2.24167 5.18043 5.05375 2.28047 8.5 2.28047C11.9462 2.28047 14.7542 5.18043 14.7542 8.73438C14.7542 9.89973 14.4454 11.0413 13.8694 12.0351Z" fill="#D55951"/>
<path d="M8.5 4.86719C6.43225 4.86719 4.75 6.60201 4.75 8.73438C4.75 10.8531 6.40487 12.6016 8.5 12.6016C10.621 12.6016 12.25 10.8298 12.25 8.73438C12.25 6.60201 10.5677 4.86719 8.5 4.86719ZM8.5 11.3211C7.11429 11.3211 5.99167 10.1595 5.99167 8.73438C5.99167 7.3128 7.1215 6.14766 8.5 6.14766C9.8785 6.14766 11.0042 7.3128 11.0042 8.73438C11.0042 10.1387 9.90767 11.3211 8.5 11.3211Z" fill="#D55951"/>
<path d="M8.5 1C4.3645 1 1 4.46964 1 8.73438C1 10.1753 1.38704 11.5815 2.11954 12.8015L8.07308 22.6953C8.18712 22.8848 8.38804 23 8.60413 23C8.60579 23 8.60742 23 8.60908 23C8.82704 22.9982 9.02838 22.8795 9.14033 22.6867L14.9421 12.697C15.6342 11.5028 16 10.1325 16 8.73438C16 4.46964 12.6355 1 8.5 1ZM13.8694 12.0351L8.59467 21.1174L3.18196 12.1223C2.57225 11.1069 2.24167 9.93535 2.24167 8.73438C2.24167 5.18043 5.05375 2.28047 8.5 2.28047C11.9462 2.28047 14.7542 5.18043 14.7542 8.73438C14.7542 9.89973 14.4454 11.0413 13.8694 12.0351Z" stroke="#D55951" stroke-width="0.2"/>
<path d="M8.5 4.86719C6.43225 4.86719 4.75 6.60201 4.75 8.73438C4.75 10.8531 6.40487 12.6016 8.5 12.6016C10.621 12.6016 12.25 10.8298 12.25 8.73438C12.25 6.60201 10.5677 4.86719 8.5 4.86719ZM8.5 11.3211C7.11429 11.3211 5.99167 10.1595 5.99167 8.73438C5.99167 7.3128 7.1215 6.14766 8.5 6.14766C9.8785 6.14766 11.0042 7.3128 11.0042 8.73438C11.0042 10.1387 9.90767 11.3211 8.5 11.3211Z" stroke="#D55951" stroke-width="0.2"/>
</svg>
