<svg id="Layer_1" data-name="Layer 1" xmlns="http://www.w3.org/2000/svg" viewBox="0 0 512 512"><defs><style>.cls-1{fill:#ce2b26;}.cls-2{fill:#fff;}.cls-3{fill:#31b358;}.cls-4{fill:#80c35e;}</style></defs><title>Artboard 1</title><circle class="cls-1" cx="256" cy="256" r="256"/><rect class="cls-2" x="107.64" y="356.39" width="296.72" height="39.61" rx="15.62"/><path class="cls-2" d="M216.76,170.72v-6.44A40.44,40.44,0,0,1,230.24,134c-31.18,5-58.25,19.62-76.61,40-.25.28-.51.55-.78.8-2.69,2.56-5.3,5.21-7.8,8a151.75,151.75,0,0,0-37.63,78.55,19.08,19.08,0,0,0,18.85,22h90.17V172.83A8.15,8.15,0,0,1,216.76,170.72Z"/><path class="cls-2" d="M239.8,211.72a8.32,8.32,0,0,0-7.15,6.93v64.64H247.9V216.4A8.07,8.07,0,0,0,239.8,211.72Z"/><path class="cls-2" d="M270.93,211.72a8.17,8.17,0,0,0-6.83,5.74v65.83h15.25v-66A8.07,8.07,0,0,0,270.93,211.72Z"/><path class="cls-2" d="M404.57,261.16a151.08,151.08,0,0,0-21.1-56.6,153,153,0,0,0-47.88-48.2q-5.05-3.18-10.35-6a138.8,138.8,0,0,0-42.45-15.56,40.47,40.47,0,0,1,12.61,29.47v7a8.22,8.22,0,0,1,.16,1.58V283.29h90.19A19.1,19.1,0,0,0,404.57,261.16Z"/><path class="cls-2" d="M232.65,293.94v9.4a7.64,7.64,0,0,1-7.56,7.73H224a7.65,7.65,0,0,1-7.57-7.73v-9.4H119a11.4,11.4,0,1,0,0,22.79H247.9V293.94Z"/><path class="cls-2" d="M393,293.94h-97.4v9.4a7.65,7.65,0,0,1-7.57,7.73h-1.08a7.64,7.64,0,0,1-7.56-7.73v-9.4H264.1v22.79H393a11.4,11.4,0,1,0,0-22.79Z"/><path class="cls-2" d="M393,324.44H264.1a8.1,8.1,0,1,1-16.2,0H119a11.4,11.4,0,1,0,0,22.79H393a11.4,11.4,0,1,0,0-22.79Z"/><path class="cls-3" d="M257.4,120.94s-11-23.37-49.62-28.77C207.78,92.17,174.88,125.43,257.4,120.94Z"/><path class="cls-3" d="M256.6,120.94S298.44,23,357.88,71.5C357.88,71.5,326,112,256.6,120.94Z"/><path class="cls-4" d="M270.32,107c26.07-23,58.5-35.49,87.32-35.52-56.89-46.06-97.58,42-100.8,49.17A140.87,140.87,0,0,1,270.32,107Z"/></svg>