<svg width="20" height="20" viewBox="0 0 20 20" fill="none" xmlns="http://www.w3.org/2000/svg">
<path d="M17.9526 17.4789H17.9527V14.2726C17.9527 14.0665 17.7845 13.8989 17.579 13.8989C16.3578 13.8989 15.1592 13.7078 14.0159 13.3302L14.0158 13.3302C13.8828 13.2862 13.7355 13.3205 13.6352 13.4193L13.6259 13.4284L13.6254 13.4277L11.293 15.1955C11.1176 15.3284 10.8802 15.3494 10.6856 15.2483C7.88762 13.8149 6.16615 12.0926 4.75164 9.31418L17.9526 17.4789ZM17.9526 17.4789V17.5789M17.9526 17.4789V17.5789M17.9526 17.5789C17.9526 17.7851 17.7844 17.9526 17.5789 17.9526C9.015 17.9526 2.04735 10.985 2.04735 2.42105C2.04735 2.21494 2.21561 2.04735 2.42105 2.04735H5.73686C5.9423 2.04735 6.11056 2.21494 6.11056 2.42105C6.11056 3.641 6.30159 4.83927 6.67612 5.97569C6.71785 6.11119 6.6894 6.25709 6.53643 6.41589L6.53591 6.41539M17.9526 17.5789L6.53591 6.41539M6.53591 6.41539L6.52865 6.425M6.53591 6.41539L6.52865 6.425M6.52865 6.425L4.80443 8.70815L4.80429 8.70833M6.52865 6.425L4.80429 8.70833M4.80429 8.70833C4.67254 8.88364 4.65172 9.11873 4.75155 9.31399L4.80429 8.70833ZM7.76969 5.6246L7.7697 5.6246L7.76921 5.6231C7.43055 4.59689 7.25791 3.51895 7.25791 2.42105C7.25791 1.58234 6.57558 0.9 5.73686 0.9H2.42105C1.58234 0.9 0.9 1.58234 0.9 2.42105C0.9 11.6174 8.38257 19.1 17.5789 19.1C18.4177 19.1 19.1 18.4177 19.1 17.5789V14.2726C19.1 13.4339 18.4177 12.7516 17.5789 12.7516C16.4792 12.7516 15.4025 12.5799 14.3813 12.2424C13.847 12.0586 13.2393 12.1968 12.8784 12.5592L10.8918 14.0595C8.61639 12.8345 7.14967 11.3686 5.93942 9.10828L7.39854 7.16952C7.7992 6.76421 7.94197 6.17569 7.76969 5.6246Z" fill="#D55951" stroke="#D55951" stroke-width="0.2"/>
</svg>
