<svg width="25" height="24" viewBox="0 0 25 24" fill="none" xmlns="http://www.w3.org/2000/svg">
<path d="M22.9612 17.6932H21.8521L22.2246 17.3377C22.5169 17.0566 22.6806 16.6765 22.6798 16.2805C22.679 15.8845 22.5138 15.5049 22.2204 15.2249C21.927 14.9448 21.5292 14.7872 21.1143 14.7864C20.6993 14.7857 20.3009 14.9418 20.0064 15.2208L19.0606 16.1234C18.4925 15.8577 17.8528 15.7642 17.2273 15.8553L13.0847 16.4447L13.456 12.1923C14.0519 12.5723 14.7525 12.7753 15.4692 12.7755C17.438 12.7755 19.0397 11.2758 19.0397 9.43251C19.0397 7.8523 17.8764 6.51595 16.2711 6.17391C16.3005 5.98907 16.3153 5.80238 16.3152 5.61542C16.3152 3.53815 14.5098 1.8482 12.2908 1.8482C11.7314 1.84829 11.1778 1.95751 10.6641 2.16915C10.2855 1.79761 9.83238 1.50262 9.33175 1.30176C8.83111 1.1009 8.29323 0.998283 7.75016 1.00002C5.53097 1.00002 3.72578 2.68997 3.72578 4.7672C3.72596 5.23466 3.81885 5.69787 3.99955 6.13237C2.30162 6.3896 1.00117 7.77152 1.00117 9.43256C1.00117 11.2759 2.60293 12.7756 4.57174 12.7756C5.00211 12.7756 5.42906 12.7026 5.83267 12.56L6.07051 15.2839C5.82102 15.2417 5.56813 15.2205 5.31475 15.2205C5.29024 15.2205 5.26539 15.2211 5.24073 15.2214C4.91663 14.6331 4.4412 14.2522 3.84127 14.1091C3.74067 14.0858 3.6345 14.1014 3.54593 14.1525C3.45736 14.2037 3.39356 14.2862 3.36846 14.382C3.34336 14.4778 3.35898 14.5793 3.41193 14.6641C3.46487 14.749 3.55084 14.8105 3.65108 14.8351C3.94672 14.9089 4.20567 15.0798 4.38243 15.3177C3.68034 15.4658 3.02818 15.779 2.48527 16.229C1.94236 16.6789 1.52592 17.2512 1.27382 17.8938C1.02171 18.5364 0.941947 19.229 1.04177 19.9086C1.1416 20.5881 1.41785 21.2331 1.8454 21.7848C2.27295 22.3365 2.83824 22.7774 3.48987 23.0675C4.14149 23.3576 4.85877 23.4877 5.57648 23.4459C6.29419 23.4041 6.98956 23.1917 7.59935 22.8281C8.20915 22.4645 8.71402 21.9612 9.06806 21.3639L17.2274 22.5251C17.3833 22.5473 17.5407 22.5586 17.6984 22.5586C18.2463 22.5583 18.7843 22.4195 19.2578 22.1563L20.1574 23.015C20.3028 23.1549 20.4758 23.266 20.6663 23.3419C20.8569 23.4179 21.0613 23.4572 21.2678 23.4575C21.4743 23.4579 21.6788 23.4194 21.8697 23.3442C22.0605 23.2689 22.2339 23.1585 22.3799 23.0191C22.526 22.8798 22.6417 22.7143 22.7205 22.5322C22.7994 22.35 22.8398 22.1549 22.8394 21.9578C22.839 21.7607 22.7978 21.5657 22.7183 21.3838C22.6387 21.202 22.5223 21.0369 22.3757 20.8981L22.1545 20.687H22.9612C23.3772 20.687 23.7762 20.5293 24.0704 20.2486C24.3645 19.9679 24.5298 19.5871 24.5298 19.1901C24.5298 18.7931 24.3645 18.4124 24.0704 18.1317C23.7762 17.8509 23.3772 17.6932 22.9612 17.6932ZM20.5608 15.7501C20.7078 15.6098 20.9073 15.5309 21.1153 15.5309C21.3233 15.5309 21.5228 15.6097 21.6699 15.7501C21.817 15.8905 21.8996 16.0808 21.8996 16.2793C21.8996 16.4778 21.817 16.6682 21.6699 16.8086L20.6835 17.7499C20.4744 17.2976 20.1628 16.8952 19.771 16.5718C19.7582 16.5612 19.7448 16.5515 19.7318 16.5411L20.5608 15.7501ZM6.00272 11.6588C5.56842 11.9006 5.07453 12.0277 4.57174 12.0271C3.03542 12.0271 1.78546 10.8632 1.78546 9.43256C1.78546 8.0019 3.03542 6.83792 4.57027 6.83792H4.57634C4.58458 6.8382 4.59286 6.83839 4.60115 6.83848C4.67068 6.83919 4.73916 6.82224 4.79957 6.78936C4.85998 6.75649 4.91014 6.70888 4.94491 6.65142C4.97969 6.59395 4.99782 6.52869 4.99746 6.46233C4.9971 6.39597 4.97825 6.3309 4.94285 6.27378C4.65979 5.81756 4.51024 5.2972 4.50983 4.76701C4.50983 3.10269 5.96346 1.74847 7.75016 1.74847C8.2301 1.74654 8.70457 1.84578 9.13967 2.03909C9.57477 2.2324 9.95978 2.51501 10.2672 2.86675C10.3247 2.93276 10.4042 2.97789 10.4925 2.99459C10.5807 3.01128 10.6723 2.99851 10.7518 2.95843C11.2266 2.72056 11.7548 2.59641 12.291 2.5967C14.0777 2.5967 15.5311 3.95092 15.5311 5.61547C15.5311 5.87467 15.4954 6.13275 15.425 6.3831C15.4103 6.43544 15.4077 6.49021 15.4173 6.54362C15.4269 6.59703 15.4486 6.6478 15.4808 6.69243C15.513 6.73706 15.555 6.77449 15.6039 6.80211C15.6528 6.82973 15.7073 6.8469 15.7638 6.85242C17.1843 6.99131 18.2555 8.10051 18.2555 9.43256C18.2555 10.8632 17.0055 12.0271 15.4692 12.0271C15.0818 12.0277 14.6985 11.9521 14.343 11.8052C13.9876 11.6583 13.6676 11.4431 13.403 11.1731C13.3543 11.1231 13.2922 11.0867 13.2235 11.0679C13.1547 11.0491 13.0819 11.0486 13.0128 11.0665C12.9438 11.0843 12.8812 11.1199 12.8318 11.1693C12.7824 11.2186 12.7481 11.28 12.7326 11.3466C12.4126 12.724 11.081 13.7236 9.56642 13.7236C8.24054 13.7236 7.0616 12.9836 6.56299 11.8382C6.54152 11.7889 6.50922 11.7445 6.46827 11.7081C6.42732 11.6716 6.37867 11.644 6.32559 11.627C6.27251 11.61 6.21623 11.604 6.16054 11.6095C6.10485 11.615 6.05103 11.6318 6.00272 11.6588ZM4.73869 16.0146C4.84926 16.3645 4.91109 16.7268 4.92261 17.0921C4.92267 17.1913 4.96404 17.2865 5.03762 17.3566C5.1112 17.4268 5.21097 17.4662 5.31497 17.4661C5.41897 17.466 5.51869 17.4266 5.59219 17.3563C5.66569 17.2861 5.70695 17.1909 5.70689 17.0917C5.69784 16.7152 5.64269 16.341 5.54259 15.9768C6.33466 16.0251 7.08629 16.3278 7.67516 16.8356C7.25983 16.9545 6.78387 17.1931 6.5326 17.6729C6.49073 17.7528 6.4802 17.8444 6.5029 17.9311L6.70877 18.7179L5.46014 18.2413C5.36664 18.2056 5.26237 18.2056 5.16887 18.2413L3.92048 18.7177L4.12636 17.9309C4.14906 17.8442 4.13852 17.7526 4.09665 17.6727C3.84539 17.1931 3.36942 16.9545 2.95409 16.8354C3.45431 16.4044 4.07373 16.1195 4.73869 16.0146ZM5.31475 22.705C4.67709 22.7054 4.05124 22.5408 3.50381 22.2288C2.95637 21.9167 2.50782 21.4689 2.2059 20.9329C1.90397 20.3969 1.75996 19.7928 1.78918 19.185C1.8184 18.5771 2.01977 17.9881 2.37186 17.4808C2.63322 17.5119 3.09242 17.6075 3.32595 17.9012L2.9736 19.2463C2.95609 19.3131 2.95827 19.3833 2.97989 19.4491C3.00152 19.5148 3.04175 19.5736 3.09616 19.6189C3.15057 19.6643 3.21704 19.6944 3.28824 19.7059C3.35944 19.7175 3.43261 19.7101 3.49967 19.6845L5.31475 18.9916L7.12984 19.6845C7.1969 19.7101 7.27006 19.7175 7.34126 19.7059C7.41246 19.6944 7.47893 19.6643 7.53334 19.6189C7.58775 19.5736 7.62799 19.5148 7.64961 19.4491C7.67124 19.3833 7.67341 19.3131 7.6559 19.2463L7.30356 17.9012C7.42747 17.7455 7.62933 17.6276 7.90569 17.5497C8.02085 17.5177 8.13854 17.4946 8.25759 17.4807C8.6097 17.988 8.8111 18.577 8.84034 19.1849C8.86958 19.7928 8.72557 20.3969 8.42365 20.9329C8.12172 21.4689 7.67317 21.9167 7.12573 22.2288C6.57828 22.5408 5.95242 22.7054 5.31475 22.705ZM8.8935 17.0412C8.40086 16.3438 7.69724 15.8061 6.87637 15.4998L6.68779 13.3401C7.0861 13.722 7.56452 14.0192 8.09167 14.2123L8.0799 14.216L8.46989 15.3326L8.47205 15.3387C8.48715 15.3867 8.5122 15.4312 8.54569 15.4698C8.57918 15.5084 8.62044 15.5401 8.66703 15.5632C8.71362 15.5862 8.76458 15.6001 8.8169 15.6041C8.86922 15.608 8.92183 15.6018 8.97161 15.586C9.0214 15.5702 9.06735 15.5449 9.10674 15.5118C9.14612 15.4787 9.17815 15.4384 9.20092 15.3933C9.22368 15.3482 9.23672 15.2992 9.23927 15.2491C9.24182 15.1991 9.23382 15.1491 9.21575 15.1021L8.98183 14.4324C9.17538 14.4587 9.37063 14.4719 9.56613 14.472C9.80609 14.4718 10.0456 14.4515 10.2818 14.4112L10.0405 15.1021C10.0224 15.1492 10.0144 15.1992 10.017 15.2492C10.0195 15.2992 10.0325 15.3482 10.0553 15.3934C10.0781 15.4385 10.1101 15.4788 10.1495 15.5119C10.1889 15.545 10.2348 15.5702 10.2846 15.586C10.3344 15.6019 10.387 15.608 10.4393 15.6041C10.4916 15.6002 10.5426 15.5863 10.5892 15.5632C10.6358 15.5402 10.677 15.5084 10.7105 15.4699C10.744 15.4313 10.7691 15.3867 10.7842 15.3388L10.7863 15.3327L11.1763 14.2161C11.1838 14.1944 11.1892 14.1722 11.1924 14.1496C11.722 13.9324 12.1957 13.6081 12.5809 13.1989L12.2876 16.5581L8.8935 17.0412ZM19.259 21.2416C19.0005 21.4601 18.6951 21.622 18.3641 21.7158C18.0332 21.8096 17.6847 21.8332 17.3431 21.7848L14.7265 21.4124L14.7262 19.7112C14.7262 19.612 14.6849 19.5168 14.6113 19.4466C14.5378 19.3764 14.4381 19.337 14.3341 19.337C14.2301 19.337 14.1303 19.3764 14.0568 19.4466C13.9832 19.5168 13.9419 19.612 13.9419 19.7112L13.9422 21.3008L9.40172 20.6546C9.73822 19.7031 9.69886 18.6671 9.29104 17.7413L10.8048 17.526V20.0855C10.8048 20.1847 10.8461 20.2799 10.9196 20.3501C10.9932 20.4203 11.0929 20.4597 11.1969 20.4597C11.3009 20.4597 11.4007 20.4203 11.4742 20.3501C11.5477 20.2799 11.5891 20.1847 11.5891 20.0855V17.4144L17.0791 16.6332V18.9628C17.0791 19.062 17.1204 19.1572 17.1939 19.2274C17.2675 19.2976 17.3672 19.337 17.4712 19.337C17.5752 19.337 17.675 19.2976 17.7485 19.2274C17.822 19.1572 17.8633 19.062 17.8633 18.9628V16.5764C18.3801 16.6148 18.8698 16.8121 19.259 17.1387C19.8673 17.639 20.2162 18.3868 20.2162 19.1901C20.2162 19.9934 19.8673 20.7412 19.259 21.2416ZM21.8212 22.4859C21.6741 22.6262 21.4746 22.7051 21.2666 22.7051C21.0586 22.7051 20.8591 22.6262 20.712 22.4859L19.892 21.7033C20.2837 21.347 20.5843 20.9095 20.7704 20.4246L21.8212 21.4274C21.968 21.5679 22.0505 21.7582 22.0505 21.9566C22.0505 22.155 21.968 22.3453 21.8212 22.4858V22.4859ZM22.9612 19.9386H21.3702L20.98 19.5661C21.0168 19.2313 21.004 18.8932 20.9419 18.5619L21.0678 18.4417H22.9612C23.1692 18.4417 23.3687 18.5205 23.5158 18.6609C23.6629 18.8013 23.7455 18.9916 23.7455 19.1901C23.7455 19.3886 23.6629 19.579 23.5158 19.7194C23.3687 19.8597 23.1692 19.9386 22.9612 19.9386Z" fill="#898989"/>
<path d="M17.4712 20.8339C17.6878 20.8339 17.8633 20.6664 17.8633 20.4597C17.8633 20.253 17.6878 20.0855 17.4712 20.0855C17.2546 20.0855 17.0791 20.253 17.0791 20.4597C17.0791 20.6664 17.2546 20.8339 17.4712 20.8339Z" fill="#898989"/>
<path d="M14.4108 17.8471C14.3282 17.8314 14.2425 17.8414 14.1664 17.8757C14.0903 17.9101 14.0277 17.9669 13.988 18.0377C13.9483 18.1086 13.9335 18.1898 13.9459 18.2693C13.9582 18.3488 13.997 18.4224 14.0566 18.4792C14.1161 18.536 14.1933 18.573 14.2766 18.5848C14.3599 18.5966 14.4449 18.5825 14.5192 18.5446C14.5934 18.5067 14.6529 18.447 14.6889 18.3743C14.7249 18.3016 14.7354 18.2198 14.7189 18.141C14.7037 18.0685 14.6663 18.0019 14.6115 17.9496C14.5566 17.8973 14.4868 17.8616 14.4108 17.8471Z" fill="#898989"/>
<path d="M22.9612 17.6932H21.8521L22.2246 17.3377C22.5169 17.0566 22.6806 16.6765 22.6798 16.2805C22.679 15.8845 22.5138 15.5049 22.2204 15.2249C21.927 14.9448 21.5292 14.7872 21.1143 14.7864C20.6993 14.7857 20.3009 14.9418 20.0064 15.2208L19.0606 16.1234C18.4925 15.8577 17.8528 15.7642 17.2273 15.8553L13.0847 16.4447L13.456 12.1923C14.0519 12.5723 14.7525 12.7753 15.4692 12.7755C17.438 12.7755 19.0397 11.2758 19.0397 9.43251C19.0397 7.8523 17.8764 6.51595 16.2711 6.17391C16.3005 5.98907 16.3153 5.80238 16.3152 5.61542C16.3152 3.53815 14.5098 1.8482 12.2908 1.8482C11.7314 1.84829 11.1778 1.95751 10.6641 2.16915C10.2855 1.79761 9.83238 1.50262 9.33175 1.30176C8.83111 1.1009 8.29323 0.998283 7.75016 1.00002C5.53097 1.00002 3.72578 2.68997 3.72578 4.7672C3.72596 5.23466 3.81885 5.69787 3.99955 6.13237C2.30162 6.3896 1.00117 7.77152 1.00117 9.43256C1.00117 11.2759 2.60293 12.7756 4.57174 12.7756C5.00211 12.7756 5.42906 12.7026 5.83267 12.56L6.07051 15.2839C5.82102 15.2417 5.56813 15.2205 5.31475 15.2205C5.29024 15.2205 5.26539 15.2211 5.24073 15.2214C4.91663 14.6331 4.4412 14.2522 3.84127 14.1091C3.74067 14.0858 3.6345 14.1014 3.54593 14.1525C3.45736 14.2037 3.39356 14.2862 3.36846 14.382C3.34336 14.4778 3.35898 14.5793 3.41193 14.6641C3.46487 14.749 3.55084 14.8105 3.65108 14.8351C3.94672 14.9089 4.20567 15.0798 4.38243 15.3177C3.68034 15.4658 3.02818 15.779 2.48527 16.229C1.94236 16.6789 1.52592 17.2512 1.27382 17.8938C1.02171 18.5364 0.941947 19.229 1.04177 19.9086C1.1416 20.5881 1.41785 21.2331 1.8454 21.7848C2.27295 22.3365 2.83824 22.7774 3.48987 23.0675C4.14149 23.3576 4.85877 23.4877 5.57648 23.4459C6.29419 23.4041 6.98956 23.1917 7.59935 22.8281C8.20915 22.4645 8.71402 21.9612 9.06806 21.3639L17.2274 22.5251C17.3833 22.5473 17.5407 22.5586 17.6984 22.5586C18.2463 22.5583 18.7843 22.4195 19.2578 22.1563L20.1574 23.015C20.3028 23.1549 20.4758 23.266 20.6663 23.3419C20.8569 23.4179 21.0613 23.4572 21.2678 23.4575C21.4743 23.4579 21.6788 23.4194 21.8697 23.3442C22.0605 23.2689 22.2339 23.1585 22.3799 23.0191C22.526 22.8798 22.6417 22.7143 22.7205 22.5322C22.7994 22.35 22.8398 22.1549 22.8394 21.9578C22.839 21.7607 22.7978 21.5657 22.7183 21.3838C22.6387 21.202 22.5223 21.0369 22.3757 20.8981L22.1545 20.687H22.9612C23.3772 20.687 23.7762 20.5293 24.0704 20.2486C24.3645 19.9679 24.5298 19.5871 24.5298 19.1901C24.5298 18.7931 24.3645 18.4124 24.0704 18.1317C23.7762 17.8509 23.3772 17.6932 22.9612 17.6932ZM20.5608 15.7501C20.7078 15.6098 20.9073 15.5309 21.1153 15.5309C21.3233 15.5309 21.5228 15.6097 21.6699 15.7501C21.817 15.8905 21.8996 16.0808 21.8996 16.2793C21.8996 16.4778 21.817 16.6682 21.6699 16.8086L20.6835 17.7499C20.4744 17.2976 20.1628 16.8952 19.771 16.5718C19.7582 16.5612 19.7448 16.5515 19.7318 16.5411L20.5608 15.7501ZM6.00272 11.6588C5.56842 11.9006 5.07453 12.0277 4.57174 12.0271C3.03542 12.0271 1.78546 10.8632 1.78546 9.43256C1.78546 8.0019 3.03542 6.83792 4.57027 6.83792H4.57634C4.58458 6.8382 4.59286 6.83839 4.60115 6.83848C4.67068 6.83919 4.73916 6.82224 4.79957 6.78936C4.85998 6.75649 4.91014 6.70888 4.94491 6.65142C4.97969 6.59395 4.99782 6.52869 4.99746 6.46233C4.9971 6.39597 4.97825 6.3309 4.94285 6.27378C4.65979 5.81756 4.51024 5.2972 4.50983 4.76701C4.50983 3.10269 5.96346 1.74847 7.75016 1.74847C8.2301 1.74654 8.70457 1.84578 9.13967 2.03909C9.57477 2.2324 9.95978 2.51501 10.2672 2.86675C10.3247 2.93276 10.4042 2.97789 10.4925 2.99459C10.5807 3.01128 10.6723 2.99851 10.7518 2.95843C11.2266 2.72056 11.7548 2.59641 12.291 2.5967C14.0777 2.5967 15.5311 3.95092 15.5311 5.61547C15.5311 5.87467 15.4954 6.13275 15.425 6.3831C15.4103 6.43544 15.4077 6.49021 15.4173 6.54362C15.4269 6.59703 15.4486 6.6478 15.4808 6.69243C15.513 6.73706 15.555 6.77449 15.6039 6.80211C15.6528 6.82973 15.7073 6.8469 15.7638 6.85242C17.1843 6.99131 18.2555 8.10051 18.2555 9.43256C18.2555 10.8632 17.0055 12.0271 15.4692 12.0271C15.0818 12.0277 14.6985 11.9521 14.343 11.8052C13.9876 11.6583 13.6676 11.4431 13.403 11.1731C13.3543 11.1231 13.2922 11.0867 13.2235 11.0679C13.1547 11.0491 13.0819 11.0486 13.0128 11.0665C12.9438 11.0843 12.8812 11.1199 12.8318 11.1693C12.7824 11.2186 12.7481 11.28 12.7326 11.3466C12.4126 12.724 11.081 13.7236 9.56642 13.7236C8.24054 13.7236 7.0616 12.9836 6.56299 11.8382C6.54152 11.7889 6.50922 11.7445 6.46827 11.7081C6.42732 11.6716 6.37867 11.644 6.32559 11.627C6.27251 11.61 6.21623 11.604 6.16054 11.6095C6.10485 11.615 6.05103 11.6318 6.00272 11.6588ZM4.73869 16.0146C4.84926 16.3645 4.91109 16.7268 4.92261 17.0921C4.92267 17.1913 4.96404 17.2865 5.03762 17.3566C5.1112 17.4268 5.21097 17.4662 5.31497 17.4661C5.41897 17.466 5.51869 17.4266 5.59219 17.3563C5.66569 17.2861 5.70695 17.1909 5.70689 17.0917C5.69784 16.7152 5.64269 16.341 5.54259 15.9768C6.33466 16.0251 7.08629 16.3278 7.67516 16.8356C7.25983 16.9545 6.78387 17.1931 6.5326 17.6729C6.49073 17.7528 6.4802 17.8444 6.5029 17.9311L6.70877 18.7179L5.46014 18.2413C5.36664 18.2056 5.26237 18.2056 5.16887 18.2413L3.92048 18.7177L4.12636 17.9309C4.14906 17.8442 4.13852 17.7526 4.09665 17.6727C3.84539 17.1931 3.36942 16.9545 2.95409 16.8354C3.45431 16.4044 4.07373 16.1195 4.73869 16.0146ZM5.31475 22.705C4.67709 22.7054 4.05124 22.5408 3.50381 22.2288C2.95637 21.9167 2.50782 21.4689 2.2059 20.9329C1.90397 20.3969 1.75996 19.7928 1.78918 19.185C1.8184 18.5771 2.01977 17.9881 2.37186 17.4808C2.63322 17.5119 3.09242 17.6075 3.32595 17.9012L2.9736 19.2463C2.95609 19.3131 2.95827 19.3833 2.97989 19.4491C3.00152 19.5148 3.04175 19.5736 3.09616 19.6189C3.15057 19.6643 3.21704 19.6944 3.28824 19.7059C3.35944 19.7175 3.43261 19.7101 3.49967 19.6845L5.31475 18.9916L7.12984 19.6845C7.1969 19.7101 7.27006 19.7175 7.34126 19.7059C7.41246 19.6944 7.47893 19.6643 7.53334 19.6189C7.58775 19.5736 7.62799 19.5148 7.64961 19.4491C7.67124 19.3833 7.67341 19.3131 7.6559 19.2463L7.30356 17.9012C7.42747 17.7455 7.62933 17.6276 7.90569 17.5497C8.02085 17.5177 8.13854 17.4946 8.25759 17.4807C8.6097 17.988 8.8111 18.577 8.84034 19.1849C8.86958 19.7928 8.72557 20.3969 8.42365 20.9329C8.12172 21.4689 7.67317 21.9167 7.12573 22.2288C6.57828 22.5408 5.95242 22.7054 5.31475 22.705ZM8.8935 17.0412C8.40086 16.3438 7.69724 15.8061 6.87637 15.4998L6.68779 13.3401C7.0861 13.722 7.56452 14.0192 8.09167 14.2123L8.0799 14.216L8.46989 15.3326L8.47205 15.3387C8.48715 15.3867 8.5122 15.4312 8.54569 15.4698C8.57918 15.5084 8.62044 15.5401 8.66703 15.5632C8.71362 15.5862 8.76458 15.6001 8.8169 15.6041C8.86922 15.608 8.92183 15.6018 8.97161 15.586C9.0214 15.5702 9.06735 15.5449 9.10674 15.5118C9.14612 15.4787 9.17815 15.4384 9.20092 15.3933C9.22368 15.3482 9.23672 15.2992 9.23927 15.2491C9.24182 15.1991 9.23382 15.1491 9.21575 15.1021L8.98183 14.4324C9.17538 14.4587 9.37063 14.4719 9.56613 14.472C9.80609 14.4718 10.0456 14.4515 10.2818 14.4112L10.0405 15.1021C10.0224 15.1492 10.0144 15.1992 10.017 15.2492C10.0195 15.2992 10.0325 15.3482 10.0553 15.3934C10.0781 15.4385 10.1101 15.4788 10.1495 15.5119C10.1889 15.545 10.2348 15.5702 10.2846 15.586C10.3344 15.6019 10.387 15.608 10.4393 15.6041C10.4916 15.6002 10.5426 15.5863 10.5892 15.5632C10.6358 15.5402 10.677 15.5084 10.7105 15.4699C10.744 15.4313 10.7691 15.3867 10.7842 15.3388L10.7863 15.3327L11.1763 14.2161C11.1838 14.1944 11.1892 14.1722 11.1924 14.1496C11.722 13.9324 12.1957 13.6081 12.5809 13.1989L12.2876 16.5581L8.8935 17.0412ZM19.259 21.2416C19.0005 21.4601 18.6951 21.622 18.3641 21.7158C18.0332 21.8096 17.6847 21.8332 17.3431 21.7848L14.7265 21.4124L14.7262 19.7112C14.7262 19.612 14.6849 19.5168 14.6113 19.4466C14.5378 19.3764 14.4381 19.337 14.3341 19.337C14.2301 19.337 14.1303 19.3764 14.0568 19.4466C13.9832 19.5168 13.9419 19.612 13.9419 19.7112L13.9422 21.3008L9.40172 20.6546C9.73822 19.7031 9.69886 18.6671 9.29104 17.7413L10.8048 17.526V20.0855C10.8048 20.1847 10.8461 20.2799 10.9196 20.3501C10.9932 20.4203 11.0929 20.4597 11.1969 20.4597C11.3009 20.4597 11.4007 20.4203 11.4742 20.3501C11.5477 20.2799 11.5891 20.1847 11.5891 20.0855V17.4144L17.0791 16.6332V18.9628C17.0791 19.062 17.1204 19.1572 17.1939 19.2274C17.2675 19.2976 17.3672 19.337 17.4712 19.337C17.5752 19.337 17.675 19.2976 17.7485 19.2274C17.822 19.1572 17.8633 19.062 17.8633 18.9628V16.5764C18.3801 16.6148 18.8698 16.8121 19.259 17.1387C19.8673 17.639 20.2162 18.3868 20.2162 19.1901C20.2162 19.9934 19.8673 20.7412 19.259 21.2416ZM21.8212 22.4859C21.6741 22.6262 21.4746 22.7051 21.2666 22.7051C21.0586 22.7051 20.8591 22.6262 20.712 22.4859L19.892 21.7033C20.2837 21.347 20.5843 20.9095 20.7704 20.4246L21.8212 21.4274C21.968 21.5679 22.0505 21.7582 22.0505 21.9566C22.0505 22.155 21.968 22.3453 21.8212 22.4858V22.4859ZM22.9612 19.9386H21.3702L20.98 19.5661C21.0168 19.2313 21.004 18.8932 20.9419 18.5619L21.0678 18.4417H22.9612C23.1692 18.4417 23.3687 18.5205 23.5158 18.6609C23.6629 18.8013 23.7455 18.9916 23.7455 19.1901C23.7455 19.3886 23.6629 19.579 23.5158 19.7194C23.3687 19.8597 23.1692 19.9386 22.9612 19.9386Z" stroke="#898989" stroke-width="0.3"/>
<path d="M17.4712 20.8339C17.6878 20.8339 17.8633 20.6664 17.8633 20.4597C17.8633 20.253 17.6878 20.0855 17.4712 20.0855C17.2546 20.0855 17.0791 20.253 17.0791 20.4597C17.0791 20.6664 17.2546 20.8339 17.4712 20.8339Z" stroke="#898989" stroke-width="0.3"/>
<path d="M14.4108 17.8471C14.3282 17.8314 14.2425 17.8414 14.1664 17.8757C14.0903 17.9101 14.0277 17.9669 13.988 18.0377C13.9483 18.1086 13.9335 18.1898 13.9459 18.2693C13.9582 18.3488 13.997 18.4224 14.0566 18.4792C14.1161 18.536 14.1933 18.573 14.2766 18.5848C14.3599 18.5966 14.4449 18.5825 14.5192 18.5446C14.5934 18.5067 14.6529 18.447 14.6889 18.3743C14.7249 18.3016 14.7354 18.2198 14.7189 18.141C14.7037 18.0685 14.6663 18.0019 14.6115 17.9496C14.5566 17.8973 14.4868 17.8616 14.4108 17.8471Z" stroke="#898989" stroke-width="0.3"/>
</svg>
