<svg width="28" height="28" viewBox="0 0 28 28" fill="none" xmlns="http://www.w3.org/2000/svg">
<path d="M23.8847 17.1767C23.9913 17.4103 24.2263 17.562 24.4838 17.562C24.5779 17.562 24.6696 17.5421 24.7561 17.5028L24.7563 17.5028C25.0865 17.3521 25.2326 16.9611 25.0819 16.6312M23.8847 17.1767L24.0212 17.1144M23.8847 17.1767C23.8847 17.1767 23.8847 17.1767 23.8847 17.1767L24.0212 17.1144M23.8847 17.1767C23.8117 17.0169 23.8059 16.838 23.8669 16.6741L23.8671 16.6737C23.9287 16.5098 24.0506 16.3786 24.2102 16.3056L24.2105 16.3055C24.2969 16.2662 24.3887 16.2464 24.4828 16.2464C24.7397 16.2464 24.9751 16.3967 25.0819 16.6312M24.0212 17.1144C23.9648 16.991 23.9602 16.8534 24.0075 16.7264L24.694 17.3663C24.627 17.3968 24.5564 17.412 24.4838 17.412C24.2852 17.412 24.1034 17.2947 24.0212 17.1144ZM25.0819 16.6312C25.0819 16.6313 25.0819 16.6313 25.0819 16.6313L24.9454 16.6934L25.0818 16.6311C25.0818 16.6311 25.0819 16.6312 25.0819 16.6312ZM25.9009 18.913L25.9009 18.9131C25.9716 19.237 26.0074 19.5242 26.0074 19.7891V26.4922C26.0074 26.6656 25.9372 26.8347 25.8147 26.9573C25.6922 27.0798 25.523 27.15 25.3496 27.15H1.50781C1.1445 27.15 0.85 26.8555 0.85 26.4922V19.7891C0.85 19.1679 1.06197 18.3485 1.46799 17.3463C1.87526 16.3409 2.48309 15.1389 3.28691 13.7483C4.24773 12.086 5.21939 10.6262 5.54727 10.1411V4.42773C5.54727 2.45481 7.15208 0.85 9.125 0.85H23.5723C25.5452 0.85 27.15 2.45481 27.15 4.42773C27.15 6.40066 25.5452 8.00547 23.5723 8.00547H21.3102V10.1412C21.7004 10.7178 22.9234 12.5567 24.0215 14.546L24.0215 14.5462C24.1966 14.8639 24.0808 15.2642 23.7638 15.4398L23.7631 15.4402C23.6661 15.4933 23.5566 15.5216 23.4463 15.5216C23.2065 15.5216 22.9855 15.3915 22.8696 15.1815M25.9009 18.913L23.001 15.1091M25.9009 18.913C25.8686 18.7656 25.7858 18.6328 25.6678 18.5391L25.9009 18.913ZM22.8696 15.1815L23.001 15.1091M22.8696 15.1815C22.8696 15.1815 22.8696 15.1815 22.8696 15.1815L23.001 15.1091M22.8696 15.1815C22.0647 13.723 21.1773 12.3287 20.6512 11.5255M23.001 15.1091C22.175 13.6125 21.2631 12.1842 20.7411 11.389C20.7116 11.4336 20.6816 11.4791 20.6512 11.5255M20.6512 11.5255C19.927 12.6282 18.9486 14.206 18.1352 15.7397C17.7058 16.5494 17.3237 17.3442 17.0494 18.0488C16.7734 18.7577 16.6129 19.3596 16.6129 19.7891V25.2814M20.6512 11.5255L16.6129 25.2814M16.6129 25.2814L19.9945 23.0879V17.7578C19.9945 17.3945 20.289 17.1 20.6523 17.1C21.0156 17.1 21.3102 17.3945 21.3102 17.7578V23.0879L24.6918 25.2814V19.7891C24.6918 19.6306 24.6664 19.4256 24.6156 19.1952L24.6155 19.1949C24.5781 19.0236 24.6097 18.8469 24.7043 18.6992C24.7989 18.5513 24.9461 18.449 25.1174 18.4116C25.1175 18.4116 25.1175 18.4116 25.1175 18.4116L25.1495 18.5581C25.2978 18.5256 25.4557 18.5622 25.5746 18.6566L16.6129 25.2814ZM2.16562 19.7891C2.16562 19.3124 2.36311 18.6255 2.69409 17.8189C3.02293 17.0176 3.47578 16.1162 3.9702 15.2173C4.95894 13.4197 6.10798 11.643 6.74653 10.7173C6.8223 10.6075 6.86289 10.4772 6.86289 10.3438V8.00547H7.2207C7.58401 8.00547 7.87852 7.71096 7.87852 7.34766C7.87852 6.98435 7.58401 6.68984 7.2207 6.68984H6.86289V4.42773C6.86289 3.18057 7.87783 2.16562 9.125 2.16562H20.8023C20.2978 2.78234 19.9945 3.5703 19.9945 4.42773V6.68984H9.50586C9.14255 6.68984 8.84805 6.98435 8.84805 7.34766C8.84805 7.71096 9.14255 8.00547 9.50586 8.00547H19.9945V10.1411C19.6667 10.6262 18.695 12.086 17.7342 13.7483C16.9304 15.1389 16.3225 16.3409 15.9153 17.3463C15.5092 18.3485 15.2973 19.1679 15.2973 19.7891V25.8344H2.16562V19.7891ZM18.178 25.8344L20.6523 24.2294L23.1267 25.8344H18.178ZM21.3102 6.68984V5.08555H22.1836C22.0819 5.33316 22.0258 5.60409 22.0258 5.8877C22.0258 6.1705 22.0808 6.44161 22.1817 6.68984H21.3102ZM24.1436 3.76992H21.4081C21.6906 2.84236 22.5541 2.16562 23.5723 2.16562C24.8194 2.16562 25.8344 3.18057 25.8344 4.42773C25.8344 5.55241 25.0087 6.48836 23.9316 6.66104C23.5852 6.56743 23.3414 6.25504 23.3414 5.8877C23.3414 5.44551 23.7014 5.08555 24.1436 5.08555C24.5069 5.08555 24.8014 4.79104 24.8014 4.42773C24.8014 4.06443 24.5069 3.76992 24.1436 3.76992Z" fill="#898989" stroke="#898989" stroke-width="0.3"/>
</svg>
