<svg width="34" height="34" viewBox="0 0 34 34" fill="none" xmlns="http://www.w3.org/2000/svg">
<path d="M25.2031 16.3203C24.7548 16.3203 24.3192 16.2014 23.9367 15.9873C24.4437 15.3546 24.8639 14.6521 25.1838 13.8957C25.5925 12.9294 25.2965 11.8416 24.5279 11.205C24.7453 11.1468 24.9708 11.1172 25.2031 11.1172C26.6853 11.1172 27.8594 12.3042 27.8594 13.7188C27.8594 15.1333 26.6853 16.3203 25.2031 16.3203ZM21.1574 9.5869C21.2705 10.1443 21.5712 10.6081 21.9763 10.9331C21.5136 11.1734 21.1287 11.5703 20.9098 12.088C20.2602 13.6239 18.7443 14.6797 17 14.6797C15.2637 14.6797 13.7429 13.6311 13.0902 12.088L13.0902 12.088C12.8713 11.5704 12.4864 11.1735 12.0235 10.9331C12.4289 10.6078 12.7297 10.1438 12.8427 9.58679L11.3727 9.28852L12.8427 9.58679C13.2499 7.58001 15.0122 6.14062 17 6.14062C18.9878 6.14062 20.7501 7.58 21.1574 9.58686L21.1574 9.5869ZM8.79688 11.1172C9.02914 11.1172 9.2547 11.1468 9.47211 11.205C8.70351 11.8415 8.40747 12.9294 8.81617 13.8957L8.81618 13.8957C9.13608 14.6521 9.55632 15.3545 10.0633 15.9873C9.68075 16.2014 9.24522 16.3203 8.79688 16.3203C7.31473 16.3203 6.14062 15.1333 6.14062 13.7188C6.14062 12.3042 7.31473 11.1172 8.79688 11.1172ZM25.2031 6.47656C25.1216 6.47656 25.0402 6.47791 24.959 6.4806C23.4878 3.50255 20.4325 1.5 17 1.5C13.5675 1.5 10.5122 3.50255 9.04101 6.48061C8.95976 6.47791 8.87838 6.47656 8.79688 6.47656C4.78545 6.47656 1.5 9.71071 1.5 13.7188C1.5 16.9183 3.59358 19.6228 6.47656 20.5849V20.5913V20.6098V20.6284V20.6471V20.6658V20.6847V20.7038V20.7229V20.7421V20.7614V20.7808V20.8004V20.82V20.8397V20.8595V20.8795V20.8995V20.9196V20.9398V20.9602V20.9806V21.0011V21.0217V21.0424V21.0632V21.0841V21.105V21.1261V21.1472V21.1685V21.1898V21.2112V21.2327V21.2543V21.276V21.2977V21.3196V21.3415V21.3635V21.3856V21.4077V21.43V21.4523V21.4747V21.4971V21.5197V21.5423V21.565V21.5878V21.6106V21.6336V21.6565V21.6796V21.7027V21.7259V21.7492V21.7725V21.796V21.8194V21.843V21.8666V21.8902V21.9139V21.9377V21.9616V21.9855V22.0095V22.0335V22.0576V22.0817V22.1059V22.1302V22.1545V22.1789V22.2033V22.2278V22.2523V22.2769V22.3015V22.3262V22.3509V22.3757V22.4005V22.4254V22.4503V22.4753V22.5003V22.5254V22.5504V22.5756V22.6008V22.626V22.6512V22.6765V22.7019V22.7273V22.7527V22.7781V22.8036V22.8291V22.8547V22.8803V22.9059V22.9315V22.9572V22.9829V23.0086V23.0344V23.0602V23.086V23.1119V23.1377V23.1636V23.1896V23.2155V23.2415V23.2675V23.2935V23.3195V23.3455V23.3716V23.3977V23.4238V23.4499V23.476V23.5022V23.5283V23.5545V23.5807V23.6069V23.6331V23.6593V23.6855V23.7118V23.738V23.7642V23.7905V23.8167V23.843V23.8693V23.8955V23.9218V23.9481V23.9744V24.0006V24.0269V24.0532V24.0794V24.1057V24.132V24.1582V24.1845V24.2107V24.237V24.2632V24.2894V24.3156V24.3418V24.368V24.3942V24.4203V24.4465V24.4726V24.4988V24.5249V24.551V24.577V24.6031V24.6291V24.6551V24.6811V24.7071V24.7331V24.759V24.7849V24.8108V24.8366V24.8625V24.8883V24.9141V24.9398V24.9655V24.9912V25.0169V25.0425V25.0681V25.0937V25.1192V25.1447V25.1702V25.1956V25.221V25.2464V25.2717V25.297V25.3222V25.3474V25.3726V25.3977V25.4228V25.4478V25.4728V25.4977V25.5226V25.5475V25.5723V25.597V25.6217V25.6464V25.671V25.6956V25.7201V25.7445V25.7689V25.7933V25.8175V25.8418V25.8659V25.8901V25.9141V25.9381V25.9621V25.986V26.0098V26.0335V26.0572V26.0809V26.1044V26.1279V26.1514V26.1747V26.198V26.2213V26.2444V26.2675V26.2906V26.3135V26.3364V26.3592V26.382V26.4046V26.4272V26.4497V26.4722V26.4945V26.5168V26.539V26.5611V26.5832V26.6051V26.627V26.6488V26.6705V26.6921V26.7137V26.7351V26.7565V26.7778V26.799V26.8201V26.8411V26.862V26.8829V26.9036V26.9243V26.9448V26.9653V26.9856V27.0059V27.0261V27.0462V27.0661V27.086V27.1058V27.1255V27.1451V27.1645V27.1839V27.2032V27.2223V27.2414V27.2604V27.2792V27.2979V27.3166V27.3351V27.3535V27.3718V27.39V27.4081V27.4261V27.4439V27.4617V27.4793V27.4968V27.5142V27.5315V27.5486V27.5656V27.5826V27.5994V27.616V27.6326V27.649V27.6653V27.6815V27.6976V27.7135V27.7293V27.745V27.7605V27.776V27.7912V27.8064V27.8214V27.8363V27.8511V27.8657V27.8802V27.8946V27.9088V27.9229V27.9368V27.9507V27.9643V27.9779V27.9913V28.0045V28.0176V28.0306V28.0434V28.0561V28.0686V28.081V28.0932V28.1053V28.1173V28.1291V28.1407V28.1522V28.1636V28.1747V28.1858V28.1967V28.2074V28.218V28.2284V28.2387V28.2488V28.2587V28.2685V28.2781V28.2876V28.2969V28.306V28.315V28.3238V28.3325V28.341V28.3493V28.3574V28.3654V28.3732V28.3809V28.3884V28.3957V28.4028V28.4098V28.4166V28.4232V28.4296V28.4359V28.442V28.4479V28.4537V28.4592V28.4646V28.4698V28.4748V28.4796V28.4843V28.4888V28.4931V28.4972V28.5011V28.5048V28.5084V28.5117V28.5149V28.5179V28.5207V28.5233V28.5257V28.5279V28.5299V28.5317V28.5334V28.5348V28.5361V28.5371V28.538V28.5386V28.5391C6.47656 30.7244 8.25211 32.5 10.4375 32.5H23.5625C25.7479 32.5 27.5234 30.7244 27.5234 28.5391V28.5386V28.538V28.5371V28.5361V28.5348V28.5334V28.5317V28.5299V28.5279V28.5257V28.5233V28.5207V28.5179V28.5149V28.5117V28.5084V28.5048V28.5011V28.4972V28.4931V28.4888V28.4843V28.4796V28.4748V28.4698V28.4646V28.4592V28.4536V28.4479V28.442V28.4359V28.4296V28.4232V28.4166V28.4098V28.4028V28.3957V28.3884V28.3809V28.3732V28.3654V28.3574V28.3493V28.341V28.3325V28.3238V28.315V28.306V28.2969V28.2876V28.2781V28.2685V28.2587V28.2487V28.2386V28.2284V28.218V28.2074V28.1967V28.1858V28.1747V28.1635V28.1522V28.1407V28.129V28.1173V28.1053V28.0932V28.081V28.0686V28.0561V28.0434V28.0306V28.0176V28.0045V27.9912V27.9778V27.9643V27.9506V27.9368V27.9229V27.9088V27.8945V27.8802V27.8657V27.8511V27.8363V27.8214V27.8064V27.7912V27.7759V27.7605V27.7449V27.7293V27.7135V27.6975V27.6815V27.6653V27.649V27.6325V27.616V27.5993V27.5825V27.5656V27.5486V27.5314V27.5141V27.4967V27.4792V27.4616V27.4439V27.426V27.408V27.39V27.3718V27.3535V27.335V27.3165V27.2979V27.2791V27.2603V27.2413V27.2223V27.2031V27.1838V27.1645V27.145V27.1254V27.1057V27.0859V27.0661V27.0461V27.026V27.0058V26.9856V26.9652V26.9447V26.9242V26.9035V26.8828V26.8619V26.841V26.82V26.7989V26.7777V26.7564V26.735V26.7136V26.692V26.6704V26.6487V26.6269V26.605V26.5831V26.561V26.5389V26.5167V26.4944V26.4721V26.4496V26.4271V26.4045V26.3819V26.3591V26.3363V26.3134V26.2905V26.2674V26.2443V26.2212V26.1979V26.1746V26.1513V26.1278V26.1043V26.0807V26.0571V26.0334V26.0097V25.9858V25.962V25.938V25.914V25.8899V25.8658V25.8417V25.8174V25.7931V25.7688V25.7444V25.7199V25.6954V25.6709V25.6463V25.6216V25.5969V25.5721V25.5473V25.5225V25.4976V25.4727V25.4477V25.4226V25.3976V25.3724V25.3473V25.3221V25.2968V25.2716V25.2462V25.2209V25.1955V25.1701V25.1446V25.1191V25.0936V25.068V25.0424V25.0167V24.9911V24.9654V24.9397V24.9139V24.8881V24.8623V24.8365V24.8106V24.7847V24.7588V24.7329V24.7069V24.681V24.655V24.629V24.6029V24.5769V24.5508V24.5247V24.4986V24.4725V24.4463V24.4202V24.394V24.3678V24.3416V24.3154V24.2892V24.263V24.2368V24.2105V24.1843V24.158V24.1318V24.1055V24.0793V24.053V24.0267V24.0004V23.9742V23.9479V23.9216V23.8954V23.8691V23.8428V23.8166V23.7903V23.764V23.7378V23.7116V23.6853V23.6591V23.6329V23.6067V23.5805V23.5543V23.5281V23.502V23.4758V23.4497V23.4236V23.3975V23.3714V23.3453V23.3193V23.2933V23.2672V23.2413V23.2153V23.1894V23.1634V23.1375V23.1117V23.0858V23.06V23.0342V23.0084V22.9827V22.957V22.9313V22.9057V22.88V22.8545V22.8289V22.8034V22.7779V22.7525V22.727V22.7017V22.6763V22.651V22.6258V22.6005V22.5754V22.5502V22.5251V22.5001V22.4751V22.4501V22.4252V22.4003V22.3755V22.3507V22.326V22.3013V22.2767V22.2521V22.2276V22.2031V22.1787V22.1543V22.13V22.1057V22.0815V22.0574V22.0333V22.0093V21.9853V21.9614V21.9375V21.9137V21.89V21.8663V21.8427V21.8192V21.7957V21.7723V21.749V21.7257V21.7025V21.6794V21.6563V21.6333V21.6104V21.5876V21.5648V21.5421V21.5195V21.4969V21.4745V21.4521V21.4297V21.4075V21.3853V21.3633V21.3413V21.3193V21.2975V21.2758V21.2541V21.2325V21.211V21.1896V21.1683V21.147V21.1259V21.1048V21.0838V21.063V21.0422V21.0215V21.0009V20.9804V20.96V20.9396V20.9194V20.8993V20.8793V20.8593V20.8395V20.8198V20.8002V20.7806V20.7612V20.7419V20.7227V20.7036V20.6845V20.6656V20.6469V20.6282V20.6096V20.5911V20.5849C30.4064 19.6228 32.5 16.9183 32.5 13.7188C32.5 9.71071 29.2146 6.47656 25.2031 6.47656ZM22.6016 24.5781V21.9219C22.6016 20.6404 21.5627 19.6016 20.2812 19.6016C18.9998 19.6016 17.9609 20.6404 17.9609 21.9219V24.5781H16.0391V21.9219C16.0391 20.6404 15.0002 19.6016 13.7188 19.6016C12.4373 19.6016 11.3984 20.6404 11.3984 21.9219V24.5781H11.1172V20.5756C12.1915 20.2101 13.1688 19.5967 13.965 18.7884C14.9309 19.1395 15.9551 19.3203 17 19.3203C18.0449 19.3203 19.0691 19.1395 20.035 18.7884C20.8312 19.5968 21.8085 20.2101 22.8828 20.5756V24.5781H22.6016Z" fill="grey" stroke="white" stroke-width="3"/>
</svg>
