<svg width="30" height="30" viewBox="0 0 514 398" fill="none" xmlns="http://www.w3.org/2000/svg">
    <path d="M494.048 350.028L493.637 349.743L494.048 350.027C506.773 331.647 513.5 310.08 513.5 287.661C513.5 246.477 490.682 210.529 457.031 191.779V24.0118C457.031 11.1316 446.553 0.654785 433.674 0.654785H23.857C10.9779 0.654785 0.5 11.1326 0.5 24.0118V287.982C0.5 300.862 10.9779 311.339 23.857 311.339H69.062C73.4811 311.339 77.062 307.758 77.062 303.339C77.062 298.92 73.4811 295.339 69.062 295.339H23.857C19.8001 295.339 16.5 292.039 16.5 287.982V120.465H441.031V184.478C429.405 180.272 416.873 177.976 403.815 177.976C376.584 177.976 351.641 187.953 332.445 204.44H285.695C281.276 204.44 277.695 208.021 277.695 212.44C277.695 216.859 281.276 220.44 285.695 220.44H317.204C302.75 239.02 294.131 262.352 294.131 287.661C294.131 290.242 294.223 292.802 294.4 295.34H99.049C94.6299 295.34 91.049 298.921 91.049 303.34C91.049 307.759 94.6299 311.34 99.049 311.34H296.714C307.569 360.475 351.462 397.346 403.815 397.346C428.819 397.346 452.373 389.146 471.928 373.635C475.389 370.889 475.969 365.856 473.224 362.395C470.479 358.935 465.448 358.354 461.984 361.099L462.295 361.491L461.984 361.099C445.287 374.345 425.174 381.345 403.816 381.345C352.159 381.345 310.132 339.318 310.132 287.66C310.132 236.002 352.159 193.975 403.816 193.975C455.474 193.975 497.501 236.002 497.501 287.66C497.501 306.81 491.759 325.227 480.894 340.918C478.379 344.55 479.284 349.535 482.916 352.05C486.549 354.566 491.533 353.658 494.048 350.028ZM435.108 245.055L435.461 245.409L435.107 245.055L403.816 276.347L372.525 245.055L372.171 245.409L372.524 245.055C369.399 241.932 364.335 241.932 361.211 245.055L361.564 245.409L361.21 245.055C358.086 248.18 358.086 253.245 361.21 256.369L392.502 287.661L361.21 318.952L361.564 319.306L361.21 318.952C358.086 322.078 358.086 327.142 361.21 330.266L361.564 329.913L361.211 330.266C364.337 333.391 369.4 333.39 372.524 330.266L372.171 329.913L372.525 330.266L403.816 298.975L435.107 330.266L435.461 329.913L435.108 330.266C438.234 333.391 443.297 333.39 446.421 330.266L446.068 329.913L446.422 330.266C449.546 327.141 449.546 322.077 446.422 318.952L415.13 287.661L446.422 256.369L446.068 256.016L446.422 256.369C449.546 253.244 449.546 248.18 446.422 245.055L446.068 245.409L446.421 245.055C443.296 241.932 438.232 241.932 435.108 245.055ZM186.411 231.317C186.411 220.344 178.672 210.816 166.032 204.059C153.381 197.296 135.726 193.247 115.633 193.247C95.5405 193.247 77.8851 197.296 65.2339 204.059C52.594 210.816 44.855 220.344 44.855 231.317C44.855 242.29 52.594 251.818 65.2339 258.575C77.8851 265.338 95.5405 269.387 115.633 269.387C135.726 269.387 153.381 265.338 166.032 258.575C178.672 251.818 186.411 242.29 186.411 231.317ZM60.854 231.317C60.854 229.145 62.0709 226.675 64.532 224.164C66.9855 221.661 70.6296 219.165 75.3616 216.95C84.8227 212.522 98.5677 209.247 115.632 209.247C132.696 209.247 146.441 212.522 155.902 216.951C160.634 219.165 164.279 221.661 166.732 224.164C169.193 226.676 170.41 229.145 170.41 231.317C170.41 233.488 169.193 235.958 166.732 238.469C164.279 240.973 160.634 243.468 155.902 245.683C146.441 250.111 132.696 253.387 115.632 253.387C98.5677 253.387 84.8227 250.112 75.3616 245.683C70.6296 243.469 66.9855 240.973 64.532 238.47C62.0709 235.958 60.854 233.488 60.854 231.317ZM358.223 175.591C362.642 175.591 366.223 172.01 366.223 167.591C366.223 163.172 362.642 159.591 358.223 159.591H212.491C208.072 159.591 204.491 163.172 204.491 167.591C204.491 172.01 208.072 175.591 212.491 175.591H358.223ZM16.5 104.465V79.9118H343.229C347.648 79.9118 351.229 76.3309 351.229 71.9118C351.229 67.4927 347.648 63.9118 343.229 63.9118H16.5V24.0118C16.5 19.9549 19.8001 16.6548 23.857 16.6548H433.673C437.73 16.6548 441.03 19.9549 441.03 24.0118V63.9118H373.215C368.796 63.9118 365.215 67.4927 365.215 71.9118C365.215 76.3309 368.796 79.9118 373.215 79.9118H441.03V104.465H16.5Z" fill="#969696" stroke="#969696"/>
</svg>
