<svg width="23" height="24" viewBox="0 0 23 24" fill="none"  xmlns="http://www.w3.org/2000/svg">
<path d="M7.95911 13.7515H19.2431H7.95911ZM7.95911 13.7515L7.93755 13.6253L7.19825 13.7515V14.5015H7.32635L7.48504 15.4306H22.1397C22.6148 15.4306 23 15.8195 23 16.2992C23 16.7788 22.6148 17.1677 22.1397 17.1677H6.76808C6.34373 17.1737 5.97842 16.8663 5.90773 16.4439L7.95911 13.7515ZM6.74574 15.5569L6.85227 16.1806H7.48504H22.1397C22.1939 16.1806 22.25 16.227 22.25 16.2992C22.25 16.3713 22.1939 16.4177 22.1397 16.4177H6.76808V16.4176L6.75748 16.4177C6.70875 16.4184 6.65786 16.3823 6.64745 16.3201L6.6474 16.3199L4.18107 1.61307L4.07609 0.987109H3.4414H0.860349C0.806071 0.987109 0.75 0.940737 0.75 0.868598C0.75 0.796458 0.806071 0.750086 0.860349 0.750086H4.15835V0.750161L4.16895 0.750011C4.21769 0.749323 4.26858 0.785418 4.27899 0.847624L4.27898 0.847626L4.27959 0.851179L4.96787 4.84633L5.07514 5.469H5.70698L22.111 5.469L22.1133 5.469C22.1263 5.46896 22.1392 5.47139 22.1516 5.47631L22.1518 5.47638C22.2061 5.49799 22.2412 5.56622 22.2155 5.63268C22.2155 5.63284 22.2154 5.633 22.2153 5.63316L19.3481 12.9271L19.3475 12.9287C19.329 12.9761 19.2866 13.0016 19.2454 13.0015H19.2431H7.19825H6.3093L6.45896 13.8778L6.74574 15.5569ZM11.2089 21.1628C11.2089 22.3222 10.2797 23.25 9.1484 23.25C8.01709 23.25 7.08792 22.3222 7.08792 21.1628C7.08792 20.0034 8.01709 19.0757 9.1484 19.0757C10.2797 19.0757 11.2089 20.0034 11.2089 21.1628ZM15.2899 21.1629C15.2899 20.0035 16.2191 19.0757 17.3504 19.0757C18.4817 19.0757 19.4109 20.0035 19.4109 21.1629C19.4109 22.3222 18.4817 23.25 17.3504 23.25C16.2191 23.25 15.2899 22.3222 15.2899 21.1629Z" stroke="#CE2B26" stroke-width="1.5"/>
</svg>
