<svg width="25" height="25" viewBox="0 0 25 25" fill="none" xmlns="http://www.w3.org/2000/svg">
<path d="M20.9139 10.5156L20.7522 9.98375C20.5904 9.45138 20.3771 8.93667 20.1142 8.44449L19.8524 7.95403L20.2455 7.56088L20.8087 6.9977C21.5815 6.22489 21.5818 4.96507 20.8087 4.19129L20.9139 10.5156ZM20.9139 10.5156H21.4698M20.9139 10.5156H21.4698M21.4698 10.5156H22.2656C22.7967 10.5156 23.2925 10.721 23.6686 11.0971C24.0446 11.4731 24.25 11.969 24.25 12.5C24.25 13.5935 23.3592 14.4843 22.2656 14.4843H21.4698H20.914L20.7523 15.0161C20.5904 15.5485 20.3771 16.0633 20.1143 16.5555L19.8524 17.0459L20.2455 17.4391L20.8087 18.0022C21.1843 18.3778 21.3896 18.8737 21.3896 19.4052C21.3896 19.9372 21.1842 20.4332 20.8087 20.8087C20.4223 21.1948 19.9153 21.3884 19.4052 21.3884H19.4052C18.895 21.3885 18.3885 21.1949 18.0023 20.8087L17.4391 20.2455L17.046 19.8524L16.5555 20.1143C16.0633 20.3771 15.5486 20.5904 15.0163 20.7522L14.4844 20.9139V21.4698V22.2656C14.4844 22.7967 14.279 23.2925 13.903 23.6685C13.6251 23.9464 13.2777 24.133 12.8968 24.2103C12.8964 24.2104 12.896 24.2105 12.8957 24.2105L12.8956 24.2106C12.7645 24.2368 12.6312 24.25 12.5 24.25C11.4065 24.25 10.5156 23.3591 10.5156 22.2656V21.4698V20.9139L9.9838 20.7522C9.45136 20.5903 8.93664 20.377 8.44449 20.1142L7.95403 19.8524M21.4698 10.5156L7.95403 19.8524M17.046 5.14757L16.5556 4.88573C16.0633 4.62294 15.5486 4.40962 15.0162 4.24774L14.4844 4.08604V3.53018V2.73438C14.4844 1.79604 13.8155 0.976765 12.896 0.789512C12.7648 0.763243 12.6313 0.75 12.5 0.75C11.969 0.75 11.4731 0.955368 11.097 1.33143C10.721 1.70748 10.5156 2.20334 10.5156 2.73438V3.53018V4.08608L9.98375 4.24776C9.45138 4.40958 8.93668 4.62289 8.44449 4.88571L7.95403 5.1476L7.56088 4.75445L6.9977 4.19127C6.22491 3.41848 4.96513 3.41811 4.19129 4.19124C4.19123 4.19131 4.19116 4.19137 4.1911 4.19144M17.046 5.14757L4.1911 4.19144M17.046 5.14757L17.4391 4.75445M17.046 5.14757L17.4391 4.75445M4.1911 4.19144C3.81572 4.56695 3.61035 5.06283 3.61035 5.59473C3.61035 6.12628 3.81573 6.62212 4.19129 6.99772M4.1911 4.19144L4.19129 6.99772M4.19129 6.99772L4.75445 7.56088L5.1476 7.95403L4.88571 8.44449C4.62291 8.93663 4.40963 9.4514 4.24773 9.98382L4.08602 10.5156H3.53018H2.73438C1.64083 10.5156 0.75 11.4065 0.75 12.5C0.75 13.031 0.95536 13.5269 1.3314 13.9029C1.70747 14.279 2.20332 14.4844 2.73438 14.4844H3.53022H4.08613L4.24781 15.0163C4.40963 15.5486 4.62293 16.0633 4.88576 16.5555L5.14765 17.046L4.7545 17.4391L4.19132 18.0023C3.41851 18.7751 3.41817 20.0349 4.19127 20.8087L4.19129 6.99772ZM17.4391 4.75445L18.0023 4.19129C18.3779 3.81572 18.8737 3.61035 19.4053 3.61035C19.9372 3.61035 20.4331 3.81574 20.8086 4.19115L17.4391 4.75445ZM7.95403 19.8524L7.56088 20.2455M7.95403 19.8524L7.56088 20.2455M7.56088 20.2455L6.99772 20.8087C6.99771 20.8087 6.99771 20.8087 6.9977 20.8087C6.62209 21.1842 6.12631 21.3896 5.59473 21.3896C5.0628 21.3896 4.56688 21.1842 4.19144 20.8089L7.56088 20.2455ZM13.0176 18.6969C14.5683 18.5691 16.0063 17.8672 17.0653 16.7229C18.1312 15.5709 18.7188 14.0701 18.7188 12.5C18.7188 10.9299 18.1313 9.42905 17.0653 8.27718C16.0066 7.13307 14.5687 6.4311 13.0216 6.30349C12.8509 6.28872 12.6757 6.2813 12.5 6.2813C9.07031 6.2813 6.28125 9.07036 6.28125 12.5C6.28125 15.9297 9.07031 18.7188 12.5 18.7188C12.6752 18.7188 12.8504 18.7114 13.0176 18.6969ZM12.886 24.2126C12.8855 24.2127 12.8866 24.2125 12.8885 24.212L12.8885 24.212L12.8867 24.2124L12.8862 24.2125L12.886 24.2126Z" stroke="#CE2B26" stroke-width="1.5"/>
</svg>
