<svg width="19" height="23" viewBox="0 0 19 23" fill="none" xmlns="http://www.w3.org/2000/svg">
<path d="M12.7017 8.9285L12.7018 8.92846C13.6283 7.99271 14.0915 6.86501 14.0915 5.53939C14.0915 4.2144 13.6284 3.08652 12.7017 2.1504L12.7017 8.9285ZM12.7017 8.9285C11.7755 9.86411 10.662 10.3291 9.35631 10.3291M12.7017 8.9285L9.35631 10.3291M18.2058 17.7377L18.2057 17.7371C18.1771 17.3199 18.1187 16.8579 18.031 16.3637C17.9436 15.872 17.832 15.4125 17.7006 14.9979L17.7005 14.9978C17.5695 14.5841 17.3902 14.1727 17.1672 13.7764C16.9419 13.3762 16.6834 13.0385 16.4028 12.7676L16.4027 12.7675C16.1252 12.4993 15.7765 12.2748 15.3568 12.1069C14.9547 11.9463 14.497 11.86 13.9909 11.86C13.9867 11.86 13.9838 11.8602 13.9777 11.8616C13.9701 11.8633 13.9511 11.8683 13.9161 11.8833C13.8386 11.9164 13.7181 11.9826 13.5114 12.1185C13.2419 12.296 12.9275 12.5008 12.5773 12.7267L12.5765 12.7272C12.2052 12.9662 11.7359 13.1699 11.202 13.3441L18.2058 17.7377ZM18.2058 17.7377C18.2349 18.1574 18.2498 18.5972 18.25 19.0443L18.2058 17.7377ZM6.42262 12.7272L6.42212 12.7269C6.07516 12.5029 5.7605 12.2982 5.487 12.1182L5.48685 12.1181C5.28054 11.9823 5.16019 11.9162 5.08288 11.8831C5.04789 11.8681 5.02891 11.8631 5.02134 11.8614C5.01521 11.86 5.01228 11.8598 5.0081 11.8598C4.50172 11.8598 4.04417 11.9463 3.64215 12.1071L3.64203 12.1072C3.22301 12.2747 2.87426 12.499 2.5964 12.7675L6.42262 12.7272ZM6.42262 12.7272C6.79381 12.9663 7.2634 13.1702 7.79682 13.3442C8.35559 13.5266 8.92835 13.6211 9.49948 13.6211C10.0704 13.6211 10.6433 13.5266 11.2016 13.3442L6.42262 12.7272ZM1.83226 13.7762L1.83222 13.7762C1.6093 14.1726 1.43005 14.5839 1.2988 14.9979L1.83226 13.7762ZM1.83226 13.7762C2.05692 13.3766 2.31557 13.039 2.59625 12.7676L1.83226 13.7762ZM0.79377 17.7375L0.793759 17.7377C0.764756 18.1599 0.75 18.5995 0.75 19.0444C0.75 20.0766 1.06861 20.8406 1.6428 21.3931C2.21681 21.9447 2.99342 22.25 4.01722 22.25H9.5H14.9828C16.0066 22.25 16.7828 21.9449 17.357 21.3931L17.357 21.393C17.9312 20.8413 18.2499 20.0774 18.25 19.0446L0.79377 17.7375ZM0.79377 17.7375C0.822408 17.3192 0.880838 16.8571 0.968471 16.3637L0.79377 17.7375ZM9.35631 10.3291C8.05106 10.3291 6.93767 9.864 6.01112 8.92854C5.08445 7.9928 4.6211 6.86494 4.6211 5.53939C4.6211 4.21418 5.08446 3.08628 6.01104 2.15049C6.93732 1.215 8.05046 0.75 9.35631 0.75C10.6617 0.75 11.7751 1.21496 12.7015 2.15027L9.35631 10.3291ZM0.968485 16.3636C1.05585 15.8721 1.16744 15.4128 1.29874 14.9981L0.968485 16.3636Z" stroke="#CE2B26" stroke-width="1.5"/>
</svg>
