<svg width="31" height="29" viewBox="0 0 31 29" fill="none" xmlns="http://www.w3.org/2000/svg">
<path d="M15.8003 0.861694L15.8004 0.861731L26.1197 9.8942C26.1197 9.89422 26.1197 9.89423 26.1197 9.89425C26.2481 10.0067 26.2789 10.1592 26.2236 10.2965C26.1658 10.4392 26.0184 10.5503 25.8195 10.5503H24.171H23.421V11.3003V20.25H17.9122V14.8554V14.1054H17.1622H13.8379H13.0879V14.8554V20.25H7.57886V11.3003V10.5503H6.82886H5.18068C4.98147 10.5503 4.83408 10.439 4.77641 10.2961C4.72114 10.159 4.75185 10.0067 4.88021 9.89429C4.88022 9.89429 4.88022 9.89428 4.88022 9.89428L15.1996 0.861687L15.1997 0.861607C15.3696 0.712834 15.6302 0.712732 15.8003 0.861694ZM23.9207 4.20443L21.4506 2.04692H23.9207V4.20443Z" stroke="#000000" stroke-width="1.5"/>
</svg>
