<svg width="29" height="28" viewBox="0 0 29 28" fill="none" xmlns="http://www.w3.org/2000/svg">
<path fill-rule="evenodd" clip-rule="evenodd" d="M27.5886 15.49C25.9605 12.4482 22.2248 11.2755 19.2447 12.8706C16.2645 14.4657 15.1684 18.2246 16.7965 21.2664C18.4245 24.3081 22.1603 25.4809 25.1404 23.8858C28.1206 22.2907 29.2167 18.5317 27.5886 15.49ZM26.6171 15.9751C25.2858 13.4877 22.231 12.5287 19.794 13.8331C17.357 15.1375 16.4607 18.2112 17.7921 20.6986C19.1234 23.1859 22.1782 24.1449 24.6152 22.8406C27.0522 21.5362 27.9485 18.4624 26.6171 15.9751Z" fill="#898989"/>
<path fill-rule="evenodd" clip-rule="evenodd" d="M27.5886 15.49C25.9605 12.4482 22.2248 11.2755 19.2447 12.8706C16.2645 14.4657 15.1684 18.2246 16.7965 21.2664C18.4245 24.3081 22.1603 25.4809 25.1404 23.8858C28.1206 22.2907 29.2167 18.5317 27.5886 15.49ZM26.6171 15.9751C25.2858 13.4877 22.231 12.5287 19.794 13.8331C17.357 15.1375 16.4607 18.2112 17.7921 20.6986C19.1234 23.1859 22.1782 24.1449 24.6152 22.8406C27.0522 21.5362 27.9485 18.4624 26.6171 15.9751Z" fill="#898989"/>
<path d="M20.6251 25.9895C19.0631 25.7807 16.8792 23.6121 15.3672 21.418C15.8524 21.0856 16.2838 20.6971 16.6514 20.2592C16.8679 20.0013 16.834 19.6164 16.5764 19.3993C16.3184 19.1823 15.9338 19.2154 15.7173 19.4733C15.4349 19.8096 15.1042 20.1104 14.7328 20.3716L13.8223 18.7201C13.5783 16.8257 14.4858 15.0254 16.1788 13.9831C16.3685 14.3288 16.5187 14.6864 16.6272 15.0513C16.7234 15.3744 17.0629 15.5587 17.3857 15.4629C17.7085 15.3671 17.8921 15.0274 17.796 14.7043C17.6014 14.0503 17.2997 13.4185 16.899 12.8265C16.8115 12.6971 16.6754 12.6051 16.523 12.5719C16.3676 12.5381 16.2235 12.5718 16.084 12.6413C16.0341 11.4734 15.6434 10.3094 14.9383 9.27106C14.8508 9.14214 14.7149 9.05039 14.5628 9.01729C14.4075 8.98351 14.2634 9.01719 14.1238 9.08672C14.074 7.9185 13.6833 6.7544 12.9781 5.71632C12.8905 5.58744 12.7547 5.49573 12.6025 5.46267C12.4472 5.4289 12.3031 5.46262 12.1636 5.53206C12.1138 4.36385 11.7231 3.19979 11.0178 2.16171C10.849 1.91323 10.5139 1.8243 10.2447 1.95636C9.38362 2.37897 8.65685 2.94964 8.08866 3.62297C7.84902 3.25597 7.57503 2.9142 7.26795 2.60252C6.31484 1.6352 5.05612 0.949586 3.61218 0.639631C3.31525 0.575903 3.01699 0.740406 2.9125 1.02559C2.24009 2.861 2.2962 4.77143 3.04541 6.40693C2.17335 6.52914 1.30383 6.84044 0.488268 7.34444C0.230268 7.50385 0.12885 7.82898 0.250261 8.10735C0.752522 9.25879 1.52804 10.2108 2.48857 10.8751C2.47523 10.8832 2.46177 10.8908 2.44844 10.8991C2.19044 11.0585 2.08906 11.3837 2.21048 11.662C2.71265 12.8134 3.48817 13.7654 4.44878 14.4298C4.43545 14.4379 4.42199 14.4455 4.40862 14.4537C4.15061 14.6132 4.04924 14.9383 4.17065 15.2167C4.67278 16.3679 5.44817 17.3198 6.40857 17.9842C6.3958 17.992 6.38286 17.9992 6.37009 18.0071C6.11218 18.1665 6.01072 18.4914 6.13191 18.7698C6.86716 20.4583 8.17447 21.6985 9.81302 22.2617C11.2705 22.7627 12.8456 22.6738 14.3004 22.0184C15.075 23.1554 16.0051 24.2657 16.9047 25.1208C18.2067 26.3582 19.4045 27.0575 20.4652 27.1993C20.799 27.2439 21.1055 27.0093 21.1497 26.6752C21.1938 26.3412 20.959 26.0341 20.6251 25.9895ZM14.2188 10.4285C14.7405 11.381 14.9568 12.4259 14.8389 13.4369C13.7653 14.3023 13.0314 15.452 12.7242 16.7287L11.8633 15.1675C11.618 13.2721 12.5251 11.471 14.2188 10.4285ZM12.2588 6.87389C12.7805 7.82625 12.9967 8.87103 12.8788 9.88235C11.8051 10.7479 11.0713 11.8977 10.7644 13.1745L9.90311 11.6125C9.65809 9.7177 10.5652 7.91676 12.2588 6.87389ZM10.2988 3.31958C10.8203 4.27189 11.0366 5.31676 10.9186 6.32799C9.84513 7.19359 9.11147 8.34341 8.80447 9.61993L7.9429 8.0574C7.69822 6.16413 8.60531 4.36357 10.2988 3.31958ZM3.88999 1.97039C5.42083 2.43395 6.64783 3.41998 7.33675 4.74707C6.96789 5.46064 6.74696 6.24262 6.69451 7.05714C5.97744 6.66749 5.19835 6.43776 4.39847 6.36953C3.64361 5.07905 3.46461 3.51442 3.88999 1.97039ZM1.61277 8.11611C3.39638 7.23857 5.40282 7.43019 6.87551 8.64647L7.73822 10.211C6.49424 9.79002 5.13025 9.79799 3.82583 10.2453C2.90832 9.8072 2.14029 9.067 1.61277 8.11611ZM3.5729 11.6707C5.35643 10.7933 7.36264 10.9848 8.83538 12.2008L9.69823 13.7656C8.45433 13.3447 7.09042 13.3526 5.78601 13.7999C4.86849 13.3618 4.10046 12.6215 3.5729 11.6707ZM5.53312 15.2253C7.31647 14.348 9.32265 14.5393 10.7953 15.7552L11.6578 17.3195C10.414 16.8986 9.04995 16.9067 7.74554 17.3542C6.82833 16.9161 6.06046 16.1759 5.53312 15.2253ZM10.2081 21.1075C9.06097 20.7131 8.11302 19.8956 7.49425 18.779C9.27721 17.9021 11.2829 18.0936 12.7549 19.3092L13.6664 20.9622C12.533 21.4365 11.3239 21.491 10.2081 21.1075Z" fill="#898989"/>
<path d="M24.689 15.9414C24.4434 15.6958 24.0452 15.6958 23.7996 15.9414L22.2951 17.4459L20.7906 15.9414C20.545 15.6958 20.1468 15.6958 19.9013 15.9414C19.6557 16.1869 19.6556 16.5851 19.9013 16.8307L21.4058 18.3352L19.9013 19.8398C19.6557 20.0853 19.6557 20.4835 19.9013 20.7291C20.0241 20.8519 20.185 20.9133 20.3459 20.9133C20.5069 20.9133 20.6678 20.8518 20.7906 20.7291L22.2951 19.2245L23.7996 20.7291C23.9224 20.8519 24.0834 20.9133 24.2443 20.9133C24.4052 20.9133 24.5662 20.8518 24.689 20.7291C24.9345 20.4835 24.9346 20.0853 24.689 19.8398L23.1844 18.3352L24.689 16.8307C24.9346 16.5851 24.9345 16.1869 24.689 15.9414Z" fill="#898989"/>
<path d="M24.689 15.9414C24.4434 15.6958 24.0452 15.6958 23.7996 15.9414L22.2951 17.4459L20.7906 15.9414C20.545 15.6958 20.1468 15.6958 19.9013 15.9414C19.6557 16.1869 19.6556 16.5851 19.9013 16.8307L21.4058 18.3352L19.9013 19.8398C19.6557 20.0853 19.6557 20.4835 19.9013 20.7291C20.0241 20.8519 20.185 20.9133 20.3459 20.9133C20.5069 20.9133 20.6678 20.8518 20.7906 20.7291L22.2951 19.2245L23.7996 20.7291C23.9224 20.8519 24.0834 20.9133 24.2443 20.9133C24.4052 20.9133 24.5662 20.8518 24.689 20.7291C24.9345 20.4835 24.9346 20.0853 24.689 19.8398L23.1844 18.3352L24.689 16.8307C24.9346 16.5851 24.9345 16.1869 24.689 15.9414Z" fill="#898989"/>
</svg>
