<svg width="32" height="31" viewBox="0 0 32 31" fill="none" xmlns="http://www.w3.org/2000/svg">
<path d="M18.9977 18.8418L19.2133 18.2344L18.9977 18.8418ZM25.8068 17.3883C26.0773 17.1569 26.1091 16.7501 25.8777 16.4796C25.6464 16.2091 25.2395 16.1773 24.969 16.4087L25.8068 17.3883ZM25.2212 17.4299C25.5517 17.5621 25.9268 17.4013 26.059 17.0708C26.1911 16.7403 26.0303 16.3652 25.6998 16.233L25.2212 17.4299ZM22.0476 15.6253L22.2164 15.0033L22.0476 15.6253ZM19.5466 16.0111C19.3526 16.3095 19.4372 16.7087 19.7356 16.9027C20.0341 17.0968 20.4333 17.0121 20.6273 16.7137L19.5466 16.0111ZM11.8659 10.1065C11.8157 9.75415 11.4893 9.50921 11.1369 9.55945C10.7845 9.60969 10.5396 9.93609 10.5898 10.2885L11.8659 10.1065ZM8.1006 16.8587C8.11561 16.503 7.83948 16.2025 7.48385 16.1875C7.12821 16.1725 6.82774 16.4486 6.81273 16.8043L8.1006 16.8587ZM14.1409 11.5373C13.8076 11.4123 13.4361 11.5812 13.3111 11.9145C13.1862 12.2478 13.3551 12.6193 13.6884 12.7443L14.1409 11.5373ZM15.4491 14.914C15.4634 15.2697 15.7633 15.5465 16.119 15.5322C16.4746 15.5179 16.7514 15.218 16.7371 14.8623L15.4491 14.914ZM18.8416 11.3187C18.8687 10.9638 18.6029 10.6541 18.248 10.627C17.8931 10.5999 17.5834 10.8657 17.5563 11.2206L18.8416 11.3187ZM12.8451 18.6015C12.4903 18.6307 12.2265 18.942 12.2557 19.2967C12.2849 19.6515 12.5962 19.9154 12.9509 19.8862L12.8451 18.6015ZM17.2035 16.1519C17.2698 16.4882 17.3811 17.1797 17.5721 17.8001C17.6683 18.1128 17.795 18.4438 17.9672 18.7273C18.1337 19.0013 18.391 19.3103 18.7822 19.4491L19.2133 18.2344C19.2268 18.2392 19.1682 18.2215 19.0688 18.0579C18.9751 17.9037 18.8857 17.6861 18.8041 17.4208C18.6392 16.8853 18.5472 16.3036 18.4682 15.9028L17.2035 16.1519ZM18.7822 19.4491C19.9469 19.8625 22.6571 20.0822 25.8068 17.3883L24.969 16.4087C22.1642 18.8075 19.9366 18.4911 19.2133 18.2344L18.7822 19.4491ZM25.6998 16.233C24.9752 15.9433 23.2443 15.2823 22.2164 15.0033L21.8788 16.2473C22.8261 16.5044 24.4936 17.1389 25.2212 17.4299L25.6998 16.233ZM22.2164 15.0033C21.4451 14.7939 20.8271 14.9077 20.3556 15.1892C19.9108 15.4548 19.662 15.8337 19.5466 16.0111L20.6273 16.7137C20.7298 16.5561 20.844 16.3989 21.0165 16.2959C21.1623 16.2089 21.4156 16.1216 21.8788 16.2473L22.2164 15.0033ZM11.2279 10.1975C10.5898 10.2885 10.5898 10.2885 10.5898 10.2885C10.5898 10.2885 10.5898 10.2886 10.5898 10.2886C10.5898 10.2888 10.5899 10.289 10.5899 10.2893C10.59 10.2899 10.5901 10.2907 10.5903 10.2919C10.5906 10.2943 10.5911 10.2979 10.5918 10.3026C10.5932 10.3122 10.5952 10.3264 10.5978 10.3451C10.6031 10.3824 10.6108 10.4376 10.6207 10.5086C10.6404 10.6506 10.6687 10.8557 10.7026 11.1075C10.7704 11.6113 10.8607 12.3015 10.9511 13.0475C11.1337 14.5564 11.3095 16.2412 11.3095 17.0995L12.5985 17.0995C12.5985 16.1485 12.4111 14.3824 12.2307 12.8926C12.1395 12.1393 12.0484 11.4432 11.9801 10.9355C11.9459 10.6816 11.9174 10.4747 11.8974 10.3311C11.8874 10.2593 11.8796 10.2033 11.8742 10.1652C11.8715 10.1462 11.8695 10.1316 11.8681 10.1217C11.8674 10.1168 11.8668 10.113 11.8665 10.1105C11.8663 10.1092 11.8662 10.1083 11.8661 10.1076C11.866 10.1073 11.866 10.107 11.866 10.1068C11.8659 10.1067 11.8659 10.1067 11.8659 10.1066C11.8659 10.1066 11.8659 10.1065 11.2279 10.1975ZM11.3095 17.0995C11.3095 17.2844 11.1739 17.5902 10.8016 17.9171C10.446 18.2293 9.97013 18.4711 9.51703 18.5592C9.06067 18.6479 8.72149 18.568 8.50906 18.3831C8.29985 18.201 8.06151 17.7845 8.1006 16.8587L6.81273 16.8043C6.76468 17.9424 7.04494 18.8175 7.66266 19.3553C8.27716 19.8903 9.07323 19.9586 9.763 19.8246C10.456 19.6898 11.1372 19.3378 11.6521 18.8857C12.1502 18.4483 12.5986 17.8192 12.5985 17.0995L11.3095 17.0995ZM13.6884 12.7443C13.9812 12.854 14.4283 13.1227 14.8025 13.5215C15.1732 13.9167 15.4281 14.3908 15.4491 14.914L16.7371 14.8623C16.7 13.9382 16.253 13.1837 15.7426 12.6397C15.2357 12.0993 14.6227 11.7179 14.1409 11.5373L13.6884 12.7443ZM17.5563 11.2206L17.1932 15.9783L18.4785 16.0764L18.8416 11.3187L17.5563 11.2206ZM17.219 15.8408C17.0026 16.5563 15.826 18.3559 12.8451 18.6015L12.9509 19.8862C16.4764 19.5957 18.0882 17.4194 18.4528 16.2139L17.219 15.8408Z" fill="#898989"/>
<path d="M1.80635 15.7225L1.3619 16.1882C1.03955 15.8805 1.03955 15.3687 1.3619 15.0611M1.80635 15.7225L1.3619 15.0611M1.80635 15.7225L1.3619 16.1882L5.24206 19.8916M1.80635 15.7225L5.24206 19.8916M1.3619 15.0611L5.24206 11.3577M1.3619 15.0611L5.24206 11.3577M5.24206 11.3577L5.24206 6.12691C5.24206 5.66694 5.62385 5.34475 6.03079 5.34475L11.5421 5.34475L15.435 1.62926C15.7404 1.3378 16.2236 1.3378 16.529 1.62926L20.4219 5.34475L25.9332 5.34475C26.3401 5.34475 26.7219 5.66694 26.7219 6.12691V11.3577L30.6021 15.0611L30.1571 15.5273L30.6021 15.0611C30.9244 15.3687 30.9244 15.8805 30.6021 16.1882L30.1571 15.722L30.6021 16.1882L26.7219 19.8916V25.1224C26.7219 25.5823 26.3401 25.9045 25.9332 25.9045H20.4219L16.529 29.62C16.2236 29.9115 15.7404 29.9115 15.435 29.62L11.5421 25.9045H6.03079C5.62385 25.9045 5.24206 25.5823 5.24206 25.1224L5.24206 19.8916M5.24206 11.3577L5.24206 19.8916" stroke="#898989" stroke-width="1.28902"/>
</svg>
