<svg width="29" height="29" viewBox="0 0 29 29" fill="none" xmlns="http://www.w3.org/2000/svg">
<path d="M27.7917 14.3528H27.3551C27.3128 14.1085 27.2909 13.8781 27.3395 13.7073C27.4249 13.4073 27.7057 13.0892 27.9773 12.7816C28.3621 12.3459 28.7599 11.8954 28.7647 11.3458C28.7708 10.6541 28.2704 10.1394 27.8289 9.68528C27.5893 9.43875 27.3629 9.2059 27.2752 9.00193C27.17 8.75731 27.1183 8.42687 27.0682 8.10735C26.9638 7.44117 26.8455 6.68616 26.1794 6.36017C25.5126 6.03434 24.8013 6.3837 24.1735 6.69209C23.8727 6.83987 23.5616 6.99264 23.2926 7.05407C23.0918 7.09976 22.7932 7.07114 22.5289 7.04066C22.3008 7.01432 22.093 7.16968 22.0654 7.38764C22.0379 7.6056 22.2007 7.80368 22.429 7.82997C22.7803 7.87052 23.1514 7.9036 23.4862 7.82737C23.8533 7.74357 24.2099 7.56844 24.5547 7.39903C25.0478 7.1568 25.5136 6.92797 25.7995 7.06775C26.0849 7.20742 26.1623 7.70164 26.2443 8.22497C26.3017 8.59129 26.3611 8.97007 26.5044 9.3038C26.6495 9.64113 26.9386 9.93849 27.2183 10.2261C27.5706 10.5886 27.9349 10.9634 27.9317 11.3392C27.9294 11.6022 27.6299 11.9413 27.3404 12.2693C27.0104 12.643 26.6693 13.0293 26.5357 13.499C26.4585 13.7703 26.4711 14.0648 26.5129 14.3529H23.7159C23.7093 14.0037 23.5519 13.6905 23.3379 13.3948C23.6176 12.6549 23.8661 11.8936 24.0766 11.128C24.135 10.9157 24.002 10.6983 23.7795 10.6426C23.5569 10.5869 23.3293 10.7139 23.2709 10.9262C23.1102 11.5104 22.9267 12.092 22.7238 12.6629C22.4803 12.3819 22.2558 12.096 22.1774 11.8208C22.1 11.5488 22.1802 11.1575 22.265 10.7432C22.3866 10.1497 22.5244 9.47692 22.2178 8.90578C21.9111 8.33448 21.258 8.04836 20.6819 7.79589C20.2802 7.61986 19.9007 7.45358 19.7147 7.23535C19.4883 6.96889 19.3723 6.52958 19.2601 6.10468C19.104 5.51298 18.9424 4.90113 18.45 4.55659C17.8286 4.12236 17.0465 4.21581 16.3566 4.29819C15.9756 4.34372 15.6158 4.38676 15.3671 4.33004C15.0717 4.26278 14.7334 4.09666 14.4061 3.93594C13.735 3.60646 12.9747 3.23298 12.2698 3.57789C11.6008 3.90515 11.4529 4.64961 11.3442 5.33376C11.0099 5.18476 10.71 5.03635 10.5513 4.85003C10.3248 4.58357 10.2088 4.14426 10.0966 3.71936C9.94047 3.12766 9.77891 2.51581 9.28647 2.17127C8.66513 1.73705 7.88301 1.83049 7.19309 1.91287C6.81222 1.9584 6.4524 2.00133 6.20365 1.94472C5.90825 1.87746 5.56987 1.71134 5.2426 1.55062C4.57161 1.22124 3.81115 0.847871 3.1065 1.19257C2.40169 1.53705 2.27513 2.34433 2.16355 3.05663C2.10913 3.40408 2.05276 3.7633 1.93741 4.03162C1.84044 4.25742 1.59375 4.51116 1.33251 4.77985C0.859673 5.26623 0.323748 5.81755 0.330135 6.55247C0.3353 7.13517 0.761485 7.61779 1.17362 8.08451C1.46946 8.41956 1.77541 8.766 1.86966 9.09676C1.94685 9.36847 1.86666 9.7596 1.7818 10.1736C1.66006 10.7675 1.52205 11.4405 1.82878 12.0114C2.1354 12.5825 2.78823 12.8687 3.36425 13.1211C3.76611 13.2973 4.14576 13.4637 4.33202 13.6827C4.47608 13.8519 4.57533 14.0915 4.65741 14.3528H1.30319C0.753821 14.3499 0.300534 14.8078 0.331801 15.3307C0.419437 16.7963 0.831294 18.1933 1.55588 19.4827C1.66462 19.6762 1.91714 19.749 2.11979 19.6451C2.3225 19.5413 2.3987 19.3003 2.28995 19.1069C1.62319 17.9202 1.24415 16.6345 1.1634 15.2853C1.15857 15.2045 1.21222 15.1506 1.30319 15.1479L27.7917 15.1479C27.8835 15.151 27.9362 15.2042 27.9314 15.2853C27.7962 17.5452 26.796 19.6734 25.1149 21.2781C23.2498 23.0583 20.8732 23.9753 18.2759 23.9818H10.8189C7.88951 23.9812 5.18973 22.7708 3.31832 20.5786C3.17304 20.4084 2.91068 20.3828 2.7323 20.5217C2.55397 20.6604 2.52726 20.9108 2.6726 21.081C3.97748 22.609 5.69022 23.7125 7.60089 24.2976V25.4325C7.60089 26.9553 8.89888 28.1941 10.4943 28.1941H18.6005C20.1959 28.1941 21.4939 26.9553 21.4939 25.4325V24.2993C23.0644 23.8189 24.5037 22.9855 25.7039 21.8403C27.5299 20.0974 28.6163 17.7856 28.7631 15.3307C28.7944 14.8077 28.3381 14.3502 27.7917 14.3528ZM10.0667 14.3528C9.02695 12.8513 8.14015 11.2561 7.43028 9.60747C6.94278 8.47611 6.52965 7.29843 6.20232 6.10696C6.14389 5.89457 5.91625 5.76762 5.69377 5.82322C5.47124 5.87893 5.33817 6.0962 5.39649 6.30859C5.7332 7.5342 6.15828 8.74581 6.65977 9.90976C7.32138 11.4462 8.13187 12.9376 9.0736 14.3528H5.52283C5.4056 13.931 5.26181 13.5139 4.97869 13.1814C4.67007 12.8185 4.18302 12.605 3.71191 12.3986C3.23663 12.1902 2.74524 11.9749 2.57008 11.6487C2.39503 11.3228 2.49888 10.8162 2.59929 10.3263C2.69876 9.84102 2.80167 9.33926 2.67354 8.88834C2.53093 8.38791 2.16472 7.97319 1.81051 7.5721C1.49351 7.21309 1.16573 6.84183 1.16312 6.5458C1.15946 6.12678 1.55782 5.71694 1.94313 5.32062C2.2433 5.0118 2.55375 4.69244 2.70803 4.33338C2.86165 3.97612 2.92551 3.56851 2.98732 3.17425C3.07724 2.60051 3.16215 2.05863 3.48626 1.9002C3.81054 1.7416 4.32081 1.99232 4.8614 2.25772C5.23277 2.44006 5.6168 2.6286 6.01022 2.71818C6.40558 2.80829 6.85854 2.75418 7.2965 2.70191C7.85863 2.63475 8.44004 2.56532 8.79414 2.81275C9.04439 2.98783 9.16862 3.45852 9.2888 3.91368C9.42304 4.42227 9.56188 4.9482 9.90453 5.35136C10.2132 5.71371 10.7 5.92701 11.1708 6.13325C11.6462 6.34156 12.1378 6.55698 12.3129 6.88313C12.4879 7.20922 12.3842 7.71569 12.2839 8.20541C12.1844 8.69095 12.0816 9.19297 12.2098 9.64357C12.2668 9.84451 12.3616 10.0311 12.4681 10.1991C11.347 10.7704 10.5821 11.8981 10.5821 13.1935C10.5821 13.5912 10.6553 13.9833 10.7961 14.3529L10.0667 14.3528ZM16.5715 14.3528H11.7014C11.5138 13.9943 11.4151 13.5978 11.4151 13.1934C11.4151 11.7613 12.6359 10.5961 14.1364 10.5961C15.6369 10.5961 16.8577 11.7613 16.8577 13.1934C16.8577 13.5978 16.759 13.9944 16.5715 14.3528ZM19.4816 14.3528H17.4768C17.6175 13.9833 17.6907 13.5912 17.6907 13.1934C17.6907 12.1823 17.2243 11.2738 16.4867 10.6517C16.6689 10.6154 16.8556 10.5961 17.0465 10.5961C18.547 10.5961 19.7678 11.7613 19.7678 13.1934C19.7678 13.5978 19.6692 13.9944 19.4816 14.3528ZM20.3869 14.3528C20.5276 13.9833 20.6009 13.5912 20.6009 13.1934C20.6009 11.3228 19.0064 9.80105 17.0466 9.80105C16.544 9.80105 16.0445 9.90346 15.5893 10.0986C15.1454 9.90802 14.6539 9.80105 14.1365 9.80105C13.8344 9.80105 13.5412 9.83746 13.261 9.90542C13.1563 9.75965 13.0599 9.59761 13.014 9.43547C12.9365 9.16339 13.0167 8.7721 13.1015 8.35786C13.2231 7.7643 13.3609 7.09155 13.0543 6.52041C12.8542 6.14767 12.5065 5.89669 12.1291 5.69691C12.2193 5.13133 12.3004 4.45625 12.6499 4.28541C12.9741 4.12687 13.4844 4.37754 14.025 4.64294C14.3964 4.82528 14.7804 5.01382 15.1738 5.1034C15.5692 5.19351 16.0221 5.13939 16.4601 5.08713C17.0222 5.01997 17.6036 4.95058 17.9577 5.19796C18.208 5.37309 18.3322 5.84373 18.4524 6.29889C18.5866 6.80749 18.7255 7.33341 19.0681 7.73657C19.3768 8.09892 19.8636 8.31222 20.3344 8.51846C20.8098 8.72678 21.3014 8.94219 21.4765 9.26834C21.6515 9.59443 21.5478 10.1009 21.4475 10.5906C21.348 11.0762 21.2452 11.5782 21.3736 12.0292C21.5159 12.5299 21.8823 12.9448 22.2365 13.346C22.5468 13.6974 22.8666 14.0603 22.8821 14.3528H20.3869ZM20.6609 25.4325C20.6609 26.5168 19.7366 27.399 18.6005 27.399H10.4944C9.35828 27.399 8.43399 26.5168 8.43399 25.4325V24.5168C9.20722 24.6879 10.0063 24.7769 10.8189 24.7769H18.2759C19.089 24.7769 19.8877 24.6888 20.6608 24.5183L20.6609 25.4325Z" fill="#898989" stroke="#898989" stroke-width="0.386705"/>
</svg>
