<svg width="27" height="28" viewBox="0 0 27 28" fill="none" xmlns="http://www.w3.org/2000/svg">
<path d="M12.6807 15.6125C12.4283 15.6125 12.2237 15.8148 12.2237 16.0643V16.5161C12.2237 16.7655 12.4283 16.9678 12.6807 16.9678C12.933 16.9678 13.1376 16.7655 13.1376 16.5161V16.0643C13.1376 15.8148 12.933 15.6125 12.6807 15.6125Z" fill="#D55951"/>
<path d="M12.6807 17.8714C12.4283 17.8714 12.2237 18.0736 12.2237 18.3231V21.4855C12.2237 21.735 12.4283 21.9373 12.6807 21.9373C12.933 21.9373 13.1376 21.735 13.1376 21.4855V18.3231C13.1376 18.0736 12.933 17.8714 12.6807 17.8714Z" fill="#D55951"/>
<path d="M25.515 15.6141C25.5019 15.613 25.4887 15.6125 25.4755 15.6125H16.3363C16.084 15.6117 15.8787 15.8132 15.8778 16.0627C15.8777 16.0758 15.8782 16.0888 15.8794 16.1018L16.7238 26.1156C16.7864 26.8169 17.379 27.3556 18.0911 27.3584H23.7208C24.4323 27.3549 25.0242 26.8164 25.0866 26.1156L25.9325 16.1018C25.9534 15.8531 25.7665 15.6348 25.515 15.6141ZM24.1759 26.0406C24.1549 26.2748 23.9568 26.4544 23.719 26.4549H18.0911C17.8533 26.4544 17.6551 26.2748 17.6341 26.0406L17.0615 19.2267H24.7503L24.1759 26.0406ZM24.8266 18.3231H16.9852L16.833 16.5161H24.9788L24.8266 18.3231Z" fill="#D55951"/>
<path d="M10.8528 5.02132V3.83904C11.8285 3.5908 12.4159 2.60758 12.1648 1.64301C11.9571 0.845245 11.2291 0.288047 10.3959 0.289064H4.91236C3.90488 0.287822 3.08715 1.09428 3.0859 2.09026C3.08487 2.914 3.64847 3.63372 4.4554 3.83904V5.02132C1.83554 7.40179 0.343973 10.7584 0.342773 14.2762V24.1961C0.344773 25.9418 1.77574 27.3565 3.54149 27.3584H11.7667C13.5325 27.3565 14.9635 25.9418 14.9655 24.1961V14.2762C14.9643 10.7584 13.4727 7.40179 10.8528 5.02132ZM3.99844 2.09613C3.99844 1.5971 4.40759 1.1926 4.91236 1.1926H10.3959C10.9004 1.20671 11.2978 1.62257 11.2835 2.12137C11.2711 2.55428 10.9497 2.91761 10.5174 2.98746C10.4783 2.97363 10.4373 2.96544 10.3959 2.96307H4.91236C4.87089 2.96544 4.82994 2.97363 4.79081 2.98746C4.33871 2.92749 4.00056 2.5471 3.99844 2.09613ZM5.21624 5.55982C5.31374 5.47398 5.36949 5.35099 5.36932 5.2219V3.90319H9.93891V5.2219C9.93874 5.35099 9.99449 5.47398 10.092 5.55982C11.5327 6.82759 12.637 8.42532 13.3081 10.213C11.5199 10.8808 9.52359 10.7257 7.86294 9.78971C6.24354 8.87251 4.33025 8.60365 2.51653 9.03842C3.18557 7.72039 4.10172 6.53993 5.21624 5.55982ZM14.0515 24.1961C14.0501 25.443 13.028 26.4534 11.7667 26.4549H3.54149C2.28028 26.4534 1.25818 25.443 1.25669 24.1961V14.2762C1.25766 12.8566 1.52093 11.4492 2.03352 10.1231C3.80532 9.48172 5.77322 9.64706 7.4101 10.5749C9.29391 11.6422 11.5606 11.8252 13.5946 11.0741C13.897 12.1152 14.0508 13.193 14.0515 14.2762V24.1961Z" fill="#D55951"/>
<path d="M22.9489 6.92843C22.753 6.73479 22.4354 6.73479 22.2395 6.92843L21.0395 8.11487L19.8394 6.92843C19.6436 6.73479 19.3259 6.73479 19.1301 6.92843C18.9342 7.12207 18.9342 7.43607 19.1301 7.62971L20.3301 8.81615L19.1301 10.0026C18.9342 10.1962 18.9342 10.5102 19.1301 10.7039C19.228 10.8007 19.3564 10.8491 19.4847 10.8491C19.6131 10.8491 19.7415 10.8007 19.8394 10.7039L21.0395 9.51742L22.2395 10.7039C22.3375 10.8007 22.4658 10.8491 22.5942 10.8491C22.7225 10.8491 22.851 10.8007 22.9489 10.7039C23.1447 10.5102 23.1448 10.1962 22.9489 10.0026L21.7488 8.81615L22.9489 7.62971C23.1448 7.43607 23.1447 7.12207 22.9489 6.92843Z" fill="#D55951"/>
<path fill-rule="evenodd" clip-rule="evenodd" d="M21.0109 13.8421C23.8343 13.8421 26.1231 11.5792 26.1231 8.78792C26.1231 5.9966 23.8343 3.73378 21.0109 3.73378C18.1875 3.73378 15.8987 5.9966 15.8987 8.78792C15.8987 11.5792 18.1875 13.8421 21.0109 13.8421ZM21.0361 12.9458C23.3449 12.9458 25.2165 11.0954 25.2165 8.81281C25.2165 6.53026 23.3449 4.67988 21.0361 4.67988C18.7273 4.67988 16.8556 6.53026 16.8556 8.81281C16.8556 11.0954 18.7273 12.9458 21.0361 12.9458Z" fill="#D55951"/>
<path d="M22.9489 6.92843C22.753 6.73479 22.4354 6.73479 22.2395 6.92843L21.0395 8.11487L19.8394 6.92843C19.6436 6.73479 19.3259 6.73479 19.1301 6.92843C18.9342 7.12207 18.9342 7.43607 19.1301 7.62971L20.3301 8.81615L19.1301 10.0026C18.9342 10.1962 18.9342 10.5102 19.1301 10.7039C19.228 10.8007 19.3564 10.8491 19.4847 10.8491C19.6131 10.8491 19.7415 10.8007 19.8394 10.7039L21.0395 9.51742L22.2395 10.7039C22.3375 10.8007 22.4658 10.8491 22.5942 10.8491C22.7225 10.8491 22.851 10.8007 22.9489 10.7039C23.1447 10.5102 23.1448 10.1962 22.9489 10.0026L21.7488 8.81615L22.9489 7.62971C23.1448 7.43607 23.1447 7.12207 22.9489 6.92843Z" fill="#D55951"/>
<path fill-rule="evenodd" clip-rule="evenodd" d="M21.0109 13.8421C23.8343 13.8421 26.1231 11.5792 26.1231 8.78792C26.1231 5.9966 23.8343 3.73378 21.0109 3.73378C18.1875 3.73378 15.8987 5.9966 15.8987 8.78792C15.8987 11.5792 18.1875 13.8421 21.0109 13.8421ZM21.0361 12.9458C23.3449 12.9458 25.2165 11.0954 25.2165 8.81281C25.2165 6.53026 23.3449 4.67988 21.0361 4.67988C18.7273 4.67988 16.8556 6.53026 16.8556 8.81281C16.8556 11.0954 18.7273 12.9458 21.0361 12.9458Z" fill="#D55951"/>
<path d="M12.6807 15.6125C12.4283 15.6125 12.2237 15.8148 12.2237 16.0643V16.5161C12.2237 16.7655 12.4283 16.9678 12.6807 16.9678C12.933 16.9678 13.1376 16.7655 13.1376 16.5161V16.0643C13.1376 15.8148 12.933 15.6125 12.6807 15.6125Z" stroke="#D55951" stroke-width="0.257804"/>
<path d="M12.6807 17.8714C12.4283 17.8714 12.2237 18.0736 12.2237 18.3231V21.4855C12.2237 21.735 12.4283 21.9373 12.6807 21.9373C12.933 21.9373 13.1376 21.735 13.1376 21.4855V18.3231C13.1376 18.0736 12.933 17.8714 12.6807 17.8714Z" stroke="#D55951" stroke-width="0.257804"/>
<path d="M25.515 15.6141C25.5019 15.613 25.4887 15.6125 25.4755 15.6125H16.3363C16.084 15.6117 15.8787 15.8132 15.8778 16.0627C15.8777 16.0758 15.8782 16.0888 15.8794 16.1018L16.7238 26.1156C16.7864 26.8169 17.379 27.3556 18.0911 27.3584H23.7208C24.4323 27.3549 25.0242 26.8164 25.0866 26.1156L25.9325 16.1018C25.9534 15.8531 25.7665 15.6348 25.515 15.6141ZM24.1759 26.0406C24.1549 26.2748 23.9568 26.4544 23.719 26.4549H18.0911C17.8533 26.4544 17.6551 26.2748 17.6341 26.0406L17.0615 19.2267H24.7503L24.1759 26.0406ZM24.8266 18.3231H16.9852L16.833 16.5161H24.9788L24.8266 18.3231Z" stroke="#D55951" stroke-width="0.257804"/>
<path d="M10.8528 5.02132V3.83904C11.8285 3.5908 12.4159 2.60758 12.1648 1.64301C11.9571 0.845245 11.2291 0.288047 10.3959 0.289064H4.91236C3.90488 0.287822 3.08715 1.09428 3.0859 2.09026C3.08487 2.914 3.64847 3.63372 4.4554 3.83904V5.02132C1.83554 7.40179 0.343973 10.7584 0.342773 14.2762V24.1961C0.344773 25.9418 1.77574 27.3565 3.54149 27.3584H11.7667C13.5325 27.3565 14.9635 25.9418 14.9655 24.1961V14.2762C14.9643 10.7584 13.4727 7.40179 10.8528 5.02132ZM3.99844 2.09613C3.99844 1.5971 4.40759 1.1926 4.91236 1.1926H10.3959C10.9004 1.20671 11.2978 1.62257 11.2835 2.12137C11.2711 2.55428 10.9497 2.91761 10.5174 2.98746C10.4783 2.97363 10.4373 2.96544 10.3959 2.96307H4.91236C4.87089 2.96544 4.82994 2.97363 4.79081 2.98746C4.33871 2.92749 4.00056 2.5471 3.99844 2.09613ZM5.21624 5.55982C5.31374 5.47398 5.36949 5.35099 5.36932 5.2219V3.90319H9.93891V5.2219C9.93874 5.35099 9.99449 5.47398 10.092 5.55982C11.5327 6.82759 12.637 8.42532 13.3081 10.213C11.5199 10.8808 9.52359 10.7257 7.86294 9.78971C6.24354 8.87251 4.33025 8.60365 2.51653 9.03842C3.18557 7.72039 4.10172 6.53993 5.21624 5.55982ZM14.0515 24.1961C14.0501 25.443 13.028 26.4534 11.7667 26.4549H3.54149C2.28028 26.4534 1.25818 25.443 1.25669 24.1961V14.2762C1.25766 12.8566 1.52093 11.4492 2.03352 10.1231C3.80532 9.48172 5.77322 9.64706 7.4101 10.5749C9.29391 11.6422 11.5606 11.8252 13.5946 11.0741C13.897 12.1152 14.0508 13.193 14.0515 14.2762V24.1961Z" stroke="#D55951" stroke-width="0.257804"/>
<path d="M22.9489 6.92843C22.753 6.73479 22.4354 6.73479 22.2395 6.92843L21.0395 8.11487L19.8394 6.92843C19.6436 6.73479 19.3259 6.73479 19.1301 6.92843C18.9342 7.12207 18.9342 7.43607 19.1301 7.62971L20.3301 8.81615L19.1301 10.0026C18.9342 10.1962 18.9342 10.5102 19.1301 10.7039C19.228 10.8007 19.3564 10.8491 19.4847 10.8491C19.6131 10.8491 19.7415 10.8007 19.8394 10.7039L21.0395 9.51742L22.2395 10.7039C22.3375 10.8007 22.4658 10.8491 22.5942 10.8491C22.7225 10.8491 22.851 10.8007 22.9489 10.7039C23.1447 10.5102 23.1448 10.1962 22.9489 10.0026L21.7488 8.81615L22.9489 7.62971C23.1448 7.43607 23.1447 7.12207 22.9489 6.92843Z" stroke="#D55951" stroke-width="0.257804"/>
<path fill-rule="evenodd" clip-rule="evenodd" d="M21.0109 13.8421C23.8343 13.8421 26.1231 11.5792 26.1231 8.78792C26.1231 5.9966 23.8343 3.73378 21.0109 3.73378C18.1875 3.73378 15.8987 5.9966 15.8987 8.78792C15.8987 11.5792 18.1875 13.8421 21.0109 13.8421ZM21.0361 12.9458C23.3449 12.9458 25.2165 11.0954 25.2165 8.81281C25.2165 6.53026 23.3449 4.67988 21.0361 4.67988C18.7273 4.67988 16.8556 6.53026 16.8556 8.81281C16.8556 11.0954 18.7273 12.9458 21.0361 12.9458Z" stroke="#D55951" stroke-width="0.257804"/>
<path d="M22.9489 6.92843C22.753 6.73479 22.4354 6.73479 22.2395 6.92843L21.0395 8.11487L19.8394 6.92843C19.6436 6.73479 19.3259 6.73479 19.1301 6.92843C18.9342 7.12207 18.9342 7.43607 19.1301 7.62971L20.3301 8.81615L19.1301 10.0026C18.9342 10.1962 18.9342 10.5102 19.1301 10.7039C19.228 10.8007 19.3564 10.8491 19.4847 10.8491C19.6131 10.8491 19.7415 10.8007 19.8394 10.7039L21.0395 9.51742L22.2395 10.7039C22.3375 10.8007 22.4658 10.8491 22.5942 10.8491C22.7225 10.8491 22.851 10.8007 22.9489 10.7039C23.1447 10.5102 23.1448 10.1962 22.9489 10.0026L21.7488 8.81615L22.9489 7.62971C23.1448 7.43607 23.1447 7.12207 22.9489 6.92843Z" stroke="#D55951" stroke-width="0.257804"/>
<path fill-rule="evenodd" clip-rule="evenodd" d="M21.0109 13.8421C23.8343 13.8421 26.1231 11.5792 26.1231 8.78792C26.1231 5.9966 23.8343 3.73378 21.0109 3.73378C18.1875 3.73378 15.8987 5.9966 15.8987 8.78792C15.8987 11.5792 18.1875 13.8421 21.0109 13.8421ZM21.0361 12.9458C23.3449 12.9458 25.2165 11.0954 25.2165 8.81281C25.2165 6.53026 23.3449 4.67988 21.0361 4.67988C18.7273 4.67988 16.8556 6.53026 16.8556 8.81281C16.8556 11.0954 18.7273 12.9458 21.0361 12.9458Z" stroke="#D55951" stroke-width="0.257804"/>
</svg>
