<svg width="40" height="42" viewBox="0 0 40 42" fill="none" xmlns="http://www.w3.org/2000/svg">
<path d="M19.1859 23.6432C18.814 23.6432 18.5124 23.9421 18.5124 24.3108V24.9784C18.5124 25.347 18.814 25.6459 19.1859 25.6459C19.5579 25.6459 19.8595 25.347 19.8595 24.9784V24.3108C19.8595 23.9421 19.5579 23.6432 19.1859 23.6432Z" fill="#2F3741"/>
<path d="M19.1859 26.9811C18.814 26.9811 18.5124 27.28 18.5124 27.6486V32.3216C18.5124 32.6903 18.814 32.9892 19.1859 32.9892C19.5579 32.9892 19.8595 32.6903 19.8595 32.3216V27.6486C19.8595 27.28 19.5579 26.9811 19.1859 26.9811Z" fill="#2F3741"/>
<path d="M38.1037 23.6456C38.0843 23.644 38.0649 23.6432 38.0454 23.6432H24.5743C24.2024 23.642 23.8998 23.9398 23.8984 24.3085C23.8984 24.3277 23.8991 24.347 23.9008 24.3662L25.1455 39.1635C25.2377 40.1998 26.1112 40.9957 27.1608 41H35.459C36.5078 40.9947 37.3801 40.199 37.4722 39.1635L38.719 24.3662C38.7499 23.9988 38.4744 23.6761 38.1037 23.6456ZM36.1298 39.0527C36.0988 39.3987 35.8068 39.6641 35.4563 39.6649H27.1608C26.8103 39.6641 26.5182 39.3987 26.4872 39.0527L25.6433 28.9838H36.9765L36.1298 39.0527ZM37.089 27.6486H25.5308L25.3065 24.9784H37.3133L37.089 27.6486Z" fill="#2F3741"/>
<path d="M16.4917 7.99278V6.24575C17.9298 5.87892 18.7956 4.42604 18.4255 3.0007C18.1194 1.82186 17.0463 0.9985 15.8182 1H7.73553C6.25051 0.998166 5.04519 2.18986 5.04334 3.6616C5.04182 4.87882 5.87257 5.94234 7.06198 6.24575V7.99278C3.20033 11.5104 1.00177 16.4703 1 21.6686V36.327C1.00295 38.9066 3.11218 40.9971 5.71487 41H17.8388C20.4415 40.9971 22.5507 38.9066 22.5537 36.327V21.6686C22.5519 16.4703 20.3534 11.5104 16.4917 7.99278ZM6.38842 3.67027C6.38842 2.93286 6.99151 2.33514 7.73553 2.33514H15.8182C16.5618 2.356 17.1477 2.9705 17.1265 3.70757C17.1083 4.34727 16.6345 4.88416 15.9973 4.98739C15.9397 4.96694 15.8793 4.95484 15.8182 4.95134H7.73553C7.6744 4.95484 7.61404 4.96694 7.55636 4.98739C6.88997 4.89877 6.39154 4.33667 6.38842 3.67027ZM8.18344 8.78852C8.32716 8.66168 8.40933 8.47993 8.40908 8.28918V6.34055H15.1446V8.28918C15.1444 8.47993 15.2265 8.66168 15.3702 8.78852C17.4939 10.6619 19.1216 13.0228 20.1107 15.6645C17.4749 16.6513 14.5324 16.422 12.0847 15.039C9.69767 13.6836 6.87751 13.2863 4.20409 13.9288C5.19026 11.9812 6.54065 10.2368 8.18344 8.78852ZM21.2066 36.327C21.2044 38.1695 19.6978 39.6627 17.8388 39.6649H5.71487C3.85586 39.6627 2.34929 38.1695 2.34711 36.327V21.6686C2.34854 19.5709 2.73659 17.4911 3.49215 15.5316C6.10376 14.5838 9.00442 14.8282 11.4172 16.1992C14.1939 17.7764 17.535 18.0468 20.533 16.9368C20.9788 18.4753 21.2055 20.0679 21.2066 21.6686V36.327Z" fill="#2F3741"/>
<path d="M34.3212 10.8109C34.0324 10.5248 33.5643 10.5248 33.2756 10.8109L31.5067 12.5641L29.7379 10.8109C29.4492 10.5248 28.981 10.5248 28.6923 10.8109C28.4036 11.097 28.4035 11.561 28.6923 11.8472L30.4612 13.6003L28.6923 15.3535C28.4036 15.6397 28.4036 16.1036 28.6923 16.3898C28.8367 16.5329 29.0259 16.6044 29.2151 16.6044C29.4043 16.6044 29.5935 16.5328 29.7379 16.3898L31.5067 14.6366L33.2756 16.3898C33.42 16.5329 33.6092 16.6044 33.7984 16.6044C33.9876 16.6044 34.1768 16.5328 34.3212 16.3898C34.6099 16.1036 34.6099 15.6397 34.3212 15.3535L32.5523 13.6003L34.3212 11.8472C34.6099 11.561 34.6099 11.097 34.3212 10.8109Z" fill="#2F3741"/>
<path fill-rule="evenodd" clip-rule="evenodd" d="M31.4646 21.027C35.6263 21.027 39 17.6833 39 13.5586C39 9.43393 35.6263 6.09021 31.4646 6.09021C27.303 6.09021 23.9293 9.43393 23.9293 13.5586C23.9293 17.6833 27.303 21.027 31.4646 21.027ZM31.5017 19.7026C34.9049 19.7026 37.6637 16.9683 37.6637 13.5954C37.6637 10.2225 34.9049 7.48824 31.5017 7.48824C28.0986 7.48824 25.3398 10.2225 25.3398 13.5954C25.3398 16.9683 28.0986 19.7026 31.5017 19.7026Z" fill="#2F3741"/>
<path d="M34.3212 10.8109C34.0324 10.5248 33.5643 10.5248 33.2756 10.8109L31.5067 12.5641L29.7379 10.8109C29.4492 10.5248 28.981 10.5248 28.6923 10.8109C28.4036 11.097 28.4035 11.561 28.6923 11.8472L30.4612 13.6003L28.6923 15.3535C28.4036 15.6397 28.4036 16.1036 28.6923 16.3898C28.8367 16.5329 29.0259 16.6044 29.2151 16.6044C29.4043 16.6044 29.5935 16.5328 29.7379 16.3898L31.5067 14.6366L33.2756 16.3898C33.42 16.5329 33.6092 16.6044 33.7984 16.6044C33.9876 16.6044 34.1768 16.5328 34.3212 16.3898C34.6099 16.1036 34.6099 15.6397 34.3212 15.3535L32.5523 13.6003L34.3212 11.8472C34.6099 11.561 34.6099 11.097 34.3212 10.8109Z" fill="#2F3741"/>
<path fill-rule="evenodd" clip-rule="evenodd" d="M31.4646 21.027C35.6263 21.027 39 17.6833 39 13.5586C39 9.43393 35.6263 6.09021 31.4646 6.09021C27.303 6.09021 23.9293 9.43393 23.9293 13.5586C23.9293 17.6833 27.303 21.027 31.4646 21.027ZM31.5017 19.7026C34.9049 19.7026 37.6637 16.9683 37.6637 13.5954C37.6637 10.2225 34.9049 7.48824 31.5017 7.48824C28.0986 7.48824 25.3398 10.2225 25.3398 13.5954C25.3398 16.9683 28.0986 19.7026 31.5017 19.7026Z" fill="#2F3741"/>
<path d="M19.1859 23.6432C18.814 23.6432 18.5124 23.9421 18.5124 24.3108V24.9784C18.5124 25.347 18.814 25.6459 19.1859 25.6459C19.5579 25.6459 19.8595 25.347 19.8595 24.9784V24.3108C19.8595 23.9421 19.5579 23.6432 19.1859 23.6432Z" stroke="#2F3741" stroke-width="0.257804"/>
<path d="M19.1859 26.9811C18.814 26.9811 18.5124 27.28 18.5124 27.6486V32.3216C18.5124 32.6903 18.814 32.9892 19.1859 32.9892C19.5579 32.9892 19.8595 32.6903 19.8595 32.3216V27.6486C19.8595 27.28 19.5579 26.9811 19.1859 26.9811Z" stroke="#2F3741" stroke-width="0.257804"/>
<path d="M38.1037 23.6456C38.0843 23.644 38.0649 23.6432 38.0454 23.6432H24.5743C24.2024 23.642 23.8998 23.9398 23.8984 24.3085C23.8984 24.3277 23.8991 24.347 23.9008 24.3662L25.1455 39.1635C25.2377 40.1998 26.1112 40.9957 27.1608 41H35.459C36.5078 40.9947 37.3801 40.199 37.4722 39.1635L38.719 24.3662C38.7499 23.9988 38.4744 23.6761 38.1037 23.6456ZM36.1298 39.0527C36.0988 39.3987 35.8068 39.6641 35.4563 39.6649H27.1608C26.8103 39.6641 26.5182 39.3987 26.4872 39.0527L25.6433 28.9838H36.9765L36.1298 39.0527ZM37.089 27.6486H25.5308L25.3065 24.9784H37.3133L37.089 27.6486Z" stroke="#2F3741" stroke-width="0.257804"/>
<path d="M16.4917 7.99278V6.24575C17.9298 5.87892 18.7956 4.42604 18.4255 3.0007C18.1194 1.82186 17.0463 0.9985 15.8182 1H7.73553C6.25051 0.998166 5.04519 2.18986 5.04334 3.6616C5.04182 4.87882 5.87257 5.94234 7.06198 6.24575V7.99278C3.20033 11.5104 1.00177 16.4703 1 21.6686V36.327C1.00295 38.9066 3.11218 40.9971 5.71487 41H17.8388C20.4415 40.9971 22.5507 38.9066 22.5537 36.327V21.6686C22.5519 16.4703 20.3534 11.5104 16.4917 7.99278ZM6.38842 3.67027C6.38842 2.93286 6.99151 2.33514 7.73553 2.33514H15.8182C16.5618 2.356 17.1477 2.9705 17.1265 3.70757C17.1083 4.34727 16.6345 4.88416 15.9973 4.98739C15.9397 4.96694 15.8793 4.95484 15.8182 4.95134H7.73553C7.6744 4.95484 7.61404 4.96694 7.55636 4.98739C6.88997 4.89877 6.39154 4.33667 6.38842 3.67027ZM8.18344 8.78852C8.32716 8.66168 8.40933 8.47993 8.40908 8.28918V6.34055H15.1446V8.28918C15.1444 8.47993 15.2265 8.66168 15.3702 8.78852C17.4939 10.6619 19.1216 13.0228 20.1107 15.6645C17.4749 16.6513 14.5324 16.422 12.0847 15.039C9.69767 13.6836 6.87751 13.2863 4.20409 13.9288C5.19026 11.9812 6.54065 10.2368 8.18344 8.78852ZM21.2066 36.327C21.2044 38.1695 19.6978 39.6627 17.8388 39.6649H5.71487C3.85586 39.6627 2.34929 38.1695 2.34711 36.327V21.6686C2.34854 19.5709 2.73659 17.4911 3.49215 15.5316C6.10376 14.5838 9.00442 14.8282 11.4172 16.1992C14.1939 17.7764 17.535 18.0468 20.533 16.9368C20.9788 18.4753 21.2055 20.0679 21.2066 21.6686V36.327Z" stroke="#2F3741" stroke-width="0.257804"/>
<path d="M34.3212 10.8109C34.0324 10.5248 33.5643 10.5248 33.2756 10.8109L31.5067 12.5641L29.7379 10.8109C29.4492 10.5248 28.981 10.5248 28.6923 10.8109C28.4036 11.097 28.4035 11.561 28.6923 11.8472L30.4612 13.6003L28.6923 15.3535C28.4036 15.6397 28.4036 16.1036 28.6923 16.3898C28.8367 16.5329 29.0259 16.6044 29.2151 16.6044C29.4043 16.6044 29.5935 16.5328 29.7379 16.3898L31.5067 14.6366L33.2756 16.3898C33.42 16.5329 33.6092 16.6044 33.7984 16.6044C33.9876 16.6044 34.1768 16.5328 34.3212 16.3898C34.6099 16.1036 34.6099 15.6397 34.3212 15.3535L32.5523 13.6003L34.3212 11.8472C34.6099 11.561 34.6099 11.097 34.3212 10.8109Z" stroke="#2F3741" stroke-width="0.257804"/>
<path fill-rule="evenodd" clip-rule="evenodd" d="M31.4646 21.027C35.6263 21.027 39 17.6833 39 13.5586C39 9.43393 35.6263 6.09021 31.4646 6.09021C27.303 6.09021 23.9293 9.43393 23.9293 13.5586C23.9293 17.6833 27.303 21.027 31.4646 21.027ZM31.5017 19.7026C34.9049 19.7026 37.6637 16.9683 37.6637 13.5954C37.6637 10.2225 34.9049 7.48824 31.5017 7.48824C28.0986 7.48824 25.3398 10.2225 25.3398 13.5954C25.3398 16.9683 28.0986 19.7026 31.5017 19.7026Z" stroke="#2F3741" stroke-width="0.257804"/>
<path d="M34.3212 10.8109C34.0324 10.5248 33.5643 10.5248 33.2756 10.8109L31.5067 12.5641L29.7379 10.8109C29.4492 10.5248 28.981 10.5248 28.6923 10.8109C28.4036 11.097 28.4035 11.561 28.6923 11.8472L30.4612 13.6003L28.6923 15.3535C28.4036 15.6397 28.4036 16.1036 28.6923 16.3898C28.8367 16.5329 29.0259 16.6044 29.2151 16.6044C29.4043 16.6044 29.5935 16.5328 29.7379 16.3898L31.5067 14.6366L33.2756 16.3898C33.42 16.5329 33.6092 16.6044 33.7984 16.6044C33.9876 16.6044 34.1768 16.5328 34.3212 16.3898C34.6099 16.1036 34.6099 15.6397 34.3212 15.3535L32.5523 13.6003L34.3212 11.8472C34.6099 11.561 34.6099 11.097 34.3212 10.8109Z" stroke="#2F3741" stroke-width="0.257804"/>
<path fill-rule="evenodd" clip-rule="evenodd" d="M31.4646 21.027C35.6263 21.027 39 17.6833 39 13.5586C39 9.43393 35.6263 6.09021 31.4646 6.09021C27.303 6.09021 23.9293 9.43393 23.9293 13.5586C23.9293 17.6833 27.303 21.027 31.4646 21.027ZM31.5017 19.7026C34.9049 19.7026 37.6637 16.9683 37.6637 13.5954C37.6637 10.2225 34.9049 7.48824 31.5017 7.48824C28.0986 7.48824 25.3398 10.2225 25.3398 13.5954C25.3398 16.9683 28.0986 19.7026 31.5017 19.7026Z" stroke="#2F3741" stroke-width="0.257804"/>
</svg>
