<svg width="24" height="30" viewBox="0 0 24 30" fill="none" xmlns="http://www.w3.org/2000/svg">
<path d="M12.2455 12.5436L12.2455 12.5435L12.3509 12.1224L12.2455 12.5436ZM12.2455 12.5436C12.1404 12.9652 11.7167 13.2151 11.3063 13.1109C10.8926 13.0053 10.6402 12.5805 10.7448 12.1601L10.8502 11.7397L10.8503 11.7395M12.2455 12.5436L10.8503 11.7395M10.8503 11.7395C10.9547 11.3198 11.376 11.0673 11.7895 11.1723C12.203 11.2774 12.4555 11.7025 12.3509 12.1223L10.8503 11.7395ZM7.6068 10.9975L7.60668 10.9973C7.304 10.6922 7.3039 10.1963 7.60615 9.89047C7.90842 9.58528 8.39802 9.58528 8.70029 9.89047L9.00439 10.1975C9.30719 10.5033 9.30719 10.9987 9.00439 11.3044C8.70112 11.6106 8.21233 11.6094 7.91026 11.3044L7.6068 10.9975ZM15.7297 11.458L15.7295 11.4581C15.4286 11.763 14.9392 11.764 14.6361 11.458L14.636 11.4579C14.3334 11.1528 14.3333 10.6568 14.6361 10.3511L14.9402 10.044C15.2425 9.73882 15.7315 9.73882 16.0338 10.044C16.3366 10.3498 16.3365 10.8458 16.0338 11.1509L16.0338 11.1509L15.7297 11.458ZM23.5099 16.0243L23.5101 16.0244C23.8262 16.2066 23.9739 16.5874 23.8638 16.939L23.8638 16.9391C23.3929 18.4457 23.185 19.1111 22.9771 19.7764C22.5816 21.0415 22.1857 22.3064 19.9809 29.3537L19.9809 29.3537C19.879 29.6795 19.5805 29.9 19.2432 29.9H4.75683C4.41952 29.9 4.12106 29.6795 4.01918 29.3537L3.92374 29.3835L4.01918 29.3537C2.30969 23.8878 1.84845 22.4129 1.38715 20.9381C1.08599 19.9752 0.784814 19.0124 0.136272 16.939L0.136254 16.939C0.0260297 16.5873 0.173735 16.2066 0.489845 16.0243L0.49003 16.0242C0.872933 15.8024 1.25832 15.614 1.64562 15.4594L1.70083 15.4374L1.70786 15.3783C2.24295 10.8842 5.19781 7.56304 9.15388 6.4203L9.24359 6.39439L9.22388 6.30312C8.59936 3.41196 11.7526 1.21954 14.1962 2.8079L14.2527 2.84462L14.3079 2.80604C15.0903 2.25973 15.7094 1.48195 16.065 0.590089C16.2249 0.188971 16.6758 -0.00410819 17.0714 0.156692C17.4676 0.317751 17.6606 0.773419 17.5005 1.17502L17.5934 1.21205L17.5005 1.17502C17.0605 2.27867 16.314 3.25106 15.3706 3.96147L15.4305 4.04102L15.3411 4.08571L15.3411 4.08571L15.3411 4.08572L15.3412 4.08573L15.3412 4.08574L15.3412 4.08574L15.3412 4.08575L15.3412 4.08575L15.3412 4.08576L15.3412 4.08577L15.3412 4.08577L15.3415 4.08644L15.3657 4.13524C15.7301 4.88732 15.7952 5.7513 15.5609 6.54419L15.5345 6.6336L15.6218 6.66621C19.168 7.99044 21.7902 11.1917 22.2886 15.3766L22.2956 15.4356L22.3508 15.4577C22.7393 15.6128 23.1259 15.8019 23.5099 16.0243ZM15.7002 28.2235L15.6869 28.3353H15.7995H18.6029H18.6764L18.6983 28.2652L21.0409 20.7764L21.0725 20.6754L20.9699 20.6496C19.7099 20.3325 18.678 20.5019 17.9232 20.7663C17.5462 20.8983 17.239 21.0538 17.0076 21.1832C16.911 21.2373 16.8273 21.287 16.7581 21.328C16.7446 21.336 16.7316 21.3437 16.7193 21.3511C16.6399 21.398 16.5906 21.4259 16.5624 21.4369L16.5066 21.4588L16.4995 21.5182L15.7002 28.2235ZM5.30158 28.2651L5.32352 28.3353H5.39703H8.19918H8.31181L8.29848 28.2235L7.49924 21.5176L7.492 21.4569L7.4347 21.4357C7.4114 21.4271 7.36619 21.4016 7.28844 21.3553C7.27625 21.3481 7.26346 21.3404 7.25009 21.3324C7.18276 21.2922 7.10056 21.2431 7.00524 21.1894C6.77621 21.0606 6.46929 20.9043 6.09147 20.7711C5.335 20.5044 4.2964 20.331 3.0306 20.6502L2.92803 20.676L2.95961 20.777L5.30158 28.2651ZM13.6463 4.35863L13.6462 4.35856C12.9695 3.67654 11.8724 3.67852 11.2 4.35869C10.5255 5.03983 10.5283 6.14693 11.2001 6.82525L11.2001 6.82526C11.8173 7.44821 12.7906 7.50164 13.4689 6.98128L13.4689 6.98127C14.3071 6.33809 14.381 5.10049 13.6463 4.35863ZM14.7266 8.01798L14.6709 7.99984L14.6278 8.03947C13.2966 9.26437 11.2376 9.16022 10.0355 7.85759L9.99562 7.81436L9.93845 7.82822C6.86897 8.57242 4.0627 10.9774 3.3464 14.859L3.32133 14.9948L3.45819 14.9762C4.88878 14.782 6.3398 15.0372 7.67313 15.7735L7.71933 15.799L7.76646 15.7752C10.6195 14.3378 13.6669 14.4358 16.2315 15.7746L16.2791 15.7994L16.3261 15.7735C17.6854 15.0234 19.1364 14.787 20.5395 14.9751L20.6762 14.9934L20.6511 14.8578C19.9861 11.2603 17.5266 8.93123 14.7266 8.01798ZM15.4543 17.2049L15.4626 17.1353L15.4001 17.1037C13.2328 16.0102 10.6879 16.0569 8.62118 17.0924H8.53232L8.54562 17.2042C8.56439 17.3621 8.58029 17.4951 8.59903 17.6516C8.63545 17.9561 8.68256 18.3499 8.78214 19.1895L8.7963 19.3089L8.91112 19.2732C8.91996 19.2704 8.92799 19.2677 8.93491 19.2654L8.93639 19.2649C11.007 18.5315 13.0073 18.5739 15.0849 19.2731L15.2015 19.3123L15.2161 19.1901C15.2389 18.9988 15.2966 18.5181 15.3507 18.068C15.3945 17.7039 15.4358 17.3598 15.4543 17.2049ZM15.0005 20.9972L15.0091 20.9253L14.9434 20.8947C13.42 20.1848 11.0574 20.0463 9.05796 20.8927L8.98875 20.922L8.99764 20.9966L9.8622 28.2471L9.87271 28.3353H9.96149H14.0372H14.126L14.1365 28.2471L15.0005 20.9972ZM1.88717 17.0562L1.80721 17.093L1.83348 17.177L2.43296 19.0929L2.46154 19.1842L2.55405 19.1597C4.10848 18.7471 5.67329 18.8639 7.10671 19.4957L7.26711 19.5664L7.24634 19.3923C7.18712 18.8962 7.18298 18.8614 7.16346 18.6973C7.14394 18.5331 7.10903 18.2396 6.98826 17.2259L6.98218 17.1749L6.9372 17.1501C5.31379 16.2561 3.54244 16.2957 1.88717 17.0562ZM16.7523 19.3917L16.7316 19.5657L16.8919 19.4951C18.3254 18.8639 19.8914 18.7465 21.4464 19.1591L21.5389 19.1836L21.5675 19.0923C21.9073 18.006 21.9696 17.8067 22.0319 17.6074C22.064 17.5046 22.0962 17.4017 22.1664 17.1769L22.1926 17.0929L22.1126 17.0562C20.4259 16.2833 18.6599 16.2694 17.0614 17.1507L17.0165 17.1755L17.0104 17.2264C16.901 18.1432 16.8735 18.3746 16.8493 18.5781C16.8294 18.7458 16.8117 18.8945 16.7523 19.3917ZM8.57439 17.1218C8.57421 17.122 8.57451 17.1217 8.57511 17.1211L8.57469 17.1215L8.57447 17.1217L8.57441 17.1218L8.57439 17.1218Z" fill="white" stroke="white" stroke-width="0.2"/>
</svg>
