<svg width="21" height="27" viewBox="0 0 21 27" fill="none" xmlns="http://www.w3.org/2000/svg">
<path d="M16.6463 3.6914C14.508 3.6914 12.7261 5.28735 12.3619 7.38281H11.3886C11.3652 7.26147 11.3406 7.13949 11.3145 7.01704C10.4953 3.17492 8.68956 0.758684 6.09237 0.0294203C5.90701 -0.0225231 5.71944 -0.00649186 5.54878 0.0839476C5.44065 0.136787 3.68332 0.959286 1.01125 0.0421292C0.673199 -0.0737809 0.302114 0.0645414 0.114754 0.376729C-0.0725558 0.688758 -0.0269194 1.09249 0.225029 1.35189C0.238397 1.36566 1.56237 2.75357 1.7339 5.07141C1.76059 5.43121 2.02247 5.72732 2.36759 5.79049C2.38127 5.79302 3.75108 6.05211 5.08391 7.01272C5.24797 7.13095 5.40419 7.2544 5.55283 7.38281H4.35368C4.13825 7.38281 3.9327 7.47594 3.78714 7.63947C3.64162 7.80305 3.56945 8.022 3.5883 8.24291L5.00191 24.8343C5.10706 26.069 6.09416 27 7.29797 27H13.7021C14.9059 27 15.893 26.069 15.9981 24.8343L17.3502 8.96484H20.2317C20.656 8.96484 21 8.61067 21 8.17382C21 5.70222 19.047 3.6914 16.6463 3.6914ZM5.91131 5.67817C4.86705 4.93788 3.82417 4.55424 3.20257 4.37283C3.06546 3.433 2.78124 2.63244 2.47382 1.99314C4.15812 2.192 5.38769 1.83747 5.92954 1.63112C8.22822 2.42309 9.31223 4.97 9.81915 7.38281H7.66711C7.11855 6.6479 6.49352 6.09092 5.91131 5.67817ZM9.18833 11.6016C9.11043 10.5914 8.88685 9.71725 8.57119 8.96484H10.0804C10.2134 10.037 10.2486 10.9834 10.254 11.6016H9.18833ZM6.85672 8.96484C7.29229 9.7365 7.55602 10.6171 7.64683 11.6016H5.41694L5.19229 8.96484H6.85672ZM14.4674 24.6961C14.4323 25.1077 14.1034 25.418 13.7021 25.418H7.29797C6.89672 25.418 6.56769 25.1076 6.53265 24.6961L5.55175 13.1836H15.4483L14.4674 24.6961ZM15.5831 11.6016H11.7928C11.7888 10.9729 11.756 10.0382 11.6311 8.96484H15.8077L15.5831 11.6016ZM13.9358 7.38281C14.271 6.1667 15.3592 5.27343 16.6463 5.27343C17.9335 5.27343 19.0217 6.1667 19.3569 7.38281H13.9358Z" fill="white"/>
<path d="M12.0366 22.1484C12.4609 22.1484 12.8049 21.7943 12.8049 21.3574C12.8049 20.9206 12.4609 20.5664 12.0366 20.5664C11.6123 20.5664 11.2683 20.9206 11.2683 21.3574C11.2683 21.7943 11.6123 22.1484 12.0366 22.1484Z" fill="white"/>
<path d="M8.19514 20.3027C8.61945 20.3027 8.96343 19.9486 8.96343 19.5117C8.96343 19.0749 8.61945 18.7207 8.19514 18.7207C7.77082 18.7207 7.42684 19.0749 7.42684 19.5117C7.42684 19.9486 7.77082 20.3027 8.19514 20.3027Z" fill="white"/>
<path d="M12.2927 17.666C12.717 17.666 13.061 17.3119 13.061 16.875C13.061 16.4381 12.717 16.084 12.2927 16.084C11.8684 16.084 11.5244 16.4381 11.5244 16.875C11.5244 17.3119 11.8684 17.666 12.2927 17.666Z" fill="white"/>
</svg>
