<svg width="38" height="36" viewBox="0 0 38 36" fill="none" xmlns="http://www.w3.org/2000/svg">
<path fill-rule="evenodd" clip-rule="evenodd" d="M36.9821 20.1328C34.7838 16.0128 29.7397 14.4244 25.7158 16.5849C21.6919 18.7454 20.2119 23.8367 22.4102 27.9567C24.6085 32.0766 29.6525 33.6651 33.6765 31.5046C37.7004 29.3441 39.1804 24.2527 36.9821 20.1328ZM35.6704 20.7898C33.8728 17.4208 29.7481 16.1218 26.4576 17.8886C23.1671 19.6553 21.9568 23.8186 23.7545 27.1877C25.5521 30.5567 29.6768 31.8556 32.9673 30.0889C36.2578 28.3222 37.468 24.1588 35.6704 20.7898Z" fill="#2F3741"/>
<path fill-rule="evenodd" clip-rule="evenodd" d="M36.9821 20.1328C34.7838 16.0128 29.7397 14.4244 25.7158 16.5849C21.6919 18.7454 20.2119 23.8367 22.4102 27.9567C24.6085 32.0766 29.6525 33.6651 33.6765 31.5046C37.7004 29.3441 39.1804 24.2527 36.9821 20.1328ZM35.6704 20.7898C33.8728 17.4208 29.7481 16.1218 26.4576 17.8886C23.1671 19.6553 21.9568 23.8186 23.7545 27.1877C25.5521 30.5567 29.6768 31.8556 32.9673 30.0889C36.2578 28.3222 37.468 24.1588 35.6704 20.7898Z" fill="#2F3741"/>
<path d="M27.5797 34.354C25.4707 34.0712 22.5219 31.1338 20.4803 28.1621C21.1355 27.7118 21.718 27.1856 22.2143 26.5925C22.5066 26.2432 22.4609 25.7218 22.113 25.4278C21.7647 25.1338 21.2454 25.1788 20.9531 25.528C20.5718 25.9835 20.1253 26.3909 19.6238 26.7447L18.3943 24.5079C18.0649 21.9419 19.2902 19.5035 21.5762 18.0918C21.8323 18.5599 22.0351 19.0444 22.1816 19.5385C22.3115 19.9763 22.7699 20.2259 23.2058 20.0961C23.6416 19.9663 23.8896 19.5062 23.7598 19.0686C23.4971 18.1828 23.0896 17.3271 22.5486 16.5252C22.4305 16.35 22.2467 16.2253 22.0409 16.1804C21.8312 16.1346 21.6366 16.1803 21.4481 16.2744C21.3808 14.6925 20.8533 13.1158 19.9012 11.7095C19.7831 11.5348 19.5996 11.4106 19.3942 11.3657C19.1845 11.32 18.9899 11.3656 18.8015 11.4598C18.7342 9.87747 18.2067 8.30074 17.2544 6.89469C17.1362 6.72013 16.9528 6.59591 16.7474 6.55114C16.5377 6.50539 16.3431 6.55107 16.1547 6.64512C16.0874 5.06282 15.5599 3.48614 14.6077 2.08009C14.3797 1.74353 13.9273 1.62309 13.5638 1.80196C12.4011 2.37437 11.4198 3.14732 10.6526 4.05933C10.329 3.56223 9.95908 3.09932 9.54445 2.67715C8.25752 1.36696 6.55796 0.438318 4.6083 0.0184938C4.20737 -0.0678235 3.80465 0.154991 3.66357 0.541259C2.75566 3.02726 2.83141 5.61487 3.84302 7.8301C2.66553 7.99563 1.49148 8.41727 0.390285 9.09992C0.0419241 9.31584 -0.0950143 9.75621 0.0689189 10.1333C0.747088 11.6928 1.79422 12.9823 3.09115 13.8821C3.07315 13.8931 3.05498 13.9034 3.03698 13.9146C2.68862 14.1305 2.55173 14.5709 2.71567 14.948C3.39372 16.5074 4.44086 17.7969 5.7379 18.6968C5.7199 18.7078 5.70173 18.7181 5.68367 18.7292C5.33531 18.9452 5.19843 19.3856 5.36236 19.7626C6.04036 21.3219 7.08732 22.6112 8.38407 23.511C8.36683 23.5216 8.34936 23.5315 8.33212 23.5422C7.98388 23.758 7.84688 24.198 8.01052 24.5751C9.00328 26.8622 10.7685 28.5419 12.9809 29.3048C14.9489 29.9835 17.0756 29.863 19.0399 28.9753C20.0858 30.5153 21.3416 32.0192 22.5564 33.1774C24.3143 34.8534 25.9316 35.8006 27.3638 35.9926C27.8146 36.0531 28.2283 35.7353 28.288 35.2827C28.3476 34.8303 28.0305 34.4144 27.5797 34.354ZM18.9298 13.2772C19.6342 14.5673 19.9262 15.9825 19.7671 17.352C18.3174 18.5241 17.3265 20.0813 16.9116 21.8105L15.7493 19.696C15.418 17.1287 16.6428 14.6892 18.9298 13.2772ZM16.2832 8.46259C16.9876 9.75251 17.2796 11.1676 17.1204 12.5374C15.6706 13.7097 14.6799 15.2671 14.2655 16.9966L13.1025 14.8809C12.7717 12.3144 13.9965 9.87511 16.2832 8.46259ZM13.6368 3.6484C14.341 4.93827 14.633 6.3535 14.4736 7.72318C13.0242 8.8956 12.0336 10.453 11.6191 12.182L10.4558 10.0656C10.1254 7.50123 11.3502 5.06244 13.6368 3.6484ZM4.98341 1.82096C7.05039 2.44883 8.70714 3.78437 9.63734 5.58187C9.13929 6.54838 8.84099 7.60755 8.77016 8.71079C7.80196 8.18302 6.75 7.87186 5.66998 7.77944C4.65073 6.03153 4.40904 3.91229 4.98341 1.82096ZM1.90863 10.1451C4.31692 8.95652 7.02608 9.21607 9.01455 10.8635L10.1794 12.9826C8.49976 12.4124 6.65804 12.4232 4.89678 13.029C3.65792 12.4356 2.6209 11.4331 1.90863 10.1451ZM4.55526 14.9597C6.96344 13.7712 9.6723 14.0306 11.6608 15.6777L12.8259 17.7972C11.1463 17.227 9.30473 17.2378 7.54347 17.8436C6.30462 17.2503 5.26759 16.2475 4.55526 14.9597ZM7.20202 19.7743C9.60996 18.5859 12.3188 18.8451 14.3071 20.492L15.4718 22.6108C13.7923 22.0408 11.9506 22.0517 10.1893 22.6578C8.95085 22.0644 7.91405 21.0618 7.20202 19.7743ZM13.5143 27.7415C11.9654 27.2074 10.6855 26.1 9.85 24.5877C12.2574 23.4 14.9656 23.6593 16.9531 25.3058L18.1838 27.5448C16.6535 28.1871 15.0209 28.2609 13.5143 27.7415Z" fill="#2F3741"/>
<path d="M33.0669 20.7442C32.7353 20.4116 32.1977 20.4116 31.8661 20.7442L29.8346 22.782L27.8032 20.7442C27.4716 20.4116 26.934 20.4116 26.6024 20.7442C26.2708 21.0768 26.2707 21.6161 26.6024 21.9487L28.6338 23.9866L26.6024 26.0244C26.2708 26.357 26.2708 26.8963 26.6024 27.229C26.7682 27.3953 26.9855 27.4784 27.2028 27.4784C27.4201 27.4784 27.6374 27.3952 27.8032 27.229L29.8346 25.1911L31.8661 27.229C32.0319 27.3953 32.2492 27.4784 32.4665 27.4784C32.6838 27.4784 32.9011 27.3952 33.0669 27.229C33.3984 26.8963 33.3985 26.357 33.0669 26.0244L31.0354 23.9866L33.0669 21.9487C33.3985 21.6161 33.3984 21.0768 33.0669 20.7442Z" fill="#2F3741"/>
<path d="M33.0669 20.7442C32.7353 20.4116 32.1977 20.4116 31.8661 20.7442L29.8346 22.782L27.8032 20.7442C27.4716 20.4116 26.934 20.4116 26.6024 20.7442C26.2708 21.0768 26.2707 21.6161 26.6024 21.9487L28.6338 23.9866L26.6024 26.0244C26.2708 26.357 26.2708 26.8963 26.6024 27.229C26.7682 27.3953 26.9855 27.4784 27.2028 27.4784C27.4201 27.4784 27.6374 27.3952 27.8032 27.229L29.8346 25.1911L31.8661 27.229C32.0319 27.3953 32.2492 27.4784 32.4665 27.4784C32.6838 27.4784 32.9011 27.3952 33.0669 27.229C33.3984 26.8963 33.3985 26.357 33.0669 26.0244L31.0354 23.9866L33.0669 21.9487C33.3985 21.6161 33.3984 21.0768 33.0669 20.7442Z" fill="#2F3741"/>
</svg>
