<svg width="42" height="42" viewBox="0 0 42 42" fill="none" xmlns="http://www.w3.org/2000/svg">
<path d="M20.3293 1.49086L15.1025 6.71765L7.7107 6.71765C7.16225 6.71765 6.71765 7.16225 6.71765 7.7107L6.71765 15.1025L1.49086 20.3293C1.10305 20.7171 1.10305 21.3459 1.49086 21.7337L6.71765 26.9605L6.71765 34.3523C6.71765 34.9007 7.16225 35.3453 7.7107 35.3453H15.1025L20.3293 40.5721C20.7171 40.9599 21.3459 40.9599 21.7337 40.5721L26.9605 35.3453L34.3523 35.3453C34.9007 35.3453 35.3453 34.9007 35.3453 34.3523L35.3453 26.9605L40.5721 21.7337C40.9599 21.3459 40.9599 20.7171 40.5721 20.3293L35.3453 15.1025V7.7107C35.3453 7.16225 34.9007 6.71765 34.3523 6.71765L26.9605 6.71765L21.7337 1.49086C21.3459 1.10305 20.7171 1.10305 20.3293 1.49086Z" stroke="#3A3A3A" stroke-width="1.6"/>
<path d="M24.8107 25.4846L25.0984 24.7382L24.8107 25.4846ZM33.6441 23.3338C33.9678 23.0331 33.9865 22.5269 33.6859 22.2032C33.3852 21.8794 32.879 21.8607 32.5553 22.1614L33.6441 23.3338ZM32.8752 23.387C33.2805 23.563 33.7517 23.3771 33.9277 22.9718C34.1036 22.5665 33.9178 22.0953 33.5125 21.9194L32.8752 23.387ZM28.7668 20.9543L28.993 20.1869L28.993 20.1869L28.7668 20.9543ZM25.5373 21.5815C25.3103 21.9606 25.4336 22.4519 25.8126 22.6789C26.1917 22.9058 26.683 22.7826 26.91 22.4035L25.5373 21.5815ZM15.5253 13.2052C15.4678 12.7671 15.0661 12.4586 14.628 12.5161C14.1899 12.5737 13.8814 12.9754 13.939 13.4135L15.5253 13.2052ZM10.6398 22.6843C10.657 22.2428 10.313 21.8709 9.87148 21.8538C9.42999 21.8366 9.05817 22.1806 9.041 22.6221L10.6398 22.6843ZM18.5189 15.3055C18.1097 15.1389 17.6429 15.3356 17.4763 15.7448C17.3097 16.154 17.5064 16.6208 17.9156 16.7874L18.5189 15.3055ZM20.2436 19.9456C20.2599 20.3872 20.6311 20.7319 21.0726 20.7155C21.5141 20.6992 21.8588 20.3281 21.8425 19.8865L20.2436 19.9456ZM24.5726 14.8755C24.6036 14.4348 24.2714 14.0524 23.8307 14.0214C23.39 13.9904 23.0076 14.3226 22.9766 14.7634L24.5726 14.8755ZM16.8273 25.2541C16.3872 25.2935 16.0624 25.6822 16.1018 26.1222C16.1411 26.5623 16.5298 26.8871 16.9699 26.8478L16.8273 25.2541ZM22.5165 21.6634C22.6039 22.1451 22.7461 23.1053 22.9908 23.9686C23.1139 24.4026 23.2742 24.8565 23.4904 25.2427C23.6964 25.6109 24.019 26.0369 24.523 26.2311L25.0984 24.7382C25.1126 24.7436 25.0255 24.7095 24.8866 24.4613C24.7577 24.2311 24.6379 23.9121 24.5302 23.5322C24.3133 22.7673 24.1918 21.9342 24.0908 21.3778L22.5165 21.6634ZM24.523 26.2311C26.0469 26.8184 29.5696 27.1177 33.6441 23.3338L32.5553 22.1614C28.906 25.5504 26.0235 25.0947 25.0984 24.7382L24.523 26.2311ZM33.5125 21.9194C32.5727 21.5113 30.3271 20.5801 28.993 20.1869L28.5407 21.7217C29.7686 22.0835 31.9311 22.9771 32.8752 23.387L33.5125 21.9194ZM28.993 20.1869C27.9838 19.8895 27.1748 20.0532 26.5655 20.4482C25.9979 20.8162 25.6833 21.3376 25.5373 21.5815L26.91 22.4035C27.0465 22.1755 27.2029 21.9418 27.4359 21.7907C27.6273 21.6667 27.9485 21.5472 28.5407 21.7217L28.993 20.1869ZM14.7321 13.3093C13.939 13.4135 13.939 13.4135 13.939 13.4135C13.939 13.4136 13.939 13.4136 13.939 13.4137C13.939 13.4139 13.9391 13.4142 13.9391 13.4146C13.9392 13.4155 13.9394 13.4167 13.9396 13.4184C13.94 13.4218 13.9407 13.4268 13.9416 13.4335C13.9433 13.447 13.946 13.4671 13.9494 13.4935C13.9562 13.5462 13.9663 13.624 13.9791 13.7241C14.0047 13.9243 14.0414 14.2134 14.0854 14.5683C14.1734 15.2784 14.2907 16.2513 14.408 17.303C14.6447 19.4257 14.874 21.8095 14.8741 23.0307L16.4741 23.0307C16.474 21.7036 16.2324 19.2267 15.9981 17.1257C15.8799 16.0657 15.7618 15.086 15.6732 14.3715C15.6289 14.0142 15.592 13.723 15.5661 13.5209C15.5532 13.4199 15.543 13.3411 15.5361 13.2876C15.5326 13.2608 15.5299 13.2403 15.5281 13.2264C15.5272 13.2195 15.5265 13.2142 15.5261 13.2107C15.5258 13.2089 15.5256 13.2076 15.5255 13.2066C15.5255 13.2062 15.5254 13.2058 15.5254 13.2056C15.5254 13.2055 15.5254 13.2054 15.5254 13.2053C15.5253 13.2052 15.5253 13.2052 14.7321 13.3093ZM14.8741 23.0307C14.8741 23.362 14.6615 23.8251 14.1788 24.2854C13.7098 24.7325 13.09 25.072 12.5073 25.195C11.9272 25.3175 11.4913 25.2115 11.2061 24.9419C10.9074 24.6595 10.5877 24.0247 10.6398 22.6843L9.041 22.6221C8.98009 24.1887 9.33311 25.3731 10.107 26.1046C10.8944 26.849 11.9312 26.9519 12.8377 26.7605C13.7417 26.5697 14.6227 26.0728 15.2829 25.4434C15.9293 24.8271 16.4741 23.9736 16.4741 23.0307L14.8741 23.0307ZM17.9156 16.7874C18.2945 16.9416 18.8798 17.3218 19.3733 17.8931C19.8607 18.4573 20.2144 19.155 20.2436 19.9456L21.8425 19.8865C21.7964 18.6385 21.2395 17.6059 20.584 16.8471C19.9347 16.0955 19.1448 15.5602 18.5189 15.3055L17.9156 16.7874ZM22.9766 14.7634L22.5056 21.4645L24.1017 21.5767L24.5726 14.8755L22.9766 14.7634ZM22.533 21.306C22.2332 22.3822 20.6722 24.9101 16.8273 25.2541L16.9699 26.8478C21.5646 26.4367 23.6205 23.3646 24.0743 21.7352L22.533 21.306Z" fill="#3A3A3A"/>
</svg>
