<svg width="36" height="40" viewBox="0 0 36 40" fill="none" xmlns="http://www.w3.org/2000/svg">
<path d="M29.8999 19.9496L29.8705 20L29.8999 20.0504L35.047 28.874C35.2404 29.2055 35.2418 29.6152 35.0506 29.9479L35.1373 29.9977L35.0506 29.9479C34.8595 30.2807 34.505 30.4859 34.1212 30.4859H23.8112H23.7538L23.7249 30.5356L18.5724 39.3682L18.6588 39.4186L18.5724 39.3682C18.3804 39.6976 18.0278 39.9 17.6465 39.9C17.2653 39.9 16.9127 39.6976 16.7207 39.3682L16.6343 39.4186L16.7207 39.3682L11.5682 30.5355L11.5393 30.4859H11.4819H1.17186C0.788052 30.4859 0.433555 30.2808 0.242408 29.9479L0.242403 29.9479C0.051253 29.6151 0.0526138 29.2055 0.246045 28.874L0.246052 28.874L5.39316 20.0504L5.42255 20L5.39316 19.9496L0.246131 11.126L0.246123 11.126C0.0526919 10.7945 0.0513311 10.3849 0.242481 10.0521C0.433634 9.71929 0.788141 9.51406 1.17194 9.51406H11.4819H11.5394L11.5683 9.46445L16.7207 0.631793L16.6343 0.581406L16.7207 0.631785C16.9127 0.302445 17.2653 0.1 17.6465 0.1C18.0278 0.1 18.3803 0.302438 18.5724 0.631794L23.7249 9.46445L23.7538 9.51406H23.8112H34.1212C34.505 9.51406 34.8595 9.71922 35.0506 10.0521L35.1373 10.0023L35.0506 10.0521C35.2418 10.3848 35.2404 10.7945 35.047 11.126L29.8999 19.9496ZM32.1673 11.8082L32.255 11.6578H32.0809H25.1784H25.0043L25.092 11.8082L28.5433 17.7246L28.6297 17.8727L28.7161 17.7246L32.1673 11.8082ZM27.3593 20.0504L27.3887 20L27.3593 19.9496L22.5514 11.7074L22.5224 11.6578H22.465H12.8281H12.7707L12.7417 11.7074L7.93376 19.9496L7.90437 20L7.93376 20.0504L12.7417 28.2926L12.7707 28.3422H12.8281H22.465H22.5224L22.5514 28.2926L27.3593 20.0504ZM17.7329 3.44727L17.6465 3.29919L17.5602 3.44727L14.1089 9.36368L14.0212 9.51406H14.1953H21.0978H21.2719L21.1842 9.36368L17.7329 3.44727ZM3.21225 11.6578H3.03815L3.12587 11.8082L6.57712 17.7246L6.6635 17.8727L6.74988 17.7246L10.2011 11.8082L10.2889 11.6578H10.1148H3.21225ZM3.12587 28.1918L3.03815 28.3422H3.21225H10.1148H10.2889L10.2011 28.1918L6.74988 22.2754L6.6635 22.1273L6.57712 22.2754L3.12587 28.1918ZM17.5602 36.5527L17.6465 36.7008L17.7329 36.5527L21.1842 30.6363L21.2719 30.4859H21.0978H14.1953H14.0212L14.1089 30.6363L17.5602 36.5527ZM25.092 28.1918L25.0043 28.3422H25.1784H32.0809H32.255L32.1673 28.1918L28.7161 22.2754L28.6297 22.1273L28.5433 22.2754L25.092 28.1918Z" fill="#D55951" stroke="white" stroke-width="0.2"/>
</svg>
