<svg width="27" height="24" viewBox="0 0 27 24" fill="none" xmlns="http://www.w3.org/2000/svg">
<path d="M25.6188 15.6328C25.6188 9.34064 21.1958 4.60576 15.7357 3.59805C15.9035 3.26376 15.9983 2.88624 15.9983 2.48763C15.9983 1.11569 14.8775 0 13.5 0C12.1225 0 11.0017 1.11569 11.0017 2.48763C11.0017 2.88624 11.0965 3.26376 11.2643 3.59805C5.88182 4.59141 1.38124 9.26361 1.38124 15.6328C0.524329 15.6328 0 16.2736 0 16.951V18.5001C0 19.8088 1.06888 20.8728 2.38235 20.8728H2.63276L2.90912 22.4688C3.06318 23.3562 3.83082 24 4.73506 24H22.2649C23.1692 24 23.9368 23.3562 24.0909 22.4688L24.3672 20.8728H24.6176C25.9311 20.8728 27 19.8088 27 18.5001V16.951C27 16.2819 26.4848 15.6328 25.6188 15.6328ZM2.38235 19.291C1.94453 19.291 1.58824 18.9367 1.58824 18.5001V17.2146H25.4118V18.5001C25.4118 18.9367 25.0555 19.291 24.6176 19.291H2.38235ZM22.5254 22.1999C22.5037 22.3265 22.3941 22.4182 22.2649 22.4182H4.73506C4.60588 22.4182 4.49629 22.3265 4.47459 22.1994L4.24429 20.8728H22.7557L22.5254 22.1999ZM13.5 4.97579C19.0785 4.97579 24.0305 9.38767 24.0305 15.6328H2.96947C2.96947 9.41546 7.89697 4.97579 13.5 4.97579ZM12.5899 2.48763C12.5899 1.98831 12.9981 1.58179 13.5 1.58179C14.0019 1.58179 14.4101 1.98831 14.4101 2.48763C14.4101 2.98748 14.0019 3.394 13.5 3.394C12.9981 3.394 12.5899 2.98748 12.5899 2.48763Z" fill="white"/>
</svg>
