<svg width="25" height="29" viewBox="0 0 25 29" fill="none" xmlns="http://www.w3.org/2000/svg">
<path d="M24.6459 4.18325C24.2935 2.86649 23.6011 1.71742 22.6962 0.947627C21.7306 0.126185 20.6368 -0.175385 19.6163 0.0985641C18.5965 0.371703 17.8007 1.1796 17.3754 2.37348C16.9767 3.49279 16.9516 4.83422 17.3048 6.15064C17.6581 7.4674 18.3506 8.61635 19.2549 9.38585C19.9879 10.0095 20.7947 10.3336 21.5873 10.3335C21.8385 10.3335 22.0883 10.3009 22.3338 10.2351C23.3545 9.96212 24.1507 9.15435 24.5758 7.96058C24.9741 6.84196 24.999 5.50036 24.6459 4.18325ZM23.4848 7.57209C23.1914 8.39631 22.6763 8.94473 22.0341 9.11648C21.3924 9.28863 20.6721 9.07114 20.0055 8.5039C19.2782 7.88507 18.7164 6.94278 18.4233 5.85057C18.1305 4.75894 18.1458 3.6621 18.4664 2.76214C18.7602 1.93751 19.2751 1.38886 19.9162 1.21718C20.0596 1.17867 20.2073 1.15956 20.3572 1.15956C20.8778 1.15956 21.428 1.38921 21.9458 1.8297C22.6733 2.44864 23.235 3.39082 23.5272 4.48291C23.8202 5.57552 23.8051 6.67265 23.4848 7.57209Z" fill="#D55951"/>
<path d="M15.995 11.078C15.6234 10.937 15.3776 10.8249 15.2997 10.701C15.1864 10.5208 15.2073 10.041 15.2329 9.69559C15.3281 8.4057 14.8995 6.92442 13.9587 5.29271C12.7336 3.17089 11.0779 1.73861 9.17067 1.15076C7.44897 0.620116 5.65513 0.816241 4.11931 1.70277C2.58326 2.58947 1.51613 4.04521 1.11444 5.80182C0.669382 7.74789 1.08161 9.89826 2.30665 12.0208C2.53422 12.4146 2.76937 12.7775 3.0113 13.1104L3.01292 13.1126C3.77194 14.1564 4.59946 14.8988 5.4828 15.3252C5.79468 15.4759 6.22081 15.6978 6.32006 15.886C6.38833 16.0154 6.36204 16.2843 6.2973 16.6769C6.2222 17.1368 6.19226 17.6164 6.20563 18.1091C6.00245 18.0861 5.79607 18.0738 5.58686 18.0738C2.57411 18.0738 0.123047 20.5241 0.123047 23.5361C0.123047 26.5489 2.57411 29 5.5868 29C7.63109 29 9.41642 27.8713 10.3532 26.2045C11.7135 27.2967 13.2622 27.9106 14.8736 27.9886C14.9884 27.9942 15.1028 27.997 15.2173 27.997C16.8046 27.9969 18.3484 27.4643 19.5972 26.4793C21.0197 25.3574 21.9569 23.7275 22.236 21.8899C22.5461 19.849 22.0438 17.6164 20.7836 15.4336C19.5719 13.3339 17.871 11.787 15.995 11.078ZM19.2284 15.1531C20.1848 17.4785 19.0274 19.4114 18.1746 20.421C17.787 19.5807 17.3206 18.6851 16.7786 17.7462C16.5896 17.4187 16.3984 17.0995 16.206 16.7895C17.089 16.0993 18.026 15.23 18.5688 14.3216C18.7994 14.5827 19.02 14.8604 19.2284 15.1531ZM12.685 20.1099C12.5186 19.8215 12.359 19.5338 12.2053 19.248C13.1228 18.8122 14.0617 18.2822 14.9609 17.6851C15.0583 17.6204 15.1616 17.5504 15.2687 17.4766C15.4395 17.7531 15.6088 18.0364 15.7756 18.3252C16.4246 19.4495 16.9243 20.4379 17.3048 21.2995C16.4722 22.0217 15.5009 22.5752 14.497 22.923C13.941 22.1624 13.3345 21.235 12.685 20.1099ZM10.8532 10.7139C10.9739 11.0082 11.0735 11.2805 11.149 11.5267C11.5162 12.7232 11.7395 13.0543 12.4325 13.7361C13.1119 14.4041 13.8788 15.3686 14.6411 16.5026C14.536 16.5754 14.4293 16.648 14.3204 16.7203C13.4641 17.2889 12.5569 17.7984 11.6745 18.2152C11.0735 16.9874 10.621 15.8408 10.3822 14.9196C10.1389 13.98 9.96374 13.6213 9.10946 12.7036C8.93505 12.5164 8.74918 12.294 8.55432 12.0414C9.27733 11.5528 10.0687 11.0958 10.8532 10.7139ZM7.88014 11.0981C7.54712 10.6005 7.1961 10.0338 6.83344 9.40612C6.39915 8.65405 6.03922 7.96434 5.74199 7.33567C6.10198 7.02576 6.49279 6.75007 6.8987 6.51579C7.30357 6.28214 7.73659 6.08214 8.18379 5.92573C8.57986 6.4976 8.99759 7.15529 9.43194 7.9076C9.7939 8.53326 10.1093 9.12007 10.374 9.65818C9.95632 9.86033 9.53049 10.0858 9.10135 10.3336C8.67222 10.5813 8.26405 10.8374 7.88014 11.0981ZM15.5849 12.1611C16.3228 12.4399 17.0447 12.888 17.7129 13.4696C17.3966 14.1369 16.6343 14.9673 15.5735 15.8113C14.7776 14.6303 13.9788 13.6325 13.2445 12.9104C12.712 12.3864 12.5742 12.2233 12.2561 11.187C12.1673 10.8971 12.052 10.5817 11.9125 10.2432C12.7067 9.92582 13.4558 9.71175 14.0753 9.64933C13.9626 11.2635 14.3571 11.6953 15.5849 12.1611ZM13.5262 7.00208C13.7525 7.52646 13.9117 8.02717 14.0011 8.49603C13.2663 8.56783 12.387 8.80646 11.4344 9.18823C11.155 8.6178 10.8216 7.99706 10.4346 7.32814C10.0842 6.72112 9.73044 6.15139 9.37779 5.62289C10.9039 5.3838 12.4534 5.72063 13.5262 7.00208ZM12.1775 4.70706C11.6796 4.53358 11.1443 4.43097 10.5778 4.40323C9.95134 4.37254 9.29974 4.43682 8.64848 4.5876C8.20278 3.99124 7.76386 3.47038 7.34104 3.0387C6.97027 2.66023 6.61647 2.35281 6.28068 2.11644C8.16335 1.7517 10.3969 2.40794 12.1775 4.70706ZM4.64156 2.77129C4.6792 2.70603 4.7052 2.69104 4.78053 2.69104C5.22947 2.69104 6.19979 3.33592 7.47127 4.95663C7.07971 5.11182 6.69383 5.29688 6.31988 5.51269C5.9446 5.72926 5.5901 5.97171 5.25883 6.23414C4.49101 4.32315 4.41718 3.16001 4.64156 2.77129ZM2.68987 10.1846C1.59007 7.49392 2.13786 5.23226 3.39405 3.78405C3.43094 4.19275 3.52028 4.65251 3.66261 5.16237C3.8251 5.74443 4.05677 6.3851 4.35053 7.06936C3.89499 7.55739 3.51403 8.08884 3.22757 8.64589C2.96793 9.15082 2.78883 9.66618 2.68987 10.1846ZM5.05958 13.6589C4.69749 13.3467 4.34283 12.9578 4.00142 12.4988C3.43018 10.9294 3.91317 9.42002 4.88262 8.21855C5.16392 8.78787 5.48037 9.37873 5.8307 9.98541C6.21826 10.6562 6.58955 11.2553 6.94306 11.7814C6.13574 12.4158 5.48923 13.0583 5.05958 13.6589ZM6.02167 14.2997C6.3856 13.7943 6.94549 13.2527 7.61719 12.7236C7.84105 13.0147 8.05634 13.2722 8.2619 13.4929C9.00187 14.2878 9.07414 14.4883 9.261 15.21C9.51914 16.2059 9.98487 17.397 10.61 18.6776C10.0113 18.9139 9.44085 19.0965 8.92445 19.2146C8.46185 18.8566 7.94059 18.5713 7.37758 18.3755C7.34173 17.8499 7.36194 17.3427 7.44006 16.8644C7.65373 15.5683 7.47769 15.0104 6.02167 14.2997ZM5.5868 27.8419C3.21263 27.8419 1.28115 25.9103 1.28115 23.5361C1.28115 21.1628 3.21263 19.2319 5.5868 19.2319C7.96097 19.2319 9.89246 21.1628 9.89246 23.5361C9.89251 25.9103 7.96097 27.8419 5.5868 27.8419ZM9.87821 20.1589C10.2838 20.0376 10.7067 19.8891 11.1409 19.7148C11.313 20.0364 11.493 20.3613 11.682 20.6888C12.2241 21.628 12.7668 22.4802 13.3008 23.2363C12.9011 23.3072 12.5028 23.3439 12.1125 23.3439C11.7473 23.3438 11.389 23.3111 11.0428 23.245C10.9815 22.0839 10.5559 21.0177 9.87821 20.1589ZM10.8253 25.0893C10.8908 24.8688 10.9427 24.6425 10.9801 24.4114C11.3488 24.4731 11.7272 24.504 12.1132 24.504C12.7468 24.504 13.4001 24.421 14.0611 24.256C14.9405 25.3678 15.7827 26.195 16.5434 26.6922C14.7861 27.1029 12.719 26.7428 10.8253 25.0893ZM18.2663 25.9471C18.2115 26.042 18.1497 26.078 18.0396 26.078C17.6096 26.078 16.625 25.5488 15.2381 23.8772C16.1451 23.5193 17.0042 23.0205 17.7612 22.4197C18.5155 24.4571 18.4813 25.5747 18.2663 25.9471ZM19.5456 24.9521C19.4946 24.0454 19.1995 22.9044 18.6774 21.5894C18.771 21.4923 18.8631 21.3941 18.9514 21.2936C19.8801 20.2371 20.4539 19.0703 20.6567 17.882C21.7694 20.9832 20.9258 23.4546 19.5456 24.9521Z" fill="#D55951"/>
<path d="M7.79027 21.3326C7.56415 21.1064 7.19749 21.1064 6.97137 21.3326L5.58599 22.718L4.20061 21.3326C3.97449 21.1064 3.60784 21.1064 3.38172 21.3326C3.1556 21.5587 3.15554 21.9253 3.38172 22.1514L4.7671 23.5369L3.38172 24.9223C3.1556 25.1484 3.1556 25.5151 3.38172 25.7412C3.49481 25.8543 3.64298 25.9108 3.79116 25.9108C3.93934 25.9108 4.08758 25.8542 4.20061 25.7412L5.58599 24.3558L6.97137 25.7412C7.08446 25.8543 7.23264 25.9108 7.38082 25.9108C7.529 25.9108 7.67724 25.8542 7.79027 25.7412C8.01639 25.5151 8.01644 25.1484 7.79027 24.9223L6.40489 23.5369L7.79027 22.1514C8.01644 21.9253 8.01639 21.5587 7.79027 21.3326Z" fill="#D55951"/>
<path d="M7.79027 21.3326C7.56415 21.1064 7.19749 21.1064 6.97137 21.3326L5.58599 22.718L4.20061 21.3326C3.97449 21.1064 3.60784 21.1064 3.38172 21.3326C3.1556 21.5587 3.15554 21.9253 3.38172 22.1514L4.7671 23.5369L3.38172 24.9223C3.1556 25.1484 3.1556 25.5151 3.38172 25.7412C3.49481 25.8543 3.64298 25.9108 3.79116 25.9108C3.93934 25.9108 4.08758 25.8542 4.20061 25.7412L5.58599 24.3558L6.97137 25.7412C7.08446 25.8543 7.23264 25.9108 7.38082 25.9108C7.529 25.9108 7.67724 25.8542 7.79027 25.7412C8.01639 25.5151 8.01644 25.1484 7.79027 24.9223L6.40489 23.5369L7.79027 22.1514C8.01644 21.9253 8.01639 21.5587 7.79027 21.3326Z" fill="#D55951"/>
</svg>
