<svg width="34" height="40" viewBox="0 0 34 40" fill="none" xmlns="http://www.w3.org/2000/svg">
<path d="M33.6598 5.77C33.176 3.95378 32.2257 2.36885 30.9837 1.30707C29.6583 0.174048 28.157 -0.24191 26.7562 0.135951C25.3565 0.512693 24.2642 1.62703 23.6804 3.27377C23.1331 4.81764 23.0987 6.66789 23.5835 8.48364C24.0684 10.2999 25.0189 11.8846 26.2602 12.946C27.2663 13.8063 28.3737 14.2532 29.4616 14.2531C29.8063 14.2531 30.1493 14.2082 30.4862 14.1174C31.8872 13.7409 32.98 12.6267 33.5636 10.9801C34.1103 9.43719 34.1444 7.5867 33.6598 5.77ZM32.0661 10.4443C31.6633 11.5811 30.9563 12.3376 30.0748 12.5745C29.194 12.8119 28.2054 12.5119 27.2904 11.7295C26.2922 10.876 25.521 9.57624 25.1188 8.06975C24.7168 6.56406 24.7378 5.05118 25.1779 3.80985C25.5811 2.67243 26.2878 1.91567 27.1678 1.67886C27.3647 1.62575 27.5675 1.59939 27.7732 1.59939C28.4877 1.59939 29.243 1.91615 29.9537 2.52372C30.9523 3.37744 31.7232 4.67699 32.1243 6.18332C32.5265 7.69037 32.5057 9.20366 32.0661 10.4443Z" fill="#2F3741"/>
<path d="M21.7856 15.2799C21.2757 15.0855 20.9382 14.9308 20.8313 14.76C20.6758 14.5114 20.7045 13.8496 20.7396 13.3732C20.8703 11.5941 20.2819 9.55093 18.9906 7.30029C17.3091 4.37365 15.0366 2.39808 12.4187 1.58725C10.0555 0.855332 7.59328 1.12585 5.48523 2.34865C3.37687 3.57168 1.91213 5.57959 1.36078 8.0025C0.749894 10.6867 1.31571 13.6528 2.99719 16.5804C3.30955 17.1236 3.63231 17.6241 3.96438 18.0833L3.96661 18.0864C5.00843 19.526 6.14428 20.5501 7.35675 21.1383C7.78482 21.346 8.36972 21.6521 8.50595 21.9117C8.59965 22.0902 8.56357 22.4611 8.47471 23.0026C8.37162 23.637 8.33053 24.2984 8.34889 24.9781C8.07 24.9463 7.78673 24.9294 7.49957 24.9294C3.36431 24.9294 0 28.3092 0 32.4635C0 36.6191 3.36431 40 7.49949 40C10.3055 40 12.756 38.4431 14.0418 36.1441C15.9089 37.6507 18.0347 38.4973 20.2464 38.605C20.404 38.6127 20.561 38.6165 20.7182 38.6165C22.897 38.6164 25.0159 37.8818 26.7301 36.5232C28.6826 34.9757 29.9689 32.7276 30.352 30.193C30.7776 27.378 30.0882 24.2985 28.3584 21.2877C26.6953 18.3916 24.3606 16.2579 21.7856 15.2799ZM26.2239 20.9009C27.5365 24.1083 25.9479 26.7743 24.7774 28.1668C24.2453 27.0079 23.6052 25.7725 22.8612 24.4775C22.6018 24.0258 22.3394 23.5855 22.0752 23.1579C23.2872 22.206 24.5735 21.007 25.3185 19.7539C25.635 20.1141 25.9377 20.4972 26.2239 20.9009ZM17.2425 27.7378C17.014 27.3399 16.7949 26.9432 16.584 26.549C17.8433 25.9479 19.132 25.2168 20.3663 24.3933C20.5 24.304 20.6418 24.2075 20.7887 24.1057C21.0232 24.487 21.2556 24.8777 21.4845 25.2761C22.3754 26.8269 23.0612 28.1902 23.5835 29.3787C22.4406 30.3748 21.1075 31.1382 19.7296 31.618C18.9663 30.5688 18.1339 29.2896 17.2425 27.7378ZM14.7281 14.7777C14.8938 15.1837 15.0305 15.5593 15.1341 15.8988C15.6381 17.5492 15.9446 18.006 16.8958 18.9463C17.8283 19.8678 18.8809 21.1981 19.9273 22.7622C19.783 22.8626 19.6366 22.9628 19.4871 23.0625C18.3118 23.8467 17.0666 24.5495 15.8555 25.1245C15.0305 23.4309 14.4093 21.8494 14.0815 20.5788C13.7477 19.2828 13.5072 18.788 12.3347 17.5223C12.0953 17.264 11.8401 16.9573 11.5727 16.6088C12.5651 15.9349 13.6513 15.3046 14.7281 14.7777ZM10.6473 15.3077C10.1902 14.6214 9.7084 13.8397 9.21062 12.974C8.61452 11.9366 8.12047 10.9853 7.7125 10.1182C8.20662 9.6907 8.74304 9.31045 9.30019 8.9873C9.85591 8.66502 10.4503 8.38915 11.0641 8.17343C11.6077 8.96221 12.1811 9.86937 12.7773 10.907C13.2741 11.77 13.707 12.5794 14.0703 13.3216C13.497 13.6005 12.9126 13.9115 12.3235 14.2532C11.7345 14.5949 11.1742 14.9482 10.6473 15.3077ZM21.2227 16.7739C22.2356 17.1585 23.2265 17.7766 24.1437 18.5788C23.7094 19.4991 22.6632 20.6446 21.2072 21.8087C20.1146 20.1797 19.0183 18.8034 18.0104 17.8075C17.2795 17.0847 17.0903 16.8598 16.6538 15.4303C16.5318 15.0304 16.3736 14.5954 16.182 14.1286C17.2722 13.6908 18.3004 13.3955 19.1508 13.3094C18.996 15.5358 19.5374 16.1315 21.2227 16.7739ZM18.3971 9.65804C18.7077 10.3813 18.9261 11.072 19.0488 11.7187C18.0403 11.8177 16.8334 12.1468 15.5258 12.6734C15.1424 11.8866 14.6847 11.0304 14.1536 10.1078C13.6725 9.27051 13.187 8.48467 12.703 7.75571C14.7977 7.42593 16.9245 7.89053 18.3971 9.65804ZM16.5458 6.4925C15.8625 6.25321 15.1277 6.11168 14.35 6.07342C13.4902 6.03109 12.5958 6.11975 11.7019 6.32772C11.0902 5.50515 10.4877 4.78673 9.90734 4.19131C9.39843 3.66928 8.9128 3.24526 8.4519 2.91923C11.036 2.41614 14.1018 3.32129 16.5458 6.4925ZM6.20206 3.82247C6.25372 3.73246 6.28941 3.71177 6.39281 3.71177C7.00902 3.71177 8.34087 4.60127 10.0861 6.83673C9.54864 7.05078 9.01899 7.30604 8.50571 7.60372C7.9906 7.90243 7.50402 8.23684 7.04932 8.59881C5.99541 5.96297 5.89408 4.35863 6.20206 3.82247ZM3.52319 14.0477C2.01363 10.3364 2.76551 7.21691 4.48974 5.21938C4.54037 5.7831 4.66301 6.41726 4.85837 7.12051C5.08139 7.92335 5.39939 8.80703 5.80259 9.75084C5.17733 10.424 4.65443 11.157 4.26124 11.9254C3.90485 12.6218 3.65902 13.3327 3.52319 14.0477ZM6.77583 18.8399C6.27884 18.4092 5.79202 17.8728 5.32341 17.2398C4.53934 15.075 5.20228 12.9931 6.53294 11.3359C6.91905 12.1212 7.35341 12.9362 7.83426 13.773C8.36622 14.6982 8.87585 15.5245 9.36107 16.2503C8.25296 17.1252 7.36557 18.0114 6.77583 18.8399ZM8.09639 19.7238C8.59592 19.0267 9.36441 18.2796 10.2864 17.5497C10.5936 17.9513 10.8892 18.3064 11.1713 18.6109C12.187 19.7072 12.2862 19.9838 12.5427 20.9793C12.897 22.353 13.5362 23.9958 14.3942 25.7622C13.5726 26.0881 12.7895 26.3401 12.0807 26.5028C11.4458 26.0092 10.7303 25.6156 9.95749 25.3455C9.90829 24.6206 9.93603 23.9209 10.0432 23.2613C10.3365 21.4736 10.0949 20.704 8.09639 19.7238ZM7.49949 38.4026C4.24073 38.4026 1.5896 35.7383 1.5896 32.4635C1.5896 29.19 4.24073 26.5268 7.49949 26.5268C10.7583 26.5268 13.4094 29.19 13.4094 32.4635C13.4095 35.7383 10.7583 38.4026 7.49949 38.4026ZM13.3898 27.8054C13.9466 27.638 14.527 27.4332 15.1231 27.1928C15.3593 27.6364 15.6063 28.0846 15.8656 28.5363C16.6098 29.8318 17.3547 31.0071 18.0876 32.0501C17.539 32.1478 16.9923 32.1985 16.4566 32.1985C15.9553 32.1984 15.4635 32.1532 14.9883 32.0621C14.9042 30.4605 14.32 28.9899 13.3898 27.8054ZM14.6898 34.606C14.7797 34.3018 14.851 33.9897 14.9023 33.6709C15.4083 33.756 15.9278 33.7986 16.4576 33.7986C17.3272 33.7986 18.224 33.6841 19.1312 33.4566C20.3383 34.9901 21.4942 36.1311 22.5385 36.8168C20.1263 37.3832 17.289 36.8866 14.6898 34.606ZM24.9032 35.7891C24.828 35.92 24.7432 35.9696 24.5921 35.9696C24.0019 35.9696 22.6504 35.2397 20.7468 32.9341C21.9916 32.4404 23.1709 31.7525 24.2099 30.9237C25.2453 33.7339 25.1983 35.2755 24.9032 35.7891ZM26.6593 34.4167C26.5891 33.1661 26.1841 31.5923 25.4675 29.7784C25.596 29.6445 25.7223 29.5091 25.8435 29.3705C27.1183 27.9132 27.9059 26.3038 28.1843 24.6648C29.7116 28.9423 28.5536 32.3512 26.6593 34.4167Z" fill="#2F3741"/>
<path d="M10.5239 29.4242C10.2136 29.1123 9.71031 29.1123 9.39994 29.4242L7.49838 31.3352L5.59682 29.4242C5.28645 29.1123 4.78318 29.1123 4.47281 29.4242C4.16245 29.7361 4.16237 30.2418 4.47281 30.5537L6.37437 32.4647L4.47281 34.3756C4.16245 34.6875 4.16245 35.1932 4.47281 35.5051C4.62804 35.6611 4.83143 35.7391 5.03482 35.7391C5.23821 35.7391 5.44168 35.661 5.59682 35.5051L7.49838 33.5942L9.39994 35.5051C9.55516 35.6611 9.75855 35.7391 9.96194 35.7391C10.1653 35.7391 10.3688 35.661 10.5239 35.5051C10.8343 35.1932 10.8344 34.6875 10.5239 34.3756L8.62238 32.4647L10.5239 30.5537C10.8344 30.2418 10.8343 29.7361 10.5239 29.4242Z" fill="#2F3741"/>
<path d="M10.5239 29.4242C10.2136 29.1123 9.71031 29.1123 9.39994 29.4242L7.49838 31.3352L5.59682 29.4242C5.28645 29.1123 4.78318 29.1123 4.47281 29.4242C4.16245 29.7361 4.16237 30.2418 4.47281 30.5537L6.37437 32.4647L4.47281 34.3756C4.16245 34.6875 4.16245 35.1932 4.47281 35.5051C4.62804 35.6611 4.83143 35.7391 5.03482 35.7391C5.23821 35.7391 5.44168 35.661 5.59682 35.5051L7.49838 33.5942L9.39994 35.5051C9.55516 35.6611 9.75855 35.7391 9.96194 35.7391C10.1653 35.7391 10.3688 35.661 10.5239 35.5051C10.8343 35.1932 10.8344 34.6875 10.5239 34.3756L8.62238 32.4647L10.5239 30.5537C10.8344 30.2418 10.8343 29.7361 10.5239 29.4242Z" fill="#2F3741"/>
</svg>
