<svg width="147" height="140" viewBox="0 0 147 140" fill="none" xmlns="http://www.w3.org/2000/svg">
<path d="M51.945 94.9038C51.2703 94.229 50.4693 93.6937 49.5877 93.3285C48.7061 92.9633 47.7612 92.7753 46.807 92.7753C45.8527 92.7753 44.9078 92.9633 44.0263 93.3285C43.1447 93.6937 42.3437 94.229 41.669 94.9038L38.2444 98.3283C38.0195 98.5535 37.7524 98.7321 37.4584 98.854C37.1644 98.9759 36.8492 99.0386 36.531 99.0386C36.2127 99.0386 35.8975 98.9759 35.6035 98.854C35.3095 98.7321 35.0424 98.5535 34.8175 98.3283L31.393 94.9038C31.1678 94.6789 30.9891 94.4118 30.8673 94.1177C30.7454 93.8237 30.6826 93.5086 30.6826 93.1903C30.6826 92.872 30.7454 92.5569 30.8673 92.2629C30.9891 91.9689 31.1678 91.7018 31.393 91.4768L38.242 84.6278C38.6832 84.171 38.9273 83.5592 38.9218 82.9242C38.9163 82.2892 38.6615 81.6818 38.2125 81.2327C37.7635 80.7837 37.156 80.529 36.521 80.5235C35.886 80.518 35.2743 80.7621 34.8175 81.2032L27.9684 88.0547C27.2936 88.7294 26.7583 89.5304 26.3931 90.412C26.0279 91.2936 25.8399 92.2385 25.8399 93.1927C25.8399 94.147 26.0279 95.0919 26.3931 95.9734C26.7583 96.855 27.2936 97.6561 27.9684 98.3307L31.393 101.755C32.0676 102.43 32.8687 102.965 33.7502 103.331C34.6318 103.696 35.5767 103.884 36.531 103.884C37.4852 103.884 38.4301 103.696 39.3117 103.331C40.1933 102.965 40.9943 102.43 41.669 101.755L45.0935 98.3307C45.3184 98.1056 45.5855 97.9269 45.8795 97.805C46.1736 97.6832 46.4887 97.6204 46.807 97.6204C47.1252 97.6204 47.4404 97.6832 47.7344 97.805C48.0284 97.9269 48.2955 98.1056 48.5205 98.3307L51.945 101.753C52.1702 101.978 52.3488 102.245 52.4707 102.539C52.5926 102.833 52.6553 103.148 52.6553 103.466C52.6553 103.785 52.5926 104.1 52.4707 104.394C52.3488 104.688 52.1702 104.955 51.945 105.18L45.0959 112.031C44.8646 112.255 44.6801 112.522 44.5532 112.817C44.4263 113.113 44.3594 113.431 44.3566 113.752C44.3538 114.074 44.4151 114.393 44.5369 114.69C44.6587 114.988 44.8385 115.258 45.0659 115.486C45.2933 115.713 45.5637 115.893 45.8613 116.015C46.159 116.137 46.4779 116.198 46.7995 116.195C47.121 116.192 47.4388 116.125 47.7343 115.999C48.0298 115.872 48.297 115.687 48.5205 115.456L55.3719 108.607C56.0467 107.932 56.582 107.131 56.9472 106.249C57.3125 105.368 57.5004 104.423 57.5004 103.469C57.5004 102.515 57.3125 101.57 56.9472 100.688C56.582 99.8064 56.0467 99.0054 55.3719 98.3307L51.945 94.9038Z" fill="black"/>
<path d="M79.591 80.1304L53.9021 64.7176C53.4392 64.4399 52.8968 64.3249 52.3611 64.3907C51.8253 64.4565 51.3269 64.6994 50.945 65.0808L47.5181 68.5078C47.1366 68.8897 46.8937 69.3881 46.8279 69.9239C46.7621 70.4596 46.8771 71.002 47.1548 71.4649L62.5676 97.1537C62.7314 97.4265 62.9473 97.6643 63.203 97.8535C63.4587 98.0428 63.7491 98.1799 64.0578 98.2569C64.3665 98.3339 64.6873 98.3494 65.0019 98.3025C65.3166 98.2555 65.6189 98.147 65.8916 97.9832C66.1643 97.8194 66.4021 97.6035 66.5914 97.3478C66.7807 97.0921 66.9178 96.8017 66.9948 96.493C67.0718 96.1844 67.0873 95.8635 67.0403 95.5489C66.9934 95.2343 66.8849 94.9319 66.7211 94.6592L62.5555 87.7181L70.1553 80.1183L77.0964 84.2839C77.3691 84.4477 77.6715 84.5562 77.9861 84.6031C78.3007 84.6501 78.6216 84.6346 78.9302 84.5576C79.2389 84.4806 79.5294 84.3435 79.7851 84.1542C80.0407 83.9649 80.2566 83.7271 80.4204 83.4544C80.5842 83.1817 80.6927 82.8794 80.7397 82.5647C80.7866 82.2501 80.7712 81.9293 80.6941 81.6206C80.6171 81.3119 80.48 81.0215 80.2907 80.7658C80.1015 80.5101 79.8637 80.2942 79.591 80.1304ZM59.9859 83.4387L52.2795 70.6027L53.0302 69.8519L65.8662 77.5583L59.9859 83.4387Z" fill="black"/>
<path d="M94.466 62.659L85.9022 71.2227L67.0648 52.3854C66.8414 52.1541 66.5742 51.9696 66.2787 51.8426C65.9832 51.7157 65.6654 51.6489 65.3439 51.6461C65.0223 51.6433 64.7034 51.7046 64.4057 51.8263C64.1081 51.9481 63.8377 52.128 63.6103 52.3554C63.3829 52.5828 63.2031 52.8532 63.0813 53.1508C62.9595 53.4484 62.8982 53.7673 62.901 54.0889C62.9038 54.4105 62.9706 54.7283 63.0976 55.0238C63.2245 55.3193 63.409 55.5865 63.6403 55.8099L84.1899 76.3595C84.6441 76.8135 85.26 77.0686 85.9022 77.0686C86.5444 77.0686 87.1603 76.8135 87.6145 76.3595L97.8905 66.0835C98.3316 65.6267 98.5757 65.015 98.5702 64.38C98.5647 63.7449 98.31 63.1375 97.861 62.6885C97.4119 62.2394 96.8045 61.9847 96.1695 61.9792C95.5345 61.9737 94.9227 62.2178 94.466 62.659Z" fill="black"/>
<path d="M110.588 46.5366L103.737 53.388L96.8877 46.5366L100.312 43.112C100.753 42.6552 100.997 42.0435 100.992 41.4085C100.986 40.7735 100.732 40.166 100.283 39.717C99.8337 39.268 99.2262 39.0133 98.5912 39.0077C97.9562 39.0022 97.3445 39.2463 96.8877 39.6875L93.4632 43.112L86.6117 36.263L93.4632 29.4115C93.6945 29.1881 93.879 28.9208 94.0059 28.6253C94.1328 28.3299 94.1997 28.0121 94.2024 27.6905C94.2052 27.3689 94.144 27.05 94.0222 26.7524C93.9004 26.4547 93.7206 26.1843 93.4932 25.9569C93.2658 25.7295 92.9954 25.5497 92.6977 25.4279C92.4001 25.3062 92.0812 25.2449 91.7596 25.2477C91.438 25.2505 91.1202 25.3173 90.8248 25.4442C90.5293 25.5711 90.262 25.7556 90.0386 25.9869L81.4749 34.5507C81.0209 35.0049 80.7658 35.6208 80.7658 36.263C80.7658 36.9051 81.0209 37.5211 81.4749 37.9752L102.024 58.5248C102.479 58.9789 103.095 59.2339 103.737 59.2339C104.379 59.2339 104.995 58.9789 105.449 58.5248L114.013 49.9611C114.244 49.7377 114.429 49.4704 114.556 49.175C114.682 48.8795 114.749 48.5617 114.752 48.2401C114.755 47.9185 114.694 47.5996 114.572 47.302C114.45 47.0043 114.27 46.7339 114.043 46.5065C113.815 46.2791 113.545 46.0993 113.247 45.9775C112.95 45.8558 112.631 45.7945 112.309 45.7973C111.988 45.8001 111.67 45.8669 111.374 45.9938C111.079 46.1207 110.812 46.3052 110.588 46.5366Z" fill="black"/>
<path d="M137.101 31.6977L139.794 14.1875C140.08 12.3135 139.922 10.3985 139.333 8.59661C138.744 6.79475 137.74 5.1564 136.401 3.81343C135.063 2.47046 133.429 1.4604 131.629 0.864547C129.829 0.268698 127.915 0.103707 126.04 0.382858L88.7431 5.95317C84.1269 6.65142 79.854 8.80482 76.5465 12.0999L3.99198 84.6278C1.72109 86.8987 0.445312 89.9787 0.445312 93.1903C0.445313 96.4019 1.72109 99.4819 3.99198 101.753L38.247 136.008C40.5179 138.279 43.598 139.555 46.8095 139.555C50.0211 139.555 53.1011 138.279 55.3721 136.008L95.0908 96.2891C99.2443 116.592 108.588 129.469 119.515 129.469C134.454 129.469 146.156 105.008 146.156 73.7657C146.156 57.4229 142.85 42.182 137.101 31.6977ZM51.9451 132.578C50.5613 133.901 48.721 134.638 46.8071 134.638C44.8932 134.638 43.0529 133.901 41.6691 132.578L7.42136 98.3283C6.74655 97.6536 6.21126 96.8526 5.84605 95.971C5.48084 95.0894 5.29287 94.1445 5.29287 93.1903C5.29287 92.2361 5.48084 91.2912 5.84605 90.4096C6.21126 89.528 6.74655 88.727 7.42136 88.0523L79.9638 15.5099C82.5373 12.9487 85.8604 11.2749 89.4503 10.7315L126.747 5.16122C127.11 5.10629 127.477 5.07877 127.844 5.07887C128.892 5.08005 129.927 5.30787 130.879 5.7467C131.83 6.18553 132.676 6.82499 133.357 7.62121C134.038 8.41744 134.539 9.35159 134.825 10.3596C135.112 11.3676 135.176 12.4256 135.015 13.461L133.138 25.6721C131.77 23.9715 130.185 22.4578 128.423 21.1698C128.407 18.635 127.39 16.2093 125.594 14.42C123.748 12.6603 121.295 11.6787 118.744 11.6787C116.193 11.6787 113.74 12.6603 111.894 14.42C110.905 15.3852 110.135 16.5506 109.634 17.838C109.133 19.1254 108.913 20.505 108.989 21.8844C109.065 23.2637 109.435 24.6108 110.075 25.8354C110.714 27.0599 111.608 28.1335 112.697 28.9841C113.785 29.8348 115.043 30.4428 116.386 30.7674C117.729 31.0919 119.125 31.1256 120.482 30.866C121.839 30.6065 123.125 30.0597 124.253 29.2625C125.381 28.4653 126.326 27.436 127.023 26.2436C129.018 28.0996 130.72 30.2462 132.073 32.6107L129.307 50.5907C128.765 54.157 127.093 57.4552 124.536 59.9997L51.9451 132.578ZM119.515 22.9063C120.696 22.9142 121.865 23.1494 122.957 23.5989C122.743 23.998 122.475 24.3656 122.16 24.6912C121.454 25.4154 120.541 25.9036 119.547 26.089C118.552 26.2744 117.525 26.1479 116.605 25.7269C115.685 25.3058 114.918 24.6108 114.409 23.737C113.899 22.8632 113.672 21.8532 113.759 20.8454C113.845 19.8376 114.241 18.8811 114.892 18.107C115.543 17.3329 116.418 16.7789 117.396 16.5209C118.374 16.2629 119.408 16.3135 120.356 16.6658C121.304 17.0181 122.121 17.6548 122.693 18.4888C121.654 18.2221 120.588 18.079 119.515 18.0625C118.873 18.0625 118.257 18.3177 117.803 18.7719C117.349 19.2261 117.094 19.8421 117.094 20.4844C117.094 21.1267 117.349 21.7428 117.803 22.1969C118.257 22.6511 118.873 22.9063 119.515 22.9063ZM119.515 124.625C110.763 124.625 102.521 111.305 99.2564 92.1186L127.948 63.4243C131.238 60.15 133.388 55.9046 134.081 51.3149L135.776 40.3607C139.605 51.0748 141.48 62.3891 141.312 73.7657C141.312 101.334 131.329 124.625 119.515 124.625Z" fill="black"/>
</svg>
