<svg width="145" height="136" viewBox="0 0 145 136" fill="none" xmlns="http://www.w3.org/2000/svg">
<path d="M124.396 0.7683L87.0992 6.33861C82.9929 6.95112 79.1919 8.86645 76.2564 11.8024L3.70916 84.3399C2.80954 85.2395 2.09592 86.3075 1.60905 87.4828C1.12217 88.6582 0.871582 89.918 0.871582 91.1902C0.871582 92.4624 1.12217 93.7222 1.60905 94.8976C2.09592 96.0729 2.80954 97.1409 3.70916 98.0405L37.9593 132.291C38.8589 133.19 39.9269 133.904 41.1022 134.391C42.2776 134.878 43.5374 135.128 44.8096 135.128C46.0818 135.128 47.3416 134.878 48.5169 134.391C49.6923 133.904 50.7603 133.19 51.6599 132.291L124.239 59.7119C127.152 56.7982 129.061 53.0314 129.688 48.9588L132.594 30.102L135.406 11.8242C135.637 10.3234 135.512 8.78923 135.042 7.34555C134.571 5.90186 133.767 4.58906 132.696 3.51308C131.624 2.4371 130.315 1.62808 128.873 1.15129C127.431 0.674506 125.898 0.543314 124.396 0.7683ZM121.875 24.4034C120.651 25.6449 119.024 26.4088 117.287 26.5576C115.55 26.7064 113.817 26.2304 112.4 25.2151C110.983 24.1998 109.975 22.7121 109.557 21.0196C109.139 19.3271 109.339 17.541 110.121 15.9829C110.903 14.4248 112.215 13.1969 113.822 12.5203C115.429 11.8437 117.224 11.7628 118.885 12.2921C120.546 12.8215 121.963 13.9263 122.882 15.4078C123.801 16.8893 124.161 18.6502 123.897 20.3734C123.667 21.8972 122.959 23.3085 121.875 24.4034Z" fill="#ED1C24"/>
<path d="M130.245 1.73706L127.746 18L124.84 36.8567C124.213 40.9293 122.304 44.6961 119.39 47.6098L46.8164 120.181C45.9168 121.081 44.8489 121.795 43.6735 122.281C42.4981 122.768 41.2384 123.019 39.9661 123.019C38.6939 123.019 37.4342 122.768 36.2588 122.281C35.0834 121.795 34.0154 121.081 33.1159 120.181L1.32876 88.3966C0.813313 90.0688 0.762565 91.8498 1.18195 93.5487C1.60133 95.2475 2.47504 96.8003 3.70946 98.0405L37.9596 132.291C38.8592 133.19 39.9272 133.904 41.1025 134.391C42.2779 134.878 43.5377 135.128 44.8099 135.128C46.0821 135.128 47.3419 134.878 48.5173 134.391C49.6926 133.904 50.7606 133.19 51.6602 132.291L124.239 59.7119C127.153 56.7982 129.061 53.0314 129.688 48.9588L132.594 30.1021L135.406 11.8242C135.714 9.81388 135.381 7.75783 134.454 5.94739C133.528 4.13694 132.055 2.66392 130.245 1.73706Z" fill="#CF1820"/>
<path d="M49.9454 92.9037C49.2707 92.2289 48.4697 91.6936 47.5881 91.3284C46.7065 90.9632 45.7616 90.7752 44.8074 90.7752C43.8531 90.7752 42.9082 90.9632 42.0267 91.3284C41.1451 91.6936 40.3441 92.2289 39.6694 92.9037L36.2448 96.3282C36.0199 96.5534 35.7528 96.7321 35.4588 96.8539C35.1648 96.9758 34.8496 97.0385 34.5314 97.0385C34.2131 97.0385 33.8979 96.9758 33.6039 96.8539C33.3099 96.7321 33.0428 96.5534 32.8179 96.3282L29.3934 92.9037C29.1682 92.6788 28.9895 92.4117 28.8677 92.1177C28.7458 91.8237 28.683 91.5085 28.683 91.1902C28.683 90.872 28.7458 90.5568 28.8677 90.2628C28.9895 89.9688 29.1682 89.7017 29.3934 89.4768L36.2424 82.6277C36.6836 82.1709 36.9277 81.5592 36.9222 80.9241C36.9167 80.2891 36.6619 79.6817 36.2129 79.2327C35.7639 78.7836 35.1564 78.5289 34.5214 78.5234C33.8864 78.5179 33.2747 78.762 32.8179 79.2032L25.9688 86.0547C25.294 86.7293 24.7587 87.5304 24.3935 88.4119C24.0283 89.2935 23.8403 90.2384 23.8403 91.1927C23.8403 92.1469 24.0283 93.0918 24.3935 93.9734C24.7587 94.855 25.294 95.656 25.9688 96.3307L29.3934 99.7552C30.068 100.43 30.8691 100.965 31.7506 101.331C32.6322 101.696 33.5771 101.884 34.5314 101.884C35.4856 101.884 36.4305 101.696 37.3121 101.331C38.1937 100.965 38.9947 100.43 39.6694 99.7552L43.0939 96.3307C43.3188 96.1055 43.5859 95.9269 43.8799 95.805C44.174 95.6831 44.4891 95.6204 44.8074 95.6204C45.1256 95.6204 45.4408 95.6831 45.7348 95.805C46.0288 95.9269 46.2959 96.1055 46.5209 96.3307L49.9454 99.7528C50.1706 99.9777 50.3492 100.245 50.4711 100.539C50.593 100.833 50.6557 101.148 50.6557 101.466C50.6557 101.785 50.593 102.1 50.4711 102.394C50.3492 102.688 50.1706 102.955 49.9454 103.18L43.0963 110.031C42.865 110.255 42.6805 110.522 42.5536 110.817C42.4266 111.113 42.3598 111.431 42.357 111.752C42.3542 112.074 42.4155 112.393 42.5373 112.69C42.6591 112.988 42.8389 113.258 43.0663 113.486C43.2937 113.713 43.5641 113.893 43.8617 114.015C44.1594 114.137 44.4783 114.198 44.7999 114.195C45.1214 114.192 45.4392 114.125 45.7347 113.998C46.0302 113.872 46.2974 113.687 46.5209 113.456L53.3723 106.607C54.0471 105.932 54.5824 105.131 54.9476 104.249C55.3129 103.368 55.5008 102.423 55.5008 101.469C55.5008 100.514 55.3129 99.5695 54.9476 98.688C54.5824 97.8064 54.0471 97.0054 53.3723 96.3307L49.9454 92.9037Z" fill="#F1F2F2"/>
<path d="M77.5912 78.1302L51.9023 62.7174C51.4395 62.4397 50.8971 62.3247 50.3613 62.3905C49.8256 62.4563 49.3272 62.6992 48.9452 63.0807L45.5183 66.5076C45.1369 66.8895 44.894 67.388 44.8281 67.9237C44.7623 68.4595 44.8774 69.0018 45.155 69.4647L60.5678 95.1536C60.7316 95.4263 60.9475 95.6641 61.2032 95.8534C61.4589 96.0426 61.7494 96.1797 62.058 96.2567C62.3667 96.3338 62.6875 96.3492 63.0022 96.3023C63.3168 96.2553 63.6191 96.1468 63.8918 95.9831C64.1646 95.8193 64.4024 95.6034 64.5916 95.3477C64.7809 95.092 64.918 94.8015 64.995 94.4928C65.072 94.1842 65.0875 93.8634 65.0406 93.5487C64.9936 93.2341 64.8851 92.9317 64.7213 92.659L60.5557 85.7179L68.1556 78.1181L75.0967 82.2837C75.3694 82.4475 75.6717 82.556 75.9863 82.6029C76.301 82.6499 76.6218 82.6344 76.9305 82.5574C77.2391 82.4804 77.5296 82.3433 77.7853 82.154C78.041 81.9647 78.2569 81.7269 78.4207 81.4542C78.5845 81.1815 78.6929 80.8792 78.7399 80.5645C78.7869 80.2499 78.7714 79.9291 78.6944 79.6204C78.6173 79.3118 78.4803 79.0213 78.291 78.7656C78.1017 78.5099 77.8639 78.294 77.5912 78.1302ZM57.9861 81.4385L50.2797 68.6025L51.0305 67.8518L63.8664 75.5582L57.9861 81.4385Z" fill="#F1F2F2"/>
<path d="M92.4664 60.6588L83.9026 69.2226L65.0653 50.3852C64.8419 50.1539 64.5746 49.9694 64.2791 49.8425C63.9837 49.7156 63.6659 49.6488 63.3443 49.646C63.0227 49.6432 62.7038 49.7044 62.4062 49.8262C62.1085 49.948 61.8381 50.1278 61.6107 50.3552C61.3833 50.5826 61.2035 50.853 61.0817 51.1507C60.9599 51.4483 60.8987 51.7672 60.9015 52.0888C60.9043 52.4104 60.9711 52.7282 61.098 53.0236C61.2249 53.3191 61.4094 53.5864 61.6407 53.8098L82.1903 74.3594C82.6445 74.8134 83.2604 75.0685 83.9026 75.0685C84.5448 75.0685 85.1607 74.8134 85.6149 74.3594L95.8909 64.0834C96.332 63.6266 96.5762 63.0148 96.5706 62.3798C96.5651 61.7448 96.3104 61.1374 95.8614 60.6883C95.4123 60.2393 94.8049 59.9846 94.1699 59.9791C93.5349 59.9736 92.9231 60.2177 92.4664 60.6588Z" fill="#F1F2F2"/>
<path d="M108.589 44.5364L101.737 51.3879L94.888 44.5364L98.3125 41.1119C98.7537 40.6551 98.9978 40.0433 98.9923 39.4083C98.9868 38.7733 98.7321 38.1659 98.283 37.7169C97.834 37.2678 97.2266 37.0131 96.5916 37.0076C95.9566 37.0021 95.3448 37.2462 94.888 37.6874L91.4635 41.1119L84.612 34.2628L91.4635 27.4113C91.6948 27.1879 91.8793 26.9207 92.0062 26.6252C92.1332 26.3297 92.2 26.0119 92.2028 25.6904C92.2056 25.3688 92.1443 25.0499 92.0225 24.7522C91.9007 24.4546 91.7209 24.1842 91.4935 23.9568C91.2661 23.7294 90.9957 23.5496 90.6981 23.4278C90.4004 23.306 90.0815 23.2447 89.7599 23.2475C89.4384 23.2503 89.1206 23.3171 88.8251 23.4441C88.5296 23.571 88.2624 23.7555 88.0389 23.9868L79.4752 32.5506C79.0212 33.0047 78.7661 33.6206 78.7661 34.2628C78.7661 34.905 79.0212 35.5209 79.4752 35.9751L100.025 56.5247C100.479 56.9787 101.095 57.2338 101.737 57.2338C102.379 57.2338 102.995 56.9787 103.449 56.5247L112.013 47.9609C112.244 47.7375 112.429 47.4703 112.556 47.1748C112.683 46.8793 112.75 46.5615 112.752 46.24C112.755 45.9184 112.694 45.5995 112.572 45.3018C112.45 45.0042 112.271 44.7338 112.043 44.5064C111.816 44.279 111.545 44.0992 111.248 43.9774C110.95 43.8556 110.631 43.7943 110.31 43.7971C109.988 43.7999 109.67 43.8667 109.375 43.9937C109.079 44.1206 108.812 44.3051 108.589 44.5364Z" fill="#F1F2F2"/>
<path d="M133.154 26.4281L135.401 11.8242C135.709 9.81441 135.377 7.75876 134.451 5.94837C133.526 4.13799 132.054 2.66465 130.245 1.73706L127.746 18L127.44 19.981C129.657 21.8319 131.583 24.0052 133.154 26.4281Z" fill="#CF1820"/>
<path d="M134.686 28.8984C134.202 28.029 133.676 27.2225 133.153 26.4354C131.585 24.0077 129.661 21.8295 127.445 19.9738C124.693 17.5508 121.18 16.1671 117.515 16.0625C116.873 16.0625 116.257 16.3177 115.803 16.7719C115.348 17.226 115.093 17.8421 115.093 18.4844C115.093 19.1267 115.348 19.7427 115.803 20.1969C116.257 20.6511 116.873 20.9062 117.515 20.9062C119.278 21.0393 120.992 21.5415 122.548 22.3801C124.104 23.2187 125.466 24.3751 126.546 25.7742C128.056 27.4626 129.375 29.312 130.479 31.2888C131 32.1995 131.48 33.1948 131.959 34.1951C136.648 43.8802 139.312 57.3191 139.312 71.7656C139.312 99.3338 129.329 122.625 117.515 122.625C108.581 122.625 100.162 108.767 97.0454 88.9246C97.014 88.7236 96.9316 88.0237 96.8178 87.1324L92.5698 91.3828C96.3891 113.354 106.079 127.469 117.515 127.469C132.453 127.469 144.156 103.008 144.156 71.7656C144.156 55.0184 140.702 39.3876 134.686 28.8984Z" fill="#FFCD00"/>
</svg>
