<svg width="41" height="39" viewBox="0 0 41 39" fill="none" xmlns="http://www.w3.org/2000/svg">
<path d="M38.6653 19.1294H38.0666C38.0086 18.7963 37.9786 18.4822 38.0452 18.2494C38.1623 17.8403 38.5475 17.4066 38.92 16.9872C39.4477 16.3932 39.9933 15.779 39.9999 15.0298C40.0082 14.0867 39.322 13.385 38.7164 12.7659C38.3878 12.4298 38.0772 12.1123 37.9569 11.8342C37.8127 11.5007 37.7417 11.0502 37.673 10.6146C37.5299 9.70638 37.3677 8.67703 36.4541 8.23259C35.5395 7.78837 34.5639 8.26468 33.7027 8.68512C33.2902 8.8866 32.8635 9.09487 32.4946 9.17862C32.2192 9.24092 31.8096 9.20189 31.4472 9.16034C31.1343 9.12442 30.8493 9.33624 30.8114 9.63339C30.7736 9.93055 30.9969 10.2006 31.3101 10.2365C31.7919 10.2917 32.301 10.3368 32.76 10.2329C33.2635 10.1187 33.7526 9.87989 34.2256 9.64893C34.902 9.31867 35.5408 9.0067 35.9329 9.19727C36.3244 9.38769 36.4306 10.0615 36.543 10.775C36.6217 11.2744 36.7032 11.7908 36.8998 12.2458C37.0988 12.7057 37.4953 13.1111 37.8789 13.5032C38.3622 13.9974 38.8619 14.5084 38.8574 15.0207C38.8542 15.3793 38.4434 15.8417 38.0464 16.2888C37.5938 16.7983 37.1259 17.325 36.9426 17.9654C36.8368 18.3352 36.8541 18.7367 36.9114 19.1295L33.0751 19.1295C33.0661 18.6535 32.8502 18.2264 32.5567 17.8233C32.9403 16.8146 33.2811 15.7766 33.5699 14.7328C33.65 14.4433 33.4675 14.147 33.1624 14.071C32.857 13.9951 32.5449 14.1682 32.4648 14.4577C32.2444 15.2542 31.9928 16.0471 31.7144 16.8254C31.3805 16.4423 31.0725 16.0526 30.9651 15.6774C30.8588 15.3065 30.9688 14.773 31.0852 14.2083C31.2519 13.399 31.441 12.4818 31.0204 11.7032C30.5997 10.9243 29.704 10.5342 28.9138 10.19C28.3628 9.94999 27.8424 9.72329 27.5873 9.42577C27.2768 9.06249 27.1176 8.46355 26.9638 7.88427C26.7496 7.07756 26.528 6.2434 25.8526 5.77367C25.0004 5.18167 23.9276 5.30907 22.9814 5.42137C22.4588 5.48345 21.9654 5.54213 21.6243 5.46481C21.2191 5.3731 20.755 5.14662 20.3061 4.92751C19.3858 4.4783 18.3429 3.96912 17.3761 4.43935C16.4585 4.88552 16.2557 5.9005 16.1066 6.83323C15.6481 6.63009 15.2368 6.42775 15.019 6.17373C14.7084 5.81045 14.5493 5.21151 14.3955 4.63223C14.1813 3.82553 13.9597 2.99136 13.2843 2.52163C12.4321 1.92963 11.3593 2.05704 10.4131 2.16934C9.89067 2.23141 9.39716 2.28995 9.05598 2.21277C8.65083 2.12106 8.18671 1.89458 7.73784 1.67547C6.81753 1.22641 5.77451 0.71737 4.80805 1.18731C3.84135 1.65697 3.66776 2.75758 3.51473 3.72869C3.44008 4.20239 3.36277 4.69214 3.20456 5.05795C3.07156 5.3658 2.73321 5.71174 2.3749 6.07806C1.72637 6.74117 0.991318 7.4928 1.00008 8.49477C1.00716 9.28919 1.5917 9.94717 2.15697 10.5835C2.56274 11.0403 2.98237 11.5126 3.11163 11.9635C3.21751 12.334 3.10752 12.8672 2.99113 13.4317C2.82416 14.2413 2.63487 15.1589 3.05557 15.9372C3.47611 16.7159 4.37151 17.106 5.16156 17.4502C5.71274 17.6903 6.23345 17.9172 6.48893 18.2158C6.68651 18.4464 6.82263 18.7731 6.93521 19.1294H2.33468C1.58119 19.1254 0.959478 19.7497 1.00236 20.4626C1.12256 22.4607 1.68745 24.3653 2.68126 26.1232C2.8304 26.3871 3.17676 26.4863 3.45471 26.3447C3.73273 26.2032 3.83724 25.8746 3.6881 25.6109C2.77358 23.9931 2.25371 22.2401 2.14296 20.4007C2.13633 20.2905 2.20991 20.2171 2.33468 20.2133L38.6653 20.2133C38.7913 20.2176 38.8636 20.2902 38.857 20.4007C38.6716 23.4817 37.2997 26.3833 34.9939 28.571C32.4359 30.9981 29.1762 32.2482 25.6139 32.2572H15.3861C11.3682 32.2563 7.66532 30.606 5.09857 27.6174C4.8993 27.3854 4.53947 27.3504 4.2948 27.5397C4.05022 27.7288 4.01358 28.0702 4.21292 28.3023C6.00265 30.3855 8.35178 31.89 10.9724 32.6877V34.2349C10.9724 36.311 12.7527 38 14.9409 38H26.059C28.2473 38 30.0275 36.311 30.0275 34.2349V32.69C32.1816 32.035 34.1557 30.8988 35.8019 29.3375C38.3063 26.9613 39.7963 23.8095 39.9977 20.4626C40.0406 19.7496 39.4148 19.1258 38.6653 19.1294ZM14.3544 19.1294C12.9283 17.0823 11.712 14.9075 10.7384 12.6598C10.0698 11.1174 9.50311 9.51177 9.05416 7.88738C8.97402 7.59781 8.6618 7.42473 8.35665 7.50054C8.05143 7.57649 7.86893 7.87271 7.94891 8.16228C8.41073 9.83321 8.99375 11.4851 9.68158 13.0719C10.589 15.1666 11.7007 17.2 12.9923 19.1294H8.1222C7.9614 18.5543 7.76419 17.9857 7.37587 17.5323C6.95258 17.0376 6.28456 16.7465 5.63839 16.465C4.98652 16.181 4.31255 15.8874 4.07231 15.4427C3.83221 14.9985 3.97465 14.3078 4.11237 13.6398C4.2488 12.9782 4.38994 12.2942 4.21421 11.6794C4.01861 10.9971 3.51633 10.4317 3.03051 9.88488C2.59572 9.39542 2.14616 8.88927 2.14258 8.48567C2.13755 7.9144 2.68393 7.35564 3.21241 6.81531C3.62411 6.39429 4.04991 5.95889 4.26152 5.46936C4.47221 4.98229 4.5598 4.42656 4.64458 3.88905C4.76791 3.10684 4.88437 2.36807 5.32891 2.15206C5.77367 1.93585 6.47354 2.27766 7.21499 2.6395C7.72435 2.88809 8.25108 3.14514 8.79068 3.26727C9.33294 3.39012 9.9542 3.31634 10.5549 3.24509C11.3259 3.15353 12.1233 3.05886 12.609 3.39619C12.9522 3.63489 13.1226 4.27661 13.2875 4.89716C13.4716 5.59055 13.662 6.30757 14.132 6.85723C14.5553 7.35124 15.223 7.64203 15.8687 7.92322C16.5208 8.20723 17.195 8.50091 17.4352 8.94557C17.6753 9.39015 17.533 10.0806 17.3954 10.7483C17.259 11.4103 17.1179 12.0947 17.2939 12.709C17.3719 12.983 17.502 13.2374 17.6481 13.4664C16.1104 14.2453 15.0613 15.7828 15.0613 17.5488C15.0613 18.091 15.1617 18.6257 15.3548 19.1295L14.3544 19.1294ZM23.2762 19.1294H16.5964C16.3391 18.6407 16.2038 18.1 16.2038 17.5487C16.2038 15.5962 17.8782 14.0077 19.9363 14.0077C21.9943 14.0077 23.6687 15.5962 23.6687 17.5487C23.6687 18.1001 23.5334 18.6408 23.2762 19.1294ZM27.2675 19.1294H24.5178C24.7108 18.6256 24.8112 18.091 24.8112 17.5487C24.8112 16.1703 24.1716 14.9316 23.1598 14.0835C23.4097 14.034 23.6658 14.0077 23.9276 14.0077C25.9857 14.0077 27.6601 15.5962 27.6601 17.5487C27.6601 18.1001 27.5249 18.6408 27.2675 19.1294ZM28.5092 19.1294C28.7022 18.6256 28.8027 18.091 28.8027 17.5487C28.8027 14.9985 26.6158 12.9237 23.9277 12.9237C23.2384 12.9237 22.5533 13.0633 21.929 13.3294C21.3201 13.0696 20.646 12.9237 19.9363 12.9237C19.5221 12.9237 19.1199 12.9734 18.7356 13.066C18.592 12.8673 18.4598 12.6464 18.3968 12.4253C18.2905 12.0544 18.4005 11.5209 18.5169 10.9561C18.6836 10.1469 18.8727 9.22972 18.4521 8.45105C18.1776 7.94288 17.7007 7.6007 17.1831 7.32833C17.3068 6.55725 17.4181 5.63687 17.8974 5.40396C18.3421 5.18781 19.042 5.52956 19.7835 5.89139C20.2928 6.13999 20.8195 6.39704 21.3591 6.51917C21.9015 6.64202 22.5226 6.56823 23.1234 6.49698C23.8944 6.40542 24.6918 6.31082 25.1775 6.64809C25.5207 6.88685 25.6911 7.5285 25.8559 8.14905C26.04 8.84244 26.2305 9.55946 26.7004 10.1091C27.1238 10.6031 27.7915 10.8939 28.4372 11.1751C29.0893 11.4591 29.7635 11.7528 30.0036 12.1975C30.2437 12.642 30.1014 13.3325 29.9639 14.0002C29.8274 14.6622 29.6864 15.3466 29.8625 15.9614C30.0578 16.6441 30.5602 17.2097 31.0461 17.7567C31.4717 18.2358 31.9103 18.7307 31.9315 19.1294H28.5092ZM28.885 34.2349C28.885 35.7133 27.6172 36.916 26.059 36.916H14.941C13.3828 36.916 12.115 35.7133 12.115 34.2349V32.9866C13.1756 33.2198 14.2716 33.3412 15.3861 33.3412H25.6139C26.729 33.3412 27.8246 33.221 28.8849 32.9885L28.885 34.2349Z" fill="#2F3741" stroke="#2F3741" stroke-width="0.386705"/>
</svg>
