<svg width="47" height="45" viewBox="0 0 47 45" fill="none" xmlns="http://www.w3.org/2000/svg">
<path d="M43.8668 33.4496H41.6514L42.3955 32.7372C42.9794 32.174 43.3063 31.4122 43.3047 30.6187C43.3031 29.8252 42.9732 29.0646 42.3871 28.5035C41.8009 27.9424 41.0065 27.6265 40.1776 27.625C39.3487 27.6234 38.553 27.9364 37.9646 28.4953L36.0755 30.3039C34.9406 29.7716 33.6629 29.5842 32.4136 29.7667L24.1388 30.9478L24.8806 22.4269C26.0708 23.1883 27.4701 23.5951 28.9017 23.5956C32.8343 23.5956 36.0338 20.5905 36.0338 16.8969C36.0338 13.7305 33.71 11.0527 30.5035 10.3674C30.5623 9.997 30.5917 9.62291 30.5916 9.2483C30.5916 5.0859 26.9854 1.69961 22.5531 1.69961C21.4355 1.69979 20.3298 1.91864 19.3038 2.34271C18.5475 1.59823 17.6424 1.00714 16.6424 0.604663C15.6424 0.202184 14.568 -0.0034407 13.4832 4.35489e-05C9.05047 4.35489e-05 5.44467 3.38633 5.44467 7.54864C5.44502 8.48533 5.63057 9.4135 5.9915 10.2841C2.59994 10.7996 0.00233738 13.5686 0.00233738 16.897C0.00233738 20.5906 3.2018 23.5957 7.13443 23.5957C7.99409 23.5957 8.8469 23.4494 9.65311 23.1638L10.1282 28.6218C9.62984 28.5372 9.12469 28.4947 8.61858 28.4949C8.56962 28.4949 8.51998 28.4959 8.47073 28.4966C7.82334 27.3178 6.87369 26.5545 5.67535 26.2677C5.47439 26.221 5.26233 26.2524 5.08541 26.3548C4.90849 26.4573 4.78107 26.6225 4.73092 26.8146C4.68078 27.0066 4.71199 27.2098 4.81774 27.3799C4.9235 27.55 5.09521 27.6732 5.29545 27.7226C5.88599 27.8704 6.40322 28.2128 6.75629 28.6894C5.35388 28.9863 4.05123 29.614 2.96678 30.5155C1.88233 31.417 1.0505 32.5638 0.546937 33.8515C0.04337 35.1392 -0.115958 36.527 0.0834407 37.8886C0.28284 39.2503 0.83464 40.5426 1.68866 41.6481C2.54268 42.7536 3.67183 43.6372 4.97342 44.2185C6.27502 44.7998 7.70776 45.0604 9.14136 44.9766C10.575 44.8928 11.9639 44.4673 13.182 43.7387C14.4 43.0101 15.4085 42.0016 16.1157 40.8048L32.4137 43.1315C32.7251 43.1761 33.0396 43.1986 33.3545 43.1987C34.4489 43.1981 35.5236 42.92 36.4693 42.3926L38.2663 44.1133C38.5568 44.3936 38.9023 44.6162 39.2829 44.7683C39.6635 44.9205 40.0718 44.9992 40.4842 45C40.8967 45.0008 41.3053 44.9235 41.6865 44.7728C42.0677 44.622 42.4141 44.4007 42.7057 44.1215C42.9974 43.8423 43.2286 43.5107 43.3861 43.1458C43.5436 42.7808 43.6242 42.3897 43.6235 41.9948C43.6227 41.6 43.5404 41.2091 43.3815 40.8448C43.2226 40.4804 42.99 40.1496 42.6973 39.8715L42.2554 39.4485H43.8668C44.6978 39.4485 45.4947 39.1325 46.0823 38.57C46.6699 38.0075 47 37.2445 47 36.449C47 35.6535 46.6699 34.8906 46.0823 34.3281C45.4947 33.7656 44.6978 33.4496 43.8668 33.4496ZM39.072 29.556C39.3658 29.2747 39.7642 29.1167 40.1797 29.1167C40.5952 29.1167 40.9937 29.2747 41.2875 29.556C41.5813 29.8372 41.7463 30.2187 41.7463 30.6164C41.7464 31.0142 41.5813 31.3956 41.2875 31.6769L39.3173 33.5632C38.8996 32.6569 38.277 31.8506 37.4945 31.2024C37.4689 31.1812 37.4421 31.1618 37.4162 31.141L39.072 29.556ZM9.99277 21.3579C9.12527 21.8424 8.13874 22.0971 7.13443 22.096C4.06568 22.096 1.56893 19.7637 1.56893 16.897C1.56893 14.0303 4.06568 11.6979 7.13149 11.6979H7.14363C7.16008 11.6985 7.17663 11.6989 7.19318 11.699C7.33207 11.7005 7.46886 11.6665 7.58952 11.6006C7.71018 11.5347 7.81037 11.4394 7.87983 11.3242C7.94929 11.209 7.98552 11.0783 7.9848 10.9453C7.98407 10.8123 7.94643 10.6819 7.87572 10.5675C7.31031 9.65334 7.01159 8.61065 7.01077 7.54826C7.01077 4.21334 9.91434 1.49977 13.4832 1.49977C14.4419 1.49591 15.3896 1.69475 16.2587 2.0821C17.1278 2.46945 17.8969 3.03575 18.5109 3.74055C18.6258 3.87282 18.7847 3.96326 18.9609 3.99671C19.1372 4.03016 19.3201 4.00458 19.479 3.92427C20.4272 3.44762 21.4823 3.19886 22.5534 3.19943C26.1223 3.19943 29.0254 5.913 29.0254 9.24839C29.0254 9.76777 28.9542 10.2849 28.8136 10.7865C28.7841 10.8914 28.7789 11.0012 28.7981 11.1082C28.8174 11.2152 28.8606 11.317 28.925 11.4064C28.9893 11.4958 29.0732 11.5708 29.1708 11.6262C29.2684 11.6815 29.3774 11.7159 29.4902 11.727C32.3276 12.0053 34.4673 14.2279 34.4673 16.897C34.4673 19.7637 31.9705 22.096 28.9018 22.096C28.128 22.097 27.3623 21.9456 26.6523 21.6512C25.9422 21.3568 25.3031 20.9257 24.7745 20.3847C24.6773 20.2844 24.5534 20.2115 24.416 20.1738C24.2786 20.1362 24.1331 20.1352 23.9952 20.171C23.8573 20.2068 23.7323 20.278 23.6337 20.377C23.535 20.4759 23.4665 20.5988 23.4356 20.7324C22.7962 23.4922 20.1365 25.4954 17.1112 25.4954C14.4627 25.4954 12.1079 24.0125 11.1119 21.7174C11.069 21.6185 11.0045 21.5296 10.9227 21.4566C10.8409 21.3836 10.7437 21.3282 10.6377 21.2941C10.5317 21.2601 10.4192 21.2481 10.308 21.2592C10.1968 21.2702 10.0893 21.3038 9.99277 21.3579ZM7.46792 30.086C7.68877 30.7871 7.81228 31.513 7.83528 32.245C7.8354 32.4439 7.91804 32.6346 8.06501 32.7751C8.21199 32.9157 8.41127 32.9946 8.61902 32.9945C8.82676 32.9943 9.02595 32.9152 9.17276 32.7745C9.31957 32.6338 9.40199 32.443 9.40187 32.2442C9.38377 31.4898 9.27363 30.74 9.07367 30.0101C10.6558 30.107 12.1572 30.7135 13.3334 31.7311C12.5038 31.9693 11.5531 32.4475 11.0512 33.4089C10.9676 33.569 10.9465 33.7525 10.9919 33.9261L11.4031 35.5028L8.90898 34.5478C8.72223 34.4763 8.51394 34.4763 8.32719 34.5478L5.83357 35.5024L6.2448 33.9257C6.29014 33.7521 6.2691 33.5686 6.18547 33.4085C5.68357 32.4475 4.73285 31.9693 3.90324 31.7307C4.90241 30.867 6.13968 30.2961 7.46792 30.086ZM8.61858 43.4921C7.34487 43.4929 6.09476 43.1631 5.00127 42.5378C3.90779 41.9125 3.01183 41.0152 2.40874 39.9412C1.80565 38.8672 1.51799 37.6567 1.57636 36.4387C1.63474 35.2206 2.03696 34.0405 2.74025 33.0238C3.26231 33.0862 4.17955 33.2778 4.646 33.8662L3.94221 36.5615C3.90723 36.6955 3.91157 36.8361 3.95477 36.9679C3.99797 37.0997 4.07834 37.2175 4.18702 37.3083C4.2957 37.3991 4.42847 37.4594 4.57069 37.4826C4.71291 37.5058 4.85905 37.4909 4.993 37.4396L8.61858 36.0512L12.2442 37.4396C12.3781 37.4909 12.5242 37.5058 12.6665 37.4826C12.8087 37.4594 12.9414 37.3991 13.0501 37.3083C13.1588 37.2175 13.2392 37.0997 13.2824 36.9679C13.3256 36.8361 13.3299 36.6955 13.2949 36.5615L12.5912 33.8662C12.8387 33.5544 13.2419 33.3181 13.7939 33.162C14.0239 33.0978 14.259 33.0516 14.4968 33.0237C15.2001 34.0403 15.6024 35.2204 15.6608 36.4385C15.7192 37.6566 15.4316 38.867 14.8285 39.9411C14.2254 41.0151 13.3294 41.9125 12.2359 42.5378C11.1424 43.1631 9.89231 43.4929 8.61858 43.4921ZM15.767 32.1431C14.783 30.7456 13.3775 29.6682 11.7379 29.0544L11.3612 24.7268C12.1568 25.4921 13.1124 26.0877 14.1654 26.4745L14.1419 26.482L14.9209 28.7194L14.9252 28.7316C14.9553 28.8277 15.0054 28.9171 15.0723 28.9943C15.1392 29.0716 15.2216 29.1352 15.3146 29.1814C15.4077 29.2276 15.5095 29.2555 15.614 29.2633C15.7185 29.2712 15.8236 29.2589 15.923 29.2271C16.0225 29.1954 16.1143 29.1449 16.1929 29.0786C16.2716 29.0122 16.3356 28.9315 16.3811 28.8411C16.4265 28.7506 16.4526 28.6524 16.4577 28.5522C16.4628 28.4519 16.4468 28.3517 16.4107 28.2575L15.9435 26.9155C16.3301 26.9682 16.7201 26.9948 17.1106 26.9949C17.5899 26.9946 18.0682 26.9538 18.5401 26.8731L18.0581 28.2576C18.022 28.3518 18.006 28.452 18.0111 28.5523C18.0162 28.6525 18.0422 28.7507 18.0877 28.8411C18.1332 28.9316 18.1971 29.0123 18.2758 29.0786C18.3545 29.145 18.4463 29.1955 18.5457 29.2272C18.6452 29.259 18.7502 29.2713 18.8547 29.2634C18.9593 29.2556 19.0611 29.2277 19.1541 29.1815C19.2472 29.1353 19.3296 29.0717 19.3965 28.9944C19.4634 28.9172 19.5134 28.8278 19.5436 28.7317L19.5479 28.7195L20.3269 26.4821C20.3418 26.4387 20.3526 26.3941 20.3591 26.3488C21.4168 25.9138 22.3631 25.2638 23.1324 24.444L22.5465 31.175L15.767 32.1431ZM36.4717 40.5597C35.9555 40.9975 35.3454 41.3219 34.6843 41.5099C34.0232 41.698 33.3271 41.7452 32.6449 41.6482L27.4182 40.902L27.4176 37.4932C27.4176 37.2943 27.3351 37.1036 27.1882 36.963C27.0413 36.8224 26.8421 36.7434 26.6343 36.7434C26.4266 36.7434 26.2274 36.8224 26.0805 36.963C25.9336 37.1036 25.8511 37.2943 25.8511 37.4932L25.8516 40.6783L16.7822 39.3835C17.4543 37.4769 17.3757 35.4009 16.5611 33.5459L19.5847 33.1144V38.2431C19.5847 38.442 19.6672 38.6327 19.8141 38.7733C19.961 38.9139 20.1602 38.9929 20.368 38.9929C20.5757 38.9929 20.775 38.9139 20.9219 38.7733C21.0688 38.6327 21.1513 38.442 21.1513 38.2431V32.8909L32.1174 31.3256V35.9935C32.1174 36.1924 32.1999 36.3831 32.3468 36.5237C32.4937 36.6643 32.693 36.7434 32.9007 36.7434C33.1084 36.7434 33.3077 36.6643 33.4546 36.5237C33.6015 36.3831 33.684 36.1924 33.684 35.9935V31.2117C34.7161 31.2885 35.6943 31.6839 36.4717 32.3384C37.6868 33.3408 38.3838 34.8394 38.3838 36.449C38.3838 38.0587 37.6868 39.557 36.4717 40.5597ZM41.5896 43.053C41.2958 43.3342 40.8973 43.4922 40.4819 43.4922C40.0664 43.4922 39.6679 43.3342 39.3741 43.053L37.7361 41.4848C38.5186 40.771 39.1189 39.8943 39.4907 38.9226L41.5896 40.932C41.8829 41.2135 42.0476 41.5949 42.0476 41.9924C42.0476 42.39 41.8829 42.7714 41.5896 43.0529V43.053ZM43.8668 37.9488H40.6889L39.9094 37.2025C39.983 36.5316 39.9573 35.8541 39.8332 35.1901L40.0848 34.9493H43.8668C44.2823 34.9493 44.6808 35.1073 44.9746 35.3886C45.2684 35.6698 45.4334 36.0513 45.4334 36.449C45.4334 36.8468 45.2684 37.2282 44.9746 37.5095C44.6808 37.7908 44.2823 37.9488 43.8668 37.9488Z" fill="#2F3741"/>
</svg>
