<svg width="32" height="31" viewBox="0 0 32 31" fill="none" xmlns="http://www.w3.org/2000/svg">
<path d="M29.3084 22.5179H27.8787L28.3589 22.0596C28.7357 21.6973 28.9467 21.2072 28.9457 20.6968C28.9446 20.1863 28.7317 19.6971 28.3535 19.3361C27.9752 18.9752 27.4626 18.7719 26.9277 18.7709C26.3928 18.77 25.8792 18.9713 25.4995 19.3308L24.2805 20.4943C23.5481 20.1519 22.7235 20.0313 21.9173 20.1487L16.5774 20.9085L17.0561 15.427C17.8242 15.9169 18.7272 16.1785 19.651 16.1789C22.1888 16.1789 24.2535 14.2458 24.2535 11.8697C24.2535 9.83274 22.754 8.11016 20.6847 7.66926C20.7226 7.431 20.7416 7.19035 20.7416 6.94936C20.7416 4.27172 18.4144 2.09335 15.5541 2.09335C14.8329 2.09347 14.1194 2.23425 13.4572 2.50705C12.9692 2.02813 12.3851 1.64789 11.7398 1.38898C11.0944 1.13006 10.4011 0.997787 9.70108 1.00003C6.8405 1.00003 4.51359 3.1784 4.51359 5.85599C4.51382 6.45856 4.63355 7.05564 4.86647 7.61572C2.67781 7.94729 1.00151 9.72861 1.00151 11.8697C1.00151 14.2458 3.06621 16.179 5.60403 16.179C6.15879 16.1789 6.70914 16.0849 7.22941 15.9011L7.53598 19.4122C7.21439 19.3578 6.8884 19.3304 6.56179 19.3305C6.5302 19.3305 6.49816 19.3312 6.46638 19.3317C6.0486 18.5733 5.43577 18.0823 4.66245 17.8978C4.53277 17.8678 4.39592 17.888 4.28175 17.9539C4.16758 18.0198 4.08535 18.1261 4.05299 18.2496C4.02063 18.3732 4.04077 18.5039 4.10901 18.6133C4.17726 18.7227 4.28807 18.802 4.41729 18.8337C4.79838 18.9289 5.13216 19.1491 5.36001 19.4557C4.455 19.6467 3.61436 20.0505 2.91454 20.6304C2.21472 21.2104 1.67792 21.9481 1.35295 22.7764C1.02799 23.6048 0.925169 24.4975 1.05385 25.3735C1.18252 26.2494 1.53861 27.0808 2.08974 27.7919C2.64086 28.5031 3.36953 29.0715 4.20948 29.4455C5.04943 29.8194 5.97402 29.9871 6.89916 29.9332C7.8243 29.8792 8.72065 29.6055 9.50668 29.1368C10.2927 28.6681 10.9435 28.0193 11.3999 27.2494L21.9174 28.7462C22.1184 28.7749 22.3213 28.7894 22.5245 28.7894C23.2308 28.789 23.9243 28.6101 24.5346 28.2709L25.6942 29.3778C25.8817 29.5581 26.1047 29.7013 26.3503 29.7992C26.5959 29.897 26.8594 29.9477 27.1255 29.9482C27.3917 29.9487 27.6554 29.899 27.9014 29.802C28.1474 29.705 28.3709 29.5627 28.5591 29.3831C28.7474 29.2034 28.8966 28.9901 28.9982 28.7554C29.0998 28.5206 29.1519 28.269 29.1514 28.015C29.1508 27.761 29.0978 27.5095 28.9952 27.2751C28.8927 27.0407 28.7426 26.828 28.5537 26.6491L28.2685 26.3769H29.3084C29.8447 26.3769 30.3589 26.1736 30.7381 25.8118C31.1173 25.4499 31.3303 24.9591 31.3303 24.4474C31.3303 23.9357 31.1173 23.4449 30.7381 23.083C30.3589 22.7212 29.8447 22.5179 29.3084 22.5179ZM26.2142 20.0132C26.4038 19.8322 26.6609 19.7306 26.929 19.7306C27.1972 19.7306 27.4543 19.8322 27.6439 20.0131C27.8335 20.1941 27.94 20.4395 27.94 20.6953C27.94 20.9512 27.8335 21.1966 27.6439 21.3775L26.3725 22.591C26.1029 22.0079 25.7012 21.4893 25.1962 21.0723C25.1796 21.0587 25.1624 21.0462 25.1457 21.0328L26.2142 20.0132ZM7.44859 14.7394C6.88878 15.0511 6.25214 15.2149 5.60403 15.2142C3.62369 15.2142 2.01247 13.7139 2.01247 11.8697C2.01247 10.0256 3.62369 8.52519 5.60214 8.52519H5.60997C5.62059 8.52555 5.63127 8.52579 5.64194 8.52591C5.73158 8.52682 5.81985 8.50497 5.89771 8.4626C5.97558 8.42022 6.04024 8.35885 6.08506 8.28478C6.12989 8.2107 6.15326 8.12658 6.1528 8.04104C6.15233 7.9555 6.12804 7.87162 6.08241 7.798C5.71753 7.20993 5.52477 6.53917 5.52423 5.85574C5.52423 3.71041 7.39798 1.96479 9.70108 1.96479C10.3197 1.96231 10.9313 2.09022 11.4922 2.3394C12.053 2.58858 12.5493 2.95288 12.9456 3.40627C13.0197 3.49136 13.1222 3.54954 13.236 3.57106C13.3497 3.59257 13.4677 3.57612 13.5703 3.52445C14.1822 3.21783 14.8631 3.05781 15.5543 3.05817C17.8574 3.05817 19.7308 4.80379 19.7308 6.94943C19.7308 7.28354 19.6849 7.61621 19.5941 7.93891C19.5752 8.00638 19.5718 8.07698 19.5842 8.14582C19.5966 8.21467 19.6245 8.28012 19.6661 8.33765C19.7076 8.39518 19.7617 8.44342 19.8247 8.47902C19.8877 8.51463 19.958 8.53676 20.0308 8.54388C21.8619 8.7229 23.2426 10.1527 23.2426 11.8697C23.2426 13.7139 21.6314 15.2142 19.6511 15.2142C19.1517 15.2149 18.6576 15.1175 18.1994 14.9281C17.7412 14.7387 17.3287 14.4614 16.9876 14.1133C16.9249 14.0488 16.8449 14.0019 16.7563 13.9777C16.6676 13.9535 16.5737 13.9528 16.4848 13.9759C16.3958 13.9989 16.3151 14.0447 16.2514 14.1084C16.1878 14.172 16.1435 14.2511 16.1236 14.337C15.711 16.1124 13.9946 17.401 12.0423 17.401C10.3332 17.401 8.81352 16.447 8.1708 14.9707C8.14312 14.907 8.10148 14.8498 8.0487 14.8029C7.99591 14.7559 7.9332 14.7203 7.86478 14.6984C7.79636 14.6765 7.72381 14.6688 7.65203 14.6759C7.58024 14.6829 7.51087 14.7046 7.44859 14.7394ZM5.81924 20.3541C5.96176 20.8051 6.04147 21.2721 6.05631 21.743C6.05639 21.8709 6.10972 21.9936 6.20456 22.084C6.29941 22.1744 6.42801 22.2252 6.56208 22.2251C6.69614 22.225 6.82468 22.1741 6.91942 22.0836C7.01416 21.9931 7.06735 21.8704 7.06727 21.7424C7.05559 21.2572 6.98451 20.7748 6.85548 20.3053C7.87648 20.3676 8.84534 20.7578 9.60441 21.4124C9.06904 21.5657 8.45551 21.8732 8.13162 22.4917C8.07766 22.5947 8.06407 22.7127 8.09333 22.8244L8.35871 23.8387L6.7492 23.2243C6.62868 23.1784 6.49427 23.1784 6.37375 23.2243L4.76456 23.8385L5.02993 22.8242C5.05919 22.7125 5.04561 22.5945 4.99164 22.4915C4.66776 21.8732 4.05423 21.5657 3.51886 21.4121C4.16365 20.8565 4.96209 20.4893 5.81924 20.3541ZM6.56179 28.9782C5.73983 28.9787 4.93311 28.7665 4.22745 28.3643C3.5218 27.962 2.94361 27.3848 2.55442 26.6939C2.16523 26.003 1.9796 25.2243 2.01727 24.4407C2.05494 23.6572 2.31451 22.898 2.76835 22.244C3.10525 22.2841 3.69717 22.4074 3.99819 22.7859L3.54401 24.5198C3.52143 24.606 3.52424 24.6964 3.55212 24.7812C3.57999 24.866 3.63186 24.9417 3.70199 25.0002C3.77213 25.0586 3.85781 25.0974 3.94959 25.1123C4.04136 25.1272 4.13567 25.1176 4.22211 25.0846L6.56179 24.1915L8.90147 25.0846C8.98791 25.1176 9.08222 25.1272 9.174 25.1123C9.26577 25.0974 9.35146 25.0586 9.42159 25.0002C9.49173 24.9417 9.54359 24.866 9.57147 24.7812C9.59935 24.6964 9.60215 24.606 9.57957 24.5198L9.1254 22.7859C9.28513 22.5853 9.54533 22.4333 9.90156 22.3329C10.05 22.2916 10.2017 22.2618 10.3552 22.2439C10.809 22.8979 11.0686 23.657 11.1063 24.4406C11.144 25.2242 10.9584 26.0029 10.5692 26.6938C10.18 27.3847 9.60184 27.962 8.89617 28.3643C8.19051 28.7665 7.38376 28.9787 6.56179 28.9782ZM11.1749 21.6774C10.5398 20.7784 9.63287 20.0853 8.57474 19.6905L8.33167 16.9066C8.84509 17.3989 9.46179 17.782 10.1413 18.0309L10.1261 18.0357L10.6288 19.475L10.6316 19.4829C10.6511 19.5447 10.6834 19.6021 10.7265 19.6518C10.7697 19.7015 10.8229 19.7425 10.8829 19.7722C10.943 19.8019 11.0087 19.8198 11.0761 19.8249C11.1436 19.8299 11.2114 19.822 11.2756 19.8016C11.3397 19.7812 11.399 19.7487 11.4497 19.706C11.5005 19.6634 11.5418 19.6114 11.5711 19.5532C11.6005 19.4951 11.6173 19.4319 11.6206 19.3674C11.6239 19.3029 11.6135 19.2385 11.5902 19.1779L11.2887 18.3146C11.5382 18.3485 11.7899 18.3656 12.0419 18.3657C12.3512 18.3654 12.6599 18.3392 12.9644 18.2873L12.6533 19.1779C12.63 19.2385 12.6197 19.303 12.623 19.3675C12.6263 19.4319 12.6431 19.4951 12.6725 19.5533C12.7018 19.6115 12.7431 19.6634 12.7939 19.7061C12.8446 19.7488 12.9039 19.7813 12.968 19.8017C13.0322 19.8221 13.1 19.83 13.1675 19.8249C13.2349 19.8199 13.3006 19.802 13.3606 19.7723C13.4207 19.7425 13.4739 19.7016 13.5171 19.6519C13.5602 19.6022 13.5925 19.5447 13.612 19.4829L13.6148 19.4751L14.1175 18.0358C14.1271 18.0079 14.1341 17.9792 14.1382 17.95C14.8208 17.6701 15.4315 17.252 15.928 16.7247L15.5499 21.0546L11.1749 21.6774ZM24.5362 27.0918C24.203 27.3734 23.8093 27.5821 23.3827 27.703C22.956 27.824 22.5068 27.8544 22.0666 27.792L18.6937 27.312L18.6933 25.1191C18.6933 24.9912 18.6401 24.8685 18.5453 24.778C18.4505 24.6876 18.3219 24.6367 18.1878 24.6367C18.0538 24.6367 17.9252 24.6876 17.8304 24.778C17.7356 24.8685 17.6824 24.9912 17.6824 25.1191L17.6827 27.168L11.83 26.3351C12.2637 25.1086 12.213 23.7732 11.6873 22.5799L13.6385 22.3023V25.6015C13.6385 25.7294 13.6918 25.8521 13.7866 25.9426C13.8814 26.0331 14.0099 26.0839 14.144 26.0839C14.2781 26.0839 14.4066 26.0331 14.5014 25.9426C14.5962 25.8521 14.6495 25.7294 14.6495 25.6015V22.1585L21.7262 21.1515V24.1544C21.7262 24.2823 21.7795 24.405 21.8743 24.4955C21.969 24.5859 22.0976 24.6367 22.2317 24.6367C22.3657 24.6367 22.4943 24.5859 22.5891 24.4955C22.6839 24.405 22.7372 24.2823 22.7372 24.1544V21.0783C23.4032 21.1277 24.0345 21.382 24.5362 21.803C25.3203 22.4479 25.77 23.4119 25.77 24.4474C25.77 25.4829 25.3203 26.4468 24.5362 27.0918ZM27.8389 28.6957C27.6493 28.8766 27.3921 28.9782 27.124 28.9782C26.8559 28.9782 26.5988 28.8766 26.4092 28.6957L25.3521 27.6869C25.857 27.2277 26.2445 26.6637 26.4844 26.0387L27.8389 27.3313C28.0281 27.5124 28.1344 27.7577 28.1344 28.0134C28.1344 28.2692 28.0281 28.5145 27.8389 28.6956V28.6957ZM29.3084 25.4122H27.2576L26.7546 24.9321C26.802 24.5005 26.7855 24.0647 26.7054 23.6375L26.8678 23.4826H29.3084C29.5765 23.4826 29.8337 23.5843 30.0233 23.7652C30.2129 23.9461 30.3194 24.1915 30.3194 24.4474C30.3194 24.7033 30.2129 24.9487 30.0233 25.1296C29.8337 25.3105 29.5765 25.4122 29.3084 25.4122Z" fill="#D55951"/>
<path d="M22.2317 26.5663C22.5109 26.5663 22.7372 26.3503 22.7372 26.0839C22.7372 25.8175 22.5109 25.6015 22.2317 25.6015C21.9525 25.6015 21.7262 25.8175 21.7262 26.0839C21.7262 26.3503 21.9525 26.5663 22.2317 26.5663Z" fill="#D55951"/>
<path d="M18.2868 22.7162C18.1803 22.6959 18.0699 22.7089 17.9717 22.7531C17.8736 22.7974 17.793 22.8706 17.7418 22.962C17.6906 23.0533 17.6715 23.1579 17.6874 23.2604C17.7034 23.3629 17.7534 23.4578 17.8302 23.531C17.9069 23.6042 18.0063 23.652 18.1137 23.6672C18.2211 23.6823 18.3308 23.6641 18.4265 23.6153C18.5222 23.5664 18.5989 23.4895 18.6452 23.3958C18.6916 23.3021 18.7052 23.1967 18.6839 23.0951C18.6643 23.0016 18.6161 22.9157 18.5454 22.8483C18.4748 22.7809 18.3848 22.7349 18.2868 22.7162Z" fill="#D55951"/>
<path d="M29.3084 22.5179H27.8787L28.3589 22.0596C28.7357 21.6973 28.9467 21.2072 28.9457 20.6968C28.9446 20.1863 28.7317 19.6971 28.3535 19.3361C27.9752 18.9752 27.4626 18.7719 26.9277 18.7709C26.3928 18.77 25.8792 18.9713 25.4995 19.3308L24.2805 20.4943C23.5481 20.1519 22.7235 20.0313 21.9173 20.1487L16.5774 20.9085L17.0561 15.427C17.8242 15.9169 18.7272 16.1785 19.651 16.1789C22.1888 16.1789 24.2535 14.2458 24.2535 11.8697C24.2535 9.83274 22.754 8.11016 20.6847 7.66926C20.7226 7.431 20.7416 7.19035 20.7416 6.94936C20.7416 4.27172 18.4144 2.09335 15.5541 2.09335C14.8329 2.09347 14.1194 2.23425 13.4572 2.50705C12.9692 2.02813 12.3851 1.64789 11.7398 1.38898C11.0944 1.13006 10.4011 0.997787 9.70108 1.00003C6.8405 1.00003 4.51359 3.1784 4.51359 5.85599C4.51382 6.45856 4.63355 7.05564 4.86647 7.61572C2.67781 7.94729 1.00151 9.72861 1.00151 11.8697C1.00151 14.2458 3.06621 16.179 5.60403 16.179C6.15879 16.1789 6.70914 16.0849 7.22941 15.9011L7.53598 19.4122C7.21439 19.3578 6.8884 19.3304 6.56179 19.3305C6.5302 19.3305 6.49816 19.3312 6.46638 19.3317C6.0486 18.5733 5.43577 18.0823 4.66245 17.8978C4.53277 17.8678 4.39592 17.888 4.28175 17.9539C4.16758 18.0198 4.08535 18.1261 4.05299 18.2496C4.02063 18.3732 4.04077 18.5039 4.10901 18.6133C4.17726 18.7227 4.28807 18.802 4.41729 18.8337C4.79838 18.9289 5.13216 19.1491 5.36001 19.4557C4.455 19.6467 3.61436 20.0505 2.91454 20.6304C2.21472 21.2104 1.67792 21.9481 1.35295 22.7764C1.02799 23.6048 0.925169 24.4975 1.05385 25.3735C1.18252 26.2494 1.53861 27.0808 2.08974 27.7919C2.64086 28.5031 3.36953 29.0715 4.20948 29.4455C5.04943 29.8194 5.97402 29.9871 6.89916 29.9332C7.8243 29.8792 8.72065 29.6055 9.50668 29.1368C10.2927 28.6681 10.9435 28.0193 11.3999 27.2494L21.9174 28.7462C22.1184 28.7749 22.3213 28.7894 22.5245 28.7894C23.2308 28.789 23.9243 28.6101 24.5346 28.2709L25.6942 29.3778C25.8817 29.5581 26.1047 29.7013 26.3503 29.7992C26.5959 29.897 26.8594 29.9477 27.1255 29.9482C27.3917 29.9487 27.6554 29.899 27.9014 29.802C28.1474 29.705 28.3709 29.5627 28.5591 29.3831C28.7474 29.2034 28.8966 28.9901 28.9982 28.7554C29.0998 28.5206 29.1519 28.269 29.1514 28.015C29.1508 27.761 29.0978 27.5095 28.9952 27.2751C28.8927 27.0407 28.7426 26.828 28.5537 26.6491L28.2685 26.3769H29.3084C29.8447 26.3769 30.3589 26.1736 30.7381 25.8118C31.1173 25.4499 31.3303 24.9591 31.3303 24.4474C31.3303 23.9357 31.1173 23.4449 30.7381 23.083C30.3589 22.7212 29.8447 22.5179 29.3084 22.5179ZM26.2142 20.0132C26.4038 19.8322 26.6609 19.7306 26.929 19.7306C27.1972 19.7306 27.4543 19.8322 27.6439 20.0131C27.8335 20.1941 27.94 20.4395 27.94 20.6953C27.94 20.9512 27.8335 21.1966 27.6439 21.3775L26.3725 22.591C26.1029 22.0079 25.7012 21.4893 25.1962 21.0723C25.1796 21.0587 25.1624 21.0462 25.1457 21.0328L26.2142 20.0132ZM7.44859 14.7394C6.88878 15.0511 6.25214 15.2149 5.60403 15.2142C3.62369 15.2142 2.01247 13.7139 2.01247 11.8697C2.01247 10.0256 3.62369 8.52519 5.60214 8.52519H5.60997C5.62059 8.52555 5.63127 8.52579 5.64194 8.52591C5.73158 8.52682 5.81985 8.50497 5.89771 8.4626C5.97558 8.42022 6.04024 8.35885 6.08506 8.28478C6.12989 8.2107 6.15326 8.12658 6.1528 8.04104C6.15233 7.9555 6.12804 7.87162 6.08241 7.798C5.71753 7.20993 5.52477 6.53917 5.52423 5.85574C5.52423 3.71041 7.39798 1.96479 9.70108 1.96479C10.3197 1.96231 10.9313 2.09022 11.4922 2.3394C12.053 2.58858 12.5493 2.95288 12.9456 3.40627C13.0197 3.49136 13.1222 3.54954 13.236 3.57106C13.3497 3.59257 13.4677 3.57612 13.5703 3.52445C14.1822 3.21783 14.8631 3.05781 15.5543 3.05817C17.8574 3.05817 19.7308 4.80379 19.7308 6.94943C19.7308 7.28354 19.6849 7.61621 19.5941 7.93891C19.5752 8.00638 19.5718 8.07698 19.5842 8.14582C19.5966 8.21467 19.6245 8.28012 19.6661 8.33765C19.7076 8.39518 19.7617 8.44342 19.8247 8.47902C19.8877 8.51463 19.958 8.53676 20.0308 8.54388C21.8619 8.7229 23.2426 10.1527 23.2426 11.8697C23.2426 13.7139 21.6314 15.2142 19.6511 15.2142C19.1517 15.2149 18.6576 15.1175 18.1994 14.9281C17.7412 14.7387 17.3287 14.4614 16.9876 14.1133C16.9249 14.0488 16.8449 14.0019 16.7563 13.9777C16.6676 13.9535 16.5737 13.9528 16.4848 13.9759C16.3958 13.9989 16.3151 14.0447 16.2514 14.1084C16.1878 14.172 16.1435 14.2511 16.1236 14.337C15.711 16.1124 13.9946 17.401 12.0423 17.401C10.3332 17.401 8.81352 16.447 8.1708 14.9707C8.14312 14.907 8.10148 14.8498 8.0487 14.8029C7.99591 14.7559 7.9332 14.7203 7.86478 14.6984C7.79636 14.6765 7.72381 14.6688 7.65203 14.6759C7.58024 14.6829 7.51087 14.7046 7.44859 14.7394ZM5.81924 20.3541C5.96176 20.8051 6.04147 21.2721 6.05631 21.743C6.05639 21.8709 6.10972 21.9936 6.20456 22.084C6.29941 22.1744 6.42801 22.2252 6.56208 22.2251C6.69614 22.225 6.82468 22.1741 6.91942 22.0836C7.01416 21.9931 7.06735 21.8704 7.06727 21.7424C7.05559 21.2572 6.98451 20.7748 6.85548 20.3053C7.87648 20.3676 8.84534 20.7578 9.60441 21.4124C9.06904 21.5657 8.45551 21.8732 8.13162 22.4917C8.07766 22.5947 8.06407 22.7127 8.09333 22.8244L8.35871 23.8387L6.7492 23.2243C6.62868 23.1784 6.49427 23.1784 6.37375 23.2243L4.76456 23.8385L5.02993 22.8242C5.05919 22.7125 5.04561 22.5945 4.99164 22.4915C4.66776 21.8732 4.05423 21.5657 3.51886 21.4121C4.16365 20.8565 4.96209 20.4893 5.81924 20.3541ZM6.56179 28.9782C5.73983 28.9787 4.93311 28.7665 4.22745 28.3643C3.5218 27.962 2.94361 27.3848 2.55442 26.6939C2.16523 26.003 1.9796 25.2243 2.01727 24.4407C2.05494 23.6572 2.31451 22.898 2.76835 22.244C3.10525 22.2841 3.69717 22.4074 3.99819 22.7859L3.54401 24.5198C3.52143 24.606 3.52424 24.6964 3.55212 24.7812C3.57999 24.866 3.63186 24.9417 3.70199 25.0002C3.77213 25.0586 3.85781 25.0974 3.94959 25.1123C4.04136 25.1272 4.13567 25.1176 4.22211 25.0846L6.56179 24.1915L8.90147 25.0846C8.98791 25.1176 9.08222 25.1272 9.174 25.1123C9.26577 25.0974 9.35146 25.0586 9.42159 25.0002C9.49173 24.9417 9.54359 24.866 9.57147 24.7812C9.59935 24.6964 9.60215 24.606 9.57957 24.5198L9.1254 22.7859C9.28513 22.5853 9.54533 22.4333 9.90156 22.3329C10.05 22.2916 10.2017 22.2618 10.3552 22.2439C10.809 22.8979 11.0686 23.657 11.1063 24.4406C11.144 25.2242 10.9584 26.0029 10.5692 26.6938C10.18 27.3847 9.60184 27.962 8.89617 28.3643C8.19051 28.7665 7.38376 28.9787 6.56179 28.9782ZM11.1749 21.6774C10.5398 20.7784 9.63287 20.0853 8.57474 19.6905L8.33167 16.9066C8.84509 17.3989 9.46179 17.782 10.1413 18.0309L10.1261 18.0357L10.6288 19.475L10.6316 19.4829C10.6511 19.5447 10.6834 19.6021 10.7265 19.6518C10.7697 19.7015 10.8229 19.7425 10.8829 19.7722C10.943 19.8019 11.0087 19.8198 11.0761 19.8249C11.1436 19.8299 11.2114 19.822 11.2756 19.8016C11.3397 19.7812 11.399 19.7487 11.4497 19.706C11.5005 19.6634 11.5418 19.6114 11.5711 19.5532C11.6005 19.4951 11.6173 19.4319 11.6206 19.3674C11.6239 19.3029 11.6135 19.2385 11.5902 19.1779L11.2887 18.3146C11.5382 18.3485 11.7899 18.3656 12.0419 18.3657C12.3512 18.3654 12.6599 18.3392 12.9644 18.2873L12.6533 19.1779C12.63 19.2385 12.6197 19.303 12.623 19.3675C12.6263 19.4319 12.6431 19.4951 12.6725 19.5533C12.7018 19.6115 12.7431 19.6634 12.7939 19.7061C12.8446 19.7488 12.9039 19.7813 12.968 19.8017C13.0322 19.8221 13.1 19.83 13.1675 19.8249C13.2349 19.8199 13.3006 19.802 13.3606 19.7723C13.4207 19.7425 13.4739 19.7016 13.5171 19.6519C13.5602 19.6022 13.5925 19.5447 13.612 19.4829L13.6148 19.4751L14.1175 18.0358C14.1271 18.0079 14.1341 17.9792 14.1382 17.95C14.8208 17.6701 15.4315 17.252 15.928 16.7247L15.5499 21.0546L11.1749 21.6774ZM24.5362 27.0918C24.203 27.3734 23.8093 27.5821 23.3827 27.703C22.956 27.824 22.5068 27.8544 22.0666 27.792L18.6937 27.312L18.6933 25.1191C18.6933 24.9912 18.6401 24.8685 18.5453 24.778C18.4505 24.6876 18.3219 24.6367 18.1878 24.6367C18.0538 24.6367 17.9252 24.6876 17.8304 24.778C17.7356 24.8685 17.6824 24.9912 17.6824 25.1191L17.6827 27.168L11.83 26.3351C12.2637 25.1086 12.213 23.7732 11.6873 22.5799L13.6385 22.3023V25.6015C13.6385 25.7294 13.6918 25.8521 13.7866 25.9426C13.8814 26.0331 14.0099 26.0839 14.144 26.0839C14.2781 26.0839 14.4066 26.0331 14.5014 25.9426C14.5962 25.8521 14.6495 25.7294 14.6495 25.6015V22.1585L21.7262 21.1515V24.1544C21.7262 24.2823 21.7795 24.405 21.8743 24.4955C21.969 24.5859 22.0976 24.6367 22.2317 24.6367C22.3657 24.6367 22.4943 24.5859 22.5891 24.4955C22.6839 24.405 22.7372 24.2823 22.7372 24.1544V21.0783C23.4032 21.1277 24.0345 21.382 24.5362 21.803C25.3203 22.4479 25.77 23.4119 25.77 24.4474C25.77 25.4829 25.3203 26.4468 24.5362 27.0918ZM27.8389 28.6957C27.6493 28.8766 27.3921 28.9782 27.124 28.9782C26.8559 28.9782 26.5988 28.8766 26.4092 28.6957L25.3521 27.6869C25.857 27.2277 26.2445 26.6637 26.4844 26.0387L27.8389 27.3313C28.0281 27.5124 28.1344 27.7577 28.1344 28.0134C28.1344 28.2692 28.0281 28.5145 27.8389 28.6956V28.6957ZM29.3084 25.4122H27.2576L26.7546 24.9321C26.802 24.5005 26.7855 24.0647 26.7054 23.6375L26.8678 23.4826H29.3084C29.5765 23.4826 29.8337 23.5843 30.0233 23.7652C30.2129 23.9461 30.3194 24.1915 30.3194 24.4474C30.3194 24.7033 30.2129 24.9487 30.0233 25.1296C29.8337 25.3105 29.5765 25.4122 29.3084 25.4122Z" stroke="#D55951" stroke-width="0.386705"/>
<path d="M22.2317 26.5663C22.5109 26.5663 22.7372 26.3503 22.7372 26.0839C22.7372 25.8175 22.5109 25.6015 22.2317 25.6015C21.9525 25.6015 21.7262 25.8175 21.7262 26.0839C21.7262 26.3503 21.9525 26.5663 22.2317 26.5663Z" stroke="#D55951" stroke-width="0.386705"/>
<path d="M18.2868 22.7162C18.1803 22.6959 18.0699 22.7089 17.9717 22.7531C17.8736 22.7974 17.793 22.8706 17.7418 22.962C17.6906 23.0533 17.6715 23.1579 17.6874 23.2604C17.7034 23.3629 17.7534 23.4578 17.8302 23.531C17.9069 23.6042 18.0063 23.652 18.1137 23.6672C18.2211 23.6823 18.3308 23.6641 18.4265 23.6153C18.5222 23.5664 18.5989 23.4895 18.6452 23.3958C18.6916 23.3021 18.7052 23.1967 18.6839 23.0951C18.6643 23.0016 18.6161 22.9157 18.5454 22.8483C18.4748 22.7809 18.3848 22.7349 18.2868 22.7162Z" stroke="#D55951" stroke-width="0.386705"/>
</svg>
