<svg width="16" height="16" viewBox="0 0 16 16" fill="none" xmlns="http://www.w3.org/2000/svg">
<path d="M1.95987 2.62707C2.19831 2.08663 2.75341 1.73741 3.37416 1.73741H6.38011C5.82103 0.70697 4.68352 0 3.37416 0C1.51363 0 0 1.42738 0 3.18185C0 4.93632 1.51363 6.3637 3.37416 6.3637C3.73056 6.3637 4.07845 6.31173 4.40834 6.21201L2.28778 4.20016C1.85019 3.78501 1.72148 3.16754 1.95987 2.62707Z" fill="#898989"/>
<path d="M12.6258 15.0371H9.94236V9.12746L12.5119 6.68967H6.35165L8.9212 9.12746V15.037H6.23768C5.95571 15.037 5.72712 15.2526 5.72712 15.5185C5.72712 15.7845 5.95571 16 6.23768 16H12.6258C12.9078 16 13.1364 15.7844 13.1364 15.5185C13.1364 15.2526 12.9078 15.0371 12.6258 15.0371Z" fill="#898989"/>
<path d="M15.9608 2.99691C15.8816 2.81735 15.6956 2.70035 15.4894 2.70035H3.37416C3.1679 2.70035 2.98196 2.81735 2.90273 2.99691C2.82353 3.17648 2.86661 3.38335 3.01202 3.52129L5.33662 5.7267H13.5269L15.8515 3.52129C15.9969 3.38335 16.04 3.17648 15.9608 2.99691Z" fill="#898989"/>
</svg>
