<svg width="17" height="12" viewBox="0 0 17 12" fill="none" xmlns="http://www.w3.org/2000/svg">
<path d="M9.20747 9.9459C11.3852 9.9459 13.157 8.21109 13.157 6.07822C13.157 3.94535 11.3852 2.20972 9.20747 2.20972C7.02988 2.20972 5.25822 3.94508 5.25822 6.07822C5.25822 8.21109 7.0296 9.9459 9.20747 9.9459Z" fill="#898989"/>
<path d="M9.20746 10.9842C11.9743 10.9842 14.2164 8.78756 14.2164 6.07828C14.2164 3.36833 11.9742 1.17216 9.20746 1.17216C6.44095 1.17216 4.19845 3.36833 4.19845 6.07828C4.19845 8.78751 6.44095 10.9842 9.20746 10.9842ZM9.20746 1.92379C11.5461 1.92379 13.4493 3.78786 13.4493 6.07828C13.4493 8.3688 11.5461 10.2325 9.20746 10.2325C6.86879 10.2325 4.96594 8.36886 4.96594 6.07828C4.96594 3.78786 6.86879 1.92379 9.20746 1.92379Z" fill="#898989"/>
<path d="M17 11.4406L16.7077 0.429381C16.7077 0.192286 16.5114 0 16.2693 0C16.2046 0 16.1438 0.0145328 16.0887 0.039525V0.0354515C16.0887 0.0354515 16.0773 0.0426078 16.061 0.0535075C16.019 0.0761877 15.9814 0.104098 15.9488 0.138228C15.628 0.396132 14.6051 1.44729 14.5195 2.86821C14.3896 5.0356 15.4645 5.91335 15.8306 6.71728L15.5384 11.4404C15.5384 11.6774 16.027 11.8698 16.269 11.8698C16.5114 11.87 17 11.6777 17 11.4406Z" fill="#898989"/>
<path d="M0.765187 4.73255L1.52177 5.1027C1.60799 5.14504 1.70304 5.17592 1.80235 5.19887L1.51008 11.64C1.51008 11.839 1.99885 12 2.24076 12C2.48278 12 2.97144 11.839 2.97144 11.64L2.67917 5.1659C2.78208 5.13419 2.88123 5.09549 2.96801 5.04347L3.52855 4.70916C3.93301 4.46749 4.23781 3.936 4.23781 3.47193V0.585941C4.23781 0.348845 4.04143 0.15656 3.7994 0.15656C3.55749 0.15656 3.361 0.348845 3.361 0.585941V3.18563H3.11752V0.585941C3.11752 0.348845 2.92113 0.15656 2.67911 0.15656C2.4372 0.15656 2.2407 0.348845 2.2407 0.585941V3.18563H1.99638V0.585941C1.99638 0.348845 1.79999 0.15656 1.55797 0.15656C1.31606 0.15656 1.11956 0.348845 1.11956 0.585941V3.18563H0.876812V0.678698C0.876812 0.441658 0.680428 0.249317 0.438406 0.249317C0.196496 0.249317 0 0.441658 0 0.678698V3.51988C0 3.99743 0.329085 4.51902 0.765187 4.73255Z" fill="#898989"/>
</svg>
