<svg width="17" height="17" viewBox="0 0 17 17" fill="none" xmlns="http://www.w3.org/2000/svg">
<path d="M5.13611 11.8221C4.68657 11.5643 4.38281 11.0799 4.38281 10.5254C4.38281 8.23684 6.24465 6.375 8.5332 6.375H10.2436L10.3241 5.04688H0.632935L1.32903 16.532C1.34499 16.7949 1.56275 17 1.82617 17H4.88216C4.5688 16.5835 4.38281 16.066 4.38281 15.5059C4.38281 14.8601 4.79474 14.3087 5.36957 14.1006C5.16581 13.7881 5.04688 13.4156 5.04688 13.0156C5.04688 12.6152 5.16607 12.2424 5.37022 11.9296C5.20783 11.8931 5.11769 11.8571 5.13611 11.8221Z" fill="#898989"/>
<path d="M5.478 4.05091C5.47839 4.05091 5.47878 4.05078 5.47916 4.05078H10.459C10.7341 4.05078 10.957 3.82783 10.957 3.55273C10.957 3.27764 10.7341 3.05469 10.459 3.05469H6.39796L7.74048 0.996094H9.46289C9.73798 0.996094 9.96094 0.77314 9.96094 0.498047C9.96094 0.222954 9.73798 0 9.46289 0H7.4707C7.30235 0 7.14542 0.0849533 7.05359 0.225937L5.20874 3.05469H0.498047C0.222954 3.05469 0 3.27764 0 3.55273C0 3.82783 0.222954 4.05078 0.498047 4.05078H5.47618C5.47683 4.05078 5.47748 4.05091 5.478 4.05091Z" fill="#898989"/>
<path d="M5.37891 10.5254C5.37891 10.8005 5.60186 11.0234 5.87695 11.0234H16.502C16.777 11.0234 17 10.8005 17 10.5254C17 8.78612 15.585 7.37109 13.8457 7.37109H8.5332C6.79393 7.37109 5.37891 8.78612 5.37891 10.5254Z" fill="#898989"/>
<path d="M7.03906 12.0195C6.48888 12.0195 6.04297 12.4654 6.04297 13.0156C6.04297 13.5658 6.48888 14.0117 7.03906 14.0117H15.3398C15.89 14.0117 16.3359 13.5658 16.3359 13.0156C16.3359 12.4654 15.89 12.0195 15.3398 12.0195H7.03906Z" fill="#898989"/>
<path d="M16.502 15.0078H5.87695C5.60186 15.0078 5.37891 15.2308 5.37891 15.5059C5.37891 16.3297 6.04919 17 6.87305 17H15.5059C16.3297 17 17 16.3297 17 15.5059C17 15.2308 16.777 15.0078 16.502 15.0078Z" fill="#898989"/>
</svg>
