<svg width="18" height="11" viewBox="0 0 18 11" fill="none" xmlns="http://www.w3.org/2000/svg">
<path d="M17.9444 8.9738C17.8754 8.866 17.7547 8.8 17.6249 8.8H0.374932C0.24517 8.8 0.124444 8.866 0.0561701 8.9738C-0.0120682 9.0816 -0.0188182 9.21652 0.0396818 9.3302C0.566182 10.3605 1.62442 11 2.80191 11H15.1979C16.3747 11 17.4329 10.3605 17.9609 9.33092C18.0179 9.21652 18.0127 9.08232 17.9444 8.9738Z" fill="#898989"/>
<path d="M10.0282 1.54292C10.0897 1.40724 10.1249 1.25764 10.1249 1.1C10.1249 0.493522 9.62019 0 8.99992 0C8.37966 0 7.87492 0.493522 7.87492 1.1C7.87492 1.25768 7.91019 1.40728 7.97167 1.54292C4.57343 1.9998 1.88992 4.675 1.54567 8.06668H16.4534C16.1092 4.67648 13.4249 1.9998 10.0282 1.54292ZM8.64966 3.66592C6.55192 3.8016 4.74517 5.14064 4.04841 7.0774C3.99441 7.22772 3.8489 7.32232 3.69442 7.32232C3.65318 7.32232 3.61117 7.31572 3.56993 7.3018C3.37492 7.23432 3.27219 7.02532 3.34043 6.83392C4.13693 4.61924 6.2017 3.0888 8.6002 2.93404C8.79894 2.92157 8.98495 3.07337 8.99919 3.27577C9.01269 3.4782 8.85666 3.65272 8.64966 3.66592Z" fill="#898989"/>
</svg>
