<svg width="20" height="13" viewBox="0 0 20 13" fill="none" xmlns="http://www.w3.org/2000/svg">
<path d="M19.3542 5.39938L15.0841 0L13.5104 0.000162226V5.39938H19.3542Z" fill="#898989"/>
<path d="M0 0.000973357V11.677H1.21674C1.20377 11.5625 1.19644 11.4464 1.19644 11.3283C1.19644 9.71946 2.42752 8.41062 3.94073 8.41062C5.4538 8.41062 6.68503 9.71946 6.68503 11.3283C6.68503 11.4464 6.67755 11.5625 6.66458 11.677H12.3384V0.000162226L0 0.000973357ZM1.62781 7.30667V6.06077H2.32544C2.57935 4.30419 3.88916 2.91245 5.5423 2.64283V1.53434H6.71478V2.64283C8.36807 2.91245 9.67789 4.30419 9.93179 6.06077H10.695V7.30667H1.62781Z" fill="#898989"/>
<path d="M13.5104 10.4592C13.8591 9.2735 14.9017 8.41046 16.1304 8.41046C17.6436 8.41046 18.8747 9.7193 18.8747 11.3281C18.8747 11.4462 18.8673 11.5625 18.8544 11.677H20V6.64527H13.5104V10.4592Z" fill="#898989"/>
<path d="M6.12854 3.84119C4.85489 3.84119 3.78708 4.79216 3.51883 6.06077H8.73825C8.47015 4.79216 7.40219 3.84119 6.12854 3.84119Z" fill="#898989"/>
<path d="M16.1304 13C16.9974 13 17.7028 12.25 17.7028 11.3283C17.7028 10.4063 16.9974 9.65652 16.1304 9.65652C15.2634 9.65652 14.558 10.4063 14.558 11.3283C14.558 12.25 15.2634 13 16.1304 13Z" fill="#898989"/>
<path d="M3.94073 13C4.80774 13 5.51315 12.25 5.51315 11.3283C5.51315 10.4063 4.80774 9.65652 3.94073 9.65652C3.07358 9.65652 2.36832 10.4063 2.36832 11.3283C2.36832 12.25 3.07358 13 3.94073 13Z" fill="#898989"/>
</svg>
