<svg width="414" height="80" viewBox="0 0 414 80" fill="none" xmlns="http://www.w3.org/2000/svg">
<g filter="url(#filter0_d)">
<path fill-rule="evenodd" clip-rule="evenodd" d="M177.482 15.7473C173.725 9.5005 167.774 4 160.484 4H15C6.71573 4 0 10.7157 0 19V72C0 80.2843 6.71573 87 15 87H399C407.284 87 414 80.2843 414 72V19C414 10.7157 407.284 4 399 4H254.514C247.224 4 241.273 9.50051 237.516 15.7473C231.425 25.872 220.262 32.6547 207.499 32.6547C194.736 32.6547 183.573 25.872 177.482 15.7473Z" fill="white"/>
</g>
<defs>
<filter id="filter0_d" x="-4" y="0" width="422" height="91" filterUnits="userSpaceOnUse" color-interpolation-filters="sRGB">
<feFlood flood-opacity="0" result="BackgroundImageFix"/>
<feColorMatrix in="SourceAlpha" type="matrix" values="0 0 0 0 0 0 0 0 0 0 0 0 0 0 0 0 0 0 127 0"/>
<feOffset/>
<feGaussianBlur stdDeviation="2"/>
<feColorMatrix type="matrix" values="0 0 0 0 0 0 0 0 0 0 0 0 0 0 0 0 0 0 0.25 0"/>
<feBlend mode="normal" in2="BackgroundImageFix" result="effect1_dropShadow"/>
<feBlend mode="normal" in="SourceGraphic" in2="effect1_dropShadow" result="shape"/>
</filter>
</defs>
</svg>
