<svg width="17" height="17" viewBox="0 0 17 17" fill="none" xmlns="http://www.w3.org/2000/svg">
<path d="M4.12137 4.1213C4.50073 3.74195 5.11579 3.74195 5.49514 4.1213L12.364 10.9901C12.7433 11.3695 12.7433 11.9846 12.364 12.3639C11.9846 12.7433 11.3696 12.7433 10.9902 12.3639L4.12137 5.49507C3.74202 5.11572 3.74202 4.50066 4.12137 4.1213Z" fill="white"/>
<path d="M12.364 4.1213C12.7433 4.50066 12.7433 5.11572 12.364 5.49507L5.49514 12.3639C5.11578 12.7433 4.50073 12.7433 4.12137 12.3639C3.74202 11.9846 3.74202 11.3695 4.12137 10.9901L10.9902 4.1213C11.3696 3.74195 11.9846 3.74195 12.364 4.1213Z" fill="white"/>
</svg>
