<svg width="9" height="7" viewBox="0 0 9 7" fill="none" xmlns="http://www.w3.org/2000/svg">
<path d="M2.00628 2.82627C1.70686 2.54006 1.23211 2.55076 0.945891 2.85018C0.659672 3.1496 0.670374 3.62435 0.969793 3.91057L2.00628 2.82627ZM4.24099 6L3.72274 6.54215C3.87735 6.68994 4.0877 6.76469 4.3009 6.7476C4.5141 6.73052 4.70986 6.62322 4.83896 6.4527L4.24099 6ZM8.62426 1.4527C8.87428 1.12245 8.80924 0.652051 8.47899 0.402033C8.14875 0.152015 7.67835 0.217054 7.42833 0.547302L8.62426 1.4527ZM0.969793 3.91057L3.72274 6.54215L4.75923 5.45785L2.00628 2.82627L0.969793 3.91057ZM4.83896 6.4527L8.62426 1.4527L7.42833 0.547302L3.64302 5.5473L4.83896 6.4527Z" fill="white"/>
</svg>
