<svg width="643" height="482" viewBox="0 0 643 482" fill="none" xmlns="http://www.w3.org/2000/svg">
<rect width="643" height="482" fill="white"/>
<path d="M252.17 300.154H253.682V310.738H252.17V300.154ZM266.663 302.649C267.671 302.649 268.468 302.942 269.052 303.526C269.647 304.111 269.944 304.978 269.944 306.127V310.738H268.493V306.293C268.493 305.517 268.311 304.932 267.949 304.539C267.596 304.146 267.087 303.95 266.421 303.95C265.686 303.95 265.101 304.181 264.668 304.645C264.234 305.099 264.017 305.754 264.017 306.611V310.738H262.566V306.293C262.566 305.517 262.385 304.932 262.022 304.539C261.669 304.146 261.16 303.95 260.495 303.95C259.759 303.95 259.174 304.181 258.741 304.645C258.307 305.099 258.091 305.754 258.091 306.611V310.738H256.639V302.725H258.03V303.919C258.322 303.506 258.705 303.194 259.179 302.982C259.653 302.76 260.192 302.649 260.797 302.649C261.422 302.649 261.976 302.775 262.46 303.027C262.944 303.279 263.317 303.647 263.579 304.131C263.881 303.667 264.3 303.304 264.834 303.042C265.378 302.78 265.988 302.649 266.663 302.649ZM275.533 302.649C276.642 302.649 277.489 302.921 278.073 303.466C278.668 304.01 278.965 304.821 278.965 305.9V310.738H277.59V309.68C277.348 310.053 277 310.34 276.546 310.542C276.103 310.733 275.574 310.829 274.959 310.829C274.062 310.829 273.341 310.612 272.797 310.179C272.262 309.745 271.995 309.176 271.995 308.47C271.995 307.765 272.252 307.2 272.766 306.777C273.28 306.343 274.097 306.127 275.216 306.127H277.514V305.839C277.514 305.215 277.333 304.736 276.97 304.403C276.607 304.07 276.073 303.904 275.367 303.904C274.893 303.904 274.43 303.985 273.976 304.146C273.522 304.297 273.139 304.504 272.827 304.766L272.222 303.677C272.635 303.345 273.129 303.093 273.704 302.921C274.278 302.74 274.888 302.649 275.533 302.649ZM275.201 309.71C275.755 309.71 276.234 309.589 276.637 309.347C277.04 309.095 277.333 308.742 277.514 308.289V307.17H275.276C274.046 307.17 273.432 307.583 273.432 308.41C273.432 308.813 273.588 309.131 273.9 309.362C274.213 309.594 274.646 309.71 275.201 309.71ZM289.362 302.725V309.65C289.362 311.051 289.014 312.084 288.318 312.749C287.623 313.425 286.585 313.762 285.204 313.762C284.448 313.762 283.727 313.656 283.041 313.445C282.356 313.243 281.802 312.951 281.378 312.568L282.074 311.449C282.447 311.771 282.905 312.023 283.45 312.205C284.004 312.396 284.574 312.492 285.158 312.492C286.096 312.492 286.786 312.27 287.23 311.827C287.683 311.383 287.91 310.708 287.91 309.801V309.166C287.567 309.579 287.144 309.892 286.64 310.103C286.146 310.305 285.607 310.406 285.022 310.406C284.256 310.406 283.561 310.244 282.936 309.922C282.321 309.589 281.837 309.131 281.484 308.546C281.131 307.951 280.955 307.276 280.955 306.52C280.955 305.764 281.131 305.094 281.484 304.509C281.837 303.914 282.321 303.456 282.936 303.133C283.561 302.811 284.256 302.649 285.022 302.649C285.627 302.649 286.186 302.76 286.7 302.982C287.225 303.204 287.653 303.531 287.986 303.965V302.725H289.362ZM285.188 309.136C285.713 309.136 286.181 309.025 286.595 308.803C287.018 308.581 287.346 308.274 287.577 307.881C287.819 307.477 287.94 307.024 287.94 306.52C287.94 305.744 287.683 305.119 287.169 304.645C286.655 304.161 285.995 303.919 285.188 303.919C284.372 303.919 283.707 304.161 283.193 304.645C282.679 305.119 282.422 305.744 282.422 306.52C282.422 307.024 282.538 307.477 282.769 307.881C283.011 308.274 283.339 308.581 283.752 308.803C284.175 309.025 284.654 309.136 285.188 309.136ZM299.377 306.777C299.377 306.888 299.367 307.034 299.347 307.215H292.846C292.936 307.921 293.244 308.49 293.768 308.924C294.302 309.347 294.962 309.559 295.749 309.559C296.706 309.559 297.477 309.236 298.062 308.591L298.863 309.529C298.5 309.952 298.047 310.275 297.502 310.496C296.968 310.718 296.368 310.829 295.703 310.829C294.856 310.829 294.106 310.658 293.45 310.315C292.795 309.962 292.286 309.473 291.923 308.848C291.57 308.223 291.394 307.518 291.394 306.732C291.394 305.955 291.565 305.255 291.908 304.63C292.261 304.005 292.74 303.521 293.345 303.178C293.959 302.826 294.65 302.649 295.416 302.649C296.182 302.649 296.862 302.826 297.457 303.178C298.062 303.521 298.531 304.005 298.863 304.63C299.206 305.255 299.377 305.971 299.377 306.777ZM295.416 303.874C294.72 303.874 294.136 304.086 293.662 304.509C293.198 304.932 292.926 305.487 292.846 306.172H297.986C297.906 305.497 297.628 304.947 297.155 304.524C296.691 304.091 296.111 303.874 295.416 303.874ZM309.732 302.649C310.75 302.649 311.557 302.947 312.151 303.541C312.756 304.126 313.059 304.988 313.059 306.127V310.738H311.607V306.293C311.607 305.517 311.421 304.932 311.048 304.539C310.675 304.146 310.14 303.95 309.445 303.95C308.659 303.95 308.039 304.181 307.585 304.645C307.132 305.099 306.905 305.754 306.905 306.611V310.738H305.453V302.725H306.844V303.934C307.137 303.521 307.53 303.204 308.024 302.982C308.528 302.76 309.097 302.649 309.732 302.649ZM319.221 310.829C318.425 310.829 317.709 310.653 317.074 310.3C316.439 309.947 315.94 309.463 315.577 308.848C315.225 308.223 315.048 307.518 315.048 306.732C315.048 305.945 315.225 305.245 315.577 304.63C315.94 304.005 316.439 303.521 317.074 303.178C317.709 302.826 318.425 302.649 319.221 302.649C320.018 302.649 320.728 302.826 321.353 303.178C321.988 303.521 322.482 304.005 322.835 304.63C323.198 305.245 323.379 305.945 323.379 306.732C323.379 307.518 323.198 308.223 322.835 308.848C322.482 309.463 321.988 309.947 321.353 310.3C320.728 310.653 320.018 310.829 319.221 310.829ZM319.221 309.559C319.735 309.559 320.194 309.443 320.597 309.211C321.01 308.969 321.333 308.637 321.565 308.213C321.797 307.78 321.913 307.286 321.913 306.732C321.913 306.177 321.797 305.688 321.565 305.265C321.333 304.832 321.01 304.499 320.597 304.267C320.194 304.035 319.735 303.919 319.221 303.919C318.707 303.919 318.243 304.035 317.83 304.267C317.427 304.499 317.104 304.832 316.863 305.265C316.631 305.688 316.515 306.177 316.515 306.732C316.515 307.286 316.631 307.78 316.863 308.213C317.104 308.637 317.427 308.969 317.83 309.211C318.243 309.443 318.707 309.559 319.221 309.559ZM329.892 310.27C329.681 310.451 329.418 310.592 329.106 310.693C328.794 310.784 328.471 310.829 328.138 310.829C327.332 310.829 326.707 310.612 326.263 310.179C325.82 309.745 325.598 309.126 325.598 308.319V303.919H324.237V302.725H325.598V300.971H327.05V302.725H329.348V303.919H327.05V308.259C327.05 308.692 327.156 309.025 327.367 309.257C327.589 309.488 327.901 309.604 328.305 309.604C328.748 309.604 329.126 309.478 329.439 309.226L329.892 310.27ZM338.626 302.649C339.734 302.649 340.581 302.921 341.166 303.466C341.76 304.01 342.058 304.821 342.058 305.9V310.738H340.682V309.68C340.44 310.053 340.092 310.34 339.639 310.542C339.195 310.733 338.666 310.829 338.051 310.829C337.154 310.829 336.433 310.612 335.889 310.179C335.355 309.745 335.088 309.176 335.088 308.47C335.088 307.765 335.345 307.2 335.859 306.777C336.373 306.343 337.189 306.127 338.308 306.127H340.606V305.839C340.606 305.215 340.425 304.736 340.062 304.403C339.699 304.07 339.165 303.904 338.459 303.904C337.986 303.904 337.522 303.985 337.068 304.146C336.615 304.297 336.232 304.504 335.919 304.766L335.314 303.677C335.728 303.345 336.222 303.093 336.796 302.921C337.371 302.74 337.981 302.649 338.626 302.649ZM338.293 309.71C338.847 309.71 339.326 309.589 339.729 309.347C340.133 309.095 340.425 308.742 340.606 308.289V307.17H338.369C337.139 307.17 336.524 307.583 336.524 308.41C336.524 308.813 336.68 309.131 336.993 309.362C337.305 309.594 337.739 309.71 338.293 309.71ZM351.687 302.725L348.18 310.738H346.698L343.19 302.725H344.702L347.454 309.151L350.266 302.725H351.687ZM355.709 302.649C356.818 302.649 357.665 302.921 358.249 303.466C358.844 304.01 359.141 304.821 359.141 305.9V310.738H357.765V309.68C357.524 310.053 357.176 310.34 356.722 310.542C356.279 310.733 355.749 310.829 355.135 310.829C354.237 310.829 353.517 310.612 352.972 310.179C352.438 309.745 352.171 309.176 352.171 308.47C352.171 307.765 352.428 307.2 352.942 306.777C353.456 306.343 354.273 306.127 355.392 306.127H357.69V305.839C357.69 305.215 357.508 304.736 357.146 304.403C356.783 304.07 356.248 303.904 355.543 303.904C355.069 303.904 354.605 303.985 354.152 304.146C353.698 304.297 353.315 304.504 353.003 304.766L352.398 303.677C352.811 303.345 353.305 303.093 353.88 302.921C354.454 302.74 355.064 302.649 355.709 302.649ZM355.377 309.71C355.931 309.71 356.41 309.589 356.813 309.347C357.216 309.095 357.508 308.742 357.69 308.289V307.17H355.452C354.222 307.17 353.607 307.583 353.607 308.41C353.607 308.813 353.764 309.131 354.076 309.362C354.389 309.594 354.822 309.71 355.377 309.71ZM361.827 302.725H363.279V310.738H361.827V302.725ZM362.553 301.183C362.271 301.183 362.034 301.092 361.843 300.91C361.661 300.729 361.57 300.507 361.57 300.245C361.57 299.983 361.661 299.761 361.843 299.58C362.034 299.388 362.271 299.293 362.553 299.293C362.835 299.293 363.067 299.383 363.249 299.565C363.44 299.736 363.536 299.953 363.536 300.215C363.536 300.487 363.44 300.719 363.249 300.91C363.067 301.092 362.835 301.183 362.553 301.183ZM368.968 302.649C370.077 302.649 370.924 302.921 371.509 303.466C372.103 304.01 372.401 304.821 372.401 305.9V310.738H371.025V309.68C370.783 310.053 370.435 310.34 369.981 310.542C369.538 310.733 369.009 310.829 368.394 310.829C367.497 310.829 366.776 310.612 366.232 310.179C365.698 309.745 365.43 309.176 365.43 308.47C365.43 307.765 365.687 307.2 366.202 306.777C366.716 306.343 367.532 306.127 368.651 306.127H370.949V305.839C370.949 305.215 370.768 304.736 370.405 304.403C370.042 304.07 369.508 303.904 368.802 303.904C368.328 303.904 367.865 303.985 367.411 304.146C366.958 304.297 366.574 304.504 366.262 304.766L365.657 303.677C366.07 303.345 366.564 303.093 367.139 302.921C367.713 302.74 368.323 302.649 368.968 302.649ZM368.636 309.71C369.19 309.71 369.669 309.589 370.072 309.347C370.475 309.095 370.768 308.742 370.949 308.289V307.17H368.711C367.482 307.17 366.867 307.583 366.867 308.41C366.867 308.813 367.023 309.131 367.335 309.362C367.648 309.594 368.081 309.71 368.636 309.71ZM379.335 302.649C380.112 302.649 380.807 302.821 381.422 303.163C382.037 303.506 382.516 303.985 382.858 304.6C383.211 305.215 383.387 305.925 383.387 306.732C383.387 307.538 383.211 308.254 382.858 308.879C382.516 309.493 382.037 309.972 381.422 310.315C380.807 310.658 380.112 310.829 379.335 310.829C378.741 310.829 378.196 310.713 377.702 310.481C377.209 310.249 376.8 309.912 376.478 309.468V310.738H375.087V299.519H376.538V303.934C376.861 303.511 377.264 303.194 377.748 302.982C378.232 302.76 378.761 302.649 379.335 302.649ZM379.214 309.559C379.728 309.559 380.187 309.443 380.59 309.211C381.004 308.969 381.326 308.637 381.558 308.213C381.8 307.78 381.921 307.286 381.921 306.732C381.921 306.177 381.8 305.688 381.558 305.265C381.326 304.832 381.004 304.499 380.59 304.267C380.187 304.035 379.728 303.919 379.214 303.919C378.71 303.919 378.252 304.035 377.839 304.267C377.425 304.499 377.103 304.832 376.871 305.265C376.639 305.688 376.523 306.177 376.523 306.732C376.523 307.286 376.639 307.78 376.871 308.213C377.103 308.637 377.425 308.969 377.839 309.211C378.252 309.443 378.71 309.559 379.214 309.559ZM385.393 299.519H386.844V310.738H385.393V299.519ZM396.858 306.777C396.858 306.888 396.848 307.034 396.828 307.215H390.326C390.417 307.921 390.725 308.49 391.249 308.924C391.783 309.347 392.443 309.559 393.229 309.559C394.187 309.559 394.958 309.236 395.543 308.591L396.344 309.529C395.981 309.952 395.528 310.275 394.983 310.496C394.449 310.718 393.849 310.829 393.184 310.829C392.337 310.829 391.586 310.658 390.931 310.315C390.276 309.962 389.767 309.473 389.404 308.848C389.051 308.223 388.875 307.518 388.875 306.732C388.875 305.955 389.046 305.255 389.389 304.63C389.742 304.005 390.221 303.521 390.825 303.178C391.44 302.826 392.131 302.649 392.897 302.649C393.663 302.649 394.343 302.826 394.938 303.178C395.543 303.521 396.011 304.005 396.344 304.63C396.687 305.255 396.858 305.971 396.858 306.777ZM392.897 303.874C392.201 303.874 391.617 304.086 391.143 304.509C390.679 304.932 390.407 305.487 390.326 306.172H395.467C395.387 305.497 395.109 304.947 394.636 304.524C394.172 304.091 393.592 303.874 392.897 303.874Z" fill="#C4C4C4"/>
<path d="M345.621 170.651H358.581C354.981 160.661 347.349 139.385 345.621 134.201C343.893 129.018 339.141 129.702 336.981 130.691C309.622 140.501 253.661 160.499 248.693 162.011C243.725 163.523 244.823 168.401 245.993 170.651L259.493 207.91V183.881C259.493 175.673 268.492 171.641 272.992 170.651H300.532L328.611 150.671L345.621 170.651Z" fill="#C4C4C4" fill-opacity="0.5"/>
<path fill-rule="evenodd" clip-rule="evenodd" d="M276.502 182.26C273.52 182.26 271.103 184.678 271.103 187.66V250.299C271.103 253.282 273.52 255.699 276.502 255.699H372.081C375.063 255.699 377.481 253.282 377.481 250.299V187.66C377.481 184.678 375.063 182.26 372.081 182.26H276.502ZM284.602 242.74H364.251V221.95L354.531 199.27L332.391 207.91L315.652 225.46L297.022 202.24L284.602 231.94V242.74Z" fill="#C4C4C4" fill-opacity="0.5"/>
</svg>
