<svg width="482" height="482" viewBox="0 0 482 482" fill="none" xmlns="http://www.w3.org/2000/svg">
<rect width="482" height="482" fill="white"/>
<path d="M171.17 300.154H172.682V310.738H171.17V300.154ZM185.663 302.649C186.671 302.649 187.468 302.942 188.052 303.526C188.647 304.111 188.944 304.978 188.944 306.127V310.738H187.493V306.293C187.493 305.517 187.311 304.932 186.949 304.539C186.596 304.146 186.087 303.95 185.421 303.95C184.686 303.95 184.101 304.181 183.668 304.645C183.234 305.099 183.017 305.754 183.017 306.611V310.738H181.566V306.293C181.566 305.517 181.385 304.932 181.022 304.539C180.669 304.146 180.16 303.95 179.495 303.95C178.759 303.95 178.174 304.181 177.741 304.645C177.307 305.099 177.091 305.754 177.091 306.611V310.738H175.639V302.725H177.03V303.919C177.322 303.506 177.705 303.194 178.179 302.982C178.653 302.76 179.192 302.649 179.797 302.649C180.422 302.649 180.976 302.775 181.46 303.027C181.944 303.279 182.317 303.647 182.579 304.131C182.881 303.667 183.3 303.304 183.834 303.042C184.378 302.78 184.988 302.649 185.663 302.649ZM194.533 302.649C195.642 302.649 196.489 302.921 197.073 303.466C197.668 304.01 197.965 304.821 197.965 305.9V310.738H196.59V309.68C196.348 310.053 196 310.34 195.546 310.542C195.103 310.733 194.574 310.829 193.959 310.829C193.062 310.829 192.341 310.612 191.797 310.179C191.262 309.745 190.995 309.176 190.995 308.47C190.995 307.765 191.252 307.2 191.766 306.777C192.28 306.343 193.097 306.127 194.216 306.127H196.514V305.839C196.514 305.215 196.333 304.736 195.97 304.403C195.607 304.07 195.073 303.904 194.367 303.904C193.893 303.904 193.43 303.985 192.976 304.146C192.522 304.297 192.139 304.504 191.827 304.766L191.222 303.677C191.635 303.345 192.129 303.093 192.704 302.921C193.278 302.74 193.888 302.649 194.533 302.649ZM194.201 309.71C194.755 309.71 195.234 309.589 195.637 309.347C196.04 309.095 196.333 308.742 196.514 308.289V307.17H194.276C193.046 307.17 192.432 307.583 192.432 308.41C192.432 308.813 192.588 309.131 192.9 309.362C193.213 309.594 193.646 309.71 194.201 309.71ZM208.362 302.725V309.65C208.362 311.051 208.014 312.084 207.318 312.749C206.623 313.425 205.585 313.762 204.204 313.762C203.448 313.762 202.727 313.656 202.041 313.445C201.356 313.243 200.802 312.951 200.378 312.568L201.074 311.449C201.447 311.771 201.905 312.023 202.45 312.205C203.004 312.396 203.574 312.492 204.158 312.492C205.096 312.492 205.786 312.27 206.23 311.827C206.683 311.383 206.91 310.708 206.91 309.801V309.166C206.567 309.579 206.144 309.892 205.64 310.103C205.146 310.305 204.607 310.406 204.022 310.406C203.256 310.406 202.561 310.244 201.936 309.922C201.321 309.589 200.837 309.131 200.484 308.546C200.131 307.951 199.955 307.276 199.955 306.52C199.955 305.764 200.131 305.094 200.484 304.509C200.837 303.914 201.321 303.456 201.936 303.133C202.561 302.811 203.256 302.649 204.022 302.649C204.627 302.649 205.186 302.76 205.7 302.982C206.225 303.204 206.653 303.531 206.986 303.965V302.725H208.362ZM204.188 309.136C204.713 309.136 205.181 309.025 205.595 308.803C206.018 308.581 206.346 308.274 206.577 307.881C206.819 307.477 206.94 307.024 206.94 306.52C206.94 305.744 206.683 305.119 206.169 304.645C205.655 304.161 204.995 303.919 204.188 303.919C203.372 303.919 202.707 304.161 202.193 304.645C201.679 305.119 201.422 305.744 201.422 306.52C201.422 307.024 201.538 307.477 201.769 307.881C202.011 308.274 202.339 308.581 202.752 308.803C203.175 309.025 203.654 309.136 204.188 309.136ZM218.377 306.777C218.377 306.888 218.367 307.034 218.347 307.215H211.846C211.936 307.921 212.244 308.49 212.768 308.924C213.302 309.347 213.962 309.559 214.749 309.559C215.706 309.559 216.477 309.236 217.062 308.591L217.863 309.529C217.5 309.952 217.047 310.275 216.502 310.496C215.968 310.718 215.368 310.829 214.703 310.829C213.856 310.829 213.106 310.658 212.45 310.315C211.795 309.962 211.286 309.473 210.923 308.848C210.57 308.223 210.394 307.518 210.394 306.732C210.394 305.955 210.565 305.255 210.908 304.63C211.261 304.005 211.74 303.521 212.345 303.178C212.959 302.826 213.65 302.649 214.416 302.649C215.182 302.649 215.862 302.826 216.457 303.178C217.062 303.521 217.531 304.005 217.863 304.63C218.206 305.255 218.377 305.971 218.377 306.777ZM214.416 303.874C213.72 303.874 213.136 304.086 212.662 304.509C212.198 304.932 211.926 305.487 211.846 306.172H216.986C216.906 305.497 216.628 304.947 216.155 304.524C215.691 304.091 215.111 303.874 214.416 303.874ZM228.732 302.649C229.75 302.649 230.557 302.947 231.151 303.541C231.756 304.126 232.059 304.988 232.059 306.127V310.738H230.607V306.293C230.607 305.517 230.421 304.932 230.048 304.539C229.675 304.146 229.14 303.95 228.445 303.95C227.659 303.95 227.039 304.181 226.585 304.645C226.132 305.099 225.905 305.754 225.905 306.611V310.738H224.453V302.725H225.844V303.934C226.137 303.521 226.53 303.204 227.024 302.982C227.528 302.76 228.097 302.649 228.732 302.649ZM238.221 310.829C237.425 310.829 236.709 310.653 236.074 310.3C235.439 309.947 234.94 309.463 234.577 308.848C234.225 308.223 234.048 307.518 234.048 306.732C234.048 305.945 234.225 305.245 234.577 304.63C234.94 304.005 235.439 303.521 236.074 303.178C236.709 302.826 237.425 302.649 238.221 302.649C239.018 302.649 239.728 302.826 240.353 303.178C240.988 303.521 241.482 304.005 241.835 304.63C242.198 305.245 242.379 305.945 242.379 306.732C242.379 307.518 242.198 308.223 241.835 308.848C241.482 309.463 240.988 309.947 240.353 310.3C239.728 310.653 239.018 310.829 238.221 310.829ZM238.221 309.559C238.735 309.559 239.194 309.443 239.597 309.211C240.01 308.969 240.333 308.637 240.565 308.213C240.797 307.78 240.913 307.286 240.913 306.732C240.913 306.177 240.797 305.688 240.565 305.265C240.333 304.832 240.01 304.499 239.597 304.267C239.194 304.035 238.735 303.919 238.221 303.919C237.707 303.919 237.243 304.035 236.83 304.267C236.427 304.499 236.104 304.832 235.863 305.265C235.631 305.688 235.515 306.177 235.515 306.732C235.515 307.286 235.631 307.78 235.863 308.213C236.104 308.637 236.427 308.969 236.83 309.211C237.243 309.443 237.707 309.559 238.221 309.559ZM248.892 310.27C248.681 310.451 248.418 310.592 248.106 310.693C247.794 310.784 247.471 310.829 247.138 310.829C246.332 310.829 245.707 310.612 245.263 310.179C244.82 309.745 244.598 309.126 244.598 308.319V303.919H243.237V302.725H244.598V300.971H246.05V302.725H248.348V303.919H246.05V308.259C246.05 308.692 246.156 309.025 246.367 309.257C246.589 309.488 246.901 309.604 247.305 309.604C247.748 309.604 248.126 309.478 248.439 309.226L248.892 310.27ZM257.626 302.649C258.734 302.649 259.581 302.921 260.166 303.466C260.76 304.01 261.058 304.821 261.058 305.9V310.738H259.682V309.68C259.44 310.053 259.092 310.34 258.639 310.542C258.195 310.733 257.666 310.829 257.051 310.829C256.154 310.829 255.433 310.612 254.889 310.179C254.355 309.745 254.088 309.176 254.088 308.47C254.088 307.765 254.345 307.2 254.859 306.777C255.373 306.343 256.189 306.127 257.308 306.127H259.606V305.839C259.606 305.215 259.425 304.736 259.062 304.403C258.699 304.07 258.165 303.904 257.459 303.904C256.986 303.904 256.522 303.985 256.068 304.146C255.615 304.297 255.232 304.504 254.919 304.766L254.314 303.677C254.728 303.345 255.222 303.093 255.796 302.921C256.371 302.74 256.981 302.649 257.626 302.649ZM257.293 309.71C257.847 309.71 258.326 309.589 258.729 309.347C259.133 309.095 259.425 308.742 259.606 308.289V307.17H257.369C256.139 307.17 255.524 307.583 255.524 308.41C255.524 308.813 255.68 309.131 255.993 309.362C256.305 309.594 256.739 309.71 257.293 309.71ZM270.687 302.725L267.18 310.738H265.698L262.19 302.725H263.702L266.454 309.151L269.266 302.725H270.687ZM274.709 302.649C275.818 302.649 276.665 302.921 277.249 303.466C277.844 304.01 278.141 304.821 278.141 305.9V310.738H276.765V309.68C276.524 310.053 276.176 310.34 275.722 310.542C275.279 310.733 274.749 310.829 274.135 310.829C273.237 310.829 272.517 310.612 271.972 310.179C271.438 309.745 271.171 309.176 271.171 308.47C271.171 307.765 271.428 307.2 271.942 306.777C272.456 306.343 273.273 306.127 274.392 306.127H276.69V305.839C276.69 305.215 276.508 304.736 276.146 304.403C275.783 304.07 275.248 303.904 274.543 303.904C274.069 303.904 273.605 303.985 273.152 304.146C272.698 304.297 272.315 304.504 272.003 304.766L271.398 303.677C271.811 303.345 272.305 303.093 272.88 302.921C273.454 302.74 274.064 302.649 274.709 302.649ZM274.377 309.71C274.931 309.71 275.41 309.589 275.813 309.347C276.216 309.095 276.508 308.742 276.69 308.289V307.17H274.452C273.222 307.17 272.607 307.583 272.607 308.41C272.607 308.813 272.764 309.131 273.076 309.362C273.389 309.594 273.822 309.71 274.377 309.71ZM280.827 302.725H282.279V310.738H280.827V302.725ZM281.553 301.183C281.271 301.183 281.034 301.092 280.843 300.91C280.661 300.729 280.57 300.507 280.57 300.245C280.57 299.983 280.661 299.761 280.843 299.58C281.034 299.388 281.271 299.293 281.553 299.293C281.835 299.293 282.067 299.383 282.249 299.565C282.44 299.736 282.536 299.953 282.536 300.215C282.536 300.487 282.44 300.719 282.249 300.91C282.067 301.092 281.835 301.183 281.553 301.183ZM287.968 302.649C289.077 302.649 289.924 302.921 290.509 303.466C291.103 304.01 291.401 304.821 291.401 305.9V310.738H290.025V309.68C289.783 310.053 289.435 310.34 288.981 310.542C288.538 310.733 288.009 310.829 287.394 310.829C286.497 310.829 285.776 310.612 285.232 310.179C284.698 309.745 284.43 309.176 284.43 308.47C284.43 307.765 284.687 307.2 285.202 306.777C285.716 306.343 286.532 306.127 287.651 306.127H289.949V305.839C289.949 305.215 289.768 304.736 289.405 304.403C289.042 304.07 288.508 303.904 287.802 303.904C287.328 303.904 286.865 303.985 286.411 304.146C285.958 304.297 285.574 304.504 285.262 304.766L284.657 303.677C285.07 303.345 285.564 303.093 286.139 302.921C286.713 302.74 287.323 302.649 287.968 302.649ZM287.636 309.71C288.19 309.71 288.669 309.589 289.072 309.347C289.475 309.095 289.768 308.742 289.949 308.289V307.17H287.711C286.482 307.17 285.867 307.583 285.867 308.41C285.867 308.813 286.023 309.131 286.335 309.362C286.648 309.594 287.081 309.71 287.636 309.71ZM298.335 302.649C299.112 302.649 299.807 302.821 300.422 303.163C301.037 303.506 301.516 303.985 301.858 304.6C302.211 305.215 302.387 305.925 302.387 306.732C302.387 307.538 302.211 308.254 301.858 308.879C301.516 309.493 301.037 309.972 300.422 310.315C299.807 310.658 299.112 310.829 298.335 310.829C297.741 310.829 297.196 310.713 296.702 310.481C296.209 310.249 295.8 309.912 295.478 309.468V310.738H294.087V299.519H295.538V303.934C295.861 303.511 296.264 303.194 296.748 302.982C297.232 302.76 297.761 302.649 298.335 302.649ZM298.214 309.559C298.728 309.559 299.187 309.443 299.59 309.211C300.004 308.969 300.326 308.637 300.558 308.213C300.8 307.78 300.921 307.286 300.921 306.732C300.921 306.177 300.8 305.688 300.558 305.265C300.326 304.832 300.004 304.499 299.59 304.267C299.187 304.035 298.728 303.919 298.214 303.919C297.71 303.919 297.252 304.035 296.839 304.267C296.425 304.499 296.103 304.832 295.871 305.265C295.639 305.688 295.523 306.177 295.523 306.732C295.523 307.286 295.639 307.78 295.871 308.213C296.103 308.637 296.425 308.969 296.839 309.211C297.252 309.443 297.71 309.559 298.214 309.559ZM304.393 299.519H305.844V310.738H304.393V299.519ZM315.858 306.777C315.858 306.888 315.848 307.034 315.828 307.215H309.326C309.417 307.921 309.725 308.49 310.249 308.924C310.783 309.347 311.443 309.559 312.229 309.559C313.187 309.559 313.958 309.236 314.543 308.591L315.344 309.529C314.981 309.952 314.528 310.275 313.983 310.496C313.449 310.718 312.849 310.829 312.184 310.829C311.337 310.829 310.586 310.658 309.931 310.315C309.276 309.962 308.767 309.473 308.404 308.848C308.051 308.223 307.875 307.518 307.875 306.732C307.875 305.955 308.046 305.255 308.389 304.63C308.742 304.005 309.221 303.521 309.825 303.178C310.44 302.826 311.131 302.649 311.897 302.649C312.663 302.649 313.343 302.826 313.938 303.178C314.543 303.521 315.011 304.005 315.344 304.63C315.687 305.255 315.858 305.971 315.858 306.777ZM311.897 303.874C311.201 303.874 310.617 304.086 310.143 304.509C309.679 304.932 309.407 305.487 309.326 306.172H314.467C314.387 305.497 314.109 304.947 313.636 304.524C313.172 304.091 312.592 303.874 311.897 303.874Z" fill="#C4C4C4"/>
<path d="M264.621 170.651H277.581C273.981 160.661 266.349 139.385 264.621 134.201C262.893 129.018 258.141 129.702 255.981 130.691C228.622 140.501 172.661 160.499 167.693 162.011C162.725 163.523 163.823 168.401 164.993 170.651L178.493 207.91V183.881C178.493 175.673 187.492 171.641 191.992 170.651H219.532L247.611 150.671L264.621 170.651Z" fill="#C4C4C4" fill-opacity="0.5"/>
<path fill-rule="evenodd" clip-rule="evenodd" d="M195.502 182.26C192.52 182.26 190.103 184.678 190.103 187.66V250.299C190.103 253.282 192.52 255.699 195.502 255.699H291.081C294.063 255.699 296.481 253.282 296.481 250.299V187.66C296.481 184.678 294.063 182.26 291.081 182.26H195.502ZM203.602 242.74H283.251V221.95L273.531 199.27L251.391 207.91L234.652 225.46L216.022 202.24L203.602 231.94V242.74Z" fill="#C4C4C4" fill-opacity="0.5"/>
</svg>
