<svg width="66" height="66" viewBox="0 0 66 66" fill="none" xmlns="http://www.w3.org/2000/svg">
<g clip-path="url(#clip0)">
<path d="M61.0218 45.8086C63.8296 47.7886 65.4404 50.1042 65.4404 52.5764C65.4404 59.993 50.9204 66.0001 32.9998 66.0001C15.0791 66.0001 0.559082 59.993 0.559082 52.5764C0.559082 50.1042 2.16993 47.7886 4.97773 45.8086H61.0218Z" fill="#C4C4C4"/>
<path d="M13.9831 16.7798L3.91528 49.2205C3.91528 54.7812 16.9374 59.2883 33 59.2883C49.0626 59.2883 62.0848 54.7812 62.0848 49.2205L52.017 16.7798" fill="#FFDAD8"/>
<path d="M40.3943 10.5936C47.2181 11.6115 52.017 14.0054 52.017 16.7797C52.017 20.4824 43.5042 23.4915 33.0001 23.4915C22.496 23.4915 13.9832 20.4824 13.9832 16.7797C13.9832 13.8936 19.1513 11.4325 26.3889 10.4817L40.3943 10.5936Z" fill="#E97971"/>
<path d="M35.7076 18.8436C37.9654 17.7935 39.6632 15.824 40.369 13.4361C40.4118 13.2708 40.4443 13.1031 40.4664 12.9338C40.8579 10.71 39.9742 8.57111 38.0602 8.07331C36.7272 7.73938 35.3151 7.99313 34.1818 8.77022C33.5709 7.53916 32.4635 6.62749 31.138 6.26446C29.0786 5.73534 27.1332 7.43456 26.5135 9.82175C26.1299 11.4458 26.2409 13.1475 26.8323 14.708V14.7192C27.468 16.3824 28.5333 17.8473 29.9198 18.9644L35.7076 18.8436Z" fill="#802F34"/>
<path d="M31.8701 20.1354C30.2334 20.1532 28.5979 20.044 26.9782 19.8088C26.3691 19.7053 25.9591 19.1276 26.0626 18.5184C26.1661 17.9093 26.7438 17.4993 27.353 17.6028C31.7476 18.1447 36.2025 17.9332 40.5261 16.9775C40.9211 16.8826 41.3365 17.0093 41.6112 17.3085C41.886 17.6077 41.977 18.0323 41.849 18.4178C41.7209 18.8033 41.394 19.0891 40.9948 19.1644C37.9958 19.808 34.9373 20.1334 31.8701 20.1354Z" fill="#C03A2B"/>
<path d="M34.3936 9.56663C33.7853 9.56678 33.2883 9.08078 33.2749 8.4726C33.2653 5.25753 35.0825 2.31605 37.9621 0.885953C40.8946 -0.51574 44.3538 -0.236015 47.0231 1.61867C47.5247 1.97947 47.6389 2.67863 47.2781 3.18029C46.9173 3.68195 46.2182 3.79614 45.7165 3.43534C43.7162 2.06919 41.1426 1.86242 38.9498 2.89168C36.8569 3.94455 35.5286 6.07951 35.5089 8.42226C35.5226 9.0397 35.0334 9.55146 34.416 9.56551L34.3936 9.56663Z" fill="#24AE5F"/>
<path d="M52.9785 34.5998C53.1463 36.4455 54.5782 37.8886 54.6788 39.7455C54.8243 40.6558 54.4239 41.5669 53.6551 42.0754C52.8863 42.584 51.8911 42.5959 51.1104 42.1059C50.1782 41.5109 49.3785 40.7302 48.7612 39.8127C48.2347 38.9817 47.5775 38.2413 46.8148 37.6201C46.0408 36.9913 45.0026 36.7937 44.0517 37.0944C42.7941 37.787 42.1188 39.2051 42.3738 40.6181C42.5657 41.7217 42.9161 42.7917 43.4141 43.795C44.0182 45.2157 44.667 46.8601 44.1524 48.415C43.8267 49.3629 43.1216 50.1328 42.206 50.5405C41.0049 51.0963 39.5971 50.9594 38.5256 50.1825C37.8244 49.6075 37.2975 48.8481 37.0043 47.99C36.2212 45.8422 36.5009 42.7994 34.1853 41.5354C33.5407 41.1595 32.7635 41.0859 32.0599 41.334C31.151 41.7831 30.6064 42.7395 30.6839 43.7503C30.5049 46.5022 30.6839 49.8245 27.7755 51.2788C26.5437 51.9221 25.0469 51.768 23.9721 50.8872C23.3472 50.2743 22.9656 49.4556 22.8982 48.5828C22.8539 47.4373 23.06 46.2958 23.5022 45.2381C23.9466 44.1827 24.3203 43.099 24.6209 41.994C24.9212 40.8803 24.8059 39.6954 24.2965 38.6605C23.8836 37.864 23.0976 37.3288 22.2053 37.2364C21.3129 37.144 20.434 37.5068 19.8666 38.2018C18.5802 39.6561 18.5243 41.6808 17.6294 43.3364C17.2427 44.1798 16.479 44.79 15.571 44.9808C12.8304 45.294 12.2934 41.4347 12.5395 39.5442C12.8639 37.0049 14.0944 34.611 14.0497 32.0157C14.0049 30.0469 12.7409 27.6083 10.6714 27.4516L13.9826 16.7798C13.9826 20.4825 22.4955 23.4916 32.9995 23.4916C43.5036 23.4916 52.0165 20.4825 52.0165 16.7798L56.2561 30.4384C54.2256 30.7242 52.7806 32.5588 52.9785 34.5998Z" fill="#D55951"/>
</g>
<defs>
<clipPath id="clip0">
<rect width="66" height="66" fill="white"/>
</clipPath>
</defs>
</svg>
