<svg width="21" height="15" viewBox="0 0 21 15" fill="none" xmlns="http://www.w3.org/2000/svg">
<path d="M11.3739 12.4324C14.064 12.4324 16.2528 10.2639 16.2528 7.59778C16.2528 4.93169 14.0641 2.76215 11.3739 2.76215C8.68397 2.76215 6.49544 4.93135 6.49544 7.59778C6.49544 10.2639 8.68362 12.4324 11.3739 12.4324Z" fill="#898989"/>
<path d="M11.3739 13.7302C14.7917 13.7302 17.5615 10.9845 17.5615 7.59784C17.5615 4.21041 14.7917 1.46519 11.3739 1.46519C7.95647 1.46519 5.18632 4.21041 5.18632 7.59784C5.18632 10.9844 7.95647 13.7302 11.3739 13.7302ZM11.3739 2.40474C14.2628 2.40474 16.6138 4.73482 16.6138 7.59784C16.6138 10.461 14.2629 12.7906 11.3739 12.7906C8.48498 12.7906 6.1344 10.4611 6.1344 7.59784C6.1344 4.73482 8.48498 2.40474 11.3739 2.40474Z" fill="#898989"/>
<path d="M21 14.3007L20.639 0.536727C20.639 0.240357 20.3964 0 20.0974 0C20.0174 0 19.9423 0.018166 19.8742 0.0494063V0.0443144C19.8742 0.0443144 19.8602 0.0532598 19.84 0.0668844C19.7882 0.0952346 19.7417 0.130122 19.7015 0.172785C19.3052 0.495165 18.0416 1.80911 17.9358 3.58526C17.7754 6.2945 19.1031 7.39169 19.5555 8.3966L19.1945 14.3005C19.1945 14.5968 19.7981 14.8372 20.097 14.8372C20.3964 14.8375 21 14.5971 21 14.3007Z" fill="#898989"/>
<path d="M0.945231 5.91569L1.87984 6.37838C1.98635 6.43129 2.10375 6.4699 2.22644 6.49859L1.8654 14.55C1.8654 14.7987 2.46917 15 2.768 15C3.06697 15 3.6706 14.7987 3.6706 14.55L3.30956 6.45737C3.43669 6.41774 3.55916 6.36936 3.66636 6.30434L4.3588 5.88645C4.85842 5.58437 5.23494 4.92 5.23494 4.33992V0.732426C5.23494 0.436057 4.99235 0.1957 4.69338 0.1957C4.39455 0.1957 4.15182 0.436057 4.15182 0.732426V3.98203H3.85105V0.732426C3.85105 0.436057 3.60846 0.1957 3.30949 0.1957C3.01066 0.1957 2.76793 0.436057 2.76793 0.732426V3.98203H2.46611V0.732426C2.46611 0.436057 2.22352 0.1957 1.92455 0.1957C1.62572 0.1957 1.38299 0.436057 1.38299 0.732426V3.98203H1.08312V0.848373C1.08312 0.552072 0.840529 0.311646 0.54156 0.311646C0.24273 0.311646 0 0.552072 0 0.848373V4.39985C0 4.99679 0.406517 5.64877 0.945231 5.91569Z" fill="#898989"/>
</svg>
