<svg width="72" height="72" viewBox="0 0 72 72" fill="none" xmlns="http://www.w3.org/2000/svg">
<g clip-path="url(#clip0)">
<path d="M48.024 10.1543L46.6973 13.6165C47.3284 14.3291 47.9085 15.0879 48.4302 15.8881L50.2932 11.0226L48.024 10.1543Z" fill="#6FC778"/>
<path d="M49.9222 21.64C50.2189 20.2804 50.0742 18.798 49.3385 17.4093C46.0733 11.2462 39.5941 7.04712 32.1335 7.04712C24.6729 7.04712 18.1937 11.2462 14.9285 17.4093C14.1928 18.798 14.0481 20.2804 14.3448 21.64H49.9222Z" fill="#FFDAD8"/>
<path d="M52.4503 9.72741L50.0186 7.29565L48.2988 9.01542L50.7305 11.4472L52.4503 9.72741Z" fill="#6FC778"/>
<path d="M54.8824 7.29528L52.4507 4.86353L50.7309 6.58329L53.1627 9.01505L54.8824 7.29528Z" fill="#6FC778"/>
<path d="M57.3146 4.86315L54.8828 2.4314L53.163 4.15117L55.5948 6.58292L57.3146 4.86315Z" fill="#6FC778"/>
<path d="M59.7467 2.43102L57.3149 -0.000732422L55.5952 1.71904L58.0269 4.15079L59.7467 2.43102Z" fill="#6FC778"/>
<path d="M46.4565 14.2634L43.4248 22.2542H46.0284L48.1906 16.5351C47.6677 15.7349 47.0876 14.9773 46.4565 14.2634Z" fill="#3D8F45"/>
<path d="M39.2293 71.3918H25.039C22.8112 71.3918 20.9031 69.7964 20.5091 67.6026L12.8758 22.749C12.7725 22.1713 13.2163 21.6399 13.8037 21.6399H50.4634C51.0508 21.6399 51.4959 22.1713 51.3913 22.749L43.758 67.6026C43.3652 69.7964 41.4572 71.3918 39.2293 71.3918Z" fill="#D55951"/>
<path d="M39.2294 72H25.0403C22.5157 72 20.3572 70.1966 19.9109 67.7109L12.2776 22.8512C12.1973 22.4049 12.3189 21.9416 12.6144 21.5889C12.9099 21.2351 13.3441 21.032 13.805 21.032H50.4647C50.9256 21.032 51.3585 21.2351 51.6552 21.5889C51.9507 21.9416 52.0736 22.4049 51.9909 22.8573L44.36 67.7048C43.9113 70.1966 41.754 72 39.2294 72ZM13.8037 22.2481C13.6675 22.2481 13.5836 22.3235 13.5472 22.3684C13.5095 22.4134 13.4511 22.5083 13.4742 22.6421L21.1075 67.5018C21.448 69.4025 23.1031 70.7852 25.0378 70.7852H39.227C41.1629 70.7852 42.8168 69.4013 43.1585 67.4957L50.7894 22.6481C50.8149 22.5095 50.7565 22.4147 50.7176 22.3697C50.6811 22.3247 50.5972 22.2493 50.461 22.2493H13.8037V22.2481Z" fill="#D55951"/>
<path d="M28.9329 48.5054L26.2673 50.9959C25.2896 51.9092 23.7427 51.8569 22.8295 50.8792L20.3389 48.2136C19.4257 47.2359 19.478 45.689 20.4557 44.7757L23.1213 42.2852C24.099 41.372 25.6459 41.4242 26.5591 42.402L29.0497 45.0676C29.9629 46.0453 29.9106 47.5922 28.9329 48.5054Z" fill="#FFE7E6"/>
<path d="M36.2293 39.0638L33.5637 41.5543C32.586 42.4676 31.0391 42.4153 30.1258 41.4376L27.6353 38.7719C26.7221 37.7942 26.7743 36.2474 27.7521 35.3341L30.4177 32.8436C31.3954 31.9303 32.9423 31.9826 33.8555 32.9603L36.3461 35.6259C37.2593 36.6037 37.207 38.1505 36.2293 39.0638Z" fill="white" fill-opacity="0.8"/>
<path d="M26.5008 32.9835L23.8352 35.474C22.8574 36.3873 21.3106 36.335 20.3973 35.3572L17.9068 32.6916C16.9935 31.7139 17.0458 30.167 18.0235 29.2538L20.6892 26.7633C21.6669 25.85 23.2137 25.9023 24.127 26.88L26.6175 29.5456C27.5308 30.5233 27.4785 32.0702 26.5008 32.9835Z" fill="#FFC9C6"/>
<path d="M39.8775 64.6014L37.2119 67.0919C36.2341 68.0052 34.6873 67.9529 33.774 66.9752L31.2835 64.3095C30.3702 63.3318 30.4225 61.785 31.4003 60.8717L34.0659 58.3812C35.0436 57.4679 36.5905 57.5202 37.5037 58.4979L39.9942 61.1635C40.9075 62.1413 40.8552 63.6881 39.8775 64.6014Z" fill="#FFC9C6"/>
<path d="M43.4249 22.2554L26.1348 67.3096L28.4052 68.1779L46.0285 22.2554H43.4249Z" fill="#F89189"/>
<path d="M36.999 44.2395C37.6706 44.2395 38.2151 43.6951 38.2151 43.0234C38.2151 42.3518 37.6706 41.8074 36.999 41.8074C36.3274 41.8074 35.783 42.3518 35.783 43.0234C35.783 43.6951 36.3274 44.2395 36.999 44.2395Z" fill="#8F2D26"/>
<path d="M39.4312 50.3198C40.1028 50.3198 40.6472 49.7754 40.6472 49.1038C40.6472 48.4322 40.1028 47.8877 39.4312 47.8877C38.7595 47.8877 38.2151 48.4322 38.2151 49.1038C38.2151 49.7754 38.7595 50.3198 39.4312 50.3198Z" fill="#8F2D26"/>
<path d="M43.0794 56.4002C43.751 56.4002 44.2954 55.8557 44.2954 55.1841C44.2954 54.5125 43.751 53.968 43.0794 53.968C42.4077 53.968 41.8633 54.5125 41.8633 55.1841C41.8633 55.8557 42.4077 56.4002 43.0794 56.4002Z" fill="#CC9669"/>
<path d="M33.3508 52.752C34.0225 52.752 34.5669 52.2075 34.5669 51.5359C34.5669 50.8643 34.0225 50.3198 33.3508 50.3198C32.6792 50.3198 32.1348 50.8643 32.1348 51.5359C32.1348 52.2075 32.6792 52.752 33.3508 52.752Z" fill="#E0AB85"/>
<path d="M41.8633 43.0235C42.5349 43.0235 43.0794 42.479 43.0794 41.8074C43.0794 41.1358 42.5349 40.5913 41.8633 40.5913C41.1917 40.5913 40.6472 41.1358 40.6472 41.8074C40.6472 42.479 41.1917 43.0235 41.8633 43.0235Z" fill="#E0AB85"/>
<path d="M23.6223 60.1616C24.2939 60.1616 24.8384 59.6172 24.8384 58.9456C24.8384 58.2739 24.2939 57.7295 23.6223 57.7295C22.9507 57.7295 22.4062 58.2739 22.4062 58.9456C22.4062 59.6172 22.9507 60.1616 23.6223 60.1616Z" fill="#8F2D26"/>
<path d="M26.0545 67.458C26.7261 67.458 27.2705 66.9136 27.2705 66.2419C27.2705 65.5703 26.7261 65.0259 26.0545 65.0259C25.3828 65.0259 24.8384 65.5703 24.8384 66.2419C24.8384 66.9136 25.3828 67.458 26.0545 67.458Z" fill="#E0AB85"/>
<path d="M20.0239 18.2593C20.0239 18.2593 23.7682 11.1453 33.6257 11.2973L20.0239 18.2593Z" fill="#FAF5E5"/>
<path d="M20.0238 19.4767C19.8329 19.4767 19.6396 19.4317 19.4584 19.3368C18.8649 19.0243 18.6351 18.2898 18.9488 17.6939C19.1142 17.3802 23.0762 10.0789 33.3119 10.0789C33.4225 10.0789 33.5344 10.0801 33.6463 10.0813C34.3176 10.0922 34.8538 10.6443 34.8429 11.3168C34.832 11.982 34.2896 12.5134 33.6268 12.5134C33.5417 12.5195 33.4225 12.5122 33.3192 12.511C24.527 12.511 21.1329 18.7628 21.1001 18.8261C20.8836 19.2395 20.4604 19.4767 20.0238 19.4767Z" fill="white"/>
</g>
<defs>
<clipPath id="clip0">
<rect width="72" height="72" fill="white"/>
</clipPath>
</defs>
</svg>
