<svg width="23" height="19" viewBox="0 0 23 19" fill="none" xmlns="http://www.w3.org/2000/svg">
<path d="M22 3.27036C20.679 3.33058 20.7078 3.32566 20.5585 3.33802L21.3409 1.12819C21.3409 1.12819 18.8988 2.01672 18.2798 2.17566C16.6539 0.730272 14.2372 0.666409 12.5094 1.71674C11.0945 2.57706 10.3351 4.05446 10.5884 5.78129C7.83471 5.40334 5.5146 4.1123 3.68284 1.9359L3.10349 1.24767L2.67059 2.03399C2.12344 3.02759 1.94176 4.16364 2.15885 5.23283C2.24793 5.67147 2.39934 6.08983 2.60906 6.48156L2.11207 6.29108L2.05311 7.11242C1.99335 7.94676 2.27421 8.9207 2.80453 9.71748C2.95385 9.94187 3.14611 10.1883 3.3898 10.4314L3.13297 10.3924L3.44636 11.3335C3.85828 12.5701 4.71384 13.5267 5.82414 14.0586C4.71528 14.524 3.8195 14.8209 2.34711 15.3L1 15.738L2.24425 16.4109C2.71865 16.6674 4.395 17.5243 6.05133 17.7813C9.73312 18.3524 13.8784 17.8873 16.6691 15.4014C19.0196 13.3076 19.7909 10.3292 19.6307 7.22969C19.6065 6.76046 19.7365 6.31263 19.9966 5.96891C20.5178 5.28069 21.9968 3.27495 22 3.27036ZM19.0127 5.23996C18.5806 5.8106 18.3642 6.5394 18.403 7.29181C18.5646 10.4182 17.7046 12.8428 15.8465 14.4978C13.6761 16.4313 10.1752 17.1902 6.24183 16.5799C5.5295 16.4695 4.7933 16.2221 4.184 15.9751C5.41847 15.555 6.37176 15.1805 7.91129 14.4598L10.0604 13.4537L7.68763 13.3035C6.55105 13.2315 5.60464 12.6867 5.0229 11.8021C5.33179 11.7844 5.62964 11.7349 5.9262 11.6532L8.18927 11.0298L5.9073 10.477C4.79843 10.2084 4.16637 9.5522 3.83136 9.0489C3.61138 8.71818 3.46767 8.37937 3.38147 8.06703C3.61026 8.12773 3.87702 8.17099 4.3072 8.21314L6.41935 8.41978L4.74588 7.12858C3.54008 6.19838 3.05687 4.80084 3.41111 3.45735C7.17429 7.31795 11.5928 7.0278 12.0375 7.12985C11.9396 6.18934 11.9371 6.18713 11.9114 6.09759C11.3419 4.10612 12.5901 3.09493 13.1531 2.75264C14.3291 2.03779 16.1958 1.93003 17.4888 3.10777C17.768 3.36195 18.1457 3.46195 18.4991 3.37511C18.8163 3.29714 19.0767 3.21458 19.3316 3.12473L18.8009 4.62352L19.4783 4.62399C19.3505 4.79356 19.1972 4.99655 19.0127 5.23996Z" fill="#D55951" stroke="#D55951" stroke-width="0.5"/>
</svg>
