<svg width="22" height="22" viewBox="0 0 22 22" fill="none" xmlns="http://www.w3.org/2000/svg">
<path d="M3.92969 21H18.0703C19.6858 21 21 19.6858 21 18.0703V3.92969C21 2.31424 19.6858 1 18.0703 1H3.92969C2.31424 1 1 2.31424 1 3.92969V18.0703C1 19.6858 2.31424 21 3.92969 21ZM2.17188 3.92969C2.17188 2.96045 2.96045 2.17188 3.92969 2.17188H18.0703C19.0396 2.17188 19.8281 2.96045 19.8281 3.92969V18.0703C19.8281 19.0396 19.0396 19.8281 18.0703 19.8281H3.92969C2.96045 19.8281 2.17188 19.0396 2.17188 18.0703V3.92969Z" fill="#D55951"/>
<path d="M11 16.2734C13.9077 16.2734 16.2734 13.9077 16.2734 11C16.2734 8.09229 13.9077 5.72656 11 5.72656C8.09229 5.72656 5.72656 8.09229 5.72656 11C5.72656 13.9077 8.09229 16.2734 11 16.2734ZM11 6.89844C13.2617 6.89844 15.1016 8.73834 15.1016 11C15.1016 13.2617 13.2617 15.1016 11 15.1016C8.73834 15.1016 6.89844 13.2617 6.89844 11C6.89844 8.73834 8.73834 6.89844 11 6.89844Z" fill="#D55951"/>
<path d="M16.8594 6.89844C17.8286 6.89844 18.6172 6.10986 18.6172 5.14062C18.6172 4.17139 17.8286 3.38281 16.8594 3.38281C15.8901 3.38281 15.1016 4.17139 15.1016 5.14062C15.1016 6.10986 15.8901 6.89844 16.8594 6.89844ZM16.8594 4.55469C17.1824 4.55469 17.4453 4.8176 17.4453 5.14062C17.4453 5.46365 17.1824 5.72656 16.8594 5.72656C16.5363 5.72656 16.2734 5.46365 16.2734 5.14062C16.2734 4.8176 16.5363 4.55469 16.8594 4.55469Z" fill="#D55951"/>
<path d="M3.92969 21H18.0703C19.6858 21 21 19.6858 21 18.0703V3.92969C21 2.31424 19.6858 1 18.0703 1H3.92969C2.31424 1 1 2.31424 1 3.92969V18.0703C1 19.6858 2.31424 21 3.92969 21ZM2.17188 3.92969C2.17188 2.96045 2.96045 2.17188 3.92969 2.17188H18.0703C19.0396 2.17188 19.8281 2.96045 19.8281 3.92969V18.0703C19.8281 19.0396 19.0396 19.8281 18.0703 19.8281H3.92969C2.96045 19.8281 2.17188 19.0396 2.17188 18.0703V3.92969Z" stroke="#D55951" stroke-width="0.5"/>
<path d="M11 16.2734C13.9077 16.2734 16.2734 13.9077 16.2734 11C16.2734 8.09229 13.9077 5.72656 11 5.72656C8.09229 5.72656 5.72656 8.09229 5.72656 11C5.72656 13.9077 8.09229 16.2734 11 16.2734ZM11 6.89844C13.2617 6.89844 15.1016 8.73834 15.1016 11C15.1016 13.2617 13.2617 15.1016 11 15.1016C8.73834 15.1016 6.89844 13.2617 6.89844 11C6.89844 8.73834 8.73834 6.89844 11 6.89844Z" stroke="#D55951" stroke-width="0.5"/>
<path d="M16.8594 6.89844C17.8286 6.89844 18.6172 6.10986 18.6172 5.14062C18.6172 4.17139 17.8286 3.38281 16.8594 3.38281C15.8901 3.38281 15.1016 4.17139 15.1016 5.14062C15.1016 6.10986 15.8901 6.89844 16.8594 6.89844ZM16.8594 4.55469C17.1824 4.55469 17.4453 4.8176 17.4453 5.14062C17.4453 5.46365 17.1824 5.72656 16.8594 5.72656C16.5363 5.72656 16.2734 5.46365 16.2734 5.14062C16.2734 4.8176 16.5363 4.55469 16.8594 4.55469Z" stroke="#D55951" stroke-width="0.5"/>
</svg>
