<svg width="21" height="21" viewBox="0 0 21 21" fill="none" xmlns="http://www.w3.org/2000/svg">
<path d="M19.8332 8.72591C19.7832 8.46336 19.5536 8.27344 19.2864 8.27344H10.5C10.1926 8.27344 9.94336 8.52266 9.94336 8.83008V12.1699C9.94336 12.4773 10.1926 12.7266 10.5 12.7266H14.9876C14.6493 13.4073 14.1638 13.9964 13.581 14.4579C13.5319 14.4835 13.4859 14.5168 13.4447 14.5579C13.4404 14.5622 13.4368 14.5669 13.4327 14.5712C12.5931 15.1878 11.5701 15.5469 10.5 15.5469C7.7073 15.5469 5.45312 13.2718 5.45312 10.5C5.45312 7.72708 7.70852 5.45312 10.5 5.45312C11.56 5.45312 12.5986 5.81283 13.5038 6.49337C13.7253 6.65996 14.0358 6.63814 14.2319 6.44205L16.6072 4.06672C16.8381 3.83586 16.8214 3.45631 16.5712 3.24653C14.8431 1.79785 12.687 1 10.5 1C7.97619 1 5.59436 1.99197 3.79319 3.79315C1.99193 5.59436 1 7.97623 1 10.5C1 13.0238 1.99193 15.4056 3.79319 17.2069C5.59436 19.008 7.97619 20 10.5 20C13.0238 20 15.4056 19.008 17.2068 17.2069C19.0081 15.4056 20 13.0238 20 10.5C20 9.90391 19.9439 9.30704 19.8332 8.72591ZM10.5 2.11328C12.2286 2.11328 13.9381 2.68165 15.3751 3.72435L13.774 5.32551C12.771 4.67917 11.6484 4.33984 10.5 4.33984C8.86693 4.33984 7.3234 4.98403 6.15371 6.15371C5.714 6.59346 5.34859 7.08605 5.0637 7.61634L3.43404 5.98668C4.92602 3.659 7.53589 2.11328 10.5 2.11328ZM2.8774 7.00445L4.60154 8.72858C4.4292 9.29691 4.33984 9.89222 4.33984 10.5C4.33984 11.1078 4.4292 11.7031 4.60154 12.2714L2.8774 13.9956C2.38722 12.9309 2.11328 11.7469 2.11328 10.5C2.11328 9.25313 2.38722 8.06915 2.8774 7.00445ZM3.43404 15.0133L5.0637 13.3837C5.34859 13.914 5.714 14.4065 6.15371 14.8463C7.3234 16.016 8.86693 16.6602 10.5 16.6602C11.6747 16.6602 12.8017 16.3247 13.7861 15.6865L15.401 17.3014C14.0214 18.2983 12.3282 18.8867 10.5 18.8867C7.53589 18.8867 4.92602 17.341 3.43404 15.0133ZM16.262 16.5881L14.6682 14.9942C15.4396 14.2666 16.0244 13.3431 16.3414 12.3372C16.3947 12.1681 16.3642 11.9837 16.2594 11.8407C16.1545 11.6977 15.9878 11.6132 15.8105 11.6132H11.0566V9.38668H18.8128C18.8619 9.75455 18.8867 10.1273 18.8867 10.5C18.8867 12.895 17.8774 15.0585 16.262 16.5881Z" fill="white" stroke="white" stroke-width="0.5"/>
</svg>
