<svg width="23" height="23" viewBox="0 0 23 23" fill="none" xmlns="http://www.w3.org/2000/svg">
<path d="M4.07617 22H10.9258V14.5352H8.46484V12.0742H10.9258V8.99805C10.9258 7.30183 12.3057 5.92188 14.002 5.92188H17.0781V8.38281H14.6172C13.9387 8.38281 13.3867 8.93476 13.3867 9.61328V12.0742H16.9671L16.5569 14.5352H13.3867V22H18.9238C20.62 22 22 20.62 22 18.9238V4.07617C22 2.37995 20.62 1 18.9238 1H4.07617C2.37995 1 1 2.37995 1 4.07617V18.9238C1 20.62 2.37995 22 4.07617 22ZM2.23047 4.07617C2.23047 3.05847 3.05847 2.23047 4.07617 2.23047H18.9238C19.9415 2.23047 20.7695 3.05847 20.7695 4.07617V18.9238C20.7695 19.9415 19.9415 20.7695 18.9238 20.7695H14.6172V15.7656H17.5993L18.4196 10.8438H14.6172V9.61328H18.3086V4.69141H14.002C11.6272 4.69141 9.69531 6.62331 9.69531 8.99805V10.8438H7.23438V15.7656H9.69531V20.7695H4.07617C3.05847 20.7695 2.23047 19.9415 2.23047 18.9238V4.07617Z" fill="#D55951" stroke="#D55951" stroke-width="0.5"/>
</svg>
