<svg width="63" height="63" viewBox="0 0 63 63" fill="none" xmlns="http://www.w3.org/2000/svg">
<g clip-path="url(#clip0)">
<g filter="url(#filter0_d)">
<circle cx="31.5615" cy="21.9639" r="20.3643" fill="#D55951"/>
<path d="M53.9236 22.4237C53.917 24.9004 53.6522 27.3697 53.1335 29.7915C49.1506 48.4886 31.4999 61.9322 31.4999 61.9322C31.4999 61.9322 13.8492 48.4886 9.86634 29.7915C9.34764 27.3697 9.08282 24.9004 9.07617 22.4237C9.07617 10.0394 19.1156 0 31.4999 0C43.8842 0 53.9236 10.0394 53.9236 22.4237Z" fill="#CE2B26"/>
<path d="M53.9236 22.4237C53.917 24.9004 53.6522 27.3697 53.1335 29.7915C49.3025 38.3044 40.8351 43.7792 31.4999 43.7792C22.1647 43.7792 13.6973 38.3044 9.86634 29.7915C9.34764 27.3697 9.08282 24.9004 9.07617 22.4237C9.07617 10.0394 19.1156 0 31.4999 0C43.8842 0 53.9236 10.0394 53.9236 22.4237Z" fill="#D55951"/>
<path d="M31.5 40.5763C41.5253 40.5763 49.6525 32.4491 49.6525 22.4237C49.6525 12.3983 41.5253 4.27118 31.5 4.27118C21.4746 4.27118 13.3474 12.3983 13.3474 22.4237C13.3474 32.4491 21.4746 40.5763 31.5 40.5763Z" fill="white"/>
</g>
</g>
<defs>
<filter id="filter0_d" x="5.07617" y="0" width="52.8475" height="69.9322" filterUnits="userSpaceOnUse" color-interpolation-filters="sRGB">
<feFlood flood-opacity="0" result="BackgroundImageFix"/>
<feColorMatrix in="SourceAlpha" type="matrix" values="0 0 0 0 0 0 0 0 0 0 0 0 0 0 0 0 0 0 127 0"/>
<feOffset dy="4"/>
<feGaussianBlur stdDeviation="2"/>
<feColorMatrix type="matrix" values="0 0 0 0 1 0 0 0 0 0.195833 0 0 0 0 0.195833 0 0 0 0.25 0"/>
<feBlend mode="normal" in2="BackgroundImageFix" result="effect1_dropShadow"/>
<feBlend mode="normal" in="SourceGraphic" in2="effect1_dropShadow" result="shape"/>
</filter>
<clipPath id="clip0">
<rect width="63" height="63" fill="white"/>
</clipPath>
</defs>
</svg>
