<svg width="292" height="255" viewBox="0 0 292 255" fill="none" xmlns="http://www.w3.org/2000/svg">
<path d="M209.028 19.4449C186.639 28.474 158.794 32.2537 153.338 31.8337C130.911 35.0472 96.2045 24.9134 81.6546 19.4449C70.7423 17.765 46.2459 19.8648 35.5593 41.7028C22.201 69.0002 33.866 97.1375 44.7784 115.196C53.5082 129.642 48.4158 136.894 44.7784 138.714C37.0644 145.013 19.4165 162.567 10.5361 182.389C-0.564432 207.167 7.52578 234.675 42.7088 241.184C77.8918 247.693 103.363 221.12 186.075 232.155C254.207 241.245 274.399 239.691 276.469 217.433C278.538 195.175 268.67 147.323 251.737 126.325C238.191 109.526 246.093 94.6878 251.737 89.3683C261.709 80.8291 281.803 60.475 282.405 47.3722C283.157 30.9938 277.513 16.5052 260.58 10.4157C243.647 4.3263 231.418 10.4157 209.028 19.4449Z" fill="#E9EAEB"/>
<path d="M164.64 27.1288C152.97 28.8671 155.227 20.4819 158.055 18.9396C163.574 15.9299 178.3 9.57448 193.05 8.23061C207.801 6.88674 202.64 16.8121 198.124 18.5781C190.787 21.4478 176.311 25.3906 164.64 27.1288Z" fill="#E9EAEB"/>
<path d="M208.392 11.8757C204.266 12.4082 205.918 6.49943 207.036 5.56176C209.219 3.73196 214.865 0.0579601 219.989 0.000361656C225.113 -0.0572369 222.318 6.78296 220.606 7.77767C217.824 9.39407 212.518 11.3433 208.392 11.8757Z" fill="#E9EAEB"/>
<path d="M186.222 251.826C174.626 249.549 179.048 242.317 182.161 241.8C188.237 240.791 203.994 239.697 218.42 243.388C232.845 247.079 225.239 254.801 220.456 254.963C212.685 255.225 197.819 254.104 186.222 251.826Z" fill="#E9EAEB"/>
<path d="M232.058 252.035C227.981 251.151 231.155 246.075 232.475 245.558C235.051 244.55 241.428 242.951 246.328 244.623C251.228 246.296 246.712 251.874 244.811 252.245C241.721 252.848 236.135 252.918 232.058 252.035Z" fill="#E9EAEB"/>
<path d="M291.624 68.3703C291.624 71.9653 289.012 74.8796 285.791 74.8796C282.57 74.8796 279.959 71.9653 279.959 68.3703C279.959 64.7752 282.57 61.8609 285.791 61.8609C289.012 61.8609 291.624 64.7752 291.624 68.3703Z" fill="#E9EAEB"/>
<path d="M292 83.2788C292 84.9024 290.652 86.2186 288.99 86.2186C287.327 86.2186 285.979 84.9024 285.979 83.2788C285.979 81.6553 287.327 80.3391 288.99 80.3391C290.652 80.3391 292 81.6553 292 83.2788Z" fill="#E9EAEB"/>
<path d="M24.0825 80.1291C24.0825 87.4352 18.6914 93.3579 12.0412 93.3579C5.39105 93.3579 0 87.4352 0 80.1291C0 72.8231 5.39105 66.9004 12.0412 66.9004C18.6914 66.9004 24.0825 72.8231 24.0825 80.1291Z" fill="#E9EAEB"/>
<path d="M19.1907 123.175C19.1907 126.886 16.2425 129.894 12.6057 129.894C8.96885 129.894 6.02062 126.886 6.02062 123.175C6.02062 119.464 8.96885 116.456 12.6057 116.456C16.2425 116.456 19.1907 119.464 19.1907 123.175Z" fill="#E9EAEB"/>
<path d="M31.6082 102.807C31.6082 104.547 30.2605 105.957 28.5979 105.957C26.9354 105.957 25.5876 104.547 25.5876 102.807C25.5876 101.067 26.9354 99.6573 28.5979 99.6573C30.2605 99.6573 31.6082 101.067 31.6082 102.807Z" fill="#E9EAEB"/>
</svg>
