<svg width="80" height="80" viewBox="0 0 80 80" fill="none" xmlns="http://www.w3.org/2000/svg">
<path fill-rule="evenodd" clip-rule="evenodd" d="M40 80C62.0914 80 80 62.0914 80 40C80 17.9086 62.0914 0 40 0C17.9086 0 0 17.9086 0 40C0 62.0914 17.9086 80 40 80ZM40 75C59.33 75 75 59.33 75 40C75 20.67 59.33 5 40 5C20.67 5 5 20.67 5 40C5 59.33 20.67 75 40 75Z" fill="#C8C8C8"/>
<rect x="12.0283" y="65.6472" width="74.9654" height="5" transform="rotate(-45 12.0283 65.6472)" fill="#C8C8C8"/>
<path d="M65 38.5C65 52.5833 53.5833 64 39.5 64C25.4167 64 14 52.5833 14 38.5C14 24.4167 25.4167 13 39.5 13C53.5833 13 65 24.4167 65 38.5Z" fill="#C8C8C8"/>
<path d="M40 71L34.8038 62H45.1962L40 71Z" fill="#C8C8C8"/>
<path d="M41.1719 31.8824C40.8485 31.8824 40.5859 32.1459 40.5859 32.4706C40.5859 32.7953 40.8485 33.0588 41.1719 33.0588C41.4953 33.0588 41.7578 32.7953 41.7578 32.4706C41.7578 32.1459 41.4953 31.8824 41.1719 31.8824Z" fill="white"/>
<path d="M53.2422 42.4706C53.2422 35.9494 48.1676 30.6016 41.9393 29.6728C42.1943 29.2962 42.3438 28.8417 42.3438 28.3529C42.3438 27.0556 41.2923 26 40 26C38.7077 26 37.6562 27.0556 37.6562 28.3529C37.6562 28.8417 37.8057 29.2962 38.0607 29.6728C31.8571 30.5979 26.7578 35.9274 26.7578 42.4706C25.7867 42.4706 25 43.2603 25 44.2353C25 45.2084 25.7885 46 26.7578 46H53.2422C54.2133 46 55 45.2102 55 44.2353C55 43.2622 54.2115 42.4706 53.2422 42.4706ZM38.8281 28.3529C38.8281 27.7043 39.3539 27.1765 40 27.1765C40.6461 27.1765 41.1719 27.7043 41.1719 28.3529C41.1719 29.0016 40.6461 29.5294 40 29.5294C39.3539 29.5294 38.8281 29.0016 38.8281 28.3529ZM40 30.7059C46.4533 30.7059 52.0703 35.946 52.0703 42.4706H27.9297C27.9297 36.0935 33.4572 30.7059 40 30.7059ZM53.2422 44.8235H26.7578C26.4346 44.8235 26.1719 44.5597 26.1719 44.2353C26.1719 43.9106 26.4344 43.6471 26.7578 43.6471H53.2422C53.5654 43.6471 53.8281 43.9108 53.8281 44.2353C53.8281 44.56 53.5656 44.8235 53.2422 44.8235Z" fill="white"/>
<path d="M49.9619 38.1098C48.8614 35.6749 46.497 33.5894 43.6374 32.5315C43.3339 32.4191 42.997 32.5754 42.8851 32.8803C42.7731 33.185 42.9285 33.5232 43.2323 33.6356C45.7658 34.5726 47.9356 36.4733 48.8948 38.596C49.0287 38.892 49.3761 39.0227 49.6705 38.8886C49.9651 38.7544 50.0957 38.4058 49.9619 38.1098Z" fill="white"/>
</svg>
