<svg width="350" height="350" viewBox="0 0 350 350" fill="none" xmlns="http://www.w3.org/2000/svg">
<path d="M345.944 178.738C345.944 273.323 269.267 350 174.68 350C80.0953 350 3.41797 273.323 3.41797 178.738C3.41797 84.1515 80.0953 7.47415 174.68 7.47415C269.267 7.47415 345.944 84.1515 345.944 178.738Z" fill="#D55951"/>
<path d="M277.998 263.771C276.53 258.372 276.012 252.753 276.468 247.175L280.396 207.54C281.731 191.377 279.267 175.182 272.11 160.629C253.624 123.02 257.864 120.291 257.29 82.9685C257.29 75.3449 251.111 69.1631 243.485 69.1631C235.861 69.1631 229.679 75.3449 229.679 82.9685C229.679 234.748 229.963 223.61 229.025 228.061V247.936C229.025 264.682 215.401 278.305 198.656 278.305C187.534 278.305 149.181 278.305 123.084 278.305C134.695 294.45 150.578 307.094 169.011 314.75C169.123 314.798 169.237 314.843 169.352 314.894C183.593 320.907 193.513 333.77 196.17 348.662C231.834 344.197 264.089 328.766 289.454 305.849L277.998 263.771Z" fill="#F9D6BF"/>
<path d="M71.8068 69.6464L67.6011 65.7505C61.1203 59.7423 50.9011 60.1322 44.8956 66.6157C38.8901 73.0965 39.28 83.3156 45.7608 89.3211L71.8068 113.455V69.6464Z" fill="#F9D6BF"/>
<path d="M54.3057 77.2434C50.3297 73.5584 48.6581 68.2926 49.3363 63.2725C47.7128 64.103 46.2014 65.2058 44.8956 66.6157C38.8901 73.0965 39.28 83.3157 45.7608 89.3212L71.8068 113.455V93.4601L54.3057 77.2434Z" fill="#EFC1A8"/>
<path d="M199.31 0C188.837 0 111.842 0 101.463 0C84.7176 0 71.0964 13.6238 71.0964 30.3692V248.588C71.0964 265.333 84.7176 278.957 101.463 278.957H199.31C216.056 278.957 229.679 265.336 229.679 248.588V30.3692C229.679 13.6238 216.056 0 199.31 0V0Z" fill="#494970"/>
<path d="M108.352 248.588V30.3692C108.352 13.6238 121.973 0 138.719 0C121.215 0 105.725 0 101.463 0C84.7176 0 71.0964 13.6238 71.0964 30.3692V248.588C71.0964 265.333 84.7176 278.957 101.463 278.957H138.719C121.973 278.957 108.352 265.333 108.352 248.588Z" fill="#3A3A60"/>
<path d="M212.851 248.588C212.851 256.07 206.79 262.132 199.31 262.132C188.952 262.132 111.933 262.132 101.463 262.132C93.9834 262.132 87.9192 256.067 87.9192 248.588C87.9192 241.693 87.9192 37.3921 87.9192 30.3692C87.9192 22.8897 93.9834 16.8255 101.463 16.8255H108.924C111.725 16.8255 113.992 19.0952 113.992 21.8937V25.1087C113.992 29.4186 117.519 32.946 121.832 32.946H178.941C183.251 32.946 186.779 29.4186 186.779 25.1087V21.8937C186.779 19.0952 189.048 16.8255 191.847 16.8255H199.31C206.79 16.8255 212.851 22.8897 212.851 30.3692V248.588Z" fill="#E2E9F2"/>
<path d="M108.352 248.588V30.3692C108.352 25.7336 109.399 21.3383 111.266 17.4023C110.566 17.0365 109.77 16.8255 108.926 16.8255H101.463C93.9834 16.8255 87.9192 22.8897 87.9192 30.3692V248.588C87.9192 256.07 93.9834 262.132 101.463 262.132H111.549C109.506 258.051 108.352 253.453 108.352 248.588Z" fill="#C7D6E5"/>
<path d="M167.601 21.7308H150.823C148.116 21.7308 145.918 19.5332 145.918 16.8255C145.918 14.1178 148.116 11.9229 150.823 11.9229H167.601C170.311 11.9229 172.506 14.1178 172.506 16.8255C172.506 19.5332 170.311 21.7308 167.601 21.7308Z" fill="#5D5D84"/>
<path d="M133.616 21.7281C130.873 21.7281 128.71 19.4824 128.71 16.8255C128.71 14.3929 130.5 12.4249 132.66 12.019C133.287 11.8881 133.942 11.8881 134.574 12.019C136.78 12.4302 138.518 14.4383 138.518 16.8255C138.518 19.5038 136.35 21.7281 133.616 21.7281Z" fill="#5D5D84"/>
<path d="M95.1879 154.385C89.9061 160.086 80.998 160.428 75.2942 155.141L51.7129 133.293C46.0092 128.008 45.6701 119.1 50.9546 113.396C56.2391 107.693 65.1471 107.354 70.8482 112.638L94.4322 134.489C100.133 139.774 100.475 148.682 95.1879 154.385Z" fill="#F9D6BF"/>
<path d="M84.9954 145.21L61.4141 123.359C57.4701 119.706 56.0949 114.318 57.3659 109.458C54.9894 110.144 52.7597 111.45 50.9546 113.396C45.6701 119.1 46.0092 128.008 51.7129 133.293L75.2942 155.144C80.998 160.428 89.9034 160.089 95.1879 154.385C96.8194 152.626 97.9089 150.562 98.4777 148.393C93.8928 149.715 88.7498 148.69 84.9954 145.21Z" fill="#EFC1A8"/>
<path d="M276.516 255.587C250.428 298.421 199.775 318.312 152.201 305.94C157.507 309.35 163.128 312.306 169.008 314.747C169.123 314.795 169.238 314.843 169.35 314.891C183.593 320.907 193.511 333.77 196.167 348.662C231.835 344.197 264.089 328.766 289.451 305.847L277.998 263.771C277.269 261.087 276.773 258.348 276.516 255.587Z" fill="#EFC1A8"/>
<path d="M95.1879 231.186C89.9061 236.889 80.998 237.228 75.2942 231.944L51.7129 210.093C46.0092 204.808 45.6701 195.9 50.9546 190.197C56.2391 184.496 65.1471 184.154 70.8482 189.438L94.4322 211.289C100.133 216.574 100.475 225.482 95.1879 231.186Z" fill="#F9D6BF"/>
<path d="M84.9954 222.01L61.4141 200.159C57.4701 196.507 56.0949 191.118 57.3659 186.258C54.9894 186.944 52.7597 188.25 50.9546 190.197C45.6701 195.9 46.0092 204.808 51.7129 210.093L75.2942 231.944C80.998 237.228 89.9034 236.889 95.1879 231.186C96.8194 229.426 97.9089 227.362 98.4777 225.193C93.8928 226.515 88.7498 225.49 84.9954 222.01Z" fill="#EFC1A8"/>
<path d="M95.1879 192.784C89.9061 198.488 80.998 198.827 75.2942 193.542L51.7129 171.691C46.0092 166.41 45.6701 157.502 50.9546 151.798C56.2391 146.094 65.1471 145.755 70.8482 151.039L94.4322 172.89C100.133 178.175 100.475 187.08 95.1879 192.784Z" fill="#F9D6BF"/>
<path d="M84.9954 183.612L61.4141 161.761C57.4701 158.105 56.0949 152.719 57.3659 147.857C54.9894 148.543 52.757 149.851 50.9546 151.798C45.6701 157.502 46.0092 166.407 51.7129 171.691L75.2942 193.542C80.998 198.827 89.9034 198.488 95.1879 192.784C96.8194 191.027 97.9089 188.96 98.4777 186.792C93.8928 188.116 88.7498 187.091 84.9954 183.612Z" fill="#EFC1A8"/>
<path d="M135.116 243.551C132.211 243.551 129.99 241.167 129.99 238.432C129.99 235.599 132.291 233.305 135.116 233.305C137.955 233.305 140.243 235.599 140.243 238.432C140.243 241.26 137.947 243.551 135.116 243.551Z" fill="#C7D6E5"/>
<path d="M150.388 243.552C147.525 243.552 145.261 241.228 145.261 238.433C145.261 236.035 146.917 233.912 149.384 233.402C152.465 232.782 155.515 235.122 155.515 238.433C155.515 241.13 153.328 243.552 150.388 243.552Z" fill="#C7D6E5"/>
<path d="M165.654 243.552C162.818 243.552 160.527 241.245 160.527 238.433C160.527 235.231 163.443 232.769 166.658 233.402C169.168 233.933 170.781 236.075 170.781 238.433C170.781 241.25 168.487 243.552 165.654 243.552Z" fill="#C7D6E5"/>
<path d="M199.31 16.8255H191.849C189.051 16.8255 186.781 19.0952 186.781 21.8937V25.1087C186.781 29.4186 183.251 32.9487 178.941 32.9487C167.2 32.9487 133.578 32.9487 121.832 32.9487C117.522 32.9487 113.995 29.4186 113.995 25.1087V21.8937C113.995 19.0952 111.725 16.8255 108.926 16.8255H101.463C93.9834 16.8255 87.9192 22.8897 87.9192 30.3692V53.5366C106.379 48.5939 134.914 46.0518 166.647 61.697C181.913 69.2246 197.575 73.7293 212.854 74.3301C212.854 58.9867 212.854 40.1825 212.854 30.3692C212.851 22.8897 206.79 16.8255 199.31 16.8255Z" fill="#FAD964"/>
<path d="M160.351 58.8131C162.434 59.697 164.535 60.6556 166.647 61.697C181.913 69.2245 197.575 73.7293 212.854 74.3301C212.854 64.3059 212.854 52.8076 212.854 43.3014C197.575 43.8995 181.913 48.407 166.647 55.9319C164.533 56.9759 162.434 57.9292 160.351 58.8131Z" fill="#FAB941"/>
<path d="M108.352 30.3692C108.352 25.7336 109.399 21.3383 111.265 17.4023C110.537 17.0204 109.69 16.8255 108.926 16.8255H101.463C93.9834 16.8255 87.9192 22.8897 87.9192 30.3692V53.5366C93.7858 51.9665 100.672 50.6394 108.352 50.0626V30.3692Z" fill="#FAB941"/>
<path d="M193.505 119.207H107.274C102.259 119.207 98.1919 123.271 98.1919 128.289C98.1919 133.303 102.259 137.368 107.274 137.368H193.505C198.52 137.368 202.587 133.303 202.587 128.289C202.584 123.271 198.52 119.207 193.505 119.207Z" fill="#BC4C2E"/>
<path d="M128.647 128.289C128.647 123.271 132.713 119.207 137.728 119.207H107.274C102.256 119.207 98.1919 123.271 98.1919 128.289C98.1919 133.303 102.256 137.368 107.274 137.368H137.728C132.713 137.368 128.647 133.303 128.647 128.289Z" fill="#AB3829"/>
<path d="M193.227 151.157H107.549C105.444 151.157 103.738 152.866 103.738 154.97V161.344C103.738 170.949 111.525 178.738 121.13 178.738H179.646C189.251 178.738 197.038 170.949 197.038 161.344V154.97C197.041 152.866 195.332 151.157 193.227 151.157Z" fill="#E6AC6D"/>
<path d="M193.585 151.157H107.193C105.284 151.157 103.738 149.611 103.738 147.704V140.823C103.738 138.916 105.284 137.368 107.193 137.368H193.585C195.494 137.368 197.041 138.916 197.041 140.823V147.704C197.041 149.611 195.494 151.157 193.585 151.157Z" fill="#F5585C"/>
<path d="M132.307 147.704V140.823C132.307 138.916 133.854 137.368 135.76 137.368H107.193C105.284 137.368 103.738 138.916 103.738 140.823V147.704C103.738 149.611 105.284 151.16 107.193 151.16H135.76C133.854 151.157 132.307 149.611 132.307 147.704Z" fill="#D13044"/>
<path d="M103.738 105.121C103.738 91.7244 114.598 80.867 127.992 80.867H172.784C186.181 80.867 197.038 91.7244 197.038 105.121C197.038 106.958 195.551 108.446 193.716 108.446H107.06C105.225 108.446 103.738 106.958 103.738 105.121Z" fill="#E6AC6D"/>
<path d="M132.126 161.344V154.97C132.126 152.866 133.832 151.157 135.939 151.157H107.549C105.444 151.157 103.738 152.866 103.738 154.97V161.344C103.738 170.949 111.525 178.738 121.13 178.738H149.517C139.912 178.738 132.126 170.949 132.126 161.344Z" fill="#CE8A4D"/>
<path d="M132.126 105.121C132.126 91.7244 142.986 80.867 156.383 80.867H127.992C114.598 80.867 103.738 91.7244 103.738 105.121C103.738 106.958 105.225 108.446 107.06 108.446H135.45C133.613 108.446 132.126 106.958 132.126 105.121Z" fill="#CE8A4D"/>
<path d="M193.534 108.446H107.241C106.753 109.594 106.448 110.86 106.373 112.216C105.858 121.757 116.683 127.437 124.214 121.867C125.124 121.191 126.382 121.191 127.295 121.867C131.242 124.785 136.625 124.791 140.577 121.867C141.49 121.191 142.745 121.191 143.659 121.867C147.531 124.732 153.095 124.841 157.12 121.867C158.03 121.191 159.288 121.191 160.198 121.867C164.145 124.785 169.531 124.791 173.483 121.867C174.394 121.191 175.651 121.191 176.562 121.867C184.092 127.434 194.92 121.757 194.402 112.216C194.33 110.86 194.023 109.594 193.534 108.446Z" fill="#AFBC31"/>
<path d="M133.461 112.216C133.533 110.86 133.84 109.594 134.329 108.446H107.241C106.753 109.594 106.448 110.86 106.373 112.216C105.858 121.757 116.683 127.437 124.214 121.867C125.124 121.191 126.382 121.191 127.295 121.867C130.833 124.483 135.522 124.751 139.303 122.673C135.752 120.748 133.205 116.961 133.461 112.216Z" fill="#9FA519"/>
<path d="M114.107 151.157L129.747 166.8C132.404 169.456 136.756 169.456 139.413 166.8L155.053 151.157H114.107Z" fill="#FAD964"/>
<path d="M133.776 168.741C132.719 166.495 132.126 163.99 132.126 161.344V154.97C132.126 152.866 133.832 151.157 135.939 151.157H114.107L129.747 166.8C130.871 167.924 132.299 168.567 133.776 168.741Z" fill="#FAB941"/>
<path d="M162.693 212.622H138.083C132.986 212.622 128.855 208.491 128.855 203.393C128.855 198.296 132.986 194.165 138.083 194.165H162.693C167.79 194.165 171.921 198.296 171.921 203.393C171.921 208.491 167.79 212.622 162.693 212.622Z" fill="#AFBC31"/>
<path d="M150.388 203.393C150.388 198.296 154.519 194.165 159.616 194.165H138.083C132.986 194.165 128.855 198.296 128.855 203.393C128.855 208.491 132.986 212.622 138.083 212.622H159.616C154.519 212.622 150.388 208.491 150.388 203.393Z" fill="#9FA519"/>
</svg>
