<svg width="350" height="350" viewBox="0 0 350 350" fill="none" xmlns="http://www.w3.org/2000/svg">
<g clip-path="url(#clip0)">
<path d="M341.113 184.229C341.113 92.675 266.588 18.457 174.658 18.457C82.7282 18.457 8.20312 92.675 8.20312 184.229C8.20312 275.782 82.7282 350 174.658 350C266.588 350 341.113 275.782 341.113 184.229Z" fill="white"/>
<path d="M214.024 17.0898H135.293C131.888 17.0898 129.127 19.8402 129.127 23.2315V36.9141H220.189V23.2315C220.189 19.8402 217.428 17.0898 214.024 17.0898Z" fill="#C7D6E5"/>
<path d="M214.024 17.0898H185.887V17.1112C189.086 17.3382 191.614 19.9871 191.614 23.2315V36.9141H220.189V23.2315C220.189 19.8402 217.428 17.0898 214.024 17.0898Z" fill="#AEBFCE"/>
<path d="M255.197 0C246.273 0 103.062 0 94.1196 0C87.4145 0 81.6173 4.65698 80.1994 11.1858C67.2111 71.0056 60.6636 132.035 60.6636 193.238V305.014C90.4506 332.905 130.548 350 174.658 350C218.769 350 258.868 332.905 288.653 305.014V193.238C288.653 132.035 282.103 71.0056 269.117 11.1858C267.699 4.65698 261.902 0 255.197 0V0ZM218.817 49.2294C218.817 52.6207 216.056 55.3711 212.651 55.3711H136.665C133.261 55.3711 130.5 52.6207 130.5 49.2294V24.5987C130.5 21.2074 133.261 18.457 136.665 18.457H212.651C216.056 18.457 218.817 21.2074 218.817 24.5987V49.2294Z" fill="#E2E9F2"/>
<path d="M87.3371 193.238C87.3371 132.035 93.8873 71.0056 106.876 11.1858C108.291 4.65698 114.088 0 120.793 0C106.502 0 96.3039 0 94.1196 0C87.4145 0 81.6173 4.65698 80.1994 11.1858C67.2138 71.0056 60.6636 132.035 60.6636 193.238V305.014C68.824 312.653 77.7614 319.479 87.3397 325.369V193.238H87.3371Z" fill="#C7D6E5"/>
<path d="M156.946 199.358L145.905 156.543C121.164 156.543 139.191 156.543 114.459 156.543L103.418 199.358C100.309 211.412 98.7366 223.808 98.7366 236.254V301.051C98.7366 305.163 102.069 308.496 106.181 308.496H154.182C158.295 308.496 161.627 305.163 161.627 301.051V236.254C161.627 223.808 160.054 211.412 156.946 199.358Z" fill="#FAB941"/>
<path d="M123.835 301.051V236.254C123.835 223.808 124.78 211.412 126.646 199.358L133.282 156.543C127.92 156.543 132.243 156.543 114.459 156.543L103.418 199.358C100.309 211.412 98.7366 223.808 98.7366 236.254V301.051C98.7366 305.163 102.072 308.496 106.181 308.496H128.307C125.837 308.496 123.835 305.163 123.835 301.051Z" fill="#F6A221"/>
<path d="M156.903 199.19C144.575 219.028 115.778 219.009 103.463 199.19L103.418 199.358C100.309 211.412 98.7366 223.808 98.7366 236.254V301.051C98.7366 305.163 102.072 308.496 106.181 308.496H154.182C158.295 308.496 161.627 305.163 161.627 301.051V236.254C161.627 223.808 160.054 211.412 156.946 199.358L156.903 199.19Z" fill="#A0D5FF"/>
<path d="M123.835 301.051V236.254C123.835 228.662 124.19 221.089 124.889 213.602C115.85 212.066 108.123 206.688 103.463 199.19L103.418 199.358C100.328 211.34 98.7366 223.733 98.7366 236.254V301.051C98.7366 304.391 100.937 307.217 103.97 308.162C104.667 308.378 105.412 308.496 106.184 308.496H128.31C125.837 308.496 123.835 305.163 123.835 301.051Z" fill="#75BDEF"/>
<path d="M99.8554 218.16C99.1158 224.157 98.7366 230.2 98.7366 236.254V301.051C98.7366 305.163 102.069 308.496 106.181 308.496H154.182C158.295 308.496 161.627 305.163 161.627 301.051V236.254C161.627 230.2 161.248 224.157 160.508 218.16C146.567 240.673 113.837 240.734 99.8554 218.16Z" fill="#75BDEF"/>
<path d="M123.835 301.051V236.254C123.835 235.672 123.848 235.087 123.851 234.505C113.722 232.686 105.081 226.595 99.8554 218.16C99.1131 224.179 98.7366 230.238 98.7366 236.254V301.051C98.7366 304.391 100.937 307.217 103.968 308.162C104.667 308.378 105.412 308.496 106.181 308.496H128.307C125.837 308.496 123.835 305.163 123.835 301.051Z" fill="#4DADE2"/>
<path d="M174.658 350C216.806 350 255.282 334.323 284.607 308.496H64.709C94.0341 334.32 132.51 350 174.658 350Z" fill="#7D858A"/>
<path d="M159.777 308.496H64.709C90.2316 330.972 122.689 345.757 158.46 349.215C142.93 340.868 143.677 315.959 159.777 308.496Z" fill="#765A5B"/>
<path d="M238.438 129.512C231.469 117.439 216.032 113.303 203.959 120.272C191.887 127.242 187.751 142.679 194.72 154.751C201.692 166.824 217.129 170.96 229.202 163.99C241.274 157.021 245.41 141.584 238.438 129.512Z" fill="#FAB941"/>
<path d="M212.192 144.674C207.014 135.704 207.97 124.884 213.749 117.052C210.397 117.431 207.07 118.483 203.965 120.275C191.892 127.245 187.756 142.682 194.726 154.754C201.698 166.826 217.135 170.963 229.207 163.993C232.312 162.201 234.887 159.843 236.887 157.133C227.218 158.223 217.367 153.64 212.192 144.674Z" fill="#F6A221"/>
<path d="M244.102 147.264H189.073C186.239 147.264 183.946 144.967 183.946 142.137C183.946 139.304 186.239 137.01 189.073 137.01H244.102C246.932 137.01 249.229 139.304 249.229 142.137C249.229 144.967 246.932 147.264 244.102 147.264Z" fill="#A0D5FF"/>
<path d="M205.137 142.137C205.137 139.304 207.431 137.01 210.264 137.01H189.073C186.239 137.01 183.946 139.304 183.946 142.137C183.946 144.967 186.239 147.264 189.073 147.264H210.264C207.431 147.264 205.137 144.967 205.137 142.137Z" fill="#75BDEF"/>
<path d="M152.108 148.682C152.108 143.584 147.977 139.453 142.879 139.453H117.487C112.39 139.453 108.259 143.584 108.259 148.682C108.259 153.779 112.39 157.91 117.487 157.91H142.879C147.977 157.91 152.108 153.779 152.108 148.682Z" fill="#F6A221"/>
<path d="M130.182 148.682C130.182 143.584 134.315 139.453 139.41 139.453H117.487C112.39 139.453 108.259 143.584 108.259 148.682C108.259 153.779 112.39 157.91 117.487 157.91H139.41C134.315 157.91 130.182 153.779 130.182 148.682Z" fill="#F28A00"/>
<path d="M240.841 244.078H147.528C142.102 244.078 137.701 248.478 137.701 253.904C137.701 259.33 142.099 263.731 147.528 263.731H240.841C246.267 263.731 250.668 259.33 250.668 253.904C250.668 248.478 246.267 244.078 240.841 244.078Z" fill="#BC4C2E"/>
<path d="M170.658 253.904C170.658 248.478 175.056 244.078 180.485 244.078H147.528C142.102 244.078 137.701 248.478 137.701 253.904C137.701 259.33 142.102 263.731 147.528 263.731H180.485C175.059 263.731 170.658 259.33 170.658 253.904Z" fill="#AB3829"/>
<path d="M240.542 278.653H147.83C145.549 278.653 143.704 280.5 143.704 282.778V289.676C143.704 300.071 152.129 308.496 162.522 308.496H225.845C236.24 308.496 244.665 300.071 244.665 289.676V282.778C244.665 280.498 242.82 278.653 240.542 278.653Z" fill="#E6AC6D"/>
<path d="M240.927 278.653H147.44C145.376 278.653 143.704 276.978 143.704 274.914V267.469C143.704 265.405 145.376 263.731 147.44 263.731H240.927C242.993 263.731 244.665 265.405 244.665 267.469V274.914C244.665 276.978 242.993 278.653 240.927 278.653Z" fill="#F5585C"/>
<path d="M174.618 274.914V267.469C174.618 265.405 176.29 263.731 178.354 263.731H147.44C145.376 263.731 143.704 265.405 143.704 267.469V274.914C143.704 276.978 145.376 278.653 147.44 278.653H178.354C176.29 278.653 174.618 276.978 174.618 274.914Z" fill="#D13044"/>
<path d="M143.704 228.836C143.704 214.339 155.453 202.587 169.95 202.587H218.419C232.916 202.587 244.665 214.339 244.665 228.836C244.665 230.822 243.058 232.433 241.071 232.433H147.298C145.312 232.433 143.704 230.822 143.704 228.836Z" fill="#E6AC6D"/>
<path d="M174.423 289.676V282.778C174.423 280.498 176.271 278.653 178.549 278.653H147.83C145.552 278.653 143.704 280.498 143.704 282.778V289.676C143.704 300.071 152.129 308.496 162.524 308.496H193.243C182.848 308.496 174.423 300.071 174.423 289.676Z" fill="#CE8A4D"/>
<path d="M174.423 228.836C174.423 214.339 186.175 202.587 200.672 202.587H169.95C155.453 202.587 143.704 214.339 143.704 228.836C143.704 230.822 145.312 232.433 147.298 232.433H178.017C176.033 232.433 174.423 230.822 174.423 228.836Z" fill="#CE8A4D"/>
<path d="M240.873 232.433H147.496C146.967 233.677 146.636 235.044 146.556 236.513C145.998 246.836 157.713 252.98 165.862 246.956C166.848 246.225 168.207 246.225 169.195 246.956C173.467 250.115 179.291 250.118 183.569 246.956C184.554 246.225 185.913 246.225 186.901 246.956C191.091 250.054 197.113 250.177 201.468 246.956C202.453 246.225 203.812 246.225 204.8 246.956C209.073 250.115 214.897 250.118 219.175 246.956C220.16 246.225 221.522 246.225 222.507 246.956C230.654 252.98 242.371 246.839 241.813 236.513C241.733 235.044 241.402 233.677 240.873 232.433Z" fill="#AFBC31"/>
<path d="M175.865 236.515C175.945 235.044 176.276 233.677 176.805 232.433H147.496C146.967 233.677 146.636 235.044 146.556 236.515C145.998 246.836 157.713 252.98 165.862 246.956C166.848 246.227 168.207 246.227 169.195 246.956C173.024 249.787 178.098 250.075 182.188 247.829C178.346 245.744 175.587 241.645 175.865 236.515Z" fill="#9FA519"/>
<path d="M154.922 278.653L171.846 295.577C174.722 298.453 179.43 298.453 182.306 295.577L199.23 278.653H154.922Z" fill="#FAD964"/>
<path d="M176.207 297.678C175.064 295.248 174.423 292.538 174.423 289.676V282.778C174.423 280.498 176.271 278.653 178.549 278.653H154.922L171.846 295.577C173.064 296.795 174.61 297.491 176.207 297.678Z" fill="#FAB941"/>
</g>
<defs>
<clipPath id="clip0">
<rect width="350" height="350" fill="white"/>
</clipPath>
</defs>
</svg>
