<svg width="350" height="350" viewBox="0 0 350 350" fill="none" xmlns="http://www.w3.org/2000/svg">
<g clip-path="url(#clip0)">
<path d="M337.183 187.903C337.183 277.427 264.61 350 175.085 350C85.5614 350 12.9883 277.427 12.9883 187.903C12.9883 98.3787 85.5614 25.803 175.085 25.803C264.61 25.803 337.183 98.3787 337.183 187.903Z" fill="#C7D6E5"/>
<path d="M249.226 21.9898C204.125 -7.31125 146.108 -7.34863 100.948 21.9898C37.8942 62.9547 19.9899 147.274 60.9522 210.328L150.492 348.144C166.738 350.617 183.425 350.619 199.682 348.144L289.219 210.328C330.184 147.274 312.277 62.9547 249.226 21.9898Z" fill="#F37067"/>
<path d="M244.161 188.672L121.923 66.4341C100.964 70.7866 82.9312 51.1547 89.0702 30.6469C35.7953 73.9883 22.6922 151.435 60.9521 210.328L150.492 348.144C166.738 350.617 183.425 350.619 199.682 348.144L287.945 212.288C269.435 224.48 244.161 211.359 244.161 188.672Z" fill="#D55951"/>
<path d="M175.086 245.215C114.595 245.215 65.3821 196.002 65.3821 135.509C65.3821 75.0164 114.595 25.803 175.086 25.803C235.578 25.803 284.792 75.0164 284.792 135.509C284.792 196.002 235.578 245.215 175.086 245.215Z" fill="white"/>
<path d="M254.82 210.777C248.326 205.599 244.161 197.625 244.161 188.672L121.923 66.4341C112.868 68.314 103.346 65.7051 96.4856 59.0614C77.2488 78.8322 65.3794 105.81 65.3794 135.509C65.3794 196.002 114.595 245.215 175.086 245.215C206.467 245.215 234.807 231.968 254.82 210.777Z" fill="#C7D6E5"/>
<path d="M262.289 135.509C262.289 183.67 223.247 222.713 175.085 222.713C126.924 222.713 87.8818 183.67 87.8818 135.509C87.8818 87.3478 126.924 48.3055 175.085 48.3055C223.247 48.3055 262.289 87.3478 262.289 135.509Z" fill="#FAB941"/>
<path d="M206.827 161.491C206.816 161.491 206.808 161.491 206.8 161.491C203.965 161.475 201.676 159.165 201.69 156.327L201.85 123.773C201.863 120.945 204.16 118.662 206.985 118.662H207.011C209.847 118.676 212.136 120.988 212.122 123.824L211.962 156.377C211.949 159.208 209.652 161.491 206.827 161.491Z" fill="#C7D6E5"/>
<path d="M147.806 161.491C147.798 161.491 147.79 161.491 147.784 161.491C144.946 161.478 142.655 159.17 142.668 156.332L142.828 115.971C142.839 113.14 145.135 110.854 147.963 110.854H147.985C150.82 110.865 153.112 113.175 153.101 116.011L152.941 156.375C152.93 159.203 150.631 161.491 147.806 161.491Z" fill="#C7D6E5"/>
<path d="M201.85 135.349C201.863 132.521 204.159 130.238 206.985 130.238H207.011C209.601 130.251 211.727 132.182 212.069 134.676L212.122 123.824C212.138 120.988 209.847 118.676 207.011 118.662C207.003 118.662 206.995 118.662 206.985 118.662C204.159 118.662 201.863 120.945 201.85 123.773L201.689 156.329C201.687 156.575 201.711 156.815 201.743 157.053L201.85 135.349Z" fill="#AEBFCE"/>
<path d="M213.19 194.456C159.873 194.456 116.649 151.232 116.649 97.9114C116.649 86.8725 118.507 76.2687 121.917 66.3887C101.22 82.333 87.8818 107.362 87.8818 135.509C87.8818 183.67 126.924 222.713 175.085 222.713C202.814 222.713 227.517 209.77 243.488 189.598C233.96 192.747 223.775 194.456 213.19 194.456Z" fill="#F6A221"/>
<path d="M206.747 138.545C202.921 138.545 199.818 141.648 199.818 145.475V188.827C199.818 192.653 202.921 195.756 206.747 195.756C210.574 195.756 213.676 192.653 213.676 188.827V145.475C213.676 141.648 210.574 138.545 206.747 138.545Z" fill="#F5585C"/>
<path d="M147.886 138.545C144.057 138.545 140.957 141.648 140.957 145.475V188.827C140.957 192.653 144.057 195.756 147.886 195.756C151.712 195.756 154.815 192.653 154.815 188.827V145.475C154.815 141.648 151.712 138.545 147.886 138.545Z" fill="#F5585C"/>
<path d="M206.747 175.873C202.921 175.873 199.818 172.773 199.818 168.944V188.827C199.818 192.653 202.921 195.756 206.747 195.756C210.574 195.756 213.676 192.653 213.676 188.827V168.944C213.676 172.773 210.574 175.873 206.747 175.873Z" fill="#D13044"/>
<path d="M147.886 175.873C144.057 175.873 140.957 172.773 140.957 168.944V188.827C140.957 192.653 144.057 195.756 147.886 195.756C151.712 195.756 154.815 192.653 154.815 188.827V168.944C154.815 172.773 151.712 175.873 147.886 175.873Z" fill="#D13044"/>
<path d="M147.985 110.854C147.977 110.854 147.971 110.854 147.963 110.854C145.136 110.854 142.839 113.14 142.828 115.971L142.762 132.772C143.144 130.307 145.4 128.422 147.966 128.422H147.985C150.546 128.433 152.658 130.318 153.034 132.772L153.101 116.011C153.112 113.175 150.821 110.865 147.985 110.854Z" fill="#AEBFCE"/>
<path d="M164.695 76.9283C161.859 76.9283 159.56 79.2274 159.56 82.0659V110.248C159.56 110.582 159.285 110.854 158.952 110.854H152.941V82.0659C152.941 79.2274 150.642 76.9283 147.806 76.9283C144.967 76.9283 142.668 79.2274 142.668 82.0659V110.854H136.657C136.321 110.854 136.048 110.582 136.048 110.248V82.0659C136.048 79.2274 133.749 76.9283 130.914 76.9283C128.075 76.9283 125.776 79.2274 125.776 82.0659V110.248C125.776 116.248 130.657 121.127 136.657 121.127H158.952C164.952 121.127 169.833 116.248 169.833 110.248V82.0659C169.833 79.2274 167.534 76.9283 164.695 76.9283Z" fill="#E2E9F2"/>
<path d="M222.673 106.125C222.617 117.65 215.594 123.843 206.985 123.8C198.378 123.757 191.446 117.498 191.505 105.973C191.561 94.4481 198.584 82.0232 207.19 82.0659C215.799 82.1087 222.731 94.6003 222.673 106.125Z" fill="#E2E9F2"/>
<path d="M203.147 100.835C203.182 94.0822 205.609 87.0247 209.343 82.3436C208.638 82.1701 207.922 82.0686 207.19 82.0659C198.584 82.0232 191.561 94.4481 191.505 105.973C191.446 117.498 198.378 123.757 206.987 123.8C211.586 123.821 215.733 122.062 218.606 118.662C210.01 118.609 203.091 112.35 203.147 100.835Z" fill="#C7D6E5"/>
</g>
<defs>
<clipPath id="clip0">
<rect width="350" height="350" fill="white"/>
</clipPath>
</defs>
</svg>
