<svg width="9" height="16" viewBox="0 0 9 16" fill="none" xmlns="http://www.w3.org/2000/svg">
<path d="M0.44106 7.09961C0.902568 6.60389 1.65082 6.60389 2.11233 7.09961L8.38114 13.8331C8.84265 14.3288 8.84265 15.1325 8.38114 15.6282C7.91963 16.1239 7.17138 16.1239 6.70987 15.6282L0.441059 8.89475C-0.0204493 8.39904 -0.0204486 7.59532 0.44106 7.09961Z" fill="#D55951"/>
<path d="M0.346131 8.90039C-0.115377 8.40468 -0.115377 7.60096 0.346131 7.10525L6.61494 0.371787C7.07645 -0.123929 7.8247 -0.123929 8.28621 0.371787C8.74772 0.867503 8.74772 1.67122 8.28621 2.16693L2.0174 8.90039C1.55589 9.39611 0.80764 9.39611 0.346131 8.90039Z" fill="#D55951"/>
</svg>
