<svg width="51" height="51" viewBox="0 0 51 51" fill="none" xmlns="http://www.w3.org/2000/svg">
<path d="M37.7359 43.7009C38.0787 43.4827 38.4173 43.2546 38.7514 43.0128C38.9658 42.8598 39.1728 42.7028 39.374 42.5482L39.3758 42.5468C39.7214 42.2793 40.0676 41.9997 40.405 41.7031C40.4637 41.6525 40.5261 41.5952 40.5785 41.547C40.6003 41.527 40.6204 41.5085 40.6377 41.4928L40.8474 41.303L40.8436 41.0203C40.7601 34.6707 36.6812 29.0643 30.6659 27.0307L30.4255 26.9494L30.1964 27.0584C27.4845 28.3485 24.336 28.3485 21.6242 27.0584L21.395 26.9494L21.1546 27.0307C15.1392 29.0643 11.0603 34.6708 10.9769 41.0203L10.9731 41.3072L11.1879 41.4973C11.1911 41.5002 11.1985 41.5072 11.2092 41.5172C11.2531 41.5584 11.3519 41.6512 11.4319 41.7144C11.764 42.0039 12.1052 42.2814 12.4484 42.5469L12.4502 42.5483C12.651 42.7025 12.858 42.8597 13.0726 43.0127C13.4067 43.2545 13.7454 43.4827 14.088 43.7008C14.3385 43.861 14.593 44.0148 14.8465 44.1633C15.1742 44.3624 15.5055 44.5455 15.8373 44.7178L15.8401 44.7192C16.1367 44.8713 16.4225 45.0077 16.7355 45.1515L16.7381 45.1526C17.0429 45.2926 17.3612 45.4387 17.7005 45.5726L17.7007 45.5727C18.036 45.7049 18.3779 45.8249 18.7093 45.9396L18.7107 45.9401C18.7595 45.9568 18.809 45.9739 18.8592 45.9912C19.1105 46.078 19.3772 46.1702 19.6454 46.2501L19.6495 46.2513C20.0284 46.3615 20.4103 46.4541 20.779 46.5431L20.7828 46.544C20.8607 46.5623 20.9437 46.5827 21.03 46.6038C21.235 46.6541 21.4584 46.7089 21.6752 46.7512L21.6758 46.7513C22.0944 46.8325 22.5193 46.8901 22.9255 46.9452L23.002 46.9556L23.0054 46.956C23.0747 46.965 23.1589 46.9776 23.2498 46.9912C23.4147 47.0158 23.602 47.0437 23.764 47.0601L23.7666 47.0603C24.47 47.1281 25.186 47.1687 25.912 47.1687C26.6382 47.1687 27.3541 47.128 28.0573 47.0603L28.0601 47.0601C28.2223 47.0437 28.4097 47.0157 28.5747 46.9911C28.6655 46.9776 28.7494 46.965 28.8187 46.956L28.822 46.9556L28.8985 46.9452C29.3048 46.8901 29.7297 46.8325 30.1483 46.7513L30.1491 46.7511C30.3643 46.7091 30.5866 46.6546 30.7906 46.6046C30.8781 46.5832 30.9622 46.5626 31.041 46.5441L31.0452 46.5431C31.0835 46.5338 31.1221 46.5245 31.161 46.5152C31.4905 46.4358 31.8409 46.3514 32.1786 46.2501M37.7359 43.7009C37.484 43.862 37.2282 44.0165 36.9733 44.1658L36.9662 44.17L36.9662 44.1699C36.6487 44.3504 36.3263 44.5304 36.001 44.7101L35.9924 44.7149L35.9837 44.7194C35.6864 44.8717 35.3859 45.0136 35.0906 45.1505C34.7928 45.2886 34.4579 45.4385 34.1269 45.5713C33.7961 45.704 33.4485 45.8278 33.1114 45.9408C33.0629 45.9574 33.0138 45.9744 32.964 45.9915C32.713 46.0782 32.4466 46.1703 32.1786 46.2501M37.7359 43.7009C37.7361 43.7007 37.7363 43.7006 37.7365 43.7005L37.399 43.1731L37.7352 43.7013C37.7354 43.7012 37.7356 43.701 37.7359 43.7009ZM32.1786 46.2501L31.9998 45.6501M32.1786 46.2501C32.179 46.25 32.1793 46.2499 32.1797 46.2498L31.9998 45.6501M31.9998 45.6501C32.2537 45.5744 32.5051 45.4876 32.756 45.4009C32.8074 45.3832 32.8587 45.3655 32.9101 45.3478M31.9998 45.6501L32.9101 45.3478M32.9101 45.3478C33.241 45.237 33.5772 45.1172 33.8937 44.9902C34.2103 44.8632 34.5341 44.7183 34.8273 44.5824C35.1205 44.4465 35.412 44.3087 35.6982 44.1621C36.0219 43.9832 36.342 43.8044 36.6568 43.6256L32.9101 45.3478ZM47.9973 25.0757C47.9996 20.4922 46.5754 16.0216 43.9222 12.2842L43.4116 12.6467L43.9222 12.2842C36.8642 2.34202 23.0831 0.00419089 13.1414 7.06251C3.1996 14.1208 0.861901 27.9024 7.9199 37.8446L8.7442 39.0057L9.0427 37.6134C10.1504 32.4467 13.5525 28.0666 18.2843 25.7149L19.03 25.3443L18.4668 24.7308C14.9191 20.866 14.9191 14.9289 18.4669 11.064C22.2407 6.95296 28.6325 6.67963 32.7433 10.4536C36.8542 14.2276 37.1276 20.6197 33.3538 24.7308L32.7906 25.3443L33.5364 25.7149C38.2681 28.0665 41.6702 32.4467 42.7779 37.6134L43.0749 38.9989L43.8994 37.8465C46.5644 34.1213 47.9973 29.6559 47.9973 25.0757ZM47.9973 25.0757L47.3712 25.0754H47.9973C47.9973 25.0755 47.9973 25.0756 47.9973 25.0757ZM9.01999 42.6589L9.02006 42.6588L9.01203 42.6511C4.20432 38.0448 1.48937 31.6727 1.49775 25.0142C1.51471 11.5483 12.4443 0.645911 25.9095 0.662874L25.9114 0.66287C32.5744 0.65061 38.9521 3.36597 43.5615 8.17746C52.8767 17.9011 52.546 33.3355 42.8225 42.6511L42.8169 42.6566L42.8113 42.6621C42.7891 42.6845 42.7708 42.7061 42.756 42.7251C42.7517 42.7307 42.7476 42.7362 42.7438 42.7414C42.6996 42.7817 42.6512 42.8229 42.595 42.8702C42.5864 42.8774 42.5776 42.8848 42.5686 42.8924C42.5028 42.9475 42.4253 43.0126 42.3501 43.0813L42.3478 43.0835C41.9489 43.4523 41.5592 43.8018 41.1525 44.1279L41.1522 44.1281C41.0217 44.2329 40.9141 44.3112 40.796 44.3972C40.7003 44.4669 40.5976 44.5416 40.4703 44.6395C40.0688 44.939 39.684 45.2256 39.2847 45.4883L39.2846 45.4882L39.2748 45.495C39.0963 45.6173 38.9252 45.7191 38.7354 45.832C38.6408 45.8882 38.5416 45.9471 38.4346 46.0128C38.4004 46.0334 38.3664 46.0539 38.3325 46.0743C37.9793 46.287 37.6427 46.4897 37.2955 46.675C37.0596 46.7997 36.825 46.9092 36.5742 47.0262C36.4838 47.0684 36.3914 47.1116 36.296 47.1568C36.212 47.1964 36.1297 47.2355 36.0488 47.274C35.755 47.4138 35.4781 47.5455 35.1942 47.6628C34.9016 47.7837 34.5894 47.8929 34.2804 48.0009C34.2081 48.0262 34.1359 48.0514 34.0642 48.0767C33.9477 48.1179 33.8365 48.1582 33.7281 48.1975C33.4763 48.2888 33.2404 48.3743 32.991 48.4507C32.6736 48.5461 32.3527 48.6238 32.0132 48.706C31.9252 48.7273 31.8359 48.7489 31.745 48.7712C31.5837 48.8077 31.4223 48.8492 31.2714 48.888C31.2462 48.8945 31.2213 48.9009 31.1967 48.9072C31.0187 48.9528 30.8541 48.9938 30.6932 49.026C30.2839 49.1076 29.8697 49.1633 29.4317 49.2222C29.3671 49.2309 29.302 49.2397 29.2362 49.2486L29.2344 49.2489C29.0879 49.2692 28.9633 49.2895 28.8472 49.3085C28.6729 49.3369 28.5176 49.3623 28.3354 49.38L28.3347 49.3801C27.534 49.4587 26.7282 49.5023 25.9173 49.5023C25.1063 49.5023 24.3007 49.4587 23.4998 49.3801L23.4991 49.38C23.3171 49.3623 23.1619 49.337 22.9877 49.3085C22.8715 49.2896 22.7469 49.2692 22.6001 49.2489L22.5983 49.2486C22.5325 49.2397 22.4672 49.2309 22.4025 49.2222C21.9646 49.1633 21.5504 49.1076 21.1413 49.026L21.1383 49.0254C20.9029 48.9797 20.6886 48.9243 20.4544 48.8638C20.341 48.8344 20.2228 48.8039 20.0954 48.7727C20.002 48.7497 19.9103 48.7275 19.8199 48.7057C19.4809 48.6236 19.1605 48.546 18.8436 48.4507C18.5762 48.3688 18.3337 48.2807 18.0568 48.1802C17.9665 48.1474 17.8725 48.1133 17.7728 48.0776C17.6594 48.037 17.5505 47.9991 17.4447 47.9621C17.1653 47.8646 16.9072 47.7745 16.6431 47.6639C16.3081 47.5237 15.9837 47.369 15.6404 47.2053C15.6072 47.1895 15.5738 47.1736 15.5403 47.1576L15.5392 47.1571C15.4434 47.1117 15.3507 47.0684 15.26 47.0261C15.0091 46.909 14.7743 46.7995 14.5382 46.6745C14.1877 46.4875 13.8478 46.2826 13.4912 46.0678C13.4609 46.0495 13.4305 46.0312 13.4 46.0128C13.3461 45.9797 13.2923 45.9468 13.2387 45.9139C13.0032 45.7695 12.7712 45.6273 12.5447 45.4849C12.146 45.2221 11.7615 44.9357 11.3603 44.6366L11.3541 44.6319L11.3477 44.6274C11.1275 44.4716 10.9016 44.3007 10.6818 44.1276C10.3657 43.87 10.0643 43.6001 9.75334 43.3215C9.66351 43.2411 9.57287 43.1599 9.48083 43.0781C9.40688 43.0106 9.33079 42.9468 9.26608 42.8925C9.25699 42.8849 9.24813 42.8774 9.23952 42.8702C9.18343 42.823 9.1351 42.7818 9.09101 42.7416C9.08661 42.7356 9.08186 42.7293 9.07677 42.7228C9.06156 42.7034 9.04278 42.6815 9.01999 42.6589ZM29.4156 24.7447H29.4262C29.4162 24.7449 29.412 24.7447 29.4156 24.7447ZM29.5643 24.7447H29.5795L29.7225 24.6643C30.9652 23.9655 31.992 22.9386 32.6907 21.6959C34.7966 17.9506 33.4677 13.2072 29.7225 11.1012C25.9772 8.99526 21.234 10.3242 19.1281 14.0696C17.0223 17.815 18.3512 22.5583 22.0964 24.6643L22.1488 24.6938L22.1833 24.7053C22.6813 24.9778 23.2062 25.1977 23.7496 25.3618L23.7576 25.3642L23.7657 25.3664C23.7935 25.374 23.8199 25.383 23.8707 25.4001C23.9151 25.415 23.981 25.4371 24.0554 25.4556C24.241 25.5028 24.4318 25.5368 24.5899 25.565C24.6097 25.5685 24.629 25.572 24.6477 25.5753L24.6506 25.5759C25.0276 25.6418 25.4088 25.68 25.7911 25.6905L25.7997 25.6907H25.8083H26.0122H26.0208L26.0294 25.6905C26.4117 25.68 26.7929 25.6418 27.1699 25.5759L27.1976 25.571C27.3677 25.5414 27.5686 25.5063 27.7643 25.4558C27.8392 25.4377 27.9047 25.4163 27.9522 25.4004C28.0082 25.3816 28.0338 25.3726 28.0637 25.364L28.0637 25.364L28.071 25.3618C28.5881 25.2057 29.0882 24.9989 29.5643 24.7447Z" fill="white" stroke="#C4C4C4" stroke-width="1.25229"/>
</svg>
