<svg width="80" height="80" viewBox="0 0 80 80" fill="none" xmlns="http://www.w3.org/2000/svg">
<g clip-path="url(#clip0)">
<path d="M40.5132 29.6898C36.0064 29.6898 32.3528 33.3433 32.3528 37.8503C32.3528 42.3571 36.0062 46.0108 40.5132 46.0108C45.02 46.0108 48.6737 42.3573 48.6737 37.8503C48.6737 33.3433 45.0202 29.6898 40.5132 29.6898ZM40.5132 42.1247C38.1524 42.1247 36.2387 40.2109 36.2387 37.8501C36.2387 35.4893 38.1524 33.5756 40.5132 33.5756C42.874 33.5756 44.7878 35.4893 44.7878 37.8501C44.7878 40.2109 42.874 42.1247 40.5132 42.1247Z" fill="#FCF9F9"/>
<path d="M73.0579 11.0374L20.0152 5.01434C17.9566 4.72166 15.8708 5.32264 14.2836 6.66592C12.6965 7.89652 11.6792 9.72066 11.4663 11.7175L10.4949 19.6837H7.48309C3.20854 19.6837 0.00262537 23.4724 0.00262537 27.7469V67.4803C-0.105038 71.5564 3.11203 74.9483 7.18837 75.0559C7.28655 75.0585 7.38491 75.0591 7.48309 75.0578H60.8172C65.0917 75.0578 68.9777 71.7548 68.9777 67.4803V65.9259C70.3029 65.6699 71.5601 65.1405 72.6693 64.3716C74.2433 63.0464 75.2512 61.1696 75.4866 59.1257L79.9554 19.6837C80.411 15.3993 77.3364 11.5452 73.0579 11.0374ZM65.0918 67.4803C65.0918 69.6175 62.9545 71.1719 60.8172 71.1719H7.48309C5.5524 71.2286 3.94136 69.7094 3.88464 67.7787C3.88167 67.6792 3.88297 67.5798 3.88855 67.4803V60.2914L18.9465 49.2166C20.7554 47.8277 23.3033 47.9512 24.9697 49.5079L35.5589 58.8341C37.167 60.1843 39.1912 60.939 41.2907 60.9714C42.9322 60.9915 44.5468 60.5543 45.9539 59.7084L65.0919 48.6336V67.4803H65.0918ZM65.0918 44.0677L43.9135 56.4055C42.0949 57.4828 39.7931 57.2878 38.1817 55.9198L27.4955 46.4963C24.4327 43.8646 19.9562 43.7032 16.712 46.1077L3.88855 55.4339V27.7469C3.88855 25.6096 5.34582 23.5696 7.48309 23.5696H60.8172C63.1006 23.6643 64.9447 25.4665 65.0918 27.7469V44.0677V44.0677ZM76.0732 19.1591C76.0719 19.172 76.0708 19.185 76.0693 19.1978L71.5034 58.6398C71.5112 59.6625 71.0448 60.6311 70.2404 61.2628C69.8518 61.6514 68.9775 61.8457 68.9775 62.04V27.7469C68.8241 23.3212 65.2442 19.7839 60.817 19.6837H14.3806L15.2549 12.1062C15.4446 11.1249 15.9576 10.2357 16.7122 9.58027C17.5642 8.99119 18.5944 8.71655 19.6267 8.80301L72.5724 14.9233C74.7086 15.1261 76.2761 17.0226 76.0732 19.1591Z" fill="#FCF9F9"/>
</g>
<defs>
<clipPath id="clip0">
<rect width="80" height="80" fill="white"/>
</clipPath>
</defs>
</svg>
