<svg width="80" height="80" viewBox="0 0 80 80" fill="none" xmlns="http://www.w3.org/2000/svg">
<g clip-path="url(#clip0)">
<path d="M77.3384 18.327C75.7414 16.654 73.5361 15.6654 71.0266 15.6654H58.403V15.5133C58.403 13.6121 57.6426 11.7871 56.3498 10.5703C55.057 9.27755 53.308 8.51709 51.4068 8.51709H28.5932C26.616 8.51709 24.8669 9.27755 23.5741 10.5703C22.2814 11.8631 21.5209 13.6121 21.5209 15.5133V15.6654H8.97338C6.46388 15.6654 4.25856 16.654 2.6616 18.327C1.06464 19.9239 0 22.2053 0 24.6388V62.5095C0 65.019 0.988593 67.2243 2.6616 68.8213C4.25856 70.4182 6.53992 71.4829 8.97338 71.4829H71.0266C73.5361 71.4829 75.7414 70.4943 77.3384 68.8213C78.9354 67.2243 80 64.9429 80 62.5095V24.6388C80 22.1293 79.0114 19.9239 77.3384 18.327ZM76.0456 62.5095H75.9696C75.9696 63.8783 75.4373 65.095 74.5247 66.0076C73.6122 66.9201 72.3954 67.4525 71.0266 67.4525H8.97338C7.60456 67.4525 6.38783 66.9201 5.47529 66.0076C4.56274 65.095 4.03042 63.8783 4.03042 62.5095V24.6388C4.03042 23.2699 4.56274 22.0532 5.47529 21.1407C6.38783 20.2281 7.60456 19.6958 8.97338 19.6958H23.6502C24.7909 19.6958 25.7034 18.7833 25.7034 17.6426V15.4372C25.7034 14.6007 26.0076 13.8403 26.5399 13.308C27.0722 12.7756 27.8327 12.4715 28.6692 12.4715H51.4068C52.2433 12.4715 53.0038 12.7756 53.5361 13.308C54.0684 13.8403 54.3726 14.6007 54.3726 15.4372V17.6426C54.3726 18.7833 55.2852 19.6958 56.4259 19.6958H71.1027C72.4715 19.6958 73.6882 20.2281 74.6008 21.1407C75.5133 22.0532 76.0456 23.2699 76.0456 24.6388V62.5095Z" fill="#FFFDFD"/>
<path d="M40 24.8669C34.8289 24.8669 30.1141 26.9962 26.7681 30.3422C23.346 33.7643 21.2928 38.4031 21.2928 43.5742C21.2928 48.7453 23.4221 53.4601 26.7681 56.8061C30.1901 60.2282 34.8289 62.2814 40 62.2814C45.1711 62.2814 49.8859 60.1521 53.232 56.8061C56.654 53.3841 58.7072 48.7453 58.7072 43.5742C58.7072 38.4031 56.578 33.6882 53.232 30.3422C49.8859 26.9962 45.1711 24.8669 40 24.8669ZM50.3422 53.9924C47.6806 56.578 44.0304 58.251 40 58.251C35.9696 58.251 32.3194 56.578 29.6578 53.9924C26.9962 51.3308 25.3993 47.6806 25.3993 43.6502C25.3993 39.6198 27.0723 35.9696 29.6578 33.308C32.3194 30.6464 35.9696 29.0495 40 29.0495C44.0304 29.0495 47.6806 30.7225 50.3422 33.308C53.0038 35.9696 54.6008 39.6198 54.6008 43.6502C54.6768 47.6806 53.0038 51.3308 50.3422 53.9924Z" fill="#FFFDFD"/>
<path d="M67.0722 32.2434C69.1302 32.2434 70.7985 30.5751 70.7985 28.5171C70.7985 26.4592 69.1302 24.7909 67.0722 24.7909C65.0143 24.7909 63.346 26.4592 63.346 28.5171C63.346 30.5751 65.0143 32.2434 67.0722 32.2434Z" fill="#FFFDFD"/>
</g>
<defs>
<clipPath id="clip0">
<rect width="80" height="80" fill="white"/>
</clipPath>
</defs>
</svg>
